<svg width="468" height="408" viewBox="0 0 468 408" fill="none" xmlns="http://www.w3.org/2000/svg">
<g filter="url(#filter0_d_914_9976)">
<path d="M437.199 201.684H315.413V-0.0010376H437.199V201.684Z" fill="#DADBD8"/>
<path d="M433.149 201.684H311.362V-0.0010376H433.149V201.684Z" fill="#E7E8E5"/>
<path d="M427.963 197.593H316.548V4.08879H427.963V197.593Z" fill="#484848"/>
<path d="M406.27 172.449H337.759V29.2329H406.27V172.449Z" fill="#E7E8E5"/>
<path d="M337.759 121.769C337.601 108.391 349.624 95.3305 362.866 93.4633C369.181 92.5721 375.889 93.8264 381.789 91.4056C392.321 87.0859 395.672 73.0867 406.27 68.9349L406.753 172.449H337.759V121.769Z" fill="#DADBD8"/>
<path d="M165.7 144.111H157.894V32.1146H165.7V144.111Z" fill="#DADBD8"/>
<path d="M161.979 144.111H50.0342V32.1146H161.979V144.111Z" fill="#F3F2F1"/>
<path d="M158.877 141.008H53.1372V35.2184H158.877V141.008Z" fill="#484848"/>
<path d="M161.979 32.1147C161.979 32.1147 161.919 32.1917 161.789 32.3288C161.648 32.4769 161.454 32.6782 161.205 32.9368C160.673 33.4786 159.908 34.2592 158.922 35.2639L158.905 35.2826H158.877C150.301 35.3428 129.856 35.3853 106.009 35.3853C82.1558 35.3853 61.7128 35.3428 53.1369 35.2826H53.1099L53.0914 35.2639C52.1061 34.2592 51.3404 33.4786 50.8094 32.9368C50.5605 32.6782 50.3663 32.4769 50.225 32.3288C50.095 32.1917 50.0342 32.1147 50.0342 32.1147C50.0342 32.1147 50.1108 32.1759 50.2488 32.3061C50.396 32.4473 50.5971 32.6407 50.8561 32.8904C51.3974 33.4213 52.1777 34.1882 53.1819 35.1731L53.1369 35.1553C61.7128 35.0941 82.1558 35.0517 106.009 35.0517C129.856 35.0517 150.301 35.0941 158.877 35.1553L158.832 35.1731C159.836 34.1882 160.616 33.4213 161.158 32.8904C161.417 32.6407 161.618 32.4473 161.765 32.3061C161.902 32.1759 161.979 32.1147 161.979 32.1147Z" fill="#DADBD8"/>
<path d="M50.0342 144.111C50.0342 144.111 50.095 144.035 50.225 143.897C50.3663 143.75 50.5605 143.548 50.8094 143.29C51.3404 142.748 52.1061 141.967 53.0914 140.963L53.1099 140.944H53.1369C61.7132 140.884 82.1576 140.84 106.004 140.84C129.859 140.84 150.301 140.884 158.877 140.944H158.905L158.922 140.963C159.908 141.967 160.673 142.748 161.205 143.29C161.454 143.548 161.648 143.75 161.789 143.897C161.919 144.035 161.979 144.111 161.979 144.111C161.979 144.111 161.902 144.051 161.765 143.92C161.618 143.779 161.417 143.585 161.158 143.336C160.616 142.805 159.836 142.038 158.832 141.053L158.877 141.071C150.301 141.132 129.859 141.175 106.004 141.175C82.1576 141.175 61.7132 141.132 53.1369 141.071L53.1819 141.053C52.1777 142.038 51.3974 142.805 50.8561 143.336C50.5971 143.585 50.396 143.779 50.2488 143.92C50.1108 144.051 50.0342 144.111 50.0342 144.111Z" fill="#DADBD8"/>
<path d="M128.051 106.938H89.1816V68.0507H128.051V106.938Z" fill="#DADBD8"/>
<path d="M237.69 353.94C237.69 353.94 230.954 307.609 231.515 280.651C232.076 253.694 231.481 223.368 231.481 223.368H234.586C234.586 223.368 232.484 276.875 234.771 309.146C237.058 341.392 243.081 353.94 243.081 353.94H237.69Z" fill="#DADBD8"/>
<path d="M257.755 171.236C257.13 169.654 256.363 168.005 254.926 167.094C252.957 165.845 250.376 166.365 248.178 167.142C238.799 170.46 230.485 187.955 226.694 197.157L239.145 239.13C261.619 218.271 265.512 190.906 257.755 171.236Z" fill="#E7E8E5"/>
<path d="M254.2 168.792C254.216 168.799 254.153 168.988 254.019 169.34C253.859 169.742 253.657 170.248 253.41 170.869C252.863 172.189 252.098 174.111 251.182 176.495C249.347 181.261 247.012 187.925 244.924 195.432C242.845 202.944 241.412 209.859 240.529 214.889C240.085 217.405 239.751 219.446 239.539 220.859C239.431 221.518 239.343 222.056 239.273 222.484C239.207 222.854 239.163 223.048 239.146 223.046C239.129 223.043 239.138 222.846 239.17 222.47C239.216 222.039 239.272 221.498 239.341 220.832C239.493 219.408 239.772 217.357 240.171 214.829C240.964 209.774 242.345 202.828 244.43 195.295C246.524 187.767 248.92 181.103 250.845 176.362C251.806 173.99 252.623 172.088 253.226 170.79C253.51 170.184 253.741 169.69 253.924 169.298C254.089 168.959 254.184 168.785 254.2 168.792Z" fill="#DADBD8"/>
<path d="M233.611 249.194C221.941 242.742 215.062 230.605 214.421 217.281C213.972 207.965 216.833 198.825 220.073 190.083C220.355 189.324 220.688 188.506 221.392 188.108C222.371 187.553 223.596 188.047 224.574 188.604C233.054 193.435 238.193 202.647 240.927 212.019C242.746 218.256 243.688 224.832 242.847 231.274C242.005 237.716 238.325 244.724 233.611 249.194Z" fill="#DADBD8"/>
<path d="M233.611 249.194C233.594 249.194 233.579 248.999 233.566 248.631C233.558 248.206 233.547 247.673 233.535 247.021C233.531 245.622 233.475 243.599 233.361 241.103C233.136 236.111 232.482 229.23 231.193 221.713C229.899 214.194 228.328 207.463 227.171 202.596C226.6 200.216 226.132 198.265 225.789 196.835C225.644 196.198 225.524 195.678 225.43 195.264C225.353 194.904 225.321 194.711 225.338 194.707C225.356 194.702 225.421 194.886 225.53 195.237C225.649 195.646 225.799 196.158 225.982 196.785C226.366 198.131 226.896 200.086 227.523 202.51C228.771 207.356 230.401 214.088 231.699 221.627C232.991 229.165 233.59 236.08 233.723 241.088C233.791 243.593 233.793 245.621 233.734 247.022C233.708 247.675 233.686 248.208 233.669 248.633C233.649 249.001 233.63 249.195 233.611 249.194Z" fill="#E7E8E5"/>
<path d="M246.778 320.086C258.265 322.61 267.724 330.716 278.805 334.657C286.137 337.265 294.428 338.187 300.281 343.317C298.878 339.769 295.547 337.405 292.312 335.384C283.199 329.689 273.441 325.028 263.285 321.52C258.071 319.719 252.415 318.214 247.102 319.697" fill="#E7E8E5"/>
<path d="M230.172 330.324C215.786 330.092 200.641 317.839 186.322 317.107C201.305 312.268 222.761 316.221 230.172 330.324Z" fill="#E7E8E5"/>
<path d="M235.792 295.799C243.097 293.165 251.117 293.041 258.79 294.234C266.463 295.427 273.873 297.889 281.241 300.339C280.503 295.346 276.461 291.591 272.664 288.267C269.806 285.767 266.927 283.25 263.649 281.335C260.37 279.42 256.629 278.123 252.836 278.283C248.261 278.477 243.905 280.839 240.904 284.301C237.903 287.762 236.289 291.245 235.792 295.799Z" fill="#E7E8E5"/>
<path d="M206.269 279.909C197.213 272.175 183.498 272.931 171.593 273.199C189.892 281.953 209.61 293.953 225.369 306.726C225.854 298.307 217.708 289.679 206.269 279.909Z" fill="#E7E8E5"/>
<path d="M239.866 269.233C244.418 266.196 249.025 263.301 253.791 261.134C258.557 258.968 263.004 255.517 267.607 253.023C273.576 249.789 278.747 245.295 284.226 241.286C289.706 237.277 295.724 233.658 302.428 232.596C296.961 231.468 291.249 232.084 285.864 233.555C280.479 235.026 275.363 237.329 270.273 239.623C263.209 242.807 256.023 246.068 250.248 251.237C244.474 256.405 239.255 261.505 239.866 269.233Z" fill="#E7E8E5"/>
<path d="M278.542 330.324C278.533 330.339 278.376 330.27 278.086 330.126C277.747 329.951 277.333 329.736 276.831 329.476C275.748 328.9 274.193 328.045 272.235 327.06C271.265 326.548 270.191 326.013 269.025 325.466C267.871 324.893 266.618 324.327 265.289 323.752C262.634 322.617 259.667 321.433 256.432 320.664C253.207 319.873 249.992 319.699 247.204 320.432C245.798 320.773 244.473 321.108 243.294 321.6C242.111 322.08 241.057 322.641 240.139 323.221C238.295 324.382 237.008 325.612 236.172 326.499C235.339 327.392 234.933 327.938 234.897 327.911C234.882 327.901 234.972 327.755 235.154 327.487C235.335 327.217 235.626 326.837 236.023 326.365C236.821 325.429 238.089 324.138 239.941 322.916C240.865 322.305 241.931 321.714 243.132 321.206C244.332 320.685 245.686 320.326 247.095 319.972C249.945 319.192 253.285 319.358 256.55 320.165C259.836 320.946 262.817 322.153 265.479 323.319C266.809 323.909 268.062 324.491 269.211 325.083C270.374 325.649 271.441 326.205 272.402 326.738C274.345 327.767 275.876 328.671 276.929 329.302C277.412 329.595 277.811 329.838 278.138 330.036C278.412 330.21 278.551 330.308 278.542 330.324Z" fill="#DADBD8"/>
<path d="M219.442 323.192C219.454 323.159 219.774 323.254 220.343 323.455C220.915 323.649 221.719 323.994 222.686 324.474C224.622 325.431 227.169 327.06 229.559 329.351C231.944 331.649 233.673 334.13 234.705 336.027C235.224 336.975 235.601 337.765 235.817 338.33C236.041 338.89 236.15 339.205 236.117 339.219C236.034 339.255 235.497 338.037 234.392 336.209C233.292 334.381 231.548 331.981 229.204 329.721C226.853 327.469 224.387 325.823 222.517 324.795C220.648 323.764 219.409 323.275 219.442 323.192Z" fill="#DADBD8"/>
<path d="M187.614 279.187C187.62 279.17 187.831 279.233 188.227 279.368C188.673 279.526 189.245 279.731 189.953 279.983C190.721 280.267 191.631 280.602 192.677 280.988C193.737 281.382 194.889 281.964 196.193 282.538C201.372 284.891 208.264 288.85 214.92 294.476C218.203 297.335 221.171 300.24 223.653 303.08C226.126 305.925 228.22 308.601 229.852 310.937C231.495 313.264 232.74 315.204 233.594 316.545C233.997 317.178 234.324 317.69 234.577 318.089C234.8 318.443 234.911 318.634 234.897 318.644C234.882 318.654 234.744 318.483 234.492 318.148C234.241 317.812 233.877 317.312 233.427 316.655C232.521 315.347 231.232 313.442 229.557 311.149C227.893 308.848 225.779 306.207 223.3 303.395C220.811 300.587 217.85 297.708 214.588 294.868C207.973 289.276 201.157 285.294 196.038 282.867C194.75 282.274 193.613 281.671 192.566 281.252C191.536 280.837 190.639 280.475 189.883 280.17C189.189 279.881 188.628 279.648 188.192 279.466C187.808 279.299 187.608 279.204 187.614 279.187Z" fill="#DADBD8"/>
<path d="M257.377 287.711C257.368 287.744 256.959 287.69 256.23 287.563C255.834 287.49 255.396 287.408 254.909 287.318C254.395 287.219 253.794 287.216 253.141 287.148C250.555 286.961 246.785 287.175 243.255 289.1C241.473 290.002 239.979 291.219 238.757 292.44C237.516 293.651 236.574 294.913 235.864 296.017C234.421 298.227 233.975 299.824 233.887 299.793C233.859 299.786 233.94 299.38 234.179 298.671C234.444 297.974 234.851 296.964 235.557 295.826C236.238 294.677 237.168 293.367 238.42 292.107C239.652 290.84 241.18 289.576 243.015 288.646C246.657 286.661 250.556 286.501 253.173 286.787C253.834 286.879 254.441 286.908 254.956 287.036C255.442 287.158 255.879 287.268 256.274 287.367C256.995 287.556 257.387 287.676 257.377 287.711Z" fill="#DADBD8"/>
<path d="M271.834 242.838C271.842 242.854 271.654 242.969 271.29 243.174C270.876 243.399 270.344 243.688 269.686 244.046C268.29 244.798 266.281 245.907 263.841 247.346C261.413 248.804 258.552 250.594 255.507 252.771C252.473 254.952 249.213 257.489 246.203 260.57C244.72 262.12 243.351 263.739 242.398 265.499C241.455 267.309 240.555 269.059 239.727 270.739C238.063 274.096 236.709 277.186 235.73 279.842C234.754 282.498 234.147 284.71 233.786 286.251C233.418 287.791 233.285 288.66 233.234 288.651C233.217 288.649 233.236 288.43 233.292 288.015C233.344 287.6 233.432 286.988 233.59 286.208C233.892 284.647 234.451 282.407 235.389 279.719C236.329 277.032 237.657 273.91 239.302 270.531C240.121 268.84 241.014 267.082 241.952 265.267C242.941 263.426 244.331 261.785 245.834 260.213C248.88 257.095 252.168 254.557 255.234 252.385C258.308 250.219 261.199 248.455 263.658 247.033C266.129 245.63 268.167 244.567 269.593 243.869C270.271 243.546 270.818 243.284 271.244 243.081C271.623 242.906 271.826 242.822 271.834 242.838Z" fill="#DADBD8"/>
<path d="M231.497 286.414C231.463 286.419 231.363 285.986 231.212 285.201C231.044 284.313 230.833 283.199 230.583 281.876C230.035 279.074 229.197 275.215 227.863 271.076C226.54 266.93 224.93 263.324 223.755 260.723C223.196 259.495 222.727 258.464 222.352 257.642C222.024 256.911 221.859 256.5 221.891 256.484C221.923 256.468 222.149 256.849 222.531 257.553C222.913 258.256 223.45 259.282 224.082 260.567C225.345 263.133 227.018 266.74 228.351 270.918C229.696 275.09 230.482 278.985 230.94 281.811C231.166 283.226 231.328 284.374 231.409 285.17C231.499 285.967 231.533 286.409 231.497 286.414Z" fill="#DADBD8"/>
<path d="M230.457 253.672C230.097 248.234 228.325 242.951 225.779 238.134C218.797 224.927 205.675 215.137 191.03 212.209C201.754 228.199 212.477 244.189 223.2 260.179L227.355 268.741C230.189 264.088 230.818 259.108 230.457 253.672Z" fill="#E7E8E5"/>
<path d="M276.603 361.474H201.798V348.209H276.603V361.474Z" fill="#E7E8E5"/>
<path d="M207.385 358.842L213.754 400H263.416L271.017 358.842H207.385Z" fill="#E7E8E5"/>
<path d="M276.562 361.49C276.562 361.636 259.688 361.753 238.879 361.753C218.062 361.753 201.193 361.636 201.193 361.49C201.193 361.345 218.062 361.227 238.879 361.227C259.688 361.227 276.562 361.345 276.562 361.49Z" fill="#DADBD8"/>
<path d="M455.172 398.106C455.172 398.248 357.49 398.364 237.022 398.364C116.51 398.364 18.8491 398.248 18.8491 398.106C18.8491 397.965 116.51 397.85 237.022 397.85C357.49 397.85 455.172 397.965 455.172 398.106Z" fill="#17282F"/>
<path d="M461.686 297.627C457.95 289.696 454.611 285.205 453.613 276.438C452.375 265.578 453.629 257.473 451.023 242.872C448.856 230.723 439.039 217.611 434.508 206.184C424.855 181.833 440.285 137.617 403.794 113.801L352.294 160.244L319.537 140.251C313.767 171.622 315.747 186.212 317.778 205.898C318.315 211.092 322.019 215.788 321.151 220.958C319.946 228.128 312.389 233.598 312.151 240.835C311.943 247.174 317.349 252.053 320.653 257.471C325.115 264.789 325.852 273.674 325.94 282.231C326.029 290.79 313.706 320.681 316.172 328.854L460.991 330.684C463.172 323.362 466.143 307.089 461.686 297.627Z" fill="#17282F"/>
<path d="M428.984 379.247C430.318 374.902 433.023 244.364 428.649 239.274C424.275 234.183 390.326 229.265 390.326 229.265L357.717 231.387L329.853 235.782C322.65 253.516 296.685 307.316 299.48 326.24C302.275 345.164 315.59 376.015 314.551 380.935C313.812 384.431 305.364 398.106 305.364 398.106C305.364 398.106 353.234 398.568 436.994 398.106C436.994 398.106 427.651 383.592 428.984 379.247Z" fill="#676666"/>
<path d="M334.136 211.652C327.508 208.909 318.138 214.168 318.138 214.168C318.138 214.168 317.223 207.765 315.852 202.277C314.481 196.79 311.51 194.96 311.51 194.96C311.51 194.96 311.666 179.204 311.51 174.838C311.285 168.591 306.278 169.865 306.049 170.78C305.821 171.695 302.94 196.688 302.94 196.688L299.079 199.062C299.079 199.062 298.482 197.932 296.425 197.247C294.367 196.561 280.884 201.363 279.512 204.792C278.14 208.223 278.144 232.381 277.915 235.583C277.687 238.784 273.484 249.34 273.484 249.34L297.949 250.623C297.949 251.275 298.877 243.797 300.812 241.156C300.812 241.156 313.446 229.581 316.08 226.286C319.737 221.714 334.365 218.969 337.107 218.512C339.851 218.054 340.764 214.396 334.136 211.652Z" fill="#F9A78D"/>
<path d="M298.97 198.869C298.98 198.854 299.097 198.915 299.313 199.048C299.519 199.191 299.826 199.411 300.156 199.762C300.831 200.447 301.607 201.664 302.048 203.336C302.517 205.005 302.557 207.065 302.649 209.292C302.676 210.41 302.866 211.546 302.933 212.8C302.982 214.02 302.762 215.501 301.647 216.45C300.425 217.43 298.741 217.353 297.53 216.7C296.292 216.015 295.562 214.808 295.186 213.656C294.804 212.482 294.772 211.313 294.839 210.274C294.909 209.227 295.075 208.289 295.214 207.456L295.378 207.652C293.859 207.581 292.689 207.222 291.925 206.919C291.16 206.609 290.783 206.362 290.795 206.338C290.811 206.304 291.216 206.494 291.987 206.744C292.758 206.989 293.914 207.288 295.387 207.312L295.577 207.315L295.55 207.508C295.438 208.344 295.298 209.279 295.251 210.295C295.206 211.31 295.258 212.42 295.63 213.508C295.992 214.582 296.684 215.671 297.768 216.258C298.827 216.828 300.323 216.868 301.319 216.054C302.237 215.284 302.475 213.976 302.43 212.816C302.375 211.633 302.191 210.437 302.175 209.311C302.11 207.064 302.105 205.05 301.696 203.425C301.313 201.795 300.616 200.6 300.008 199.896C299.402 199.182 298.94 198.911 298.97 198.869Z" fill="#F57F62"/>
<path d="M300.145 218.112C300.19 218.116 300.116 218.73 300.12 219.832C300.129 220.38 300.166 221.056 300.363 221.8C300.555 222.543 300.936 223.357 301.659 223.986C302.347 224.613 303.418 225.071 304.46 224.73C305.5 224.395 306.314 223.382 306.716 222.192C307.127 220.994 307.313 219.609 307.608 218.217C307.879 216.817 308.152 215.368 308.389 213.878C308.867 210.899 309.139 208.033 309.088 205.428C309.055 204.128 309.011 202.881 308.734 201.78C308.47 200.677 307.92 199.74 307.152 199.172C305.587 198.02 303.864 198.026 302.796 198.001C301.693 198.007 301.078 198.043 301.075 198.001C301.074 197.984 301.225 197.955 301.515 197.917C301.805 197.88 302.235 197.831 302.792 197.801C303.348 197.775 304.037 197.761 304.832 197.883C305.62 198.008 306.532 198.271 307.37 198.882C308.224 199.48 308.854 200.515 309.147 201.673C309.456 202.837 309.514 204.101 309.562 205.417C309.639 208.06 309.378 210.961 308.897 213.959C308.658 215.459 308.38 216.913 308.101 218.314C307.797 219.709 307.613 221.07 307.161 222.354C306.717 223.619 305.811 224.762 304.586 225.136C303.341 225.517 302.142 224.951 301.414 224.255C300.643 223.551 300.256 222.65 300.084 221.871C299.905 221.082 299.899 220.386 299.919 219.829C299.944 219.269 300.001 218.84 300.046 218.551C300.092 218.26 300.129 218.11 300.145 218.112Z" fill="#F57F62"/>
<path d="M311.927 195.1C311.908 195.261 309.572 194.787 306.797 195.461C304.012 196.096 302.133 197.562 302.043 197.426C301.942 197.352 303.761 195.631 306.679 194.961C309.589 194.259 311.986 194.988 311.927 195.1Z" fill="#F57F62"/>
<path d="M318.265 212.881C318.299 212.873 318.403 213.174 318.549 213.731C318.689 214.287 318.891 215.103 318.938 216.151C318.983 217.181 318.812 218.522 317.947 219.683C317.522 220.253 316.897 220.76 316.128 220.986C315.362 221.218 314.509 221.164 313.732 220.892C312.134 220.352 311.104 218.982 310.572 217.723C310.018 216.441 309.828 215.201 309.693 214.186C309.589 213.265 309.498 212.464 309.42 211.776C309.355 211.208 309.315 210.893 309.352 210.886C309.434 210.864 309.737 212.113 310.052 214.131C310.231 215.132 310.456 216.328 311.004 217.529C311.537 218.717 312.48 219.928 313.9 220.406C314.594 220.649 315.335 220.694 315.986 220.504C316.638 220.318 317.181 219.896 317.572 219.395C318.365 218.371 318.573 217.145 318.574 216.156C318.576 215.153 318.433 214.335 318.353 213.77C318.268 213.205 318.23 212.888 318.265 212.881Z" fill="#F57F62"/>
<path d="M295.1 230.785C294.938 230.766 295.422 227.911 294.925 224.434C294.46 220.95 293.22 218.337 293.371 218.273C293.427 218.246 293.811 218.862 294.259 219.945C294.707 221.026 295.186 222.587 295.434 224.364C295.676 226.14 295.639 227.772 295.501 228.935C295.364 230.098 295.161 230.796 295.1 230.785Z" fill="#F57F62"/>
<path d="M297.95 222.803C298.039 222.921 297.433 223.512 296.896 224.377C296.349 225.237 296.08 226.04 295.934 226.01C295.8 225.993 295.858 225.056 296.461 224.104C297.057 223.148 297.876 222.69 297.95 222.803Z" fill="#F57F62"/>
<path d="M267.718 249.063C267.471 249.852 256.069 298.653 254.202 313.789C252.699 325.978 249.982 344.995 259.565 352.02C266.417 357.043 278.145 359.057 290.795 350.156C301.153 342.866 310.471 320.126 310.471 320.126L331.119 235.583C331.119 235.583 315.755 239.898 309.352 249.106C302.948 258.315 295.935 269.233 295.935 269.233L299.006 250.542C297.664 250.506 267.718 249.063 267.718 249.063Z" fill="#676666"/>
<path d="M314.551 265.803C314.567 265.81 314.486 266.057 314.317 266.52C314.124 267.027 313.869 267.698 313.55 268.537C312.88 270.287 311.847 272.793 310.571 275.889C308.055 282.083 304.337 290.593 301.777 300.468C299.101 310.33 298.886 319.699 299.651 326.315C300.111 329.619 300.555 332.292 301.061 334.093C301.266 334.966 301.43 335.664 301.553 336.191C301.66 336.673 301.709 336.928 301.692 336.933C301.674 336.938 301.593 336.693 301.453 336.22C301.306 335.698 301.111 335.007 300.867 334.142C300.3 332.351 299.799 329.678 299.291 326.358C298.426 319.717 298.588 310.256 301.279 300.341C303.855 290.41 307.635 281.906 310.237 275.747C311.542 272.71 312.604 270.233 313.365 268.461C313.721 267.638 314.005 266.979 314.22 266.481C314.421 266.03 314.535 265.798 314.551 265.803Z" fill="#17282F"/>
<path d="M288.705 356.062C288.705 356.062 295.583 351.043 298.209 350.389C300.835 349.737 308.989 348.741 312.654 348.371C316.32 348.001 325.166 349.913 334.707 353.729C344.248 357.546 356.004 357.761 356.004 357.761L360.126 378.071L337.891 379.605C337.891 379.605 334.412 384.383 329.399 386.371C324.386 388.36 309.971 393.664 306.888 393.094C303.806 392.523 301.953 389.491 301.953 389.491C301.953 389.491 293.474 389.6 291.571 383.142C291.571 383.142 284.113 381.542 282.698 379.595C281.281 377.647 281.125 376.524 281.125 376.524C281.125 376.524 275.543 376.028 274.987 373.949C274.467 372.006 275.396 371.437 282.291 369.615C289.187 367.793 309.763 357.358 309.763 357.358C309.763 357.358 302.733 357.196 301.129 357.993C299.525 358.789 296.296 360.242 293.393 359.932C290.49 359.623 287.548 356.885 288.705 356.062Z" fill="#F9A78D"/>
<path d="M299.907 372.834C299.932 372.893 298.978 373.373 297.365 373.978C295.753 374.584 293.47 375.286 290.888 375.799C288.305 376.308 285.926 376.526 284.204 376.578C282.483 376.632 281.418 376.551 281.419 376.488C281.418 376.41 282.48 376.361 284.182 376.215C285.886 376.071 288.232 375.797 290.789 375.295C293.344 374.788 295.617 374.148 297.247 373.634C298.879 373.121 299.878 372.762 299.907 372.834Z" fill="#F57F62"/>
<path d="M308.578 379.794C308.601 379.855 307.707 380.268 306.206 380.789C304.706 381.311 302.589 381.919 300.205 382.376C297.82 382.829 295.628 383.044 294.041 383.111C292.454 383.179 291.471 383.125 291.469 383.06C291.467 382.983 292.445 382.909 294.014 382.749C295.585 382.589 297.747 382.32 300.11 381.871C302.47 381.418 304.579 380.873 306.097 380.442C307.616 380.013 308.552 379.722 308.578 379.794Z" fill="#F57F62"/>
<path d="M310.472 387.388C310.529 387.51 308.696 388.464 306.249 389.128C303.803 389.802 301.74 389.914 301.729 389.781C301.71 389.632 303.711 389.295 306.113 388.633C308.517 387.981 310.411 387.251 310.472 387.388Z" fill="#F57F62"/>
<path d="M413.72 125.484C403.524 111.226 389.153 102.467 371.677 101.042C361.818 100.237 357.599 102.022 350.366 103.477C343.133 104.932 334.247 111.198 329.613 116.94C324.111 123.758 321.583 128.615 320.063 137.243C318.503 146.105 316.937 155.028 317.027 164.026C317.116 173.023 318.961 182.199 323.761 189.81L346.293 195.248C358.852 196.495 371.587 197.737 384.035 195.664C396.485 193.589 408.83 187.767 416.098 177.451C426.195 163.12 423.916 139.742 413.72 125.484Z" fill="#17282F"/>
<path d="M323.332 142.623C324.391 128.169 337.994 109.28 355.858 110.377L363.855 109.97L393.45 124.018C397.824 124.524 401.083 128.294 400.95 132.693L390.326 229.264L349.798 251.9L346.951 233.085L348.719 217.802C348.719 217.802 326.71 214.478 323.129 190.335C321.349 178.329 322.153 158.678 323.332 142.623Z" fill="#F9A78D"/>
<path d="M359.22 187.084C359.136 185.817 358.51 184.663 357.67 183.843C355.99 182.202 353.399 181.886 351.408 183.076C349.417 184.266 348.15 186.89 348.346 189.419C349.32 190.957 350.891 192.056 352.69 192.33C352.971 192.372 353.253 192.401 353.537 192.412C354.913 192.465 356.339 192.092 357.454 191.149C358.569 190.205 359.322 188.645 359.22 187.084Z" fill="#F57F62"/>
<path d="M329.617 162.975C329.542 164.608 330.863 166.015 332.567 166.124C334.267 166.232 335.709 165.002 335.784 163.369C335.858 161.737 334.537 160.327 332.837 160.218C331.133 160.109 329.691 161.343 329.617 162.975Z" fill="#17282F"/>
<path d="M328.251 151.007C328.63 151.414 330.992 149.705 334.319 149.747C337.644 149.741 340.069 151.477 340.434 151.073C340.613 150.895 340.23 150.163 339.175 149.379C338.135 148.597 336.358 147.83 334.284 147.818C332.212 147.809 330.46 148.554 329.45 149.325C328.419 150.099 328.065 150.825 328.251 151.007Z" fill="#17282F"/>
<path d="M347.865 178.389C347.882 178.2 345.818 177.822 342.47 177.359C341.622 177.263 340.819 177.086 340.681 176.506C340.487 175.889 340.852 174.977 341.274 173.994C342.094 171.945 342.953 169.8 343.854 167.55C347.438 158.376 350.043 150.828 349.673 150.688C349.301 150.546 346.094 157.868 342.509 167.042C341.647 169.305 340.821 171.462 340.035 173.525C339.704 174.488 339.14 175.577 339.561 176.855C339.783 177.493 340.402 177.959 340.945 178.111C341.488 178.283 341.966 178.297 342.386 178.327C345.758 178.542 347.85 178.578 347.865 178.389Z" fill="#17282F"/>
<path d="M348.67 217.815C348.67 217.815 364.882 219.023 381.053 209.529C381.053 209.529 372.126 226.39 348.015 223.892L348.67 217.815Z" fill="#F57F62"/>
<path d="M357.634 180.788C357.094 180.752 357.049 184.363 353.93 186.894C350.819 189.435 346.973 188.991 346.939 189.496C346.886 189.722 347.79 190.205 349.413 190.265C351.006 190.336 353.34 189.847 355.248 188.298C357.151 186.747 357.984 184.657 358.122 183.177C358.275 181.669 357.881 180.77 357.634 180.788Z" fill="#17282F"/>
<path d="M328.905 137.795C329.457 138.613 332.011 138.096 334.986 138.373C337.969 138.555 340.419 139.459 341.081 138.733C341.376 138.379 341.058 137.585 340.035 136.757C339.027 135.933 337.276 135.162 335.228 135.003C333.182 134.847 331.34 135.339 330.225 136.001C329.094 136.662 328.667 137.399 328.905 137.795Z" fill="#17282F"/>
<path d="M366.152 163.37C366.133 165.003 364.732 166.334 363.024 166.344C361.322 166.355 359.954 165.042 359.973 163.409C359.994 161.775 361.395 160.443 363.097 160.433C364.805 160.421 366.173 161.737 366.152 163.37Z" fill="#17282F"/>
<path d="M373.21 152.64C372.808 153.025 370.551 151.182 367.226 151.032C363.907 150.836 361.385 152.43 361.044 152.005C360.876 151.817 361.302 151.109 362.4 150.386C363.482 149.666 365.302 149.002 367.372 149.109C369.442 149.219 371.148 150.064 372.111 150.891C373.096 151.724 373.408 152.468 373.21 152.64Z" fill="#17282F"/>
<path d="M374.17 141.995C373.48 142.717 370.951 141.813 367.87 141.629C364.794 141.35 362.15 141.866 361.587 141.048C361.341 140.652 361.789 139.916 362.964 139.255C364.123 138.597 366.031 138.105 368.148 138.262C370.264 138.423 372.068 139.193 373.103 140.018C374.155 140.845 374.476 141.64 374.17 141.995Z" fill="#17282F"/>
<path d="M394.189 172.789C394.212 170.994 396.332 166.783 398.108 166.524C402.851 165.834 411.383 166.299 411.34 178.323C411.278 194.759 393.123 191.54 393.123 191.54C393.102 191.171 394.111 178.988 394.189 172.789Z" fill="#F9A78D"/>
<path d="M399.314 184.852C399.386 184.8 399.6 185.053 400.082 185.276C400.555 185.495 401.366 185.647 402.224 185.329C403.964 184.697 405.436 181.946 405.526 178.983C405.574 177.487 405.266 176.062 404.741 174.88C404.242 173.675 403.468 172.834 402.594 172.676C401.725 172.471 401.103 172.992 400.9 173.453C400.678 173.913 400.782 174.242 400.695 174.269C400.648 174.31 400.343 173.993 400.478 173.315C400.547 172.989 400.741 172.601 401.129 172.287C401.524 171.967 402.104 171.806 402.714 171.873C403.983 171.966 405.119 173.137 405.696 174.432C406.344 175.735 406.726 177.338 406.673 179.018C406.555 182.33 404.848 185.422 402.467 186.1C401.31 186.398 400.347 186.046 399.85 185.656C399.342 185.25 399.257 184.882 399.314 184.852Z" fill="#F57F62"/>
<path d="M398.773 166.614L394.33 170.658C377.485 152.298 345.179 106.97 346.971 109.662C346.971 109.662 359.61 105.401 372.822 108.544C386.034 111.687 410.939 120.018 409.523 135.745C408.106 151.472 398.773 166.614 398.773 166.614Z" fill="#17282F"/>
<path d="M416.22 233.804C418.335 233.608 437.044 237.625 440.965 252.553C445.806 270.98 450.325 321.518 452.116 337.039C453.811 351.724 455.442 373.195 438.338 381.112C432.443 383.841 338.973 389.664 338.268 386.18C337.564 382.695 341.383 354.65 341.383 354.65L409.828 341.033C409.828 341.033 403.773 302.117 401.874 289.863C399.976 277.609 390.506 236.193 416.22 233.804Z" fill="#676666"/>
<path d="M430.486 382.944C430.486 382.944 430.336 382.969 430.04 382.999C429.726 383.027 429.288 383.066 428.719 383.116C427.536 383.213 425.819 383.352 423.597 383.533C419.11 383.872 412.597 384.365 404.427 384.981C396.24 385.553 386.38 386.196 375.213 386.596C369.629 386.799 363.72 386.939 357.533 386.92C351.347 386.906 344.88 386.764 338.201 386.32L337.947 386.303L337.972 386.049C338.948 376.136 339.995 365.503 341.076 354.519L341.095 354.329L341.282 354.293C342.526 354.045 343.868 353.778 345.216 353.509C368.908 348.81 391.067 344.414 409.734 340.711L409.56 340.961C406.722 322.458 404.36 307.057 402.705 296.264C401.896 290.885 401.26 286.658 400.823 283.755C400.615 282.323 400.455 281.222 400.343 280.459C400.239 279.713 400.202 279.325 400.202 279.325C400.202 279.325 400.285 279.705 400.412 280.448C400.538 281.209 400.719 282.307 400.956 283.734C401.421 286.633 402.097 290.854 402.959 296.225C404.658 307.011 407.082 322.401 409.995 340.893L410.027 341.101L409.82 341.142C391.157 344.867 369.004 349.287 345.316 354.014C343.968 354.282 342.625 354.548 341.382 354.796L341.587 354.57C340.499 365.553 339.445 376.185 338.463 386.098L338.235 385.827C344.899 386.278 351.356 386.43 357.534 386.456C363.714 386.487 369.619 386.361 375.198 386.173C386.359 385.805 396.218 385.2 404.406 384.672C412.58 384.115 419.095 383.672 423.584 383.367C425.809 383.221 427.528 383.108 428.712 383.03C429.283 382.998 429.722 382.973 430.037 382.955C430.333 382.941 430.486 382.944 430.486 382.944Z" fill="#17282F"/>
<path d="M419.749 355.046C419.781 355.025 419.983 355.271 420.329 355.748L420.142 355.854C419.391 354.556 417.791 351.64 415.597 348.475C414.101 346.297 412.626 344.413 411.53 343.071C410.434 341.729 409.734 340.912 409.79 340.859C409.837 340.815 410.632 341.544 411.805 342.834C412.978 344.123 414.513 345.987 416.02 348.183C418.233 351.376 419.739 354.378 420.335 355.757L420.147 355.864C419.857 355.352 419.716 355.066 419.749 355.046Z" fill="#17282F"/>
<path d="M428.803 351.618C428.749 351.677 427.857 350.908 426.363 349.739C424.871 348.57 422.751 347.029 420.275 345.538C417.796 344.051 415.441 342.902 413.708 342.132C411.976 341.361 410.879 340.935 410.905 340.859C410.924 340.801 412.068 341.106 413.849 341.797C415.63 342.485 418.036 343.596 420.539 345.098C423.041 346.604 425.149 348.209 426.593 349.458C428.039 350.708 428.845 351.574 428.803 351.618Z" fill="#17282F"/>
<path d="M287.06 318.645C286.921 318.618 288.895 307.297 291.47 293.362C294.045 279.42 296.245 268.143 296.385 268.169C296.524 268.195 294.55 279.513 291.975 293.454C289.4 307.391 287.2 318.671 287.06 318.645Z" fill="#17282F"/>
<path d="M428.678 164.599C428.676 164.607 428.591 164.591 428.428 164.551C428.237 164.5 428 164.438 427.708 164.361C427.039 164.172 426.118 163.911 424.951 163.581C424.349 163.407 423.686 163.214 422.962 163.005C422.244 162.756 421.467 162.487 420.635 162.198C418.967 161.611 417.053 160.981 415.008 160.099C413.977 159.676 412.898 159.234 411.774 158.774C410.664 158.283 409.526 157.73 408.338 157.179C405.942 156.12 403.5 154.751 400.891 153.388C395.763 150.497 390.283 147.031 384.844 142.95C379.44 138.822 374.614 134.488 370.448 130.325C368.439 128.172 366.458 126.192 364.803 124.159C363.957 123.159 363.123 122.208 362.353 121.268C361.613 120.305 360.903 119.379 360.225 118.495C358.834 116.755 357.73 115.067 356.731 113.609C356.235 112.879 355.774 112.199 355.347 111.57C354.96 110.923 354.604 110.33 354.282 109.793C353.665 108.749 353.177 107.925 352.823 107.326C352.674 107.064 352.553 106.851 352.455 106.679C352.375 106.532 352.338 106.454 352.346 106.45C352.353 106.445 352.406 106.514 352.501 106.653C352.61 106.818 352.745 107.022 352.913 107.274C353.286 107.86 353.8 108.666 354.451 109.687C354.784 110.216 355.151 110.8 355.552 111.437C355.989 112.056 356.461 112.727 356.968 113.446C357.986 114.886 359.108 116.554 360.514 118.274C361.198 119.149 361.914 120.064 362.66 121.017C363.436 121.948 364.275 122.89 365.125 123.879C366.788 125.893 368.773 127.857 370.784 129.991C374.954 134.12 379.771 138.427 385.154 142.541C390.573 146.606 396.024 150.07 401.121 152.974C403.715 154.343 406.141 155.723 408.522 156.795C409.702 157.352 410.831 157.912 411.935 158.411C413.05 158.881 414.122 159.331 415.145 159.762C417.175 160.664 419.076 161.315 420.73 161.926C421.556 162.229 422.326 162.512 423.038 162.772C423.756 162.997 424.415 163.203 425.01 163.39C426.164 163.758 427.074 164.049 427.736 164.261C428.023 164.358 428.255 164.437 428.442 164.5C428.6 164.556 428.68 164.59 428.678 164.599Z" fill="#33535F"/>
<path d="M439.14 232.618C439.129 232.633 438.975 232.529 438.691 232.318C438.363 232.068 437.957 231.757 437.459 231.377C436.933 230.96 436.272 230.468 435.541 229.851C434.822 229.202 434.014 228.475 433.126 227.677C432.237 226.863 431.355 225.878 430.36 224.869C429.859 224.368 429.419 223.776 428.924 223.207C428.449 222.62 427.915 222.05 427.451 221.401C425.515 218.865 423.661 215.859 422.133 212.504C420.592 209.15 419.627 205.743 419.038 202.609C418.432 199.476 418.183 196.605 418.117 194.198C418.099 193.598 418.083 193.026 418.067 192.481C418.074 191.942 418.081 191.431 418.088 190.949C418.098 189.993 418.117 189.17 418.168 188.499C418.211 187.875 418.245 187.365 418.273 186.953C418.304 186.601 418.327 186.416 418.345 186.417C418.363 186.418 418.374 186.604 418.377 186.958C418.375 187.37 418.372 187.881 418.368 188.505C418.347 189.176 418.358 189.997 418.375 190.949C418.381 191.429 418.387 191.938 418.393 192.475C418.421 193.016 418.45 193.586 418.48 194.182C418.592 196.573 418.877 199.42 419.502 202.519C420.112 205.616 421.079 208.979 422.602 212.294C424.112 215.61 425.931 218.586 427.829 221.115C428.282 221.762 428.806 222.331 429.271 222.918C429.756 223.487 430.184 224.079 430.676 224.584C431.65 225.597 432.511 226.59 433.378 227.415C434.243 228.23 435.029 228.972 435.73 229.635C436.439 230.269 437.081 230.782 437.586 231.223C438.057 231.632 438.443 231.968 438.754 232.237C439.017 232.473 439.151 232.604 439.14 232.618Z" fill="#33535F"/>
<path d="M175.705 338.941C175.497 339.977 194.925 362.524 205.805 362.006C216.684 361.487 220.31 352.684 220.31 350.477C220.31 348.27 206.313 295.403 200.619 282.185C194.925 268.968 183.04 246.673 174.286 240.714C165.531 234.753 160.979 235.775 160.979 235.775L175.705 338.941Z" fill="#BA6258"/>
<path d="M193.229 307.323C193.229 307.323 194.901 311.166 193.229 324.146C191.557 337.127 190.002 347.492 198.81 354.231C207.617 360.968 214.352 360.718 218.238 356.439C222.123 352.157 228.599 346.456 227.563 331.943C226.527 317.43 210.112 298.253 210.112 298.253L193.229 307.323Z" fill="#BA6258"/>
<path d="M196.35 351.503C196.337 351.515 196.229 351.414 196.033 351.21C195.843 351.002 195.535 350.714 195.223 350.276C194.554 349.437 193.698 348.107 193.023 346.296C192.336 344.492 191.83 342.229 191.662 339.688C191.578 338.417 191.564 337.081 191.625 335.7C191.684 334.315 191.857 332.895 191.978 331.45C192.478 325.65 192.631 320.374 192.599 316.561C192.58 314.655 192.528 313.111 192.462 312.048C192.402 310.983 192.358 310.393 192.398 310.388C192.415 310.386 192.448 310.531 192.494 310.809C192.537 311.087 192.61 311.498 192.661 312.031C192.789 313.095 192.897 314.641 192.962 316.554C193.087 320.38 192.991 325.674 192.49 331.495C192.367 332.954 192.193 334.361 192.128 335.724C192.06 337.088 192.065 338.405 192.134 339.657C192.274 342.161 192.735 344.387 193.364 346.17C193.982 347.962 194.773 349.294 195.384 350.158C195.987 351.03 196.39 351.467 196.35 351.503Z" fill="#6F3530"/>
<path d="M74.3711 192.126C72.7843 177.423 71.1979 162.719 69.6115 148.015L66.772 128.474C60.4218 122.832 40.3938 127.253 33.946 132.781C27.4979 138.311 24.6237 147.072 24.1181 155.552C23.7837 161.17 24.1914 167.353 20.7404 171.798C16.78 176.9 8.91417 177.982 5.53906 183.488C3.33497 187.084 3.68099 191.802 5.42308 195.644C7.16554 199.485 10.1218 202.626 13.0923 205.619C15.7681 208.316 18.5594 211.003 21.9623 212.691C25.3655 214.38 29.5224 214.95 32.9538 213.32C31.9396 218.796 35.9262 224.517 41.2592 226.114C46.5919 227.71 52.6562 225.508 56.3137 221.31C59.9716 217.112 61.3589 211.23 60.7531 205.694C61.6625 208.786 65.6538 210.219 68.6671 209.079C71.6804 207.939 73.6424 204.893 74.3507 201.749C75.059 198.604 74.7168 195.331 74.3711 192.126Z" fill="#17282F"/>
<path d="M65.2618 127.796C75.3421 112.743 89.9045 103.24 107.901 101.216C118.055 100.075 122.466 101.786 129.978 103.063C137.491 104.338 144.475 107.636 149.437 113.422C155.331 120.294 160.479 128.129 162.317 136.995C164.205 146.103 164.195 156.934 162.936 166.149C160.979 180.481 157.65 185.386 152.932 193.401L137.05 197.754C124.124 199.438 111.017 201.121 98.0989 199.37C85.1811 197.62 72.2552 191.993 64.4299 181.564C53.5578 167.073 55.1804 142.848 65.2618 127.796Z" fill="#17282F"/>
<path d="M159.112 142.656C157.565 127.757 142.932 108.669 124.525 110.364L116.256 110.195L86.1411 125.641C81.642 126.302 78.3956 130.299 78.67 134.842L91.0364 231.663L94.894 241.625L128.907 261.812L138.637 241.736L137.119 221.054C137.119 221.054 157.868 217.005 160.811 191.948C162.275 179.485 160.829 159.209 159.112 142.656Z" fill="#BA6258"/>
<path d="M123.451 189.724C123.497 188.414 124.107 187.201 124.948 186.327C126.633 184.58 129.298 184.17 131.391 185.338C133.482 186.504 134.872 189.176 134.75 191.794C133.793 193.414 132.205 194.599 130.355 194.939C130.067 194.992 129.777 195.03 129.484 195.051C128.066 195.149 126.581 194.809 125.4 193.868C124.22 192.929 123.394 191.341 123.451 189.724Z" fill="#6F3530"/>
<path d="M152.924 164.231C153.051 165.917 151.731 167.413 149.976 167.578C148.224 167.743 146.697 166.518 146.569 164.833C146.442 163.149 147.762 161.65 149.513 161.485C151.268 161.319 152.795 162.548 152.924 164.231Z" fill="#17282F"/>
<path d="M154.294 151.474C153.915 151.907 151.426 150.215 147.991 150.363C144.558 150.463 142.11 152.333 141.72 151.926C141.529 151.748 141.902 150.98 142.967 150.136C144.014 149.296 145.826 148.447 147.966 148.369C150.106 148.294 151.937 149.01 153.004 149.774C154.093 150.542 154.482 151.281 154.294 151.474Z" fill="#17282F"/>
<path d="M134.902 180.383C134.878 180.189 136.998 179.733 140.439 179.15C141.312 179.024 142.135 178.816 142.259 178.211C142.44 177.569 142.035 176.638 141.568 175.634C140.658 173.544 139.705 171.354 138.703 169.058C134.717 159.692 131.791 151.975 132.17 151.819C132.549 151.662 136.088 159.126 140.076 168.492C141.037 170.803 141.957 173.004 142.833 175.111C143.205 176.095 143.821 177.204 143.427 178.537C143.216 179.203 142.592 179.704 142.037 179.879C141.481 180.073 140.989 180.102 140.555 180.147C137.082 180.475 134.922 180.578 134.902 180.383Z" fill="#17282F"/>
<path d="M137.156 221.023C137.156 221.023 120.458 222.783 103.466 213.481C103.466 213.481 112.776 230.815 137.59 227.475L137.156 221.023Z" fill="#6F3530"/>
<path d="M124.891 183.17C125.448 183.115 125.606 186.845 128.905 189.362C132.197 191.89 136.153 191.309 136.204 191.829C136.266 192.061 135.349 192.589 133.674 192.703C132.031 192.826 129.606 192.395 127.589 190.854C125.576 189.311 124.651 187.178 124.462 185.653C124.257 184.1 124.635 183.159 124.891 183.17Z" fill="#17282F"/>
<path d="M151.987 139.615C151.443 140.477 148.79 140.023 145.728 140.404C142.654 140.686 140.153 141.696 139.446 140.969C139.131 140.611 139.433 139.781 140.464 138.893C141.479 138.01 143.262 137.158 145.371 136.929C147.48 136.704 149.397 137.155 150.568 137.803C151.757 138.45 152.221 139.198 151.987 139.615Z" fill="#17282F"/>
<path d="M116.601 166.147C116.673 167.834 118.159 169.164 119.923 169.121C121.681 169.079 123.053 167.68 122.981 165.993C122.909 164.305 121.422 162.974 119.663 163.016C117.9 163.059 116.529 164.46 116.601 166.147Z" fill="#17282F"/>
<path d="M107.93 154.577C108.358 154.962 110.631 152.987 114.059 152.727C117.479 152.421 120.133 153.988 120.471 153.539C120.639 153.338 120.177 152.621 119.021 151.908C117.881 151.198 115.982 150.569 113.848 150.745C111.714 150.923 109.98 151.85 109.01 152.735C108.02 153.628 107.721 154.405 107.93 154.577Z" fill="#17282F"/>
<path d="M108.938 143.429C109.673 144.154 112.255 143.14 115.43 142.854C118.598 142.468 121.343 142.917 121.899 142.054C122.14 141.638 121.655 140.891 120.421 140.246C119.204 139.603 117.219 139.154 115.039 139.383C112.86 139.616 111.021 140.468 109.978 141.353C108.917 142.241 108.611 143.072 108.938 143.429Z" fill="#17282F"/>
<path d="M86.9022 176.057C86.8225 174.203 84.5036 169.917 82.6613 169.706C77.7429 169.143 68.9489 169.893 69.3701 182.314C69.9464 199.294 86.8683 195.214 86.8818 194.725C86.8922 194.343 87.1769 182.458 86.9022 176.057Z" fill="#BA6258"/>
<path d="M81.9883 188.681C81.9123 188.629 81.7 188.898 81.2087 189.144C80.7278 189.384 79.8951 189.566 78.9988 189.265C77.184 188.667 75.5771 185.871 75.3918 182.813C75.2954 181.269 75.569 179.786 76.0745 178.549C76.5512 177.289 77.3241 176.394 78.2224 176.204C79.1125 175.965 79.7699 176.484 79.9946 176.954C80.238 177.422 80.1417 177.765 80.2327 177.79C80.2812 177.831 80.5872 177.494 80.4269 176.798C80.3451 176.462 80.1329 176.069 79.7221 175.756C79.304 175.438 78.6998 175.29 78.0725 175.379C76.7666 175.514 75.6299 176.759 75.0739 178.116C74.4462 179.483 74.1016 181.151 74.2095 182.885C74.4343 186.303 76.2934 189.444 78.7715 190.071C79.9752 190.341 80.9602 189.947 81.4607 189.529C81.9721 189.093 82.0487 188.71 81.9883 188.681Z" fill="#6F3530"/>
<path d="M81.9773 169.821L86.69 173.859C103.508 154.359 135.443 106.507 133.676 109.346C133.676 109.346 120.495 105.341 106.953 109.004C93.4124 112.667 67.9609 122.06 69.9149 138.265C71.8686 154.47 81.9773 169.821 81.9773 169.821Z" fill="#17282F"/>
<path d="M178.55 314.166C178.55 314.166 216.591 304.767 215.07 296.814C213.549 288.859 181.067 229.848 157.675 231.471L178.55 314.166Z" fill="#484848"/>
<path d="M58.5278 246.996L91.0362 231.663C91.0362 231.663 107.264 251.415 123.762 248.504C140.259 245.592 137.86 230.073 137.86 230.073L160.732 231.686C160.732 231.686 179.952 288.185 182.02 308.774C184.089 329.361 177.053 362.014 177.053 362.014C177.053 362.014 180.971 392.72 187.264 398.106H58.5278L69.9733 361.651C62.8593 344.828 58.5278 246.996 58.5278 246.996Z" fill="#484848"/>
<path d="M172.106 267.528C172.122 267.521 172.223 267.682 172.401 267.998C172.601 268.367 172.852 268.828 173.158 269.393C173.811 270.606 174.709 272.386 175.741 274.625C177.799 279.088 180.353 285.493 181.572 292.953C182.83 300.4 182.773 307.26 182.59 312.175C182.485 314.637 182.364 316.627 182.236 317.999C182.178 318.637 182.13 319.159 182.092 319.578C182.054 319.939 182.025 320.127 182.007 320.126C181.989 320.124 181.983 319.934 181.989 319.571C182.001 319.151 182.017 318.627 182.037 317.986C182.104 316.612 182.168 314.622 182.227 312.164C182.317 307.256 182.314 300.43 181.065 293.04C179.857 285.638 177.378 279.264 175.41 274.773C174.423 272.523 173.576 270.722 172.979 269.483C172.708 268.901 172.486 268.427 172.308 268.046C172.16 267.715 172.09 267.537 172.106 267.528Z" fill="#17282F"/>
<path d="M159.95 371.513C159.957 371.527 159.834 371.618 159.591 371.78C159.345 371.939 158.984 372.176 158.505 372.464C157.553 373.048 156.149 373.863 154.362 374.815C150.795 376.721 145.66 379.126 139.589 381.191L138.668 381.505L139.318 380.781C140.195 379.807 141.137 378.808 142.138 377.83C147.446 372.675 153.072 369.001 157.12 366.405C159.158 365.117 160.829 364.111 161.989 363.423C162.53 363.109 162.974 362.851 163.331 362.645C163.641 362.472 163.809 362.389 163.817 362.403C163.827 362.419 163.678 362.532 163.385 362.733C163.042 362.962 162.615 363.246 162.094 363.592C160.904 364.369 159.289 365.424 157.318 366.71C153.326 369.38 147.758 373.087 142.496 378.199C141.504 379.166 140.569 380.155 139.698 381.119L139.427 380.71C145.473 378.673 150.61 376.337 154.207 374.517C156.009 373.607 157.435 372.84 158.415 372.307C158.865 372.063 159.237 371.863 159.542 371.699C159.802 371.564 159.942 371.5 159.95 371.513Z" fill="#17282F"/>
<path d="M63.0542 362.86C63.0542 362.86 86.0234 405.942 110.14 396.845C134.257 387.748 172.786 315.424 172.786 315.424L154.994 301.185C154.994 301.185 110.972 349.84 108.6 352.608L98.6087 335.263L63.0542 362.86Z" fill="#BA6258"/>
<path d="M159.717 294.155C159.717 294.155 166.159 280.913 180.098 284.78C194.037 288.647 206.687 293.1 206.687 293.1C206.687 293.1 216.058 294.038 218.283 291.929C220.51 289.82 229.576 281.587 232.105 279.389C235.614 276.342 239.25 278.804 239.25 278.804C239.25 278.804 242.632 274.033 247.283 277.543L238.496 287.827C238.496 287.827 228.357 301.187 227.186 302.241C226.015 303.296 203.174 312.201 200.596 311.616C198.02 311.03 179.161 307.748 177.286 308.804C175.413 309.859 172.786 315.424 172.786 315.424L154.995 301.185L159.717 294.155Z" fill="#BA6258"/>
<path d="M239.25 278.804C239.28 278.823 239.003 279.311 238.473 280.177C237.943 281.041 237.159 282.282 236.173 283.803C234.176 286.831 231.479 291.049 228.076 295.444C227.223 296.561 226.072 297.433 224.954 298.097C223.826 298.778 222.7 299.358 221.609 299.866C219.429 300.886 217.412 301.669 215.709 302.295C214.005 302.919 212.609 303.377 211.638 303.672C210.667 303.967 210.123 304.104 210.112 304.07C210.101 304.036 210.625 303.836 211.574 303.482C212.523 303.129 213.897 302.62 215.58 301.955C217.261 301.288 219.255 300.472 221.406 299.438C222.481 298.924 223.589 298.34 224.69 297.668C225.801 296.992 226.842 296.207 227.677 295.121C231.046 290.77 233.803 286.571 235.871 283.601C236.86 282.166 237.679 280.976 238.306 280.067C238.887 279.236 239.22 278.784 239.25 278.804Z" fill="#6F3530"/>
<path d="M199.975 237.614C200.615 235.936 200.921 234.015 200.21 232.367C199.757 231.314 198.854 230.42 197.738 230.158C196.735 229.922 195.675 230.206 194.747 230.658C191.84 232.077 189.943 235.067 189.113 238.195C187.79 243.181 188.723 248.9 185.84 253.176L197.915 252.038C196.703 249.028 196.647 245.569 197.763 242.522C198.381 240.837 199.334 239.291 199.975 237.614Z" fill="#BA6258"/>
<path d="M186.532 251.638C186.532 251.638 171.939 255.097 172.786 261.326C172.786 261.326 172.893 265.776 176.747 265.925C176.747 265.925 173.041 268.594 174.375 272.006C175.709 275.418 178.081 276.254 178.081 276.254C178.081 276.254 175.561 278.68 177.044 282.241C178.526 285.801 181.343 286.203 181.343 286.203C181.343 286.203 180.858 287.512 182.139 289.4C183.419 291.289 188.884 291.881 191.86 291.437C194.835 290.992 206.103 291.289 206.993 288.47C207.882 285.652 208.031 279.868 206.993 277.494C206.993 277.494 208.588 271.116 207.716 267.704C206.844 264.292 205.213 262.809 205.213 262.809C205.213 262.809 204.774 252.426 201.138 251.092C197.503 249.756 186.532 251.638 186.532 251.638Z" fill="#BA6258"/>
<path d="M190.369 263.626C190.392 263.767 187.43 264.368 183.753 264.969C180.076 265.571 177.077 265.944 177.053 265.804C177.031 265.664 179.993 265.063 183.67 264.461C187.347 263.86 190.347 263.487 190.369 263.626Z" fill="#6F3530"/>
<path d="M192.398 274.812C192.414 274.953 189.328 275.436 185.504 275.891C181.68 276.345 178.567 276.599 178.55 276.458C178.534 276.317 181.62 275.834 185.444 275.38C189.268 274.925 192.381 274.672 192.398 274.812Z" fill="#6F3530"/>
<path d="M176.579 280.135C176.673 280.126 176.604 281.031 177.129 282.374C177.415 283.029 177.886 283.767 178.61 284.419C179.333 285.059 180.305 285.64 181.404 285.965L181.348 285.957C182.465 285.965 183.663 285.972 184.911 285.98C188.182 285.978 191.137 285.809 193.27 285.61C195.405 285.418 196.721 285.237 196.734 285.315C196.74 285.35 196.417 285.435 195.827 285.558C195.237 285.677 194.379 285.83 193.311 285.971C191.176 286.264 188.2 286.492 184.913 286.494C183.657 286.499 182.449 286.478 181.337 286.448L181.304 286.447L181.281 286.44C180.07 286.063 179.086 285.435 178.327 284.726C177.575 284.007 177.104 283.194 176.844 282.485C176.605 281.767 176.528 281.167 176.531 280.761C176.534 280.352 176.55 280.135 176.579 280.135Z" fill="#6F3530"/>
<path d="M58.5279 246.996C58.5279 246.996 27.5353 257.609 35.4427 297.163C41.4053 326.99 49.0391 369.614 58.5279 367.637C68.0166 365.659 105.191 341.81 105.191 341.81C105.191 341.81 96.4822 305.535 91.3427 291.692C86.2027 277.848 58.5279 246.996 58.5279 246.996Z" fill="#484848"/>
<path d="M82.7507 289.29C82.7669 289.283 82.8602 289.46 83.0228 289.805C83.2031 290.202 83.4309 290.704 83.711 291.321C84.3159 292.709 85.1448 294.61 86.1563 296.931C88.2077 301.742 90.9956 308.28 94.0764 315.504C97.1367 322.74 99.906 329.287 101.943 334.104C102.933 336.434 103.742 338.341 104.334 339.735C104.601 340.356 104.818 340.862 104.989 341.264C105.136 341.614 105.206 341.803 105.191 341.81C105.175 341.818 105.074 341.646 104.896 341.309C104.719 340.971 104.457 340.473 104.152 339.818C103.528 338.513 102.66 336.609 101.61 334.248C99.5099 329.525 96.6812 322.969 93.6032 315.706C90.5267 308.445 87.7824 301.855 85.8214 297.072C84.872 294.724 84.0943 292.802 83.5263 291.398C83.2829 290.766 83.0844 290.252 82.9272 289.845C82.7954 289.487 82.7341 289.296 82.7507 289.29Z" fill="#17282F"/>
<path d="M183.537 304.07C191.417 302.236 199.1 299.55 206.407 296.077C207.245 295.679 208.122 295.231 208.605 294.439C209.477 293.008 208.65 291.069 207.353 290.008C205.104 288.17 201.848 288.151 199.039 288.89C196.23 289.629 193.624 291.017 190.81 291.736C189.955 291.955 189.069 292.111 188.193 292.011C187.156 291.89 186.198 291.418 185.263 290.954C182.077 289.37 178.891 287.786 175.705 286.203" fill="#BA6258"/>
<path d="M175.705 286.203C175.713 286.186 175.927 286.274 176.327 286.454C176.773 286.662 177.351 286.931 178.068 287.266C179.626 288.018 181.785 289.06 184.43 290.337C185.773 290.945 187.208 291.898 188.911 291.826C190.606 291.727 192.385 291.041 194.209 290.346C196.041 289.639 197.963 288.799 200.117 288.395C202.238 288.014 204.674 288.044 206.738 289.27C207.757 289.856 208.614 290.794 208.999 291.908C209.202 292.46 209.273 293.073 209.168 293.663C209.053 294.253 208.738 294.803 208.311 295.191C207.444 295.977 206.418 296.315 205.498 296.772C204.559 297.205 203.633 297.615 202.725 298.003C199.09 299.553 195.737 300.756 192.888 301.653C190.042 302.558 187.699 303.159 186.076 303.548C185.264 303.743 184.631 303.88 184.2 303.964C183.769 304.05 183.541 304.087 183.537 304.07C183.532 304.053 183.753 303.982 184.175 303.863C184.65 303.733 185.263 303.564 186.027 303.355C187.631 302.907 189.953 302.254 192.776 301.307C195.6 300.369 198.928 299.135 202.537 297.568C203.44 297.176 204.359 296.762 205.292 296.326C206.211 295.871 207.235 295.504 207.965 294.825C208.33 294.489 208.572 294.051 208.669 293.569C208.752 293.085 208.698 292.564 208.518 292.079C208.169 291.089 207.423 290.258 206.474 289.71C204.576 288.577 202.257 288.526 200.207 288.89C198.132 289.271 196.222 290.089 194.379 290.787C192.531 291.473 190.749 292.161 188.924 292.251C188.006 292.287 187.133 292.028 186.38 291.699C185.62 291.366 184.936 290.994 184.268 290.663C181.654 289.324 179.519 288.233 177.98 287.445C177.279 287.075 176.716 286.777 176.281 286.547C175.895 286.336 175.697 286.219 175.705 286.203Z" fill="#6F3530"/>
<path d="M198.153 250.612C198.145 250.767 195.255 250.635 191.73 251.012C188.199 251.372 185.402 252.097 185.36 251.947C185.342 251.883 186.021 251.619 187.158 251.316C188.292 251.013 189.889 250.689 191.675 250.502C193.462 250.316 195.092 250.302 196.264 250.365C197.438 250.427 198.157 250.545 198.153 250.612Z" fill="#6F3530"/>
<path d="M217.176 306.506C217.189 306.538 216.754 306.746 215.952 307.085C215.148 307.421 213.974 307.881 212.511 308.412C211.047 308.941 209.294 309.544 207.33 310.164C206.348 310.471 205.315 310.787 204.234 311.089C203.141 311.375 202.056 311.715 200.805 311.86C199.537 311.819 198.445 311.578 197.322 311.427C196.22 311.248 195.156 311.075 194.137 310.91C192.137 310.561 190.32 310.245 188.755 309.972C187.225 309.694 185.989 309.458 185.136 309.283C184.284 309.109 183.815 308.995 183.821 308.96C183.827 308.925 184.307 308.972 185.169 309.086C186.129 309.225 187.352 309.401 188.814 309.614C190.384 309.854 192.206 310.134 194.212 310.442C195.231 310.598 196.296 310.76 197.398 310.929C198.489 311.072 199.681 311.313 200.78 311.347C201.887 311.218 203.033 310.88 204.1 310.604C205.176 310.311 206.209 310.004 207.191 309.711C209.156 309.119 210.917 308.552 212.393 308.068C213.793 307.599 214.962 307.206 215.881 306.898C216.704 306.618 217.162 306.472 217.176 306.506Z" fill="#6F3530"/>
<path d="M99.3215 373.918C99.2864 373.912 99.3106 373.577 99.3846 372.975C99.454 372.371 99.5997 371.504 99.819 370.44C100.254 368.312 101.058 365.406 102.315 362.333C103.578 359.261 105.048 356.627 106.232 354.807C106.823 353.896 107.328 353.177 107.701 352.699C108.072 352.217 108.29 351.961 108.319 351.982C108.386 352.031 107.636 353.14 106.54 354.997C105.443 356.854 104.041 359.487 102.79 362.528C101.546 365.571 100.696 368.43 100.173 370.522C99.6478 372.614 99.4028 373.931 99.3215 373.918Z" fill="#6F3530"/>
<path d="M74.8707 276.303C74.8161 276.345 74.0219 275.385 72.8235 273.774C71.6189 272.168 70.0268 269.9 68.1298 267.514C66.2316 265.128 64.3004 263.155 62.7572 261.893C61.2242 260.621 60.1542 259.987 60.2012 259.908C60.2193 259.877 60.4991 260.012 60.9935 260.286C61.4925 260.55 62.1772 261 62.9834 261.608C64.6075 262.815 66.6159 264.784 68.5306 267.192C70.4445 269.6 71.992 271.906 73.1194 273.564C74.2408 275.226 74.9293 276.259 74.8707 276.303Z" fill="#17282F"/>
<path d="M181.005 286.345C181.15 286.37 181.145 287.005 181.345 287.73C181.53 288.46 181.848 289.008 181.734 289.103C181.637 289.199 181.07 288.716 180.847 287.862C180.619 287.009 180.873 286.309 181.005 286.345Z" fill="#6F3530"/>
<path d="M71.2359 189.871C71.2243 189.885 71.0293 189.727 70.6683 189.413C70.3111 189.096 69.7724 188.637 69.1126 188.011C67.8268 186.728 65.9911 184.821 64.1234 182.144C62.2596 179.474 60.3791 176.031 58.9716 171.949C57.587 167.864 56.6745 163.157 56.5308 158.18C56.3316 153.192 57.0776 148.455 58.1412 144.287C59.2524 140.121 60.6615 136.49 62.0777 133.56C63.4899 130.627 64.8332 128.355 65.8404 126.842C66.3221 126.071 66.7528 125.51 67.0261 125.118C67.3066 124.73 67.4603 124.532 67.475 124.542C67.4896 124.553 67.364 124.771 67.1116 125.176C66.8666 125.587 66.4635 126.164 66.0096 126.949C65.0574 128.489 63.7688 130.778 62.4064 133.714C61.0403 136.647 59.6767 140.267 58.5997 144.404C57.5701 148.546 56.8471 153.233 57.0444 158.163C57.1871 163.093 58.0753 167.748 59.4201 171.797C60.788 175.843 62.6133 179.265 64.4228 181.938C66.2354 184.617 68.0176 186.55 69.2541 187.87C69.8698 188.478 70.363 188.965 70.738 189.337C71.0756 189.674 71.2478 189.859 71.2359 189.871Z" fill="#33535F"/>
<path d="M292.035 87.907C296.045 80.7658 298.335 72.5272 298.335 63.7517C298.335 36.4718 276.231 14.3574 248.963 14.3574C221.696 14.3574 199.592 36.4718 199.592 63.7517C199.592 91.0316 221.696 113.146 248.963 113.146C262.469 113.146 274.706 107.719 283.619 98.9278C287.741 100.616 292.121 101.674 296.559 102.046C295.403 97.2303 293.888 92.5011 292.035 87.907Z" fill="white"/>
<path d="M292.035 87.907C292.035 87.907 292.177 88.2139 292.421 88.8031C292.663 89.4012 293.019 90.2923 293.454 91.4746C294.32 93.8393 295.524 97.3635 296.663 102.022L296.699 102.166L296.55 102.154C292.819 101.851 288.329 100.996 283.565 99.0619L283.721 99.0313C281.116 101.593 278.002 104.098 274.362 106.31C270.705 108.483 266.526 110.376 261.879 111.623C257.243 112.865 252.151 113.564 246.852 113.25C246.19 113.217 245.525 113.184 244.855 113.151L243.849 113.097L242.845 112.945C241.508 112.733 240.148 112.555 238.787 112.31C237.447 111.967 236.093 111.619 234.727 111.269C233.371 110.885 232.055 110.324 230.697 109.854C225.361 107.726 220.192 104.583 215.647 100.452C211.102 96.3302 207.186 91.222 204.356 85.3894C201.52 79.5667 199.793 73.0216 199.463 66.2633C199.12 59.511 200.152 52.5454 202.657 46.0062C204.679 40.753 207.565 35.9142 211.086 31.711C214.582 27.4752 218.848 24.03 223.37 21.2765C232.439 15.7005 242.959 13.5728 252.655 14.307C257.499 14.7186 262.219 15.6502 266.506 17.3852C267.048 17.5845 267.589 17.7829 268.126 17.9803C268.654 18.2023 269.16 18.4698 269.675 18.7116C270.696 19.2119 271.722 19.6856 272.717 20.1968C273.674 20.7791 274.623 21.3575 275.565 21.9308C276.028 22.2289 276.522 22.4766 276.953 22.8131C277.39 23.1418 277.825 23.4674 278.259 23.7921C281.821 26.2811 284.714 29.3572 287.347 32.385C289.795 35.5708 291.988 38.7792 293.508 42.1415C296.725 48.7824 298.095 55.4439 298.353 61.2706C298.587 64.1898 298.414 66.9186 298.131 69.4046C297.841 71.8926 297.39 74.1417 296.868 76.1313C295.82 80.1135 294.532 83.0564 293.595 85.0026C293.115 85.9727 292.734 86.704 292.458 87.1787C292.188 87.6593 292.035 87.907 292.035 87.907C292.035 87.907 292.151 87.6573 292.408 87.1639C292.672 86.6704 293.038 85.9312 293.502 84.9572C294.407 83.0011 295.66 80.0552 296.675 76.081C297.179 74.0963 297.613 71.8551 297.888 69.377C298.155 66.9018 298.313 64.1869 298.067 61.2844C297.783 55.4933 296.396 48.882 293.182 42.3004C291.663 38.9677 289.476 35.7899 287.04 32.6357C284.419 29.6395 281.545 26.5949 278.006 24.1356C277.576 23.8148 277.144 23.4921 276.71 23.1684C276.282 22.8348 275.791 22.5901 275.332 22.296C274.398 21.7295 273.456 21.1581 272.507 20.5827C271.519 20.0784 270.502 19.6106 269.488 19.1172C268.977 18.8784 268.476 18.6129 267.953 18.3948C267.419 18.1994 266.883 18.004 266.347 17.8086C262.096 16.0943 257.418 15.1804 252.619 14.7797C243.014 14.0652 232.603 16.1822 223.63 21.7078C219.157 24.4356 214.935 27.8473 211.475 32.0416C207.993 36.2034 205.138 40.9908 203.136 46.1898C200.658 52.6609 199.635 59.5534 199.973 66.2377C200.296 72.9279 202.002 79.4058 204.804 85.1723C207.601 90.9476 211.473 96.0094 215.969 100.098C220.465 104.195 225.58 107.315 230.864 109.433C232.208 109.902 233.511 110.46 234.854 110.844C236.208 111.193 237.549 111.539 238.877 111.882C240.224 112.126 241.572 112.306 242.899 112.519L243.892 112.672L244.889 112.727C245.553 112.762 246.214 112.797 246.87 112.83C252.124 113.155 257.177 112.473 261.779 111.255C266.394 110.03 270.548 108.165 274.189 106.02C277.812 103.837 280.915 101.36 283.518 98.8251L283.587 98.758L283.674 98.7935C288.398 100.738 292.857 101.613 296.567 101.94L296.455 102.072C295.35 97.4167 294.181 93.8866 293.35 91.5121C292.921 90.3397 292.594 89.4426 292.368 88.8238C292.136 88.2139 292.035 87.907 292.035 87.907Z" fill="#17282F"/>
<path d="M196.231 65.8046C196.231 61.174 196.871 56.6925 198.065 52.4439C191.211 57.107 185.788 63.9887 183.01 72.479C179.701 82.5868 180.763 93.0746 185.152 101.898C182.881 104.57 181.017 107.589 179.651 110.819C183.536 111.134 187.444 111.158 191.331 110.896C195.69 115.646 201.29 119.378 207.85 121.527C220.724 125.744 234.214 122.865 244.094 115.039C217.537 114.315 196.231 92.5495 196.231 65.8046Z" fill="white"/>
<path d="M196.231 65.8045C196.231 65.8045 196.25 65.9278 196.269 66.1706C196.287 66.4312 196.312 66.7865 196.343 67.2493C196.373 67.7299 196.408 68.3181 196.451 69.0109C196.471 69.3613 196.493 69.7373 196.517 70.1399C196.525 70.5446 196.573 70.9719 196.657 71.4219C197.126 75.033 198.138 80.3415 200.971 86.4346C203.803 92.4695 208.501 99.3601 215.881 104.854C223.095 110.479 233.067 114.395 244.101 114.796L244.762 114.821L244.245 115.229C239.743 118.788 234.22 121.521 228.145 122.828C222.084 124.15 215.486 124.004 209.204 122.191C202.115 120.218 195.835 116.186 191.146 111.067L191.348 111.148C187.365 111.414 183.44 111.375 179.631 111.064L179.292 111.036L179.425 110.723C180.837 107.39 182.74 104.364 184.971 101.745L184.94 102.004C182.263 96.5523 180.937 90.7671 180.87 85.3066C180.775 79.8372 181.86 74.7231 183.592 70.3146C185.331 65.8963 187.724 62.1816 190.276 59.2179C192.824 56.2375 195.539 54.0199 197.997 52.3442L198.271 52.1576L198.18 52.4764C196.981 56.7023 196.598 60.0795 196.413 62.3464C196.324 63.4833 196.296 64.3488 196.27 64.9281C196.254 65.5084 196.231 65.8045 196.231 65.8045C196.231 65.8045 196.211 65.5084 196.206 64.9271C196.21 64.3459 196.219 63.4784 196.288 62.3375C196.433 60.0627 196.779 56.6688 197.949 52.4113L198.133 52.5435C195.704 54.2301 193.024 56.4517 190.514 59.4222C188.001 62.377 185.648 66.069 183.946 70.4528C182.248 74.8267 181.193 79.8905 181.302 85.2987C181.384 90.698 182.709 96.4122 185.364 101.793L185.434 101.933L185.332 102.052C183.137 104.64 181.265 107.627 179.877 110.915L179.671 110.574C183.456 110.878 187.356 110.913 191.314 110.643L191.436 110.635L191.518 110.725C196.151 115.774 202.347 119.749 209.345 121.697C215.546 123.486 222.054 123.632 228.039 122.332C234.035 121.047 239.491 118.356 243.943 114.849L244.087 115.282C232.944 114.861 222.887 110.878 215.632 105.183C208.21 99.6166 203.509 92.6511 200.698 86.5619C197.886 80.4126 196.918 75.0685 196.497 71.4407C196.419 70.9877 196.378 70.5584 196.376 70.1518C196.359 69.7481 196.343 69.3702 196.328 69.0188C196.302 68.324 196.279 67.7339 196.261 67.2513C196.247 66.7884 196.236 66.4322 196.228 66.1706C196.223 65.9278 196.231 65.8045 196.231 65.8045Z" fill="#17282F"/>
<path d="M211.937 51.6918L211.873 70.8939C211.87 71.6824 212.504 72.3249 213.293 72.3318L224.698 72.4335C224.991 72.4364 225.276 72.5292 225.516 72.6989L250.851 91.9296C251.803 92.6076 253.123 91.9198 253.113 90.7503L252.639 31.3449C252.629 30.1705 251.291 29.5053 250.349 30.207L225.849 49.419C225.62 49.5897 225.346 49.6874 225.062 49.7022L213.301 50.2647C212.54 50.3012 211.94 50.9289 211.937 51.6918Z" fill="#232323"/>
<path d="M282.562 64.4218L277.398 69.4431L261.289 52.8622L266.453 47.8399L282.562 64.4218Z" fill="#232323"/>
<path d="M266.148 69.2832L261.128 64.1168L277.703 47.9998L282.723 53.1662L266.148 69.2832Z" fill="#232323"/>
<path d="M225.647 72.7512C225.505 72.7512 225.39 67.6904 225.39 61.4493C225.39 55.2071 225.505 50.1473 225.647 50.1473C225.789 50.1473 225.904 55.2071 225.904 61.4493C225.904 67.6904 225.789 72.7512 225.647 72.7512Z" fill="#17282F"/>
</g>
<defs>
<filter id="filter0_d_914_9976" x="0" y="-0.000976562" width="468" height="408.001" filterUnits="userSpaceOnUse" color-interpolation-filters="sRGB">
<feFlood flood-opacity="0" result="BackgroundImageFix"/>
<feColorMatrix in="SourceAlpha" type="matrix" values="0 0 0 0 0 0 0 0 0 0 0 0 0 0 0 0 0 0 127 0" result="hardAlpha"/>
<feOffset dy="4"/>
<feGaussianBlur stdDeviation="2"/>
<feComposite in2="hardAlpha" operator="out"/>
<feColorMatrix type="matrix" values="0 0 0 0 1 0 0 0 0 1 0 0 0 0 1 0 0 0 0.25 0"/>
<feBlend mode="normal" in2="BackgroundImageFix" result="effect1_dropShadow_914_9976"/>
<feBlend mode="normal" in="SourceGraphic" in2="effect1_dropShadow_914_9976" result="shape"/>
</filter>
</defs>
</svg>
