<svg width="255" height="220" viewBox="0 0 255 220" fill="none" xmlns="http://www.w3.org/2000/svg">
<path d="M120.915 29.6464C151.295 38.3764 185.009 19.5694 214.855 29.9744C235.904 37.3124 250.127 58.5064 253.492 80.5414C256.857 102.577 250.772 125.148 241.075 145.219C229.397 169.395 211.697 191.556 187.699 203.594C170.724 212.109 151.391 215.168 132.405 214.742C95.8444 213.922 59.1684 199.813 33.6484 173.62C8.12741 147.428 -5.12959 108.92 1.84741 73.0214C4.90241 57.2994 11.8244 42.0804 23.0964 30.7024C34.3684 19.3244 50.2174 12.1124 66.2134 12.8994C91.3824 14.1374 113.779 34.1573 138.827 31.3933" fill="#272727"/>
<path d="M211.162 110.459C213.246 92.7204 211.651 64.9014 187.464 61.0424C163.277 57.1824 145.584 79.3554 139.038 96.6144C132.492 113.873 109.328 121.537 87.9314 116.393C66.5344 111.248 72.9654 67.7324 40.8024 65.5754C22.8684 64.3724 8.9374 76.6624 0.1184 87.7724C-1.2836 119.164 11.5994 150.99 33.6504 173.621C59.1704 199.814 95.8464 213.922 132.407 214.743C151.392 215.168 170.726 212.11 187.701 203.595C211.699 191.557 229.399 169.396 241.076 145.22C241.097 145.177 241.117 145.133 241.137 145.089C208.691 158.588 209.288 126.409 211.162 110.459Z" fill="#828282"/>
<path opacity="0.15" d="M218.341 100.859C218.341 100.859 223.937 98.3504 224.967 96.2924C225.996 94.2344 224.259 92.8834 224.259 92.8834C224.259 92.8834 227.604 91.0824 228.376 89.3124C229.148 87.5424 228.119 85.4214 228.119 85.4214L211.163 96.2264C211.163 96.2264 198.272 131.414 197.758 132.057C197.243 132.7 179.133 138.487 179.133 138.487L172.542 127.169C172.542 127.169 163.922 97.1934 155.689 83.4884C147.455 69.7834 152.473 50.6494 152.473 50.6494C169.197 47.0744 164.823 33.6504 164.823 33.6504L76.8754 52.1474C71.8984 63.8214 82.9644 68.5354 83.9264 68.7754C82.9444 69.0854 73.4784 98.6194 73.4784 98.6194L56.0484 131.132C50.5804 164.298 72.3864 170.139 72.3864 170.139L69.2014 199.317C88.7134 209.024 110.58 214.253 132.408 214.743C145.002 215.025 157.746 213.761 169.857 210.401C170.4 196.369 168.877 177.472 168.877 177.472C192.227 181.235 207.087 168.692 213.334 144.666C219.58 120.639 218.341 100.859 218.341 100.859Z" fill="#777777"/>
<path d="M234.475 15.3407C233.705 12.0787 231.121 9.5507 227.859 8.7707C214.023 5.4617 199.464 5.65369 185.433 8.61769C181.47 9.45469 178.546 12.8627 178.365 16.9107C178.123 22.3297 178.075 27.7787 178.201 33.2627C174.644 34.7457 171.236 36.5457 168.205 38.8707C171.455 40.3917 174.968 41.3427 178.539 41.6967C178.977 49.3147 179.764 57.0107 180.933 64.8177C181.514 68.6937 184.579 71.7087 188.451 72.3107C201.978 74.4137 215.864 74.1917 229.316 71.6557C233.104 70.9427 236.071 67.9307 236.571 64.1087C238.827 46.8697 238.096 30.6927 234.475 15.3407Z" fill="white"/>
<path opacity="0.15" d="M179.737 55.5779C180.083 58.6429 180.469 61.7189 180.933 64.8169C181.514 68.6929 184.579 71.7079 188.451 72.3099C201.978 74.4129 215.864 74.1909 229.316 71.6549C233.104 70.9419 236.071 67.9299 236.571 64.1079C237.464 57.2869 237.881 50.6339 237.844 44.1299C214.646 57.4649 190.316 56.7449 179.737 55.5779Z" fill="#777777"/>
<path d="M182.725 9.67188C181.902 10.1599 181.167 10.7739 180.545 11.4859" stroke="#2E2854" stroke-width="0.9756" stroke-miterlimit="10" stroke-linecap="round" stroke-linejoin="round"/>
<path d="M178.365 16.9099C178.123 22.3289 178.075 27.7779 178.201 33.2619C174.644 34.7449 171.236 36.5449 168.205 38.8699C171.455 40.3909 174.968 41.3419 178.539 41.6959C178.977 49.3139 179.764 57.0099 180.933 64.8169C181.514 68.6929 184.579 71.7079 188.451 72.3099C201.978 74.4129 215.864 74.1909 229.316 71.6549C233.104 70.9419 236.071 67.9299 236.571 64.1079C238.827 46.8709 238.095 30.6929 234.475 15.3409C233.705 12.0789 231.121 9.5509 227.859 8.7709C216.751 6.1139 205.177 5.7139 193.784 7.1939" stroke="#2E2854" stroke-width="0.9756" stroke-miterlimit="10" stroke-linecap="round" stroke-linejoin="round"/>
<path d="M203.376 45.3287C202.822 45.0387 202.299 44.5137 201.808 43.7517C201.316 42.9907 201.068 42.0897 201.063 41.0497C201.058 40.0427 201.322 39.2857 201.856 38.7777C202.39 38.2717 203.176 37.8856 204.215 37.6206L208.014 36.6747C209.637 36.2447 210.446 35.4597 210.44 34.3217C210.437 33.7047 210.133 33.1697 209.53 32.7167C208.926 32.2647 207.893 32.0427 206.431 32.0497C205.098 32.0567 203.847 32.2337 202.679 32.5807C201.51 32.9277 200.569 33.3307 199.856 33.7897C199.301 33.3707 198.827 32.8607 198.434 32.2607C198.041 31.6617 197.842 30.9387 197.838 30.0937C197.834 29.2487 198.074 28.5076 198.558 27.8706C199.043 27.2346 199.714 26.7117 200.574 26.3007C201.433 25.8907 202.455 25.5847 203.642 25.3827C204.827 25.1817 206.135 25.0777 207.566 25.0697C211.401 25.0507 214.307 25.8897 216.283 27.5857C218.258 29.2827 219.253 31.5136 219.266 34.2756C219.292 39.4766 215.635 42.8276 208.297 44.3276L203.376 45.3287ZM201.8 51.7246C201.793 50.3916 202.202 49.2926 203.027 48.4266C203.851 47.5616 204.995 47.1247 206.458 47.1177C207.921 47.1107 209.069 47.5357 209.902 48.3917C210.735 49.2487 211.155 50.3446 211.162 51.6766C211.169 53.0096 210.76 54.1096 209.935 54.9746C209.11 55.8396 207.967 56.2767 206.504 56.2837C205.041 56.2907 203.893 55.8657 203.06 55.0097C202.226 54.1527 201.806 53.0576 201.8 51.7246Z" fill="#2E2854"/>
<path d="M161.27 86.7081C155.242 80.3781 152.563 71.5262 151.577 62.8402C150.591 54.1552 151.098 45.3651 150.436 36.6491C149.773 27.9331 147.796 18.9952 142.508 12.0342C136.535 4.17115 126.534 -0.373858 116.669 0.0241416C106.803 0.422142 97.3024 5.65613 91.4674 13.6211C91.2584 12.1991 90.9584 11.2661 90.6574 10.3331C90.5204 9.91013 90.2374 9.39315 89.8014 9.47415C89.4254 9.54315 89.2924 10.0051 89.2524 10.3841C89.0724 12.0541 89.2314 13.7611 89.7124 15.3711C88.5434 14.7001 87.4804 13.9961 86.3434 13.4411C85.9144 13.2311 85.2664 13.1131 85.0694 13.5501C84.9424 13.8311 85.1174 14.1511 85.2924 14.4071C86.2894 15.8621 87.4724 17.1881 88.8024 18.3461C83.8834 21.2961 81.0494 27.2171 80.6364 32.9621C80.2224 38.7061 81.8174 44.3841 83.3954 49.9241C85.1804 59.5871 82.8834 69.2601 78.7484 77.6201C76.8194 81.5201 74.4884 85.2481 73.1084 89.3741C71.7294 93.5011 71.4044 98.2251 74.2784 102.446C102.172 100.669 129.829 95.2451 161.27 86.7081Z" fill="#525252"/>
<path d="M90.1684 43.1129C85.5434 41.7169 80.1474 43.7919 77.5054 47.8369C74.8634 51.8819 75.0794 57.5389 77.8814 61.4749C80.6824 65.4099 85.8374 67.4629 90.6094 66.7069C95.3804 65.9509 99.5894 62.4999 101.435 58.0369L90.1684 43.1129Z" fill="#FF98AA"/>
<path d="M81.8754 57.3945C82.7604 53.6865 86.3024 50.7855 90.1114 50.6475" stroke="#2E2854" stroke-width="0.9756" stroke-miterlimit="10" stroke-linecap="round" stroke-linejoin="round"/>
<path d="M85.6344 52.1445C85.9764 54.8175 87.5754 57.3155 89.8974 58.7015" stroke="#2E2854" stroke-width="0.9756" stroke-miterlimit="10" stroke-linecap="round" stroke-linejoin="round"/>
<path d="M90.4254 63.0645C92.3584 64.0845 93.6394 66.2325 93.6154 68.4175C93.5994 69.8795 92.8914 71.4635 91.5194 71.9715C90.0634 72.5105 88.3724 71.6045 87.5934 70.2635C86.9824 69.2115 86.8224 67.9715 86.8694 66.7425" stroke="#7151B4" stroke-width="1.9512" stroke-miterlimit="10" stroke-linecap="round" stroke-linejoin="round"/>
<path d="M144.591 25.7291C147.357 32.8371 148.114 40.8161 146.109 48.1761C144.103 55.5351 139.217 62.1881 132.483 65.7691C124.252 70.1461 113.825 69.5481 105.658 65.0521C97.4904 60.5561 91.5724 52.5001 89.1074 42.8591C92.4634 39.9031 94.6564 35.8101 96.0094 31.5491C97.3624 27.2871 97.9354 22.8231 98.4014 18.5381C111.81 26.6291 128.539 29.0151 144.591 25.7291Z" fill="#FF98AA"/>
<path d="M145.328 45.697C142.602 44.075 138.646 45.0769 137.023 47.8019C135.4 50.5259 136.401 54.483 139.126 56.106C140.036 56.649 141.084 56.892 142.136 56.882C143.914 54.219 145.268 51.261 146.109 48.174C146.248 47.663 146.371 47.149 146.484 46.632C146.142 46.274 145.759 45.954 145.328 45.697Z" fill="#FF8095"/>
<path d="M107.97 54.6879C105.244 53.0649 101.288 54.0669 99.6654 56.7919C99.0824 57.7699 98.8434 58.9069 98.8954 60.0379C100.922 61.9969 103.185 63.6899 105.657 65.0509C105.992 65.2349 106.336 65.4029 106.678 65.5739C108.073 65.1399 109.324 64.2539 110.076 62.9929C111.698 60.2679 110.695 56.3099 107.97 54.6879Z" fill="#FF8095"/>
<path d="M114.614 44.5022C111.014 48.1812 104.405 48.2772 100.699 44.7052C96.9944 41.1332 96.8474 34.5242 100.391 30.7932C103.935 27.0602 110.541 26.8642 114.301 30.3782C118.059 33.8942 118.421 40.6102 114.614 44.5022Z" stroke="white" stroke-width="1.9512" stroke-miterlimit="10" stroke-linecap="round" stroke-linejoin="round"/>
<path d="M116.959 34.9873C117.788 33.7483 119.057 32.8032 120.491 32.3932C121.847 32.0112 123.32 32.1202 124.618 32.6652" stroke="white" stroke-width="1.9512" stroke-miterlimit="10" stroke-linecap="round" stroke-linejoin="round"/>
<path d="M140.407 35.0882C136.807 38.7672 130.198 38.8632 126.493 35.2912C122.787 31.7192 122.64 25.1102 126.184 21.3792C129.728 17.6462 136.335 17.4502 140.094 20.9642C143.853 24.4812 144.215 31.1972 140.407 35.0882Z" stroke="white" stroke-width="1.9512" stroke-miterlimit="10" stroke-linecap="round" stroke-linejoin="round"/>
<path d="M109.436 37.0905C108.383 36.4305 107.045 36.2505 105.854 36.6055C104.664 36.9595 103.643 37.8455 102.838 39.3845C101.985 38.7665 101.133 38.1505 100.28 37.5325" stroke="#2E2854" stroke-width="0.9756" stroke-miterlimit="10" stroke-linecap="round" stroke-linejoin="round"/>
<path d="M104.168 37.5922C103.836 37.0542 103.495 36.5182 103.153 35.9912" stroke="#2E2854" stroke-width="0.9756" stroke-miterlimit="10" stroke-linecap="round" stroke-linejoin="round"/>
<path d="M106.402 36.4796C106.334 36.0906 106.256 35.6996 106.168 35.3086" stroke="#2E2854" stroke-width="0.9756" stroke-miterlimit="10" stroke-linecap="round" stroke-linejoin="round"/>
<path d="M130.714 30.8977C131.478 29.9177 132.674 29.2897 133.913 29.2147C135.153 29.1417 136.414 29.6237 137.698 30.7947C138.287 29.9227 138.877 29.0507 139.468 28.1797" stroke="#2E2854" stroke-width="0.9756" stroke-miterlimit="10" stroke-linecap="round" stroke-linejoin="round"/>
<path d="M135.835 29.5658C135.963 28.9478 136.1 28.3268 136.241 27.7148" stroke="#2E2854" stroke-width="0.9756" stroke-miterlimit="10" stroke-linecap="round" stroke-linejoin="round"/>
<path d="M133.355 29.2855C133.286 28.8955 133.225 28.5015 133.175 28.1045" stroke="#2E2854" stroke-width="0.9756" stroke-miterlimit="10" stroke-linecap="round" stroke-linejoin="round"/>
<path d="M121.199 33.3271C122.917 34.2901 124.635 35.2531 126.368 36.3281C125.372 37.7371 124.089 38.9421 122.621 39.8471" stroke="#2E2854" stroke-width="0.9756" stroke-miterlimit="10" stroke-linecap="round" stroke-linejoin="round"/>
<path d="M130.91 44.2292C130.489 44.2932 130.058 44.2992 129.64 44.3812C129.222 44.4632 128.801 44.6322 128.523 44.9552C128.245 45.2782 128.147 45.7812 128.38 46.1382C128.607 46.4862 129.064 46.6032 129.48 46.6212C130.122 46.6482 130.77 46.5062 131.34 46.2112C131.66 46.0452 131.964 45.8262 132.149 45.5152C132.333 45.2072 132.379 44.7972 132.193 44.4892C132.007 44.1812 131.581 44.1282 130.91 44.2292Z" fill="#2E2854" stroke="#2E2854" stroke-width="0.9756" stroke-miterlimit="10" stroke-linecap="round" stroke-linejoin="round"/>
<path d="M144.591 25.7291C147.362 21.7711 152.886 20.0641 157.464 21.6081C162.041 23.1521 165.371 27.7321 165.604 32.5561C165.837 37.3811 163.056 42.1831 158.839 44.5401C154.622 46.8971 149.182 46.7881 144.968 44.4231L144.591 25.7291Z" fill="#FF98AA"/>
<path d="M160.177 32.1257C157.594 29.3227 153.086 28.5197 149.695 30.2597" stroke="#2E2854" stroke-width="0.9756" stroke-miterlimit="10" stroke-linecap="round" stroke-linejoin="round"/>
<path d="M154.334 29.3809C155.341 31.8809 155.165 34.8419 153.816 37.1839" stroke="#2E2854" stroke-width="0.9756" stroke-miterlimit="10" stroke-linecap="round" stroke-linejoin="round"/>
<path d="M154.269 43.0566C156.067 44.2976 157.085 46.5827 156.804 48.7497C156.615 50.1997 155.725 51.6886 154.303 52.0306C152.794 52.3936 151.221 51.2947 150.607 49.8697C150.105 48.7087 150.112 47.4056 150.328 46.1466" stroke="#7151B4" stroke-width="1.9512" stroke-miterlimit="10" stroke-linecap="round" stroke-linejoin="round"/>
<path d="M153.248 158.108C155.767 163.725 160.252 168.436 165.738 171.23C171.224 174.022 177.672 174.877 183.695 173.609C194.093 171.422 202.421 163.23 207.378 153.833C212.336 144.436 214.85 133.909 216.466 123.407L191.232 118.643C190.08 122.45 188.643 126.17 186.934 129.759C186.26 131.175 185.525 132.597 184.408 133.697C183.291 134.797 181.716 135.539 180.167 135.3C178.539 135.049 177.222 133.76 176.497 132.28C175.773 130.8 175.543 129.135 175.321 127.501C174.416 120.794 173.508 114.085 172.603 107.377C171.98 102.761 171.348 98.1127 169.853 93.7007C168.357 89.2897 165.925 85.0808 162.265 82.2018C160.044 80.4548 157.5 79.2807 154.802 78.4697C154.802 78.4697 150.231 104.281 149.294 122.286C148.354 140.291 153.248 158.108 153.248 158.108Z" fill="#84CBBD"/>
<mask id="mask0_119_4265" style="mask-type:luminance" maskUnits="userSpaceOnUse" x="149" y="78" width="68" height="97">
<path d="M153.248 158.108C155.767 163.725 160.252 168.436 165.738 171.23C171.224 174.022 177.672 174.877 183.695 173.609C194.093 171.422 202.421 163.23 207.378 153.833C212.336 144.436 214.85 133.909 216.466 123.407L191.232 118.643C190.08 122.45 188.643 126.17 186.934 129.759C186.26 131.175 185.525 132.597 184.408 133.697C183.291 134.797 181.716 135.539 180.167 135.3C178.539 135.049 177.222 133.76 176.497 132.28C175.773 130.8 175.543 129.135 175.321 127.501C174.416 120.794 173.508 114.085 172.603 107.377C171.98 102.761 171.348 98.1127 169.853 93.7007C168.357 89.2897 165.925 85.0808 162.265 82.2018C160.044 80.4548 157.5 79.2807 154.802 78.4697C154.802 78.4697 150.231 104.281 149.294 122.286C148.354 140.291 153.248 158.108 153.248 158.108Z" fill="white"/>
</mask>
<g mask="url(#mask0_119_4265)">
<path d="M153.26 104.839C159.811 101.634 165.84 97.366 171.038 92.251" stroke="#E0D570" stroke-width="1.9512" stroke-miterlimit="10" stroke-linecap="round" stroke-linejoin="round"/>
<path d="M154.664 120.455C161.667 117.917 168.256 114.241 174.094 109.616" stroke="#E0D570" stroke-width="1.9512" stroke-miterlimit="10" stroke-linecap="round" stroke-linejoin="round"/>
<path d="M156.072 138.095C163.124 136.043 169.825 132.796 175.805 128.531" stroke="#E0D570" stroke-width="1.9512" stroke-miterlimit="10" stroke-linecap="round" stroke-linejoin="round"/>
<path d="M180.992 133.837C176.286 146.882 167.88 158.57 157.01 167.181" stroke="#E0D570" stroke-width="1.9512" stroke-miterlimit="10" stroke-linecap="round" stroke-linejoin="round"/>
<path d="M183.25 133.641C190.149 145.803 193.943 159.71 194.175 173.691" stroke="#E0D570" stroke-width="1.9512" stroke-miterlimit="10" stroke-linecap="round" stroke-linejoin="round"/>
<path d="M185.679 129.261C197.26 132.396 207.659 139.723 214.506 149.574" stroke="#E0D570" stroke-width="1.9512" stroke-miterlimit="10" stroke-linecap="round" stroke-linejoin="round"/>
</g>
<path opacity="0.15" d="M212.553 141.131C207.789 148.142 197.619 160.107 182.82 161.776C169.209 163.31 157.762 155.277 151.34 149.372C152.314 154.705 153.248 158.108 153.248 158.108C155.767 163.725 160.252 168.436 165.738 171.23C171.224 174.022 177.672 174.877 183.695 173.609C194.093 171.422 202.421 163.23 207.378 153.832C209.517 149.778 211.199 145.513 212.553 141.131Z" fill="#777777"/>
<path d="M153.248 158.107C155.767 163.724 160.252 168.435 165.738 171.229C171.224 174.021 177.672 174.876 183.695 173.608C194.093 171.421 202.421 163.229 207.378 153.832C212.336 144.435 214.85 133.908 216.466 123.406" stroke="#2E2854" stroke-width="0.9756" stroke-miterlimit="10" stroke-linecap="round" stroke-linejoin="round"/>
<path d="M199.797 92.4684C203.773 89.2094 207.747 85.9504 211.723 82.6914C213.307 81.3934 214.959 80.0594 216.94 79.5434C217.786 79.3224 218.926 79.4104 219.214 80.2364C219.438 80.8824 218.976 81.5484 218.533 82.0694C218.127 82.5474 217.714 83.0204 217.295 83.4874L217.294 83.4864C218.818 82.6324 220.388 81.8704 222.025 81.2494C222.814 80.9494 223.794 80.7134 224.43 81.2694C224.923 81.6994 224.988 82.4714 224.756 83.0834C224.525 83.6954 224.057 84.1813 223.591 84.6423C223.139 85.0903 222.679 85.5293 222.212 85.9613C223.42 85.4423 224.644 84.9594 225.888 84.5284C226.536 84.3044 227.219 84.0904 227.896 84.1974C228.574 84.3064 229.234 84.8404 229.247 85.5264C229.262 86.1724 228.738 86.6874 228.248 87.1084C226.063 88.9894 223.752 90.7234 221.336 92.2954C221.805 92.1534 222.276 92.0204 222.75 91.8954C223.542 91.6854 224.565 91.5814 225.01 92.2684C225.284 92.6894 225.199 93.2684 224.932 93.6924C224.665 94.1184 224.246 94.4234 223.833 94.7084C221.73 96.1614 219.476 97.3973 217.167 98.6163L211.456 103.019L198.848 96.5473L199.797 92.4684Z" fill="#FF98AA"/>
<path d="M216.465 123.406C217.766 114.951 217.626 106.743 217.168 98.6173L213.331 98.5903C210.513 94.6833 205.645 92.3464 200.834 92.5894C200.402 89.8394 199.237 87.2454 197.516 85.0924C196.9 84.3234 195.967 83.5414 195.04 83.8734C193.936 84.2694 193.902 85.7964 194.047 86.9604C195.356 97.5624 194.326 108.414 191.231 118.642L216.465 123.406Z" fill="#FF98AA"/>
<path d="M213.332 98.5903C210.514 94.6833 205.646 92.3464 200.835 92.5894C200.403 89.8394 199.238 87.2454 197.517 85.0924C196.901 84.3234 195.968 83.5414 195.041 83.8734C193.937 84.2694 193.903 85.7964 194.048 86.9604C195.357 97.5624 194.327 108.414 191.232 118.642" stroke="#2E2854" stroke-width="0.9756" stroke-miterlimit="10" stroke-linecap="round" stroke-linejoin="round"/>
<path d="M214.592 94.9519C216.7 93.9149 219.089 92.9739 221.338 92.2959" stroke="#2E2854" stroke-width="0.9756" stroke-miterlimit="10" stroke-linecap="round" stroke-linejoin="round"/>
<path d="M211.541 91.2859C214.779 89.5539 218.844 87.4089 222.214 85.9609" stroke="#2E2854" stroke-width="0.9756" stroke-miterlimit="10" stroke-linecap="round" stroke-linejoin="round"/>
<path d="M208.552 89.3103C211.341 87.2923 214.299 85.1643 217.295 83.4863" stroke="#2E2854" stroke-width="0.9756" stroke-miterlimit="10" stroke-linecap="round" stroke-linejoin="round"/>
<path d="M205.468 87.8203C207.553 86.1113 209.638 84.4013 211.723 82.6923C213.307 81.3943 214.959 80.0603 216.94 79.5443C217.786 79.3233 218.926 79.4113 219.214 80.2373C219.438 80.8833 218.976 81.5493 218.533 82.0703C218.127 82.5483 217.714 83.0213 217.295 83.4883L217.294 83.4873C218.818 82.6333 220.388 81.8713 222.025 81.2503C222.814 80.9503 223.794 80.7143 224.43 81.2703C224.923 81.7003 224.988 82.4723 224.756 83.0843C224.525 83.6963 224.057 84.1823 223.591 84.6433C223.139 85.0913 222.679 85.5303 222.212 85.9623C223.42 85.4433 224.644 84.9603 225.888 84.5293C226.536 84.3053 227.219 84.0913 227.896 84.1983C228.574 84.3073 229.234 84.8413 229.247 85.5273C229.262 86.1733 228.738 86.6883 228.248 87.1093C226.063 88.9903 223.752 90.7243 221.336 92.2963C221.805 92.1543 222.276 92.0213 222.75 91.8963C223.542 91.6863 224.565 91.5823 225.01 92.2693C225.284 92.6903 225.199 93.2694 224.932 93.6934C224.665 94.1194 224.246 94.4243 223.833 94.7093C221.73 96.1623 219.476 97.3983 217.167 98.6173" stroke="#2E2854" stroke-width="0.9756" stroke-miterlimit="10" stroke-linecap="round" stroke-linejoin="round"/>
<path d="M207.107 88.623C209.987 89.858 213.829 92.262 215.317 96.612" stroke="#2E2854" stroke-width="0.9756" stroke-miterlimit="10" stroke-linecap="round" stroke-linejoin="round"/>
<path d="M217.505 121.714C209.425 117.964 200.506 116.057 191.64 116.441C190.434 116.493 189.442 117.408 189.331 118.609C189.318 118.75 189.305 118.89 189.292 119.031C189.181 120.253 190.022 121.347 191.227 121.58C199.37 123.156 207.377 125.443 215.125 128.407C216.51 128.937 218.04 128.117 218.335 126.664L218.807 124.341C219.025 123.27 218.496 122.173 217.505 121.714Z" fill="#84CBBD"/>
<path d="M217.505 121.714C209.425 117.964 200.506 116.057 191.64 116.441C190.434 116.493 189.442 117.408 189.331 118.609C189.318 118.75 189.305 118.89 189.292 119.031C189.181 120.253 190.022 121.347 191.227 121.58C199.37 123.156 207.377 125.443 215.125 128.407C216.51 128.937 218.04 128.117 218.335 126.664L218.807 124.341C219.025 123.27 218.496 122.173 217.505 121.714Z" stroke="#2E2854" stroke-width="0.9756" stroke-miterlimit="10" stroke-linecap="round" stroke-linejoin="round"/>
<path d="M64.4154 160.63C63.2494 159.394 62.2224 158.006 61.3124 156.578C54.1044 145.27 53.0894 130.554 57.4964 117.889C61.6954 105.828 70.4834 95.6484 81.2094 88.6914C81.2094 88.6914 92.1394 110.313 86.8614 129.097C81.5844 147.88 63.8304 160.63 63.8304 160.63" fill="#84CBBD"/>
<mask id="mask1_119_4265" style="mask-type:luminance" maskUnits="userSpaceOnUse" x="54" y="88" width="35" height="73">
<path d="M64.4154 160.63C63.2494 159.394 62.2224 158.006 61.3124 156.578C54.1044 145.27 53.0894 130.554 57.4964 117.889C61.6954 105.828 70.4834 95.6484 81.2094 88.6914C81.2094 88.6914 92.1394 110.313 86.8614 129.097C81.5844 147.88 63.8304 160.63 63.8304 160.63" fill="white"/>
</mask>
<g mask="url(#mask1_119_4265)">
<path d="M64.4194 100.286C71.1294 103.153 77.0084 107.938 81.1814 113.924" stroke="#E0D570" stroke-width="1.9512" stroke-miterlimit="10" stroke-linecap="round" stroke-linejoin="round"/>
<path d="M57.7964 111.798C64.6994 115.111 71.8794 118.649 76.4504 124.792" stroke="#E0D570" stroke-width="1.9512" stroke-miterlimit="10" stroke-linecap="round" stroke-linejoin="round"/>
<path d="M53.4624 131.945C58.4734 134.965 64.3874 136.466 70.2324 136.2" stroke="#E0D570" stroke-width="1.9512" stroke-miterlimit="10" stroke-linecap="round" stroke-linejoin="round"/>
</g>
<g opacity="0.15">
<path d="M64.4154 160.63C64.3354 160.545 64.2614 160.455 64.1824 160.368C63.9604 160.536 63.8304 160.63 63.8304 160.63H64.4154Z" fill="#777777"/>
<path d="M73.4774 151.786C65.5774 151.104 59.6134 147.001 56.0474 143.872C57.0914 148.363 58.8244 152.676 61.3124 156.579C62.1604 157.909 63.1144 159.199 64.1824 160.369C65.3234 159.506 69.1704 156.481 73.4774 151.786Z" fill="#777777"/>
</g>
<path d="M154.8 78.4683C153.018 77.9333 151.169 77.5613 149.303 77.2812L120.328 93.4283L92.0504 82.9633C88.8734 84.3133 85.7894 85.8753 82.8324 87.6713C82.2864 88.0033 81.7454 88.3432 81.2094 88.6902C81.8354 99.1602 81.8874 109.663 81.3634 120.139C79.4534 147.587 76.7774 174.547 73.5234 201.369C91.9144 209.756 112.176 214.286 132.406 214.74C143.562 214.99 154.834 214.024 165.681 211.468C165.852 177.224 162.851 142.942 156.364 108.603C155.171 98.6072 154.648 88.5323 154.8 78.4683Z" fill="#84CBBD"/>
<mask id="mask2_119_4265" style="mask-type:luminance" maskUnits="userSpaceOnUse" x="72" y="76" width="94" height="144">
<path d="M121.02 76.2935C107.642 77.2155 94.2934 80.7096 82.8334 87.6736C82.2874 88.0056 81.7464 88.3446 81.2104 88.6926C81.8374 99.1626 81.8894 109.666 81.3644 120.142C79.2354 150.742 76.1594 180.735 72.3854 210.606C102.431 219.894 134.796 221.572 165.658 215.382C166.087 179.837 163.099 144.251 156.364 108.605C155.171 98.6085 154.649 88.5335 154.801 78.4695C151.4 77.4475 147.755 77.0026 144.206 76.7136C137.35 76.1546 127.892 76.0015 121.02 76.2935Z" fill="white"/>
</mask>
<g mask="url(#mask2_119_4265)">
<path d="M80.6764 103.715C106.205 108.543 132.68 108.305 158.117 103.02" stroke="#E0D570" stroke-width="1.9512" stroke-miterlimit="10" stroke-linecap="round" stroke-linejoin="round"/>
<path d="M79.8824 120.011C106.017 125.966 133.464 126.075 159.645 120.33" stroke="#E0D570" stroke-width="1.9512" stroke-miterlimit="10" stroke-linecap="round" stroke-linejoin="round"/>
<path d="M78.8724 136.743C106.88 141.958 135.965 141.315 163.715 134.866" stroke="#E0D570" stroke-width="1.9512" stroke-miterlimit="10" stroke-linecap="round" stroke-linejoin="round"/>
<path d="M77.4614 150.988C106.042 157.014 135.876 157.036 164.466 151.049" stroke="#E0D570" stroke-width="1.9512" stroke-miterlimit="10" stroke-linecap="round" stroke-linejoin="round"/>
<path d="M76.4584 167.093C105.69 171.586 135.521 172.166 164.906 168.812" stroke="#E0D570" stroke-width="1.9512" stroke-miterlimit="10" stroke-linecap="round" stroke-linejoin="round"/>
<path d="M73.5924 183.446C104.586 190.168 136.937 190.563 168.086 184.603" stroke="#E0D570" stroke-width="1.9512" stroke-miterlimit="10" stroke-linecap="round" stroke-linejoin="round"/>
<path d="M71.5204 198.887C87.3404 201.465 103.193 204.045 119.192 205.028C135.191 206.011 151.399 205.368 166.971 201.568" stroke="#E0D570" stroke-width="1.9512" stroke-miterlimit="10" stroke-linecap="round" stroke-linejoin="round"/>
</g>
<path d="M81.3634 120.141C79.4534 147.589 76.7824 174.55 73.5284 201.371" stroke="#2E2854" stroke-width="0.9756" stroke-miterlimit="10" stroke-linecap="round" stroke-linejoin="round"/>
<path d="M165.691 211.469C165.862 177.225 162.851 142.943 156.364 108.604" stroke="#2E2854" stroke-width="0.9756" stroke-miterlimit="10" stroke-linecap="round" stroke-linejoin="round"/>
<path d="M146.092 76.8906L127.213 92.6566L94.5864 81.9576C93.7374 82.2836 92.8874 82.6086 92.0504 82.9646C95.0544 88.4016 98.6544 93.5576 103.374 97.5726C108.645 102.057 115.458 105.022 122.367 104.623C129.635 104.204 136.37 100.072 141 94.4516C145.076 89.5056 147.656 83.4966 149.302 77.2826C148.235 77.1226 147.163 76.9996 146.092 76.8906Z" fill="#E0D570"/>
<path d="M138.36 93.3526C142.518 88.8216 145.053 82.9686 146.093 76.8906C145.463 76.8276 144.831 76.7636 144.205 76.7126C137.35 76.1546 127.892 76.0016 121.02 76.2936C111.997 76.9156 102.99 78.7136 94.5644 81.9506C97.0854 86.6146 100.135 91.0316 104.087 94.5526C108.374 98.3716 113.796 101.088 119.527 101.427C126.574 101.845 133.587 98.5546 138.36 93.3526Z" fill="#FF98AA"/>
<path opacity="0.15" d="M121.02 76.2931C118.82 76.4451 116.622 76.6691 114.433 76.9641L79.9714 138.349C79.0224 149.895 77.9454 161.369 76.7514 172.794C82.1174 172.374 93.0284 170.036 101.387 158.558C112.912 142.734 120.678 91.2861 120.678 91.2861C120.678 91.2861 131.886 90.5001 134.873 76.2351C130.065 76.1041 125.09 76.1201 121.02 76.2931Z" fill="#777777"/>
<path d="M90.3974 94.8594C80.5894 109.166 72.9804 124.984 68.0604 141.618L64.4144 160.63C65.9484 162.256 67.7214 163.619 69.7824 164.462C74.5584 166.416 80.1384 165.235 84.6364 162.705C94.5554 157.127 99.9054 146.078 104.118 135.507C107.555 126.887 110.626 118.122 113.351 109.251C105.721 103.586 96.3694 98.1524 90.3974 94.8594Z" fill="#84CBBD"/>
<mask id="mask3_119_4265" style="mask-type:luminance" maskUnits="userSpaceOnUse" x="64" y="94" width="50" height="72">
<path d="M90.3974 94.8594C80.5894 109.166 72.9804 124.984 68.0604 141.618L64.4144 160.63C65.9484 162.256 67.7214 163.619 69.7824 164.462C74.5584 166.416 80.1384 165.235 84.6364 162.705C94.5554 157.127 99.9054 146.078 104.118 135.507C107.555 126.887 110.626 118.122 113.351 109.251C105.721 103.586 96.3694 98.1524 90.3974 94.8594Z" fill="white"/>
</mask>
<g mask="url(#mask3_119_4265)">
<path d="M67.5284 137.802C74.4874 147.604 84.6184 155.117 96.0194 158.93" stroke="#E0D570" stroke-width="1.9512" stroke-miterlimit="10" stroke-linecap="round" stroke-linejoin="round"/>
<path d="M72.4004 125.576C80.5064 134.799 92.1224 140.86 104.325 142.232" stroke="#E0D570" stroke-width="1.9512" stroke-miterlimit="10" stroke-linecap="round" stroke-linejoin="round"/>
<path d="M79.6124 110.348C87.3554 120.142 99.1374 126.642 111.551 127.969" stroke="#E0D570" stroke-width="1.9512" stroke-miterlimit="10" stroke-linecap="round" stroke-linejoin="round"/>
</g>
<path opacity="0.15" d="M82.7424 150.989C76.4224 152.608 70.9324 151.87 66.4164 150.197L64.4154 160.632C65.9494 162.258 67.7224 163.621 69.7834 164.464C74.5594 166.418 80.1394 165.237 84.6374 162.707C94.5564 157.129 99.9064 146.08 104.119 135.509C104.698 134.056 105.252 132.593 105.811 131.131C99.7424 139.82 91.6274 148.712 82.7424 150.989Z" fill="#777777"/>
<path d="M64.4154 160.63C65.9494 162.256 67.7224 163.619 69.7834 164.462C74.5594 166.416 80.1394 165.235 84.6374 162.705C94.5564 157.127 99.9064 146.078 104.119 135.507C107.556 126.887 110.627 118.122 113.352 109.251C105.722 103.586 96.3694 98.1524 90.3984 94.8594C80.5904 109.166 72.9814 124.984 68.0614 141.618" stroke="#2E2854" stroke-width="0.9756" stroke-miterlimit="10" stroke-linecap="round" stroke-linejoin="round"/>
<path d="M136.822 53.5277C136.193 52.6457 134.815 53.0037 133.854 53.5057C127.556 56.7947 122.483 62.4847 115.639 64.3907C114.654 61.9087 113.645 59.5347 112.347 57.3307C111.859 56.5017 111.099 55.5866 110.151 55.7506C109.536 55.8576 109.082 56.4227 108.913 57.0237C108.745 57.6237 108.806 58.2626 108.865 58.8846C109.207 62.5046 109.421 66.2077 108.537 69.7357C107.364 74.4157 104.361 78.4127 101.156 82.0207C97.9524 85.6287 94.4594 89.0386 91.4404 93.3416C91.0874 93.8446 90.7444 94.3547 90.3964 94.8607L101.384 103.022L113.349 109.253C115.463 102.369 117.374 95.4227 119.05 88.4197C124.451 86.3077 128.592 82.7686 130.321 78.2286C132.049 73.6896 131.31 68.2916 128.425 64.3846C130.701 61.6426 133.393 59.0647 135.946 56.3567C136.684 55.5737 137.445 54.4027 136.822 53.5277Z" fill="#FF98AA"/>
<path d="M136.822 53.5277C136.193 52.6457 134.815 53.0037 133.854 53.5057C127.556 56.7947 122.483 62.4847 115.639 64.3907C114.654 61.9087 113.645 59.5347 112.347 57.3307C111.859 56.5017 111.099 55.5866 110.151 55.7506C109.536 55.8576 109.082 56.4227 108.913 57.0237C108.745 57.6237 108.806 58.2626 108.865 58.8846C109.207 62.5046 109.421 66.2077 108.537 69.7357C107.364 74.4157 104.361 78.4127 101.156 82.0207C97.9524 85.6287 94.4594 89.0386 91.4404 93.3416C91.0874 93.8446 90.7444 94.3547 90.3964 94.8607L101.384 103.022L113.349 109.253C115.463 102.369 117.374 95.4227 119.05 88.4197C124.451 86.3077 128.592 82.7686 130.321 78.2286C132.049 73.6896 131.31 68.2916 128.425 64.3846C130.701 61.6426 133.393 59.0647 135.946 56.3567C136.684 55.5737 137.445 54.4027 136.822 53.5277Z" stroke="#2E2854" stroke-width="0.9756" stroke-miterlimit="10" stroke-linecap="round" stroke-linejoin="round"/>
<path d="M110.78 111.897C103.462 107.591 96.2814 103.019 89.1174 98.1653C87.8814 97.3273 87.5584 95.6343 88.3994 94.3993C88.6974 93.9613 89.0254 93.5473 89.3844 93.1633C90.1414 92.3533 91.3294 92.0793 92.3544 92.5013C100.635 95.9033 108.143 101.161 114.158 107.769C114.8 108.475 115.001 109.479 114.709 110.388C114.183 112.029 112.266 112.771 110.78 111.897Z" fill="#84CBBD"/>
<path d="M110.78 111.897C103.462 107.591 96.2814 103.019 89.1174 98.1653C87.8814 97.3273 87.5584 95.6343 88.3994 94.3993C88.6974 93.9613 89.0254 93.5473 89.3844 93.1633C90.1414 92.3533 91.3294 92.0793 92.3544 92.5013C100.635 95.9033 108.143 101.161 114.158 107.769C114.8 108.475 115.001 109.479 114.709 110.388C114.183 112.029 112.266 112.771 110.78 111.897Z" stroke="#2E2854" stroke-width="0.9756" stroke-miterlimit="10" stroke-linecap="round" stroke-linejoin="round"/>
</svg>
