<svg width="263" height="223" viewBox="0 0 263 223" fill="none" xmlns="http://www.w3.org/2000/svg">
<g filter="url(#filter0_d_119_4769)">
<path d="M124.915 29.6464C155.295 38.3764 189.009 19.5694 218.855 29.9744C239.904 37.3124 254.127 58.5064 257.492 80.5414C260.857 102.577 254.772 125.148 245.075 145.219C233.397 169.395 215.697 191.556 191.699 203.594C174.724 212.109 155.391 215.168 136.405 214.742C99.8444 213.922 63.1684 199.813 37.6484 173.62C12.1274 147.428 -1.12959 108.92 5.84741 73.0214C8.90241 57.2994 15.8244 42.0804 27.0964 30.7024C38.3684 19.3244 54.2174 12.1124 70.2134 12.8994C95.3824 14.1374 117.779 34.1573 142.827 31.3933" fill="#FA52F2"/>
<path d="M215.162 110.459C217.246 92.7204 215.651 64.9014 191.464 61.0424C167.277 57.1824 149.584 79.3554 143.038 96.6144C136.492 113.873 113.328 121.537 91.9315 116.393C70.5345 111.248 76.9655 67.7324 44.8025 65.5754C26.8685 64.3724 12.9375 76.6624 4.11846 87.7724C2.71646 119.164 15.5995 150.99 37.6505 173.621C63.1705 199.814 99.8465 213.922 136.407 214.743C155.392 215.168 174.726 212.11 191.701 203.595C215.699 191.557 233.399 169.396 245.076 145.22C245.097 145.177 245.117 145.133 245.137 145.089C212.691 158.588 213.288 126.409 215.162 110.459Z" fill="#D145CA"/>
<path opacity="0.15" d="M222.341 100.859C222.341 100.859 227.937 98.3504 228.967 96.2924C229.996 94.2344 228.259 92.8834 228.259 92.8834C228.259 92.8834 231.604 91.0824 232.376 89.3124C233.148 87.5424 232.119 85.4214 232.119 85.4214L215.163 96.2264C215.163 96.2264 202.272 131.414 201.758 132.057C201.243 132.7 183.133 138.487 183.133 138.487L176.542 127.169C176.542 127.169 167.922 97.1934 159.689 83.4884C151.455 69.7834 156.473 50.6494 156.473 50.6494C173.197 47.0744 168.823 33.6504 168.823 33.6504L80.8754 52.1474C75.8984 63.8214 86.9644 68.5354 87.9264 68.7754C86.9444 69.0854 77.4784 98.6194 77.4784 98.6194L60.0484 131.132C54.5804 164.298 76.3864 170.139 76.3864 170.139L73.2014 199.317C92.7134 209.024 114.58 214.253 136.408 214.743C149.002 215.025 161.746 213.761 173.857 210.401C174.4 196.369 172.877 177.472 172.877 177.472C196.227 181.235 211.087 168.692 217.334 144.666C223.58 120.639 222.341 100.859 222.341 100.859Z" fill="#402995"/>
<path d="M238.475 15.3407C237.705 12.0787 235.121 9.5507 231.859 8.7707C218.023 5.4617 203.464 5.65369 189.433 8.61769C185.47 9.45469 182.546 12.8627 182.365 16.9107C182.123 22.3297 182.075 27.7787 182.201 33.2627C178.644 34.7457 175.236 36.5457 172.205 38.8707C175.455 40.3917 178.968 41.3427 182.539 41.6967C182.977 49.3147 183.764 57.0107 184.933 64.8177C185.514 68.6937 188.579 71.7087 192.451 72.3107C205.978 74.4137 219.864 74.1917 233.316 71.6557C237.104 70.9427 240.071 67.9307 240.571 64.1087C242.827 46.8697 242.096 30.6927 238.475 15.3407Z" fill="white"/>
<path opacity="0.15" d="M183.737 55.5779C184.083 58.6429 184.469 61.7189 184.933 64.8169C185.514 68.6929 188.579 71.7079 192.451 72.3099C205.978 74.4129 219.864 74.1909 233.316 71.6549C237.104 70.9419 240.071 67.9299 240.571 64.1079C241.464 57.2869 241.881 50.6339 241.844 44.1299C218.646 57.4649 194.316 56.7449 183.737 55.5779Z" fill="#402995"/>
<path d="M186.725 9.67188C185.902 10.1599 185.167 10.7739 184.545 11.4859" stroke="#2E2854" stroke-width="0.9756" stroke-miterlimit="10" stroke-linecap="round" stroke-linejoin="round"/>
<path d="M182.365 16.9099C182.123 22.3289 182.075 27.7779 182.201 33.2619C178.644 34.7449 175.236 36.5449 172.205 38.8699C175.455 40.3909 178.968 41.3419 182.539 41.6959C182.977 49.3139 183.764 57.0099 184.933 64.8169C185.514 68.6929 188.579 71.7079 192.451 72.3099C205.978 74.4129 219.864 74.1909 233.316 71.6549C237.104 70.9419 240.071 67.9299 240.571 64.1079C242.827 46.8709 242.095 30.6929 238.475 15.3409C237.705 12.0789 235.121 9.5509 231.859 8.7709C220.751 6.1139 209.177 5.7139 197.784 7.1939" stroke="#2E2854" stroke-width="0.9756" stroke-miterlimit="10" stroke-linecap="round" stroke-linejoin="round"/>
<path d="M207.376 45.3287C206.822 45.0387 206.299 44.5137 205.808 43.7517C205.316 42.9907 205.068 42.0897 205.063 41.0497C205.058 40.0427 205.322 39.2857 205.856 38.7777C206.39 38.2717 207.176 37.8856 208.215 37.6206L212.014 36.6747C213.637 36.2447 214.446 35.4597 214.44 34.3217C214.437 33.7047 214.133 33.1697 213.53 32.7167C212.926 32.2647 211.893 32.0427 210.431 32.0497C209.098 32.0567 207.847 32.2337 206.679 32.5807C205.51 32.9277 204.569 33.3307 203.856 33.7897C203.301 33.3707 202.827 32.8607 202.434 32.2607C202.041 31.6617 201.842 30.9387 201.838 30.0937C201.834 29.2487 202.074 28.5076 202.558 27.8706C203.043 27.2346 203.714 26.7117 204.574 26.3007C205.433 25.8907 206.455 25.5847 207.642 25.3827C208.827 25.1817 210.135 25.0777 211.566 25.0697C215.401 25.0507 218.307 25.8897 220.283 27.5857C222.258 29.2827 223.253 31.5136 223.266 34.2756C223.292 39.4766 219.635 42.8276 212.297 44.3276L207.376 45.3287ZM205.8 51.7246C205.793 50.3916 206.202 49.2926 207.027 48.4266C207.851 47.5616 208.995 47.1247 210.458 47.1177C211.921 47.1107 213.069 47.5357 213.902 48.3917C214.735 49.2487 215.155 50.3446 215.162 51.6766C215.169 53.0096 214.76 54.1096 213.935 54.9746C213.11 55.8396 211.967 56.2767 210.504 56.2837C209.041 56.2907 207.893 55.8657 207.06 55.0097C206.226 54.1527 205.806 53.0576 205.8 51.7246Z" fill="#2E2854"/>
<path d="M165.27 86.7081C159.242 80.3781 156.563 71.5262 155.577 62.8402C154.591 54.1552 155.098 45.3651 154.436 36.6491C153.773 27.9331 151.796 18.9952 146.508 12.0342C140.535 4.17115 130.534 -0.373858 120.669 0.0241416C110.803 0.422142 101.302 5.65613 95.4674 13.6211C95.2584 12.1991 94.9584 11.2661 94.6574 10.3331C94.5204 9.91013 94.2374 9.39315 93.8014 9.47415C93.4254 9.54315 93.2924 10.0051 93.2524 10.3841C93.0724 12.0541 93.2314 13.7611 93.7124 15.3711C92.5434 14.7001 91.4804 13.9961 90.3434 13.4411C89.9144 13.2311 89.2664 13.1131 89.0694 13.5501C88.9424 13.8311 89.1174 14.1511 89.2924 14.4071C90.2894 15.8621 91.4724 17.1881 92.8024 18.3461C87.8834 21.2961 85.0494 27.2171 84.6364 32.9621C84.2224 38.7061 85.8174 44.3841 87.3954 49.9241C89.1804 59.5871 86.8834 69.2601 82.7484 77.6201C80.8194 81.5201 78.4884 85.2481 77.1084 89.3741C75.7294 93.5011 75.4044 98.2251 78.2784 102.446C106.172 100.669 133.829 95.2451 165.27 86.7081Z" fill="#CC5E43"/>
<path d="M94.1684 43.1129C89.5434 41.7169 84.1474 43.7919 81.5054 47.8369C78.8634 51.8819 79.0794 57.5389 81.8814 61.4749C84.6824 65.4099 89.8374 67.4629 94.6094 66.7069C99.3804 65.9509 103.589 62.4999 105.435 58.0369L94.1684 43.1129Z" fill="#FF98AA"/>
<path d="M85.8754 57.3945C86.7604 53.6865 90.3024 50.7855 94.1114 50.6475" stroke="#2E2854" stroke-width="0.9756" stroke-miterlimit="10" stroke-linecap="round" stroke-linejoin="round"/>
<path d="M89.6344 52.1445C89.9764 54.8175 91.5754 57.3155 93.8974 58.7015" stroke="#2E2854" stroke-width="0.9756" stroke-miterlimit="10" stroke-linecap="round" stroke-linejoin="round"/>
<path d="M94.4254 63.0645C96.3584 64.0845 97.6394 66.2325 97.6154 68.4175C97.5994 69.8795 96.8914 71.4635 95.5194 71.9715C94.0634 72.5105 92.3724 71.6045 91.5934 70.2635C90.9824 69.2115 90.8224 67.9715 90.8694 66.7425" stroke="#7151B4" stroke-width="1.9512" stroke-miterlimit="10" stroke-linecap="round" stroke-linejoin="round"/>
<path d="M148.591 25.7291C151.357 32.8371 152.114 40.8161 150.109 48.1761C148.103 55.5351 143.217 62.1881 136.483 65.7691C128.252 70.1461 117.825 69.5481 109.658 65.0521C101.49 60.5561 95.5724 52.5001 93.1074 42.8591C96.4634 39.9031 98.6564 35.8101 100.009 31.5491C101.362 27.2871 101.935 22.8231 102.401 18.5381C115.81 26.6291 132.539 29.0151 148.591 25.7291Z" fill="#FF98AA"/>
<path d="M149.328 45.697C146.602 44.075 142.646 45.0769 141.023 47.8019C139.4 50.5259 140.401 54.483 143.126 56.106C144.036 56.649 145.084 56.892 146.136 56.882C147.914 54.219 149.268 51.261 150.109 48.174C150.248 47.663 150.371 47.149 150.484 46.632C150.142 46.274 149.759 45.954 149.328 45.697Z" fill="#FF8095"/>
<path d="M111.97 54.6879C109.244 53.0649 105.288 54.0669 103.665 56.7919C103.082 57.7699 102.843 58.9069 102.895 60.0379C104.922 61.9969 107.185 63.6899 109.657 65.0509C109.992 65.2349 110.336 65.4029 110.678 65.5739C112.073 65.1399 113.324 64.2539 114.076 62.9929C115.698 60.2679 114.695 56.3099 111.97 54.6879Z" fill="#FF8095"/>
<path d="M118.614 44.5022C115.014 48.1812 108.405 48.2772 104.699 44.7052C100.994 41.1332 100.847 34.5242 104.391 30.7932C107.935 27.0602 114.541 26.8642 118.301 30.3782C122.059 33.8942 122.421 40.6102 118.614 44.5022Z" stroke="white" stroke-width="1.9512" stroke-miterlimit="10" stroke-linecap="round" stroke-linejoin="round"/>
<path d="M120.959 34.9873C121.788 33.7483 123.057 32.8032 124.491 32.3932C125.847 32.0112 127.32 32.1202 128.618 32.6652" stroke="white" stroke-width="1.9512" stroke-miterlimit="10" stroke-linecap="round" stroke-linejoin="round"/>
<path d="M144.407 35.0882C140.807 38.7672 134.198 38.8632 130.493 35.2912C126.787 31.7192 126.64 25.1102 130.184 21.3792C133.728 17.6462 140.335 17.4502 144.094 20.9642C147.853 24.4812 148.215 31.1972 144.407 35.0882Z" stroke="white" stroke-width="1.9512" stroke-miterlimit="10" stroke-linecap="round" stroke-linejoin="round"/>
<path d="M113.436 37.0905C112.383 36.4305 111.045 36.2505 109.854 36.6055C108.664 36.9595 107.643 37.8455 106.838 39.3845C105.985 38.7665 105.133 38.1505 104.28 37.5325" stroke="#2E2854" stroke-width="0.9756" stroke-miterlimit="10" stroke-linecap="round" stroke-linejoin="round"/>
<path d="M108.168 37.5922C107.836 37.0542 107.495 36.5182 107.153 35.9912" stroke="#2E2854" stroke-width="0.9756" stroke-miterlimit="10" stroke-linecap="round" stroke-linejoin="round"/>
<path d="M110.402 36.4796C110.334 36.0906 110.256 35.6996 110.168 35.3086" stroke="#2E2854" stroke-width="0.9756" stroke-miterlimit="10" stroke-linecap="round" stroke-linejoin="round"/>
<path d="M134.714 30.8977C135.478 29.9177 136.674 29.2897 137.913 29.2147C139.153 29.1417 140.414 29.6237 141.698 30.7947C142.287 29.9227 142.877 29.0507 143.468 28.1797" stroke="#2E2854" stroke-width="0.9756" stroke-miterlimit="10" stroke-linecap="round" stroke-linejoin="round"/>
<path d="M139.835 29.5658C139.963 28.9478 140.1 28.3268 140.241 27.7148" stroke="#2E2854" stroke-width="0.9756" stroke-miterlimit="10" stroke-linecap="round" stroke-linejoin="round"/>
<path d="M137.355 29.2855C137.286 28.8955 137.225 28.5015 137.175 28.1045" stroke="#2E2854" stroke-width="0.9756" stroke-miterlimit="10" stroke-linecap="round" stroke-linejoin="round"/>
<path d="M125.199 33.3271C126.917 34.2901 128.635 35.2531 130.368 36.3281C129.372 37.7371 128.089 38.9421 126.621 39.8471" stroke="#2E2854" stroke-width="0.9756" stroke-miterlimit="10" stroke-linecap="round" stroke-linejoin="round"/>
<path d="M134.91 44.2292C134.489 44.2932 134.058 44.2992 133.64 44.3812C133.222 44.4632 132.801 44.6322 132.523 44.9552C132.245 45.2782 132.147 45.7812 132.38 46.1382C132.607 46.4862 133.064 46.6032 133.48 46.6212C134.122 46.6482 134.77 46.5062 135.34 46.2112C135.66 46.0452 135.964 45.8262 136.149 45.5152C136.333 45.2072 136.379 44.7972 136.193 44.4892C136.007 44.1812 135.581 44.1282 134.91 44.2292Z" fill="#2E2854" stroke="#2E2854" stroke-width="0.9756" stroke-miterlimit="10" stroke-linecap="round" stroke-linejoin="round"/>
<path d="M148.591 25.7291C151.362 21.7711 156.886 20.0641 161.464 21.6081C166.041 23.1521 169.371 27.7321 169.604 32.5561C169.837 37.3811 167.056 42.1831 162.839 44.5401C158.622 46.8971 153.182 46.7881 148.968 44.4231L148.591 25.7291Z" fill="#FF98AA"/>
<path d="M164.177 32.1257C161.594 29.3227 157.086 28.5197 153.695 30.2597" stroke="#2E2854" stroke-width="0.9756" stroke-miterlimit="10" stroke-linecap="round" stroke-linejoin="round"/>
<path d="M158.334 29.3809C159.341 31.8809 159.165 34.8419 157.816 37.1839" stroke="#2E2854" stroke-width="0.9756" stroke-miterlimit="10" stroke-linecap="round" stroke-linejoin="round"/>
<path d="M158.269 43.0566C160.067 44.2976 161.085 46.5827 160.804 48.7497C160.615 50.1997 159.725 51.6886 158.303 52.0306C156.794 52.3936 155.221 51.2947 154.607 49.8697C154.105 48.7087 154.112 47.4056 154.328 46.1466" stroke="#7151B4" stroke-width="1.9512" stroke-miterlimit="10" stroke-linecap="round" stroke-linejoin="round"/>
<path d="M157.248 158.108C159.767 163.725 164.252 168.436 169.738 171.23C175.224 174.022 181.672 174.877 187.695 173.609C198.093 171.422 206.421 163.23 211.378 153.833C216.336 144.436 218.85 133.909 220.466 123.407L195.232 118.643C194.08 122.45 192.643 126.17 190.934 129.759C190.26 131.175 189.525 132.597 188.408 133.697C187.291 134.797 185.716 135.539 184.167 135.3C182.539 135.049 181.222 133.76 180.497 132.28C179.773 130.8 179.543 129.135 179.321 127.501C178.416 120.794 177.508 114.085 176.603 107.377C175.98 102.761 175.348 98.1127 173.853 93.7007C172.357 89.2897 169.925 85.0808 166.265 82.2018C164.044 80.4548 161.5 79.2807 158.802 78.4697C158.802 78.4697 154.231 104.281 153.294 122.286C152.354 140.291 157.248 158.108 157.248 158.108Z" fill="#84CBBD"/>
<mask id="mask0_119_4769" style="mask-type:luminance" maskUnits="userSpaceOnUse" x="153" y="78" width="68" height="97">
<path d="M157.248 158.108C159.767 163.725 164.252 168.436 169.738 171.23C175.224 174.022 181.672 174.877 187.695 173.609C198.093 171.422 206.421 163.23 211.378 153.833C216.336 144.436 218.85 133.909 220.466 123.407L195.232 118.643C194.08 122.45 192.643 126.17 190.934 129.759C190.26 131.175 189.525 132.597 188.408 133.697C187.291 134.797 185.716 135.539 184.167 135.3C182.539 135.049 181.222 133.76 180.497 132.28C179.773 130.8 179.543 129.135 179.321 127.501C178.416 120.794 177.508 114.085 176.603 107.377C175.98 102.761 175.348 98.1127 173.853 93.7007C172.357 89.2897 169.925 85.0808 166.265 82.2018C164.044 80.4548 161.5 79.2807 158.802 78.4697C158.802 78.4697 154.231 104.281 153.294 122.286C152.354 140.291 157.248 158.108 157.248 158.108Z" fill="white"/>
</mask>
<g mask="url(#mask0_119_4769)">
<path d="M157.26 104.839C163.811 101.634 169.84 97.366 175.038 92.251" stroke="#E0D570" stroke-width="1.9512" stroke-miterlimit="10" stroke-linecap="round" stroke-linejoin="round"/>
<path d="M158.664 120.455C165.667 117.917 172.256 114.241 178.094 109.616" stroke="#E0D570" stroke-width="1.9512" stroke-miterlimit="10" stroke-linecap="round" stroke-linejoin="round"/>
<path d="M160.072 138.095C167.124 136.043 173.825 132.796 179.805 128.531" stroke="#E0D570" stroke-width="1.9512" stroke-miterlimit="10" stroke-linecap="round" stroke-linejoin="round"/>
<path d="M184.992 133.837C180.286 146.882 171.88 158.57 161.01 167.181" stroke="#E0D570" stroke-width="1.9512" stroke-miterlimit="10" stroke-linecap="round" stroke-linejoin="round"/>
<path d="M187.25 133.641C194.149 145.803 197.943 159.71 198.175 173.691" stroke="#E0D570" stroke-width="1.9512" stroke-miterlimit="10" stroke-linecap="round" stroke-linejoin="round"/>
<path d="M189.679 129.261C201.26 132.396 211.659 139.723 218.506 149.574" stroke="#E0D570" stroke-width="1.9512" stroke-miterlimit="10" stroke-linecap="round" stroke-linejoin="round"/>
</g>
<path opacity="0.15" d="M216.553 141.131C211.789 148.142 201.619 160.107 186.82 161.776C173.209 163.31 161.762 155.277 155.34 149.372C156.314 154.705 157.248 158.108 157.248 158.108C159.767 163.725 164.252 168.436 169.738 171.23C175.224 174.022 181.672 174.877 187.695 173.609C198.093 171.422 206.421 163.23 211.378 153.832C213.517 149.778 215.199 145.513 216.553 141.131Z" fill="#402995"/>
<path d="M157.248 158.107C159.767 163.724 164.252 168.435 169.738 171.229C175.224 174.021 181.672 174.876 187.695 173.608C198.093 171.421 206.421 163.229 211.378 153.832C216.336 144.435 218.85 133.908 220.466 123.406" stroke="#2E2854" stroke-width="0.9756" stroke-miterlimit="10" stroke-linecap="round" stroke-linejoin="round"/>
<path d="M203.797 92.4684C207.773 89.2094 211.747 85.9504 215.723 82.6914C217.307 81.3934 218.959 80.0594 220.94 79.5434C221.786 79.3224 222.926 79.4104 223.214 80.2364C223.438 80.8824 222.976 81.5484 222.533 82.0694C222.127 82.5474 221.714 83.0204 221.295 83.4874L221.294 83.4864C222.818 82.6324 224.388 81.8704 226.025 81.2494C226.814 80.9494 227.794 80.7134 228.43 81.2694C228.923 81.6994 228.988 82.4714 228.756 83.0834C228.525 83.6954 228.057 84.1813 227.591 84.6423C227.139 85.0903 226.679 85.5293 226.212 85.9613C227.42 85.4423 228.644 84.9594 229.888 84.5284C230.536 84.3044 231.219 84.0904 231.896 84.1974C232.574 84.3064 233.234 84.8404 233.247 85.5264C233.262 86.1724 232.738 86.6874 232.248 87.1084C230.063 88.9894 227.752 90.7234 225.336 92.2954C225.805 92.1534 226.276 92.0204 226.75 91.8954C227.542 91.6854 228.565 91.5814 229.01 92.2684C229.284 92.6894 229.199 93.2684 228.932 93.6924C228.665 94.1184 228.246 94.4234 227.833 94.7084C225.73 96.1614 223.476 97.3973 221.167 98.6163L215.456 103.019L202.848 96.5473L203.797 92.4684Z" fill="#FF98AA"/>
<path d="M220.465 123.406C221.766 114.951 221.626 106.743 221.168 98.6173L217.331 98.5903C214.513 94.6833 209.645 92.3464 204.834 92.5894C204.402 89.8394 203.237 87.2454 201.516 85.0924C200.9 84.3234 199.967 83.5414 199.04 83.8734C197.936 84.2694 197.902 85.7964 198.047 86.9604C199.356 97.5624 198.326 108.414 195.231 118.642L220.465 123.406Z" fill="#FF98AA"/>
<path d="M217.332 98.5903C214.514 94.6833 209.646 92.3464 204.835 92.5894C204.403 89.8394 203.238 87.2454 201.517 85.0924C200.901 84.3234 199.968 83.5414 199.041 83.8734C197.937 84.2694 197.903 85.7964 198.048 86.9604C199.357 97.5624 198.327 108.414 195.232 118.642" stroke="#2E2854" stroke-width="0.9756" stroke-miterlimit="10" stroke-linecap="round" stroke-linejoin="round"/>
<path d="M218.592 94.9519C220.7 93.9149 223.089 92.9739 225.338 92.2959" stroke="#2E2854" stroke-width="0.9756" stroke-miterlimit="10" stroke-linecap="round" stroke-linejoin="round"/>
<path d="M215.541 91.2859C218.779 89.5539 222.844 87.4089 226.214 85.9609" stroke="#2E2854" stroke-width="0.9756" stroke-miterlimit="10" stroke-linecap="round" stroke-linejoin="round"/>
<path d="M212.552 89.3103C215.341 87.2923 218.299 85.1643 221.295 83.4863" stroke="#2E2854" stroke-width="0.9756" stroke-miterlimit="10" stroke-linecap="round" stroke-linejoin="round"/>
<path d="M209.468 87.8203C211.553 86.1113 213.638 84.4013 215.723 82.6923C217.307 81.3943 218.959 80.0603 220.94 79.5443C221.786 79.3233 222.926 79.4113 223.214 80.2373C223.438 80.8833 222.976 81.5493 222.533 82.0703C222.127 82.5483 221.714 83.0213 221.295 83.4883L221.294 83.4873C222.818 82.6333 224.388 81.8713 226.025 81.2503C226.814 80.9503 227.794 80.7143 228.43 81.2703C228.923 81.7003 228.988 82.4723 228.756 83.0843C228.525 83.6963 228.057 84.1823 227.591 84.6433C227.139 85.0913 226.679 85.5303 226.212 85.9623C227.42 85.4433 228.644 84.9603 229.888 84.5293C230.536 84.3053 231.219 84.0913 231.896 84.1983C232.574 84.3073 233.234 84.8413 233.247 85.5273C233.262 86.1733 232.738 86.6883 232.248 87.1093C230.063 88.9903 227.752 90.7243 225.336 92.2963C225.805 92.1543 226.276 92.0213 226.75 91.8963C227.542 91.6863 228.565 91.5823 229.01 92.2693C229.284 92.6903 229.199 93.2694 228.932 93.6934C228.665 94.1194 228.246 94.4243 227.833 94.7093C225.73 96.1623 223.476 97.3983 221.167 98.6173" stroke="#2E2854" stroke-width="0.9756" stroke-miterlimit="10" stroke-linecap="round" stroke-linejoin="round"/>
<path d="M211.107 88.623C213.987 89.858 217.829 92.262 219.317 96.612" stroke="#2E2854" stroke-width="0.9756" stroke-miterlimit="10" stroke-linecap="round" stroke-linejoin="round"/>
<path d="M221.505 121.714C213.425 117.964 204.506 116.057 195.64 116.441C194.434 116.493 193.442 117.408 193.331 118.609C193.318 118.75 193.305 118.89 193.292 119.031C193.181 120.253 194.022 121.347 195.227 121.58C203.37 123.156 211.377 125.443 219.125 128.407C220.51 128.937 222.04 128.117 222.335 126.664L222.807 124.341C223.025 123.27 222.496 122.173 221.505 121.714Z" fill="#84CBBD"/>
<path d="M221.505 121.714C213.425 117.964 204.506 116.057 195.64 116.441C194.434 116.493 193.442 117.408 193.331 118.609C193.318 118.75 193.305 118.89 193.292 119.031C193.181 120.253 194.022 121.347 195.227 121.58C203.37 123.156 211.377 125.443 219.125 128.407C220.51 128.937 222.04 128.117 222.335 126.664L222.807 124.341C223.025 123.27 222.496 122.173 221.505 121.714Z" stroke="#2E2854" stroke-width="0.9756" stroke-miterlimit="10" stroke-linecap="round" stroke-linejoin="round"/>
<path d="M68.4154 160.63C67.2494 159.394 66.2224 158.006 65.3124 156.578C58.1044 145.27 57.0894 130.554 61.4964 117.889C65.6954 105.828 74.4834 95.6484 85.2094 88.6914C85.2094 88.6914 96.1394 110.313 90.8614 129.097C85.5844 147.88 67.8304 160.63 67.8304 160.63" fill="#84CBBD"/>
<mask id="mask1_119_4769" style="mask-type:luminance" maskUnits="userSpaceOnUse" x="58" y="88" width="35" height="73">
<path d="M68.4154 160.63C67.2494 159.394 66.2224 158.006 65.3124 156.578C58.1044 145.27 57.0894 130.554 61.4964 117.889C65.6954 105.828 74.4834 95.6484 85.2094 88.6914C85.2094 88.6914 96.1394 110.313 90.8614 129.097C85.5844 147.88 67.8304 160.63 67.8304 160.63" fill="white"/>
</mask>
<g mask="url(#mask1_119_4769)">
<path d="M68.4194 100.286C75.1294 103.153 81.0084 107.938 85.1814 113.924" stroke="#E0D570" stroke-width="1.9512" stroke-miterlimit="10" stroke-linecap="round" stroke-linejoin="round"/>
<path d="M61.7964 111.798C68.6994 115.111 75.8794 118.649 80.4504 124.792" stroke="#E0D570" stroke-width="1.9512" stroke-miterlimit="10" stroke-linecap="round" stroke-linejoin="round"/>
<path d="M57.4624 131.945C62.4734 134.965 68.3874 136.466 74.2324 136.2" stroke="#E0D570" stroke-width="1.9512" stroke-miterlimit="10" stroke-linecap="round" stroke-linejoin="round"/>
</g>
<g opacity="0.15">
<path d="M68.4153 160.63C68.3353 160.545 68.2613 160.455 68.1823 160.368C67.9603 160.536 67.8303 160.63 67.8303 160.63H68.4153Z" fill="#402995"/>
<path d="M77.4774 151.786C69.5774 151.104 63.6134 147.001 60.0474 143.872C61.0914 148.363 62.8244 152.676 65.3124 156.579C66.1604 157.909 67.1144 159.199 68.1824 160.369C69.3234 159.506 73.1704 156.481 77.4774 151.786Z" fill="#402995"/>
</g>
<path d="M158.8 78.4683C157.018 77.9333 155.169 77.5613 153.303 77.2812L124.328 93.4283L96.0504 82.9633C92.8734 84.3133 89.7894 85.8753 86.8324 87.6713C86.2864 88.0033 85.7454 88.3432 85.2094 88.6902C85.8354 99.1602 85.8874 109.663 85.3634 120.139C83.4534 147.587 80.7774 174.547 77.5234 201.369C95.9144 209.756 116.176 214.286 136.406 214.74C147.562 214.99 158.834 214.024 169.681 211.468C169.852 177.224 166.851 142.942 160.364 108.603C159.171 98.6072 158.648 88.5323 158.8 78.4683Z" fill="#84CBBD"/>
<mask id="mask2_119_4769" style="mask-type:luminance" maskUnits="userSpaceOnUse" x="76" y="76" width="94" height="144">
<path d="M125.02 76.2935C111.642 77.2155 98.2934 80.7096 86.8334 87.6736C86.2874 88.0056 85.7464 88.3446 85.2104 88.6926C85.8374 99.1626 85.8894 109.666 85.3644 120.142C83.2354 150.742 80.1594 180.735 76.3854 210.606C106.431 219.894 138.796 221.572 169.658 215.382C170.087 179.837 167.099 144.251 160.364 108.605C159.171 98.6085 158.649 88.5335 158.801 78.4695C155.4 77.4475 151.755 77.0026 148.206 76.7136C141.35 76.1546 131.892 76.0015 125.02 76.2935Z" fill="white"/>
</mask>
<g mask="url(#mask2_119_4769)">
<path d="M84.6764 103.715C110.205 108.543 136.68 108.305 162.117 103.02" stroke="#E0D570" stroke-width="1.9512" stroke-miterlimit="10" stroke-linecap="round" stroke-linejoin="round"/>
<path d="M83.8823 120.011C110.017 125.966 137.464 126.075 163.645 120.33" stroke="#E0D570" stroke-width="1.9512" stroke-miterlimit="10" stroke-linecap="round" stroke-linejoin="round"/>
<path d="M82.8724 136.743C110.88 141.958 139.965 141.315 167.715 134.866" stroke="#E0D570" stroke-width="1.9512" stroke-miterlimit="10" stroke-linecap="round" stroke-linejoin="round"/>
<path d="M81.4614 150.988C110.042 157.014 139.876 157.036 168.466 151.049" stroke="#E0D570" stroke-width="1.9512" stroke-miterlimit="10" stroke-linecap="round" stroke-linejoin="round"/>
<path d="M80.4584 167.093C109.69 171.586 139.521 172.166 168.906 168.812" stroke="#E0D570" stroke-width="1.9512" stroke-miterlimit="10" stroke-linecap="round" stroke-linejoin="round"/>
<path d="M77.5924 183.446C108.586 190.168 140.937 190.563 172.086 184.603" stroke="#E0D570" stroke-width="1.9512" stroke-miterlimit="10" stroke-linecap="round" stroke-linejoin="round"/>
<path d="M75.5204 198.887C91.3404 201.465 107.193 204.045 123.192 205.028C139.191 206.011 155.399 205.368 170.971 201.568" stroke="#E0D570" stroke-width="1.9512" stroke-miterlimit="10" stroke-linecap="round" stroke-linejoin="round"/>
</g>
<path d="M85.3633 120.141C83.4533 147.589 80.7823 174.55 77.5283 201.371" stroke="#2E2854" stroke-width="0.9756" stroke-miterlimit="10" stroke-linecap="round" stroke-linejoin="round"/>
<path d="M169.691 211.469C169.862 177.225 166.851 142.943 160.364 108.604" stroke="#2E2854" stroke-width="0.9756" stroke-miterlimit="10" stroke-linecap="round" stroke-linejoin="round"/>
<path d="M150.092 76.8906L131.213 92.6566L98.5864 81.9576C97.7374 82.2836 96.8874 82.6086 96.0504 82.9646C99.0544 88.4016 102.654 93.5576 107.374 97.5726C112.645 102.057 119.458 105.022 126.367 104.623C133.635 104.204 140.37 100.072 145 94.4516C149.076 89.5056 151.656 83.4966 153.302 77.2826C152.235 77.1226 151.163 76.9996 150.092 76.8906Z" fill="#E0D570"/>
<path d="M142.36 93.3526C146.518 88.8216 149.053 82.9686 150.093 76.8906C149.463 76.8276 148.831 76.7636 148.205 76.7126C141.35 76.1546 131.892 76.0016 125.02 76.2936C115.997 76.9156 106.99 78.7136 98.5643 81.9506C101.085 86.6146 104.135 91.0316 108.087 94.5526C112.374 98.3716 117.796 101.088 123.527 101.427C130.574 101.845 137.587 98.5546 142.36 93.3526Z" fill="#FF98AA"/>
<path opacity="0.15" d="M125.02 76.2931C122.82 76.4451 120.622 76.6691 118.433 76.9641L83.9713 138.349C83.0223 149.895 81.9453 161.369 80.7513 172.794C86.1173 172.374 97.0283 170.036 105.387 158.558C116.912 142.734 124.678 91.2861 124.678 91.2861C124.678 91.2861 135.886 90.5001 138.873 76.2351C134.065 76.1041 129.09 76.1201 125.02 76.2931Z" fill="#402995"/>
<path d="M94.3974 94.8594C84.5894 109.166 76.9804 124.984 72.0604 141.618L68.4144 160.63C69.9484 162.256 71.7214 163.619 73.7824 164.462C78.5584 166.416 84.1384 165.235 88.6364 162.705C98.5554 157.127 103.905 146.078 108.118 135.507C111.555 126.887 114.626 118.122 117.351 109.251C109.721 103.586 100.369 98.1524 94.3974 94.8594Z" fill="#84CBBD"/>
<mask id="mask3_119_4769" style="mask-type:luminance" maskUnits="userSpaceOnUse" x="68" y="94" width="50" height="72">
<path d="M94.3974 94.8594C84.5894 109.166 76.9804 124.984 72.0604 141.618L68.4144 160.63C69.9484 162.256 71.7214 163.619 73.7824 164.462C78.5584 166.416 84.1384 165.235 88.6364 162.705C98.5554 157.127 103.905 146.078 108.118 135.507C111.555 126.887 114.626 118.122 117.351 109.251C109.721 103.586 100.369 98.1524 94.3974 94.8594Z" fill="white"/>
</mask>
<g mask="url(#mask3_119_4769)">
<path d="M71.5284 137.802C78.4874 147.604 88.6184 155.117 100.019 158.93" stroke="#E0D570" stroke-width="1.9512" stroke-miterlimit="10" stroke-linecap="round" stroke-linejoin="round"/>
<path d="M76.4004 125.576C84.5064 134.799 96.1224 140.86 108.325 142.232" stroke="#E0D570" stroke-width="1.9512" stroke-miterlimit="10" stroke-linecap="round" stroke-linejoin="round"/>
<path d="M83.6124 110.348C91.3554 120.142 103.137 126.642 115.551 127.969" stroke="#E0D570" stroke-width="1.9512" stroke-miterlimit="10" stroke-linecap="round" stroke-linejoin="round"/>
</g>
<path opacity="0.15" d="M86.7424 150.989C80.4224 152.608 74.9324 151.87 70.4164 150.197L68.4154 160.632C69.9494 162.258 71.7224 163.621 73.7834 164.464C78.5594 166.418 84.1394 165.237 88.6374 162.707C98.5564 157.129 103.906 146.08 108.119 135.509C108.698 134.056 109.252 132.593 109.811 131.131C103.742 139.82 95.6274 148.712 86.7424 150.989Z" fill="#402995"/>
<path d="M68.4154 160.63C69.9494 162.256 71.7224 163.619 73.7834 164.462C78.5594 166.416 84.1394 165.235 88.6374 162.705C98.5564 157.127 103.906 146.078 108.119 135.507C111.556 126.887 114.627 118.122 117.352 109.251C109.722 103.586 100.369 98.1524 94.3984 94.8594C84.5904 109.166 76.9814 124.984 72.0614 141.618" stroke="#2E2854" stroke-width="0.9756" stroke-miterlimit="10" stroke-linecap="round" stroke-linejoin="round"/>
<path d="M140.822 53.5277C140.193 52.6457 138.815 53.0037 137.854 53.5057C131.556 56.7947 126.483 62.4847 119.639 64.3907C118.654 61.9087 117.645 59.5347 116.347 57.3307C115.859 56.5017 115.099 55.5866 114.151 55.7506C113.536 55.8576 113.082 56.4227 112.913 57.0237C112.745 57.6237 112.806 58.2626 112.865 58.8846C113.207 62.5046 113.421 66.2077 112.537 69.7357C111.364 74.4157 108.361 78.4127 105.156 82.0207C101.952 85.6287 98.4595 89.0386 95.4405 93.3416C95.0875 93.8446 94.7445 94.3547 94.3965 94.8607L105.384 103.022L117.349 109.253C119.463 102.369 121.374 95.4227 123.05 88.4197C128.451 86.3077 132.592 82.7686 134.321 78.2286C136.049 73.6896 135.31 68.2916 132.425 64.3846C134.701 61.6426 137.393 59.0647 139.946 56.3567C140.684 55.5737 141.445 54.4027 140.822 53.5277Z" fill="#FF98AA"/>
<path d="M140.822 53.5277C140.193 52.6457 138.815 53.0037 137.854 53.5057C131.556 56.7947 126.483 62.4847 119.639 64.3907C118.654 61.9087 117.645 59.5347 116.347 57.3307C115.859 56.5017 115.099 55.5866 114.151 55.7506C113.536 55.8576 113.082 56.4227 112.913 57.0237C112.745 57.6237 112.806 58.2626 112.865 58.8846C113.207 62.5046 113.421 66.2077 112.537 69.7357C111.364 74.4157 108.361 78.4127 105.156 82.0207C101.952 85.6287 98.4595 89.0386 95.4405 93.3416C95.0875 93.8446 94.7445 94.3547 94.3965 94.8607L105.384 103.022L117.349 109.253C119.463 102.369 121.374 95.4227 123.05 88.4197C128.451 86.3077 132.592 82.7686 134.321 78.2286C136.049 73.6896 135.31 68.2916 132.425 64.3846C134.701 61.6426 137.393 59.0647 139.946 56.3567C140.684 55.5737 141.445 54.4027 140.822 53.5277Z" stroke="#2E2854" stroke-width="0.9756" stroke-miterlimit="10" stroke-linecap="round" stroke-linejoin="round"/>
<path d="M114.78 111.897C107.462 107.591 100.281 103.019 93.1175 98.1653C91.8815 97.3273 91.5585 95.6343 92.3995 94.3993C92.6975 93.9613 93.0255 93.5473 93.3845 93.1633C94.1415 92.3533 95.3295 92.0793 96.3545 92.5013C104.635 95.9033 112.143 101.161 118.158 107.769C118.8 108.475 119.001 109.479 118.709 110.388C118.183 112.029 116.266 112.771 114.78 111.897Z" fill="#84CBBD"/>
<path d="M114.78 111.897C107.462 107.591 100.281 103.019 93.1175 98.1653C91.8815 97.3273 91.5585 95.6343 92.3995 94.3993C92.6975 93.9613 93.0255 93.5473 93.3845 93.1633C94.1415 92.3533 95.3295 92.0793 96.3545 92.5013C104.635 95.9033 112.143 101.161 118.158 107.769C118.8 108.475 119.001 109.479 118.709 110.388C118.183 112.029 116.266 112.771 114.78 111.897Z" stroke="#2E2854" stroke-width="0.9756" stroke-miterlimit="10" stroke-linecap="round" stroke-linejoin="round"/>
</g>
<defs>
<filter id="filter0_d_119_4769" x="0" y="0" width="262.427" height="222.782" filterUnits="userSpaceOnUse" color-interpolation-filters="sRGB">
<feFlood flood-opacity="0" result="BackgroundImageFix"/>
<feColorMatrix in="SourceAlpha" type="matrix" values="0 0 0 0 0 0 0 0 0 0 0 0 0 0 0 0 0 0 127 0" result="hardAlpha"/>
<feOffset dy="4"/>
<feGaussianBlur stdDeviation="2"/>
<feComposite in2="hardAlpha" operator="out"/>
<feColorMatrix type="matrix" values="0 0 0 0 0 0 0 0 0 0 0 0 0 0 0 0 0 0 0.25 0"/>
<feBlend mode="normal" in2="BackgroundImageFix" result="effect1_dropShadow_119_4769"/>
<feBlend mode="normal" in="SourceGraphic" in2="effect1_dropShadow_119_4769" result="shape"/>
</filter>
</defs>
</svg>
