<svg width="383" height="376" viewBox="0 0 383 376" fill="none" xmlns="http://www.w3.org/2000/svg">
<path d="M326.547 187.425C400.924 230.366 400.924 299.988 326.546 342.929C252.169 385.871 131.58 385.872 57.2029 342.93C-28.0446 293.712 -9.53125 225.955 57.2039 187.425C131.581 144.483 252.17 144.483 326.547 187.425Z" fill="#F3F2F1"/>
<path d="M58.4439 289.072L48.0715 295.06C48.2098 291.359 48.5318 285.852 48.021 282.146C44.8888 259.476 36.0574 252.001 31.8575 240.967C27.4355 229.346 32.829 225.607 39.8347 227.697C46.0824 229.56 55.1229 238.806 57.9705 255.723C59.8633 266.979 59.5282 279.203 58.4439 289.072Z" fill="#AD58B2"/>
<path d="M48.0716 295.06L50.9859 293.377C50.5296 282.802 47.9666 274.733 45.1772 268.996C41.1674 255.95 35.1178 249.531 31.8576 240.967C30.7445 238.042 30.2534 235.617 30.2534 233.658C30.2531 229.187 32.81 227.146 36.3689 227.146C37.4468 227.146 38.6161 227.333 39.8348 227.697C46.0825 229.56 55.123 238.806 57.9706 255.723C58.9391 261.483 59.3242 267.497 59.3242 273.318C59.3242 278.873 58.9731 284.253 58.444 289.072L48.0716 295.06Z" fill="#EBB8E0"/>
<path d="M52.9456 292.246L51.9069 292.845C55.6174 266.414 46.5806 243.492 37.6613 234.024C37.4896 233.844 37.498 233.555 37.678 233.383C37.8664 233.211 38.1514 233.22 38.3231 233.4C47.238 242.872 56.2705 265.949 52.9456 292.246Z" fill="white"/>
<path d="M50.9859 293.377L45.1488 296.747H45.1444C42.0413 287.61 38.8546 283.951 34.8976 277.942C31.2923 272.473 27.1008 269.085 24.8729 265.241C22.9006 261.837 21.4183 257.561 24.3495 254.974C29.0144 250.853 35.1031 255.212 39.2903 259.924C42.9082 263.998 50.1861 274.835 50.9859 293.377Z" fill="#AD58B2"/>
<path d="M45.1487 296.747H45.1444C42.0412 287.61 38.8545 283.951 34.8976 277.942C31.2923 272.473 27.1008 269.085 24.8729 265.241C23.7 263.217 22.7001 260.884 22.6991 258.781C22.6984 257.349 23.1614 256.022 24.3494 254.974C25.6589 253.817 27.081 253.328 28.5412 253.328C32.2831 253.328 36.2782 256.534 39.2902 259.924C42.9081 263.998 50.1861 274.835 50.9859 293.377L48.0715 295.06L45.1487 296.747Z" fill="#CC80C6"/>
<path d="M48.5906 294.759L47.7404 295.252C45.291 280.802 35.4754 264.082 29.3745 260.132C29.1609 259.995 29.0981 259.706 29.2404 259.487C29.3784 259.27 29.6633 259.207 29.8812 259.35C36.1957 263.445 45.9903 280.086 48.5906 294.759Z" fill="white"/>
<path d="M323.072 289.072L333.444 295.06C333.306 291.359 332.984 285.852 333.494 282.146C336.626 259.476 345.458 252.001 349.658 240.967C354.079 229.346 348.686 225.607 341.681 227.697C335.433 229.56 326.393 238.806 323.545 255.723C321.652 266.979 321.988 279.203 323.072 289.072Z" fill="#AD58B2"/>
<path d="M333.444 295.06L323.072 289.072C322.543 284.253 322.191 278.873 322.191 273.318C322.191 267.497 322.576 261.483 323.545 255.723C326.393 238.806 335.433 229.56 341.681 227.697C342.899 227.333 344.068 227.146 345.147 227.146C348.705 227.146 351.262 229.187 351.262 233.658C351.262 235.617 350.771 238.042 349.658 240.967C346.398 249.531 340.348 255.949 336.339 268.996C333.549 274.733 330.986 282.802 330.529 293.377L333.444 295.06Z" fill="#EBB8E0"/>
<path d="M328.57 292.246L329.608 292.845C325.898 266.414 334.935 243.492 343.854 234.024C344.025 233.844 344.017 233.555 343.837 233.383C343.649 233.211 343.364 233.22 343.193 233.4C334.277 242.872 325.245 265.949 328.57 292.246Z" fill="white"/>
<path d="M330.529 293.377L336.367 296.747H336.371C339.474 287.61 342.661 283.951 346.618 277.942C350.223 272.473 354.415 269.085 356.642 265.241C358.615 261.837 360.097 257.561 357.166 254.974C352.502 250.853 346.412 255.212 342.225 259.924C338.607 263.998 331.329 274.835 330.529 293.377Z" fill="#AD58B2"/>
<path d="M336.371 296.747H336.367L333.444 295.06L330.529 293.377C331.329 274.835 338.607 263.998 342.225 259.924C345.237 256.534 349.232 253.328 352.974 253.328C354.434 253.328 355.856 253.817 357.166 254.974C358.354 256.022 358.817 257.349 358.816 258.781C358.816 260.884 357.816 263.217 356.642 265.241C354.415 269.085 350.223 272.473 346.618 277.942C342.661 283.951 339.474 287.61 336.371 296.747Z" fill="#CC80C6"/>
<path d="M332.925 294.759L333.775 295.252C336.224 280.802 346.039 264.082 352.141 260.132C352.354 259.995 352.418 259.706 352.275 259.487C352.137 259.27 351.852 259.207 351.634 259.35C345.319 263.445 335.525 280.086 332.925 294.759Z" fill="white"/>
<path d="M326.047 283.795C352.151 298.867 352.151 323.302 326.047 338.373C299.943 353.444 257.62 353.444 231.516 338.373C205.412 323.302 205.412 298.867 231.517 283.795C257.62 268.725 299.943 268.725 326.047 283.795Z" fill="#DADBD8"/>
<path d="M152.291 283.795C178.395 298.867 178.395 323.302 152.291 338.373C126.187 353.444 83.864 353.444 57.7601 338.373C31.6561 323.302 31.6561 298.867 57.7604 283.795C83.8644 268.725 126.187 268.725 152.291 283.795Z" fill="#DADBD8"/>
<path d="M314.382 291.887C314.07 282.348 314.794 276.082 314.658 259.534C314.648 254.571 314.557 249.252 314.302 244.525C313.444 228.62 311.084 223.147 310.908 220.078C310.908 220.078 310.896 195.352 310.431 160.573C310.213 144.212 305.556 137.887 301.912 129.144H256.907C251.525 150.48 249.054 197.813 248.841 219.89C248.731 231.146 253.101 281.502 253.17 282.889C253.411 287.808 252.631 290.572 250.671 292.605C246.567 296.866 240.654 299.504 235.538 303.192C236.238 305.137 243.166 306.102 246.199 304.681C251.044 302.41 255.873 298.902 257.533 297.715C261.735 294.71 267.968 293.867 268.114 289.191C268.134 288.608 268.4 287.099 268.372 287.006C268.496 284.277 273.105 253.279 274.481 244.018C275.707 235.775 275.707 222.113 275.707 222.113L279.717 188.401C279.717 188.401 282.85 208.514 285.588 222.36C287.618 232.624 292.018 253.807 294.776 265.028C296.74 273.017 299.008 282.554 300.569 291.33C300.32 294.858 303.669 313.26 304.485 317.534C305.301 321.809 314.583 322.074 315.299 314.758C315.775 309.888 314.458 294.226 314.382 291.887Z" fill="#F6879F"/>
<path d="M229.204 309.828C228.948 309.83 228.588 312.666 229.996 313.857C231.622 315.23 236.374 317.464 242.615 316.592C248.856 315.721 252.22 313.753 254.7 311.635C257.18 309.516 260.654 306.529 263.475 305.876C266.095 305.271 268.935 304.052 269.767 303.232C270.599 302.412 270.446 298.805 270.446 298.805L229.204 309.828Z" fill="#17282F"/>
<path d="M268.627 284.644C268.627 284.644 269.244 284.782 269.414 285.616C269.617 286.609 269.208 289.659 269.638 291.287C270.235 293.551 270.666 298.196 270.341 300.049C270.016 301.9 265.747 303.229 263.023 304.298C260.239 305.391 257.029 307.617 254.216 309.985C251.304 312.435 245.151 314.928 241.08 315.029C234.862 315.183 230.819 313.537 229.552 311.315C227.986 308.566 228.292 306.048 235.404 302.665C236.75 302.024 241.473 299.164 243.082 298.129C244.782 297.034 246.409 295.82 247.908 294.46C248.664 293.772 249.389 293.046 250.067 292.279C250.663 291.604 251.505 290.787 251.854 289.95C251.932 289.76 251.986 289.54 252.056 289.343C252.259 288.775 252.397 288.253 252.505 287.663C252.614 287.069 252.678 286.202 253.24 285.84C253.884 285.424 255.055 285.464 255.79 285.512C256.715 285.572 258.766 286.006 259.663 286.233C261.264 286.637 261.706 287.084 262.339 288.065C262.825 288.818 262.908 289.773 262.954 290.648C262.976 291.064 262.971 291.485 262.98 291.903C262.983 292.08 262.911 292.402 263.159 292.325C263.396 292.251 263.655 291.625 263.743 291.413C263.937 290.944 264.058 290.443 264.27 289.981C264.513 289.453 264.788 288.912 265.144 288.46C265.477 288.037 265.841 287.632 266.263 287.296C266.647 286.99 267.14 286.836 267.479 286.491C267.909 286.054 268.593 284.999 268.627 284.644Z" fill="#273E47"/>
<path d="M234.257 303.221C243.265 303.751 247.041 310.184 247.458 313.622C245.235 314.434 242.941 314.983 241.08 315.029C234.862 315.183 230.563 313.542 229.296 311.32C227.82 308.726 227.899 305.708 234.257 303.221Z" fill="#FAFAF9"/>
<path d="M248.637 304.08C248.735 304.079 248.833 304.046 248.914 303.978C249.101 303.822 249.125 303.546 248.97 303.359C247.701 301.837 243.182 298.939 239.914 299.328C239.672 299.357 239.499 299.575 239.528 299.816C239.556 300.057 239.769 300.229 240.017 300.201C243.067 299.847 247.288 302.715 248.295 303.923C248.382 304.028 248.509 304.082 248.637 304.08Z" fill="#EDEDEB"/>
<path d="M252.491 301.782C252.589 301.781 252.686 301.748 252.768 301.68C252.955 301.524 252.979 301.247 252.823 301.061C251.553 299.538 247.033 296.634 243.767 297.03C243.526 297.058 243.354 297.277 243.383 297.519C243.411 297.758 243.619 297.932 243.871 297.903C246.921 297.544 251.143 300.417 252.148 301.625C252.236 301.73 252.363 301.784 252.491 301.782Z" fill="#EDEDEB"/>
<path d="M256.057 299.166C256.155 299.165 256.253 299.132 256.334 299.063C256.52 298.908 256.544 298.63 256.39 298.444C255.121 296.921 250.587 294.022 247.334 294.413C247.093 294.442 246.92 294.661 246.949 294.902C246.977 295.142 247.187 295.313 247.436 295.287C250.483 294.931 254.709 297.801 255.715 299.007C255.802 299.113 255.929 299.167 256.057 299.166Z" fill="#EDEDEB"/>
<path d="M259.55 296.55C259.645 296.549 259.742 296.516 259.822 296.452C260.011 296.299 260.04 296.022 259.887 295.834C258.141 293.674 253.346 291.376 250.081 291.766C249.84 291.794 249.667 292.014 249.697 292.254C249.725 292.494 249.936 292.66 250.185 292.639C253.123 292.29 257.654 294.473 259.204 296.386C259.291 296.496 259.42 296.55 259.55 296.55Z" fill="#EDEDEB"/>
<path d="M301.514 320.805C301.691 325.056 302.304 327.88 303.77 330.396C305.235 332.91 308.064 333.739 310.954 333.057C313.843 332.375 317.562 330.488 318.447 326.839C319.332 323.191 319.855 320.688 319.266 316.74L301.514 320.805Z" fill="#17282F"/>
<path d="M314.331 289.932C315.515 290.045 315.42 296.081 316.01 301.8C316.642 307.93 318.426 310.491 318.999 315.517C319.653 321.26 318.662 323.805 316.596 327.237C314.532 330.669 307.368 333.951 303.946 328.931C301.157 324.838 301.427 320.36 301.468 314.631C301.51 308.633 301.183 304.584 300.62 300.124C299.972 294.983 299.531 291.791 300.569 291.33C300.638 291.962 300.701 292.763 300.776 293.383C300.866 294.147 301.073 295.65 301.073 295.65C301.189 295.972 301.495 296.337 301.611 295.82C301.69 295.47 301.661 295.105 301.628 294.753C301.48 293.17 302.279 293.054 302.711 292.938C303.647 292.688 308.09 291.991 308.98 291.945C309.887 291.898 313.016 291.814 313.414 292.336C313.683 292.689 313.713 293.275 313.785 294.001C313.872 294.864 313.883 295.404 314.091 295.229C314.338 295.022 314.346 293.389 314.338 293.001C314.329 292.629 314.324 291.784 314.325 291.41C314.326 291.043 314.35 290.299 314.331 289.932Z" fill="#273E47"/>
<path d="M319.412 318.843C319.558 322.405 318.668 324.828 317.051 327.514C314.986 330.947 307.249 334.23 303.828 329.21C302.125 326.712 301.706 323.785 301.516 320.803C303.678 317.012 316.154 315.533 319.412 318.843Z" fill="#FAFAF9"/>
<path d="M304.205 314.614L304.352 314.577C304.4 314.555 309.925 312.376 315.245 313.7C315.48 313.755 315.718 313.615 315.779 313.379C315.837 313.144 315.692 312.904 315.456 312.846C309.829 311.448 304.196 313.681 303.985 313.775C303.765 313.878 303.667 314.138 303.768 314.36C303.848 314.532 304.026 314.63 304.205 314.614Z" fill="#EDEDEB"/>
<path d="M315.05 309.425C315.217 309.41 315.368 309.302 315.428 309.135C315.508 308.906 315.39 308.654 315.162 308.572C309.876 306.683 303.931 309.289 303.707 309.402C303.489 309.511 303.402 309.774 303.512 309.992C303.622 310.208 303.89 310.29 304.102 310.187C304.152 310.162 309.946 307.637 314.864 309.401L315.05 309.425Z" fill="#EDEDEB"/>
<path d="M314.93 305.394C315.093 305.381 315.242 305.275 315.304 305.111C315.39 304.883 315.275 304.629 315.048 304.544C309.236 302.353 303.586 305.215 303.377 305.338C303.167 305.46 303.096 305.73 303.219 305.939C303.342 306.148 303.616 306.22 303.82 306.096C303.867 306.068 309.327 303.33 314.737 305.367L314.93 305.394Z" fill="#EDEDEB"/>
<path d="M314.704 301.425C314.865 301.411 315.013 301.308 315.077 301.147C315.166 300.921 315.055 300.666 314.829 300.577C309.384 298.435 303.305 301.363 303.076 301.492C302.864 301.608 302.788 301.876 302.905 302.089C303.022 302.302 303.289 302.382 303.503 302.26C303.556 302.232 309.45 299.404 314.506 301.394L314.704 301.425Z" fill="#E7E8E5"/>
<path d="M305.054 129.144C310.225 138.955 312.965 148.3 313.028 177.22C313.092 206.14 312.017 214.362 312.072 217.851C312.128 221.338 315.173 229.099 315.254 246.366C315.321 260.993 315.193 272.089 315.193 272.089C315.193 272.089 313.49 275.546 306.914 276.026C300.848 276.469 296.42 274.146 296.42 274.146C296.42 274.146 289.005 249.905 287.013 239.496C284.711 227.462 280.118 198.839 280.118 198.839L276.815 222.113C276.815 222.113 277.376 231.357 275.884 242.633C273.892 257.675 271.431 269.102 271.431 269.102C271.431 269.102 265.897 270.621 260.715 270.457C255.534 270.293 251.669 267.984 251.669 267.984C251.669 267.984 248.214 235.847 247.92 214.555C247.683 197.485 248.878 154.351 250.598 129.144H305.054Z" fill="#273E47"/>
<path d="M258.543 190.903L260.405 167.382C259.064 175.141 257.991 182.945 257.134 190.771C256.301 198.609 255.498 206.415 255.342 214.373C255.477 222.296 255.951 230.125 256.465 237.985C256.975 245.836 257.634 253.679 258.429 261.512C258.34 253.639 258.156 245.773 257.883 237.914L257.483 226.127C257.35 222.205 257.176 218.263 257.161 214.373C257.159 210.5 257.457 206.568 257.701 202.656C257.944 198.738 258.261 194.822 258.543 190.903ZM297.104 219.68C295.744 211.639 294.816 203.517 293.9 195.39C293.012 187.259 292.131 179.118 291.137 170.987C291.496 179.17 291.95 187.347 292.623 195.513C293.278 203.679 294.139 211.842 295.478 219.952C296.919 228.043 298.373 236.069 299.925 244.112C301.454 252.152 303.088 260.174 304.828 268.182C303.721 260.068 302.51 251.968 301.192 243.886C299.9 235.808 298.505 227.711 297.104 219.68ZM302.507 146.813C303.407 148.497 304.262 150.203 305.124 151.911L307.665 157.125C307.53 155.156 307.06 153.229 306.436 151.369C305.822 149.502 305.013 147.709 304.117 145.968C303.191 144.242 302.178 142.564 301.024 140.984C299.878 139.4 298.627 137.89 297.191 136.54C298.015 138.33 298.922 140.033 299.822 141.733C300.713 143.436 301.634 145.112 302.507 146.813ZM297.566 152.066C298.195 154.847 298.759 157.646 299.365 160.44C299.957 163.24 300.552 166.038 301.194 168.857C301.305 165.963 301.098 163.074 300.766 160.211C300.442 157.345 299.948 154.5 299.342 151.677C298.705 148.863 297.967 146.063 297.011 143.331C296.064 140.601 294.944 137.908 293.435 135.433C294.252 138.207 294.973 140.963 295.655 143.732C296.319 146.505 296.971 149.277 297.566 152.066ZM258.467 154.86C260.925 161.952 270.208 167.042 274.308 168.096L277.541 198.855L276.815 222.113L280.118 198.838L276.101 162.603C276.101 162.603 264.701 161.599 258.467 154.86Z" fill="#17282F"/>
<path d="M305.468 36.736C306.407 38.6081 306.523 40.782 306.433 42.8747C306.171 48.945 304.333 54.9905 305.164 61.0094C305.48 63.3014 306.177 65.5207 306.807 67.7476C306.948 68.2454 307.086 68.7593 307.028 69.2733C306.969 69.7873 306.667 70.3081 306.175 70.4689C305.544 70.6759 304.83 70.2491 304.208 70.4783C304.243 71.732 304.279 72.9858 304.315 74.2395C304.322 74.467 304.327 74.7039 304.234 74.9126C303.965 75.5275 303.107 75.5301 302.443 75.4334C302.825 77.5347 300.996 79.5675 298.911 80.031C296.826 80.4954 294.652 79.7437 292.797 78.6849C291.459 77.9221 290.199 76.9779 289.278 75.7438C287.181 72.9328 287.063 68.826 286.924 65.4548C286.761 61.5029 287.139 57.5544 287.516 53.6255C288.161 46.9079 288.835 40.0739 291.425 33.8411C291.743 33.0748 292.118 32.2846 292.791 31.7989C293.556 31.2456 294.564 31.1874 295.509 31.1951C299.647 31.231 303.524 32.861 305.468 36.736Z" fill="#17282F"/>
<path d="M300.511 33.6657C300.764 34.2447 300.931 34.8288 300.988 35.3821C301.208 37.4799 299.428 39.6282 297.167 39.2263C295.492 38.9278 293.518 37.0233 292.626 35.6626C291.75 34.3268 290.861 31.4524 292.259 30.1961C295.225 27.5287 299.139 30.5305 300.511 33.6657Z" fill="#AD58B2"/>
<path d="M260.928 76.3108C251.015 78.4266 249.626 80.5295 244.485 88.0468C238.609 96.6383 228.851 111.555 227.859 121.214C231.264 121.405 244.057 121.506 244.057 121.506L254.352 103.718L260.928 76.3108Z" fill="#273E47"/>
<path d="M309.939 138.645C309.094 125.957 308.72 121.467 308.72 114.566C308.72 107.666 309.151 104.258 309.266 99.1638C309.552 86.6401 305.001 79.1066 302.446 76.9446C302.446 76.9446 298.504 76.1664 292.908 74.9203C290.993 74.4944 289.289 74.2772 286.383 73.8667C279.926 72.9559 276.899 73.8701 274.485 74.1156C273.294 74.2362 268.705 74.4448 268.705 74.4448C266.998 74.8425 260.934 76.3066 260.928 76.3109C260.928 76.3109 259.064 78.7106 255.415 85.2299C252.632 90.2055 250.551 93.6221 250.048 104.787C249.367 119.917 249.131 140.017 249.131 140.017C256.128 149.374 298.242 152.27 309.939 138.645Z" fill="#33535F"/>
<path d="M293.797 34.1874C292.535 26.4058 279.034 17.0198 263.746 24.963C259.969 26.9249 256.207 29.5419 254.022 33.2937C253.1 34.8749 252.22 36.4434 252.349 38.3403C252.483 40.3218 253.525 42.2819 255.252 43.3159C255.454 43.4373 255.679 43.5639 255.764 43.7845C255.859 44.03 255.747 44.3011 255.657 44.5482C254.845 46.7572 255.794 49.3254 257.473 50.9743C259.153 52.6223 261.435 53.5031 263.706 54.1215C265.603 54.638 267.541 55.0015 269.495 55.2076C270.246 55.2863 271.008 55.3444 271.721 55.5916C272.294 55.79 272.818 56.1055 273.336 56.4211C275.979 58.0357 278.587 59.747 280.835 61.8782C283.082 64.0085 284.969 66.5921 285.91 69.5435C287.299 64.8578 290.344 60.8768 293.164 56.8855C296.071 52.7719 299.838 47.373 299.249 42.0732C298.818 38.1991 297.116 34.7287 293.797 34.1874Z" fill="#17282F"/>
<path d="M288.672 69.6281C288.672 66.9231 288.379 56.3895 288.379 56.3895C288.407 57.0839 291.632 59.2989 294.883 56.5331C298.533 53.4287 298.611 49.4041 296.98 46.8633C296.034 45.388 294.27 44.5987 292.54 44.9031C291.909 45.0135 291.415 45.2427 290.926 45.6463C289.998 46.4109 289.21 47.3448 288.613 48.3881C288.338 48.8679 287.853 49.8172 287.247 49.9506C286.616 50.09 286.011 49.3973 285.827 48.8722C285.618 48.2735 285.688 47.615 285.81 46.9933C285.909 46.4913 286.04 45.9704 285.906 45.4761C285.687 44.662 284.848 44.2019 284.316 43.5476C283.294 42.2896 283.558 40.6707 283.412 39.1783C283.265 37.686 282.669 36.3459 281.434 35.4334C279.593 34.0728 277.027 33.6905 274.869 34.3969C273.685 34.7843 272.502 35.4761 271.28 35.2324C270.397 35.0562 269.686 34.4165 268.873 34.0291C267.529 33.3886 265.901 33.4681 264.552 34.0958C263.56 34.5568 262.942 35.1153 262.285 35.985C261.638 36.8428 261.152 38.1247 260.881 39.1587C259.892 42.931 259.308 46.8256 259.171 50.7237C258.825 60.5689 261.383 64.2642 264.144 66.5117C265.686 67.768 267.766 68.501 271.465 68.4556C271.465 68.4556 271.523 68.6207 271.591 70.4354C271.652 72.0937 271.465 73.4706 270.051 73.9965C269.052 74.3677 267.47 74.7466 267.47 74.7466C267.47 74.7466 262.323 81.4711 271.916 82.7137C287.206 84.6944 293.988 75.2238 293.988 75.2238C293.988 75.2238 292.273 74.8133 291.761 74.6576C289.64 74.0128 288.672 72.3323 288.672 69.6281Z" fill="#F6879F"/>
<path d="M275.792 55.9638C275.738 55.8175 275.519 55.5806 275.349 55.732C275.145 55.9133 274.982 56.1425 274.786 56.3358C274.613 56.5077 274.434 56.671 274.245 56.8233C273.863 57.1286 273.449 57.3894 273.008 57.5972C272.587 57.7948 272.146 57.9539 271.693 58.0625C271.433 58.1249 271.17 58.1685 270.903 58.1967C270.606 58.2292 270.255 58.2044 269.963 58.284C269.741 58.3447 269.845 58.6962 270.021 58.7526C270.591 58.9356 271.269 58.8373 271.847 58.7278C272.418 58.6201 272.975 58.4396 273.497 58.1856C273.997 57.9419 274.474 57.6417 274.901 57.2851C275.14 57.0858 275.362 56.8703 275.565 56.6343C275.739 56.4324 275.891 56.2366 275.792 55.9638Z" fill="#C35363"/>
<path d="M271.465 68.4557C278.109 68.2556 284.331 65.7747 286.582 60.4963C286.582 60.4963 286.336 64.5842 282.532 67.131C277.647 70.4031 271.591 70.4355 271.591 70.4355L271.465 68.4557Z" fill="#F47089"/>
<path d="M262.94 42.4409L266.936 41.2393C266.643 40.1147 265.511 39.4725 264.408 39.8043C263.305 40.1361 262.648 41.3172 262.94 42.4409Z" fill="#17282F"/>
<path d="M279.879 43.4417L276.019 41.7227C276.457 40.6297 277.677 40.1303 278.743 40.6049C279.808 41.0796 280.317 42.3504 279.879 43.4417Z" fill="#17282F"/>
<path d="M266.459 46.2015C266.465 47.1807 265.667 48.0009 264.676 48.0334C263.684 48.0667 262.876 47.2987 262.871 46.3195C262.865 45.3395 263.664 44.521 264.654 44.4885C265.645 44.4552 266.454 45.2232 266.459 46.2015Z" fill="#17282F"/>
<path d="M278.568 47.2533C278.573 48.2325 277.775 49.0527 276.784 49.0852C275.793 49.1177 274.984 48.3497 274.979 47.3713C274.972 46.3913 275.771 45.572 276.762 45.5403C277.753 45.507 278.562 46.2741 278.568 47.2533Z" fill="#17282F"/>
<path d="M264.936 52.1288L270.237 54.3215L271.157 44.8202L264.936 52.1288Z" fill="#F47089"/>
<path d="M302.446 76.9446C311.574 79.7523 312.437 84.4209 312.57 88.0316C312.751 92.961 309.356 103.364 306.662 111.294C301.629 126.104 296.921 132.14 291.629 132.14L287.541 111.492L292.137 96.8787C292.137 96.8787 296.229 80.516 302.446 76.9446Z" fill="#273E47"/>
<path d="M269.592 92.6822C274.948 97.3516 280.301 101.874 285.099 105.808C289.18 109.154 292.067 111.433 293.634 114.131C295.201 116.829 296.197 127.015 294.33 130.663C292.463 134.31 282.639 130.637 278.793 126.842C274.947 123.046 272.002 116.039 268.838 110.958C265.674 105.877 263.351 102.497 260.633 101.069L269.592 92.6822Z" fill="#F6879F"/>
<path d="M260.633 101.069L261.416 100.335C264.294 101.516 266.234 103.44 268.556 106.862C271.498 111.197 275.525 124.568 280.511 128.261C279.862 127.8 279.279 127.322 278.793 126.842C274.947 123.046 272.002 116.039 268.838 110.958C265.674 105.877 263.351 102.497 260.633 101.069Z" fill="#F47089"/>
<path d="M243.495 100.855C244.047 101.77 243.018 103.335 242.308 104.317C241.6 105.3 239.093 107.713 236.233 109.551C233.194 111.503 230.252 114.197 228.81 117.299C227.368 120.402 227.461 126.261 228.877 128.371C230.293 130.482 233.719 129.714 236.773 128.276C240.975 126.297 243.271 123.182 246.407 118.581C249.816 113.581 252.42 109.325 254.475 106.818C256.528 104.31 243.495 100.855 243.495 100.855Z" fill="#F6879F"/>
<path d="M242.082 123.045C244.07 120.385 249.326 108.579 248.139 106.345C246.952 104.111 243.682 102.626 242.896 103.45C243.448 102.561 243.903 101.531 243.495 100.854C243.495 100.854 256.528 104.309 254.475 106.818C252.42 109.325 249.816 113.581 246.407 118.581C243.271 123.181 240.975 126.297 236.773 128.276C236.773 128.276 240.093 125.703 242.082 123.045Z" fill="#F47089"/>
<path d="M239.61 99.151C241.457 99.3272 242.979 100.454 244.428 101.539C245.876 102.624 250.685 106.02 253.433 106.19C256.182 106.36 244.554 96.1518 239.61 99.151Z" fill="#C35363"/>
<path d="M247.36 94.4352C244.512 93.881 242.469 95.1151 239.862 95.3024C237.254 95.4905 235.737 95.2323 233.923 96.3226C232.108 97.413 231.359 98.8823 233.609 99.5425C235.858 100.203 238.008 99.0576 240.198 99.2047C242.387 99.3509 243.848 99.6588 246.295 101.66C248.744 103.661 252.146 107.188 254.168 108.487C256.19 109.786 257.388 108.801 257.388 108.801C257.388 108.801 258.723 110.363 259.946 110.813C261.17 111.263 261.778 110.11 261.683 109.384C262.774 109.491 263.712 108.921 263.457 107.574C263.203 106.227 261.074 103.761 261.074 103.761C261.074 103.761 262.342 104.83 263.015 105.327C264.271 106.254 265.557 105.244 264.8 103.408C264.042 101.571 257.667 96.3226 255.325 95.488C252.981 94.6541 250.782 95.3853 250.782 95.3853C250.782 95.3853 249.338 94.8209 247.36 94.4352Z" fill="#F6879F"/>
<path d="M262.019 103.45C263.914 104.991 264.54 105.222 264.942 104.944C264.685 105.704 263.845 105.94 263.015 105.327C262.342 104.83 261.074 103.761 261.074 103.761L256.403 98.9765C256.403 98.9765 260.053 101.85 262.019 103.45Z" fill="#F47089"/>
<path d="M255.817 100.854C256.189 101.597 257.527 102.799 258.652 104.268C259.777 105.738 261.111 107.51 262.054 108.235C262.791 108.802 263.369 108.214 263.495 108.084C263.449 109.064 262.625 109.477 261.683 109.384C261.516 108.391 260.141 106.662 258.835 105.045C257.527 103.427 254.947 100.926 255.093 100.496C255.24 100.066 255.444 100.112 255.817 100.854Z" fill="#F47089"/>
<path d="M252.973 101.367C252.551 100.882 253.309 100.192 253.614 100.862C253.918 101.533 253.543 101.581 254.517 102.719C255.492 103.855 257.398 105.866 257.904 106.581C258.41 107.296 259.18 108.269 258.605 109.983V109.984C257.913 109.414 257.388 108.801 257.388 108.801C257.986 108.309 257.949 106.98 256.859 105.764C255.77 104.548 253.394 101.852 252.973 101.367Z" fill="#F47089"/>
<path d="M232.231 98.4282C232.679 99.1158 234.906 99.0808 236.378 98.5711C237.849 98.0614 241.085 97.1814 242.933 97.5363C244.78 97.892 246.649 99.1107 248.601 101.606C250.553 104.102 253.216 106.974 254.855 108.055C256.493 109.136 257.15 108.943 257.151 108.943C256.709 109.159 255.665 109.448 254.169 108.487C252.146 107.188 248.744 103.661 246.295 101.66C243.848 99.6589 242.387 99.351 240.198 99.2048C238.009 99.0577 235.859 100.203 233.609 99.5426C232.704 99.2766 232.29 98.8789 232.231 98.4282Z" fill="#F47089"/>
<path d="M260.403 100.348C258.657 99.9633 257.571 99.9009 255.267 99.8479C252.103 99.5391 249.125 99.2492 248.577 98.4444C248.03 97.6397 246.089 95.6967 246.05 94.8166C246.011 93.9358 246.629 93.3696 246.629 93.3696C246.629 93.3696 245.828 92.6025 245.49 91.5677C245.152 90.5329 245.901 89.2766 245.901 89.2766C245.901 89.2766 245.314 88.8344 245.041 87.892C244.729 86.8153 245.444 85.6137 246.579 85.2665C245.811 84.6978 245.58 83.6869 245.659 82.8711C245.771 81.7165 247.252 80.8853 249.186 81.3206C251.121 81.7567 254.965 82.8719 255.836 82.2981C256.708 81.7242 256.283 78.6361 256.392 76.6708C256.502 74.7047 257.775 71.4232 259.632 71.7585C260.619 71.9372 260.099 74.9723 260.577 77.6774C261.054 80.3816 263.635 83.4697 265.038 86.8179C265.699 88.3957 267.478 90.5013 269.592 92.682C269.223 96.4766 265.727 100.43 263.088 101.214C261.969 100.736 261.324 100.551 260.403 100.348Z" fill="#F6879F"/>
<path d="M255.836 82.2982C256.37 81.9476 256.417 80.6545 256.399 79.2545V79.2537C256.774 80.5929 258.453 82.1828 257.701 82.802C256.947 83.4211 254.299 82.5155 252.593 82.1229H252.594C254.028 82.4248 255.366 82.6078 255.836 82.2982Z" fill="#F47089"/>
<path d="M245.779 85.7078C246.009 85.5137 246.278 85.3589 246.579 85.2665C246.579 85.2665 248.659 86.3031 250.511 87.0676C247.831 86.7101 246.463 86.138 245.779 85.7078Z" fill="#F47089"/>
<path d="M245.901 89.2766C246.939 90.018 249.195 91.2034 249.195 91.2034C249.195 91.2034 246.902 90.6389 245.539 90.1352C245.686 89.64 245.901 89.2766 245.901 89.2766Z" fill="#F47089"/>
<path d="M246.63 93.3697C247.45 94.1325 249.861 95.6736 249.861 95.6736C249.861 95.6736 247.445 94.903 246.159 94.1256C246.326 93.6536 246.63 93.3697 246.63 93.3697Z" fill="#F47089"/>
<path d="M246.595 95.9585C247.561 97.1917 248.838 98.4429 252.355 98.8328C255.348 99.1647 258.451 99.1758 261.416 100.335C261.898 100.524 262.812 100.986 263.14 101.198L263.046 101.227C260.215 100.218 258.058 100.12 255.267 99.848C252.103 99.5392 249.125 99.2493 248.577 98.4446C248.21 97.9058 247.222 96.8573 246.595 95.9585Z" fill="#F47089"/>
<path d="M255.267 99.8479L252.448 99.4519C251.514 99.3091 250.569 99.1868 249.678 98.9114C249.236 98.7661 248.793 98.6275 248.56 98.2213C248.262 97.8424 247.953 97.4832 247.637 97.1292C247.324 96.7734 247.016 96.4151 246.729 96.0405C246.452 95.6668 246.135 95.2888 246.05 94.8167C246.093 95.2982 246.38 95.7121 246.627 96.1132C246.897 96.5083 247.191 96.8837 247.487 97.2558C247.778 97.6303 248.094 97.987 248.374 98.3615C248.434 98.4522 248.507 98.5506 248.607 98.6549C248.706 98.7396 248.81 98.8233 248.922 98.8772C249.141 99.0029 249.372 99.0808 249.602 99.156C250.533 99.4203 251.479 99.5451 252.424 99.6469C253.37 99.7444 254.318 99.8026 255.267 99.8479Z" fill="#C35363"/>
<path d="M251.402 86.9795C251.584 87.1053 251.72 87.2746 251.988 87.532C252.2 87.7356 252.459 87.8955 252.729 88.0186C252.857 88.0776 253.082 88.1375 253.22 88.1597C253.355 88.1811 253.981 88.2145 254.069 88.229C254.176 88.2461 254.301 88.2778 254.388 88.347L254.375 88.4411C254.206 88.5335 254.001 88.5583 253.812 88.5719C253.606 88.5873 253.41 88.6558 253.205 88.6498C252.899 88.6421 252.615 88.5728 252.348 88.4214C252.099 88.2795 251.914 88.0289 251.752 87.7971C251.518 87.4653 251.47 87.2891 251.396 86.9907L251.402 86.9795Z" fill="#F47089"/>
<path d="M250.159 91.0375C250.341 91.1641 250.477 91.3334 250.744 91.59C250.956 91.7944 251.215 91.9535 251.486 92.0775C251.613 92.1365 251.838 92.1963 251.977 92.2177C252.112 92.24 252.738 92.2733 252.825 92.287C252.933 92.3041 253.058 92.3366 253.144 92.405L253.131 92.4999C252.963 92.5914 252.757 92.6171 252.568 92.6308C252.362 92.6453 252.166 92.7146 251.961 92.7086C251.655 92.7001 251.371 92.6316 251.104 92.4794C250.855 92.3374 250.671 92.0877 250.508 91.856C250.275 91.5242 250.227 91.348 250.152 91.0486L250.159 91.0375Z" fill="#F47089"/>
<path d="M249.817 94.5413C249.999 94.667 250.135 94.8363 250.403 95.0938C250.615 95.2973 250.874 95.4572 251.145 95.5804C251.272 95.6394 251.497 95.6992 251.635 95.7215C251.771 95.7429 252.397 95.7762 252.484 95.7908C252.592 95.8079 252.716 95.8395 252.803 95.9088L252.79 96.0028C252.621 96.0952 252.416 96.12 252.227 96.1337C252.021 96.1491 251.825 96.2175 251.62 96.2124C251.313 96.2038 251.03 96.1346 250.763 95.9832C250.514 95.8412 250.33 95.5906 250.167 95.3589C249.933 95.0271 249.886 94.8509 249.811 94.5524L249.817 94.5413Z" fill="#F47089"/>
<path d="M331.304 9.70367C326.473 13.6308 323.612 19.0887 322.82 24.8212L322.612 27.5108C322.493 32.9166 324.205 38.3925 327.873 42.9055C336.083 53.0055 350.976 54.5466 361.075 46.3366C365.589 42.6686 368.388 37.6553 369.374 32.3453L369.714 29.666C370.12 23.8933 368.432 17.965 364.506 13.1347C356.296 3.0347 341.403 1.49364 331.304 9.70367Z" fill="white"/>
<path d="M364.506 13.1347C368.432 17.9649 370.12 23.8932 369.714 29.6659L369.374 32.3453C368.388 37.6553 365.589 42.6686 361.075 46.3365C350.976 54.5466 336.083 53.0055 327.873 42.9054C324.205 38.3925 322.493 32.9166 322.612 27.5108L322.82 24.8211C323.612 19.0887 326.473 13.6307 331.304 9.70362C341.403 1.4936 356.296 3.03466 364.506 13.1347ZM330.041 8.15568C320.215 16.1399 317.868 29.961 323.916 40.6314L319.973 47.5407C319.299 48.72 320.429 50.1114 321.722 49.6932L329.29 47.2456C338.496 55.3479 352.507 55.8798 362.336 47.8896C373.295 38.9928 374.964 22.8294 366.059 11.8741C357.154 0.918034 340.996 -0.748772 330.041 8.15568Z" fill="#33535F"/>
<path d="M358.258 19.3648C356.294 14.8236 352.005 12.3598 347.215 12.0682C344.647 11.9117 341.982 12.5522 339.943 14.1694C338.095 15.6344 336.334 18.1837 336.792 20.6553C336.85 20.9709 337.736 21.2574 337.829 20.8221C338.032 19.8685 337.987 19.3648 338.408 18.4771C338.828 17.5945 339.581 16.5845 340.28 15.9012C341.776 14.4388 343.977 13.8085 346.054 13.658C350.192 13.3569 353.89 14.7903 356.125 18.3813C358.287 21.856 358.051 26.3399 355.946 29.7821C354.817 31.6268 353.548 32.7967 351.994 34.266C350.327 35.8438 349.083 36.9248 348.123 38.743C347.646 39.6461 347.256 40.6065 346.653 41.4369C346.003 42.3332 344.973 42.7976 343.874 42.8463C342.752 42.8959 341.233 42.535 340.263 41.9082C339.464 41.3908 338.35 40.5655 338.007 38.4565C337.869 37.6047 336.903 37.8964 336.971 38.8833C337.044 39.9412 337.114 40.6074 337.954 41.6952C338.662 42.6146 339.766 43.4552 340.831 43.8161C342.919 44.5251 345.771 44.5533 347.404 42.9079C348.959 41.3377 349.39 39.0269 350.942 37.4354C352.632 35.701 354.152 34.402 355.767 32.5804C358.925 29.0184 360.187 23.8273 358.258 19.3648Z" fill="#AD58B2"/>
<path d="M353.08 20.0774C353.273 19.7447 353.012 19.1717 352.867 18.8724C352.743 18.615 352.57 18.3798 352.373 18.1694C350.896 16.5958 348.361 16.1639 346.318 16.5796C343.548 17.1432 340.308 19.7644 340.901 22.9141C341.163 24.3107 342.383 25.5122 343.825 25.5892C345.22 25.6645 346.223 24.6955 347.433 24.1944C349.24 23.4461 350.197 25.3472 350.39 26.8592C350.496 27.693 350.609 28.6919 350.396 29.5155C350.197 30.2869 349.569 30.57 348.881 30.8137C348.233 31.0429 347.548 31.2319 346.992 31.651C346.272 32.1949 346.119 32.9483 345.791 33.7377C345.586 34.2311 345.212 34.7468 344.779 35.0615C344.355 35.372 343.86 35.3839 343.367 35.2659C342.879 35.1487 342.502 34.7956 342.197 34.4056C342.031 34.1943 341.916 33.86 341.679 33.7206C341.19 33.4341 340.933 33.9053 340.888 34.3192C340.83 34.8511 341.086 35.3779 341.437 35.7628C342.159 36.5564 343.418 36.8087 344.438 36.5487C345.449 36.2905 346.353 35.537 346.873 34.6442C347.249 34.0019 347.286 33.0963 347.886 32.6105C348.369 32.2205 349.05 32.088 349.619 31.8767C350.157 31.6766 350.694 31.4226 351.102 31.0078C351.748 30.3493 351.877 29.4308 351.868 28.5465C351.851 26.9661 351.743 25.2343 350.653 23.9874C349.625 22.8115 348.102 22.5079 346.692 23.145C345.624 23.6274 344.226 24.9683 343.063 24.0242C341.555 22.8004 342.452 20.6281 343.567 19.5001C344.782 18.2712 346.536 17.611 348.258 17.7162C349.046 17.7632 349.812 17.995 350.514 18.3507C351.19 18.6937 351.578 19.1632 352.033 19.7404C352.271 20.0432 352.635 20.623 353.039 20.1347L353.08 20.0774Z" fill="#AD58B2"/>
<path d="M331.884 35.2351C331.554 34.6305 331.776 33.8719 332.381 33.5418L360.583 18.136C361.188 17.805 361.946 18.0274 362.276 18.632C362.607 19.2367 362.385 19.9944 361.78 20.3253L333.577 35.7311C332.973 36.0621 332.215 35.8397 331.884 35.2351Z" fill="#33535F"/>
<path d="M345.946 116.162C340.278 113.586 336.13 109.029 333.912 103.684L333.031 101.133C331.548 95.9346 331.819 90.2038 334.226 84.9092C339.613 73.0603 353.631 67.8016 365.479 73.1886C370.774 75.5951 374.75 79.7369 377.048 84.6244L378.055 87.1311C379.908 92.6138 379.776 98.7756 377.199 104.442C371.811 116.29 357.794 121.55 345.946 116.162Z" fill="white"/>
<path d="M345.946 116.162C340.278 113.586 336.13 109.029 333.912 103.683L333.031 101.133C331.548 95.9344 331.819 90.2036 334.226 84.909C339.613 73.0601 353.631 67.8014 365.479 73.1884C370.774 75.5949 374.75 79.7367 377.048 84.6242L378.055 87.1309C379.908 92.6136 379.776 98.7754 377.199 104.442C371.811 116.29 357.794 121.55 345.946 116.162ZM379.021 105.269C384.864 92.4169 379.159 77.2019 366.306 71.3668C354.775 66.1243 341.354 70.1832 334.499 80.3516L326.557 79.8983C325.201 79.8214 324.459 81.4523 325.409 82.4229L330.973 88.1101C327.821 99.9633 333.589 112.742 345.115 117.979C357.967 123.823 373.177 118.121 379.021 105.269Z" fill="#33535F"/>
<path d="M346.575 102.703L341.082 103.959C340.705 104.045 340.328 103.809 340.242 103.431L338.219 94.5782C338.132 94.201 338.368 93.8247 338.745 93.7384L344.238 92.4829C344.616 92.3965 344.992 92.6326 345.078 93.0106L347.102 101.864C347.188 102.241 346.952 102.617 346.575 102.703Z" fill="#AD58B2"/>
<path d="M357.835 107.594L345.779 102.885L343.442 92.6651L352.255 83.1851C353.32 82.0408 355.231 82.5531 355.58 84.0771L360.442 105.345C360.791 106.869 359.292 108.162 357.835 107.594Z" fill="#AD58B2"/>
<path d="M366.243 92.8283C365.578 89.9171 363.366 87.7603 360.676 87.0274C360.13 86.8786 359.554 87.1497 359.313 87.6619L359.311 87.6671C359.008 88.3128 359.351 89.0867 360.04 89.2697C361.947 89.776 363.507 91.3 363.975 93.3465C364.444 95.3982 363.698 97.4473 362.203 98.7275C361.659 99.1936 361.685 100.043 362.242 100.493L362.248 100.497C362.686 100.851 363.321 100.843 363.747 100.474C365.853 98.6446 366.908 95.7403 366.243 92.8283Z" fill="#AD58B2"/>
<path d="M370.87 91.7705C369.881 87.4431 366.747 84.1506 362.842 82.7472C362.268 82.5411 361.628 82.7839 361.367 83.3347L361.362 83.3458C361.065 83.9718 361.383 84.7039 362.035 84.9348C365.23 86.0645 367.793 88.7507 368.602 92.2888C369.411 95.8276 368.271 99.3708 365.885 101.777C365.397 102.269 365.43 103.066 365.968 103.501C366.442 103.883 367.121 103.826 367.55 103.392C370.463 100.448 371.862 96.1081 370.87 91.7705Z" fill="#AD58B2"/>
<path d="M345.848 109.939C345.322 109.608 345.163 108.913 345.494 108.387L364.298 78.4043C364.628 77.8784 365.323 77.7193 365.85 78.0494C366.376 78.3804 366.535 79.0748 366.205 79.6008L347.399 109.584C347.069 110.11 346.375 110.269 345.848 109.939Z" fill="#33535F"/>
<path d="M116.686 286.458L114.232 271.173L132.891 268.147C132.891 268.147 132.783 280.33 133.183 285.894C133.371 288.516 135.457 293.355 135.457 293.355C135.457 293.355 128.268 297.655 124.347 296.269C120.425 294.883 117.563 288.877 117.597 287.746L116.686 286.458Z" fill="#F8A39A"/>
<path d="M157.918 310.824C158.18 310.822 158.43 313.269 157.012 314.506C155.376 315.935 150.14 318.717 143.769 317.937C137.397 317.158 133.941 315.21 131.385 313.095C128.829 310.979 125.246 307.995 122.363 307.379C119.685 306.808 116.05 304.664 115.191 303.843C114.331 303.021 114.436 299.342 114.436 299.342L157.918 310.824Z" fill="#17282F"/>
<path d="M116.46 284.998C116.46 284.998 116.122 285.181 115.961 286.034C115.768 287.049 115.567 289.999 115.153 291.666C114.577 293.982 114.203 298.725 114.561 300.607C114.919 302.489 120.011 304.72 122.801 305.762C125.653 306.828 128.955 309.04 131.855 311.405C134.856 313.852 141.16 316.376 145.311 316.317C150.222 316.246 155.744 314.618 157.003 312.331C158.56 309.501 159.69 306.219 152.396 302.895C151.016 302.265 146.163 299.433 144.509 298.405C140.034 295.624 136.883 293.067 134.81 288.107C134.568 287.527 134.313 286.885 133.757 286.593C133.332 286.369 132.818 286.404 132.341 286.475C131.129 286.654 126.293 287.355 125.189 287.89C124.213 288.363 122.83 288.914 122.855 290.166C122.865 290.602 122.992 291.026 123.135 291.437C123.223 291.692 123.292 292.032 123.07 292.184C122.859 292.328 122.578 292.168 122.387 291.999C121.623 291.321 121.061 290.449 120.416 289.656C120.071 289.231 118.969 287.874 118.535 287.538C118.139 287.235 117.636 287.085 117.284 286.74C116.841 286.302 116.483 285.585 116.46 284.998Z" fill="#33535F"/>
<path d="M131.855 311.405C130.58 310.366 129.228 309.363 127.871 308.467V308.46C127.871 308.46 136.454 313.608 139.905 311.22C142.128 309.682 141.061 307.839 141.005 307.248C140.949 306.657 148.803 302.428 150.968 302.156C151.572 302.484 152.072 302.767 152.396 302.895C158.091 305.128 158.859 308.056 157.927 311.749C156.669 314.036 151.746 316.422 145.399 316.467C141.248 316.496 134.856 313.852 131.855 311.405Z" fill="#273E47"/>
<path d="M140.4 305.528C144.935 307.307 143.007 308.167 141.739 308.357C140.472 308.547 132.834 304.148 128.172 300.502C123.309 296.698 119.511 291.574 117.705 290.177C117.032 289.657 116.307 289.016 115.662 288.417C115.777 287.419 115.87 286.511 115.961 286.034C116.122 285.181 116.46 284.998 116.46 284.998C116.46 284.998 116.841 286.302 117.284 286.74C117.636 287.085 118.139 287.235 118.535 287.538C118.969 287.874 120.071 289.231 120.416 289.656C121.061 290.449 121.623 291.321 122.387 291.998C126.362 296.991 135.866 303.749 140.4 305.528Z" fill="#273E47"/>
<path d="M141.415 307.693C141.315 307.694 141.215 307.663 141.131 307.594C140.939 307.439 140.909 307.157 141.065 306.964C142.338 305.389 148.38 301.632 151.713 301.975C151.96 301.999 152.138 302.221 152.111 302.466C152.086 302.712 151.891 302.884 151.619 302.866C148.508 302.554 142.769 306.279 141.761 307.527C141.673 307.636 141.545 307.692 141.415 307.693Z" fill="#17282F"/>
<path d="M137.456 305.289C137.356 305.29 137.256 305.258 137.172 305.19C136.98 305.035 136.951 304.753 137.106 304.56C138.378 302.987 144.419 299.233 147.754 299.573C148 299.597 148.18 299.818 148.153 300.063C148.128 300.309 147.914 300.489 147.662 300.464C144.548 300.156 138.81 303.875 137.803 305.122C137.715 305.232 137.586 305.289 137.456 305.289Z" fill="#17282F"/>
<path d="M133.497 303.014C133.397 303.015 133.296 302.983 133.213 302.915C133.02 302.76 132.992 302.478 133.147 302.285C134.42 300.71 140.461 296.951 143.794 297.297C144.04 297.322 144.22 297.543 144.194 297.788C144.169 298.034 143.958 298.213 143.702 298.189C140.588 297.877 134.85 301.6 133.843 302.848C133.756 302.956 133.627 303.013 133.497 303.014Z" fill="#17282F"/>
<path d="M129.826 300.409C129.727 300.41 129.626 300.378 129.543 300.31C129.35 300.155 129.321 299.873 129.477 299.68C130.748 298.105 136.804 294.35 140.124 294.693C140.371 294.717 140.55 294.938 140.523 295.183C140.498 295.429 140.286 295.607 140.031 295.585C136.922 295.275 131.181 298.995 130.172 300.242C130.085 300.352 129.957 300.408 129.826 300.409Z" fill="#17282F"/>
<path d="M126.23 297.804C126.133 297.805 126.034 297.774 125.952 297.709C125.757 297.557 125.724 297.275 125.877 297.08C127.625 294.849 133.955 291.701 137.287 292.043C137.533 292.067 137.713 292.287 137.686 292.533C137.661 292.779 137.448 292.952 137.195 292.934C134.194 292.628 128.133 295.653 126.581 297.631C126.493 297.745 126.362 297.803 126.23 297.804Z" fill="#17282F"/>
<path d="M83.6596 291.577L87.1143 272.473L68.6129 270.32L69.0582 289.019C69.0582 289.019 67.8532 294.102 68.9573 295.788C70.0614 297.473 81.1798 298.834 82.1466 297.642C83.1131 296.449 83.6596 291.577 83.6596 291.577Z" fill="#F8A39A"/>
<path d="M83.0069 321.483C82.6915 325.749 81.9239 328.531 80.2061 330.906C78.4877 333.281 75.281 333.806 72.0459 332.802C68.8107 331.797 64.6773 329.486 63.78 325.71C62.8838 321.933 63.0932 319.413 63.8636 315.496L83.0069 321.483Z" fill="#17282F"/>
<path d="M69.0582 289.02C67.7223 289.003 68.2154 292.33 67.8138 298.081C67.3792 304.303 64.8223 309.271 64.0405 314.277C63.1479 319.997 63.4643 322.611 65.6955 326.299C67.9257 329.987 75.9016 334.081 79.89 329.394C83.1415 325.573 83.3138 321.052 83.071 315.247C82.8194 309.245 82.59 305.021 82.9013 300.508C83.1993 296.195 84.8155 292.154 83.6596 291.577C83.5647 292.205 82.6046 296.601 81.8563 296.562C81.7919 296.003 81.8092 295.488 81.8553 294.928C81.8957 294.441 81.8543 293.902 81.5015 293.499C81.1464 293.093 79.8546 292.622 79.3141 292.481C78.0018 292.139 75.6657 291.743 74.3314 291.524C73.6674 291.416 73.0002 291.332 72.332 291.283C71.7905 291.245 71.1525 291.233 70.6384 291.36C70.3223 291.439 70.0293 291.615 69.9104 291.889C69.8223 292.09 69.8366 292.321 69.8346 292.544C69.8316 292.944 69.7715 293.339 69.6572 293.718C69.6067 293.885 69.4734 294.082 69.2827 294.026C69.1277 293.979 69.0679 293.801 69.0682 293.657C69.0689 292.959 69.0272 289.387 69.0582 289.02Z" fill="#33535F"/>
<path d="M64.3579 312.656C64.221 313.48 63.3844 318.944 65.0548 320.079C66.8621 321.308 67.8967 317.044 67.8967 317.044C67.8967 317.044 72.1684 316.225 78.3497 319.173C78.0236 320.043 78.955 323.08 80.6621 322.596C82.3578 322.116 83.0804 315.829 83.0897 315.747C83.2995 321.311 83.0466 325.684 79.89 329.394C75.9017 334.081 67.9258 329.987 65.6956 326.299C63.4643 322.611 63.148 319.997 64.0413 314.277C64.1301 313.704 64.2384 313.169 64.3579 312.656Z" fill="#273E47"/>
<path d="M68.3801 317.455C68.335 319.545 66.0377 318.648 65.9632 315.685C65.8884 312.722 67.1334 305.467 67.5206 300.6C67.6309 293.617 67.7224 289.003 69.0583 289.019L69.0496 289.232C69.0496 289.232 69.0686 293.207 69.0679 293.657C68.9978 297.923 69.2711 306.195 68.8271 310.064C68.3834 313.933 68.4246 315.364 68.3801 317.455Z" fill="#273E47"/>
<path d="M77.6307 319.055C78.087 317.035 78.4682 315.677 78.9662 311.818C79.4614 307.987 81.4013 300.278 82.3497 296.136C82.6825 295.449 83.6596 291.577 83.6596 291.577C84.5927 291.803 83.8149 295.49 83.4508 297.216C83.087 298.942 82.632 300.793 82.1894 303.266C81.0008 308.15 81.1564 315.404 80.3777 318.219C79.5987 321.035 77.175 321.075 77.6307 319.055Z" fill="#273E47"/>
<path d="M78.4796 319.353L78.2995 319.291C78.2521 319.263 73.4238 316.64 68.0206 317.484C67.7547 317.524 67.4854 317.359 67.4179 317.118C67.3492 316.875 67.5092 316.646 67.774 316.603C73.5551 315.7 78.554 318.423 78.7662 318.541C79.0067 318.674 79.0989 318.95 78.969 319.157C78.8714 319.314 78.6737 319.387 78.4796 319.353Z" fill="#17282F"/>
<path d="M79.6338 314.903L79.4694 314.848C79.4163 314.821 73.9861 312.079 67.9609 312.83C67.6943 312.86 67.4304 312.692 67.3696 312.447C67.3101 312.204 67.4788 311.978 67.746 311.944C74.1187 311.154 79.6702 313.963 79.9047 314.082C80.1503 314.208 80.2526 314.482 80.1329 314.693C80.0388 314.859 79.8353 314.938 79.6338 314.903Z" fill="#17282F"/>
<path d="M68.322 308.541C68.1355 308.509 67.9675 308.383 67.9044 308.209C67.8201 307.967 67.9601 307.727 68.2193 307.669C74.2219 306.345 80.1135 309.564 80.3631 309.703C80.6049 309.836 80.6957 310.111 80.5662 310.319C80.4365 310.525 80.1328 310.579 79.8966 310.451C79.8402 310.421 74.1166 307.299 68.5314 308.538L68.322 308.541Z" fill="#17282F"/>
<path d="M68.7008 304.501C68.5171 304.47 68.3523 304.346 68.2868 304.175C68.1964 303.935 68.332 303.692 68.5902 303.632C75.1933 302.06 80.7455 305.505 80.9781 305.652C81.211 305.799 81.283 306.078 81.1388 306.276C80.9948 306.473 80.6838 306.516 80.4573 306.368C80.4061 306.335 75.0638 303.035 68.9182 304.495L68.7008 304.501Z" fill="#17282F"/>
<path d="M69.1464 299.964C68.9657 299.933 68.8017 299.813 68.7349 299.644C68.6414 299.406 68.7723 299.162 69.0292 299.097C75.2178 297.533 81.251 301.093 81.5042 301.247C81.7411 301.388 81.8193 301.666 81.681 301.868C81.5437 302.07 81.241 302.122 81.0035 301.976C80.9447 301.941 75.1166 298.505 69.37 299.956L69.1464 299.964Z" fill="#17282F"/>
<path d="M74.1407 134.796C72.1853 152.853 70.9209 162.884 71.3679 186.532C71.5376 195.498 71.219 205.456 71.1291 214.424C71.1033 216.967 71.4044 219.969 70.9838 222.485C70.2054 227.14 69.7343 230.038 68.9353 235.743C68.4512 239.199 68.2147 243.585 67.9734 247.067C67.6117 252.289 68.1248 257.596 67.0307 262.719C66.6198 264.643 65.9841 266.529 65.8064 268.487C65.7105 269.541 65.7569 270.631 66.0429 271.655C66.3319 272.689 68.1949 275.156 68.5193 276.09C68.9923 277.451 68.5575 279.499 68.5521 280.965C68.5521 280.965 78.2303 285.783 85.6133 283.159C85.9588 281.858 86.064 279.705 86.7987 278.632C87.3221 277.866 89.6799 276.025 90.3333 275.265C91.0225 274.465 91.5348 273.513 91.7974 272.494C92.1643 271.071 92.0651 269.577 92.1959 268.116C92.5055 264.667 94.0833 261.473 95.1977 258.189C98.202 249.337 97.6778 239.932 99.5353 230.874C102.044 218.644 103.244 210.91 104.663 202.199C106.083 193.489 109.687 219.552 109.688 219.555C109.894 221.036 109.521 222.81 109.462 224.3C109.338 227.394 109.413 230.434 109.013 233.489C108.124 240.268 108.31 247.181 109.569 253.897C110.231 257.43 110.808 259.861 110.617 263.46C110.504 265.572 110.136 267.441 110.957 269.392C111.548 270.794 113.075 273.122 113.816 274.423C114.122 274.959 114.133 279.196 114.465 279.399C114.465 279.399 124.693 285.292 132.394 278.94C132.499 277.707 133.189 275.264 133.7 274.173C135.03 272.772 136.269 270.109 136.422 267.991C136.565 266 135.959 264.548 135.949 262.553C135.937 260.105 136.353 257.677 136.62 255.243C137.001 251.771 137.08 248.276 137.022 244.787C136.971 241.754 136.466 238.538 136.935 235.566C137.714 230.615 137.817 225.378 137.971 220.362C138.577 200.635 135.942 160.604 134.765 135.143L74.1407 134.796Z" fill="#33535F"/>
<path d="M109.283 170.612L104.077 205.814C104.271 204.617 104.465 203.418 104.664 202.199C106.083 193.488 109.688 219.555 109.688 219.555L109.045 203.421C108.805 198.097 109.675 193.034 110.415 187.205C111.376 179.644 112.272 174.303 112.272 174.303C122.383 172.047 125.543 165.692 125.543 165.692C120.931 170.155 109.283 170.612 109.283 170.612Z" fill="#17282F"/>
<path d="M68.333 281.578C71.6048 284.257 79.0702 286.238 85.7032 283.9L87.1143 278.26C82.1089 279.9 74.006 279.078 68.5341 275.545L68.333 281.578Z" fill="#17282F"/>
<path d="M114.461 280.056C116.681 282.366 127.13 283.452 133.267 279.84L133.7 274.173C129.048 276.776 118.344 277.136 113.817 274.423L114.461 280.056Z" fill="#17282F"/>
<path d="M71.4812 190.532C71.4812 190.532 70.9103 216.219 70.9701 218.065C71.0299 219.913 85.6143 223.818 85.9735 222.646C86.5713 220.694 86.4507 216.335 87.7489 195.331C76.5036 193.806 71.4812 190.532 71.4812 190.532Z" fill="#273E47"/>
<path d="M85.5895 202.551C85.1807 202.41 84.7343 202.45 84.3087 202.437C83.811 202.423 83.3136 202.398 82.8171 202.354C81.7668 202.26 80.7229 202.093 79.6942 201.853C78.532 201.583 77.3862 201.22 76.2731 200.781C75.3654 200.423 74.5072 199.942 73.5989 199.591C73.5134 199.559 73.4983 199.726 73.5535 199.767C74.412 200.411 75.4332 200.855 76.412 201.261C77.3331 201.642 78.2775 201.952 79.2403 202.2C80.2645 202.464 81.3055 202.657 82.3548 202.776C82.8792 202.836 83.4054 202.877 83.9329 202.899C84.431 202.921 85.1425 203.039 85.5946 202.785C85.6639 202.747 85.6733 202.58 85.5895 202.551Z" fill="#17282F"/>
<path d="M79.4423 199.759C79.2909 199.964 78.9665 200.009 78.7581 199.885C78.4131 199.681 78.4886 198.999 78.9128 198.956C79.0461 198.942 79.1857 198.974 79.2916 199.058C79.471 199.201 79.5953 199.551 79.4423 199.759ZM79.7045 198.986C79.5759 198.724 79.4763 198.562 79.1844 198.526C78.9469 198.496 78.6973 198.556 78.4999 198.699C78.3135 198.835 78.1886 199.04 78.1591 199.272C78.1087 199.669 78.3078 200.037 78.6392 200.228C78.9262 200.393 79.3331 200.421 79.6107 200.216C79.7937 200.081 79.8462 199.861 79.8501 199.637C79.8538 199.415 79.8021 199.183 79.7045 198.986Z" fill="#17282F"/>
<path d="M192.384 84.0479C193.903 82.8993 194.184 82.5975 196.226 81.1393C197.739 80.0583 198.948 79.186 199.361 78.5275C200.17 77.231 199.558 75.8687 198.936 76.0508C197.686 76.4151 196.178 77.373 193.241 79.1586C190.017 81.1188 187.704 83.1012 187.556 82.7548C187.556 82.7548 188.293 81.7234 191.093 79.0124C195.125 75.1092 195.912 74.4045 196.689 73.1277C198.314 70.4552 196.27 69.8882 195.326 70.4056C194.257 70.9914 193.06 72.1767 190.189 74.7261C187.068 77.4978 184.327 80.3414 184.105 80.1507C183.884 79.9591 188.216 75.7147 190.849 72.571C193.295 69.6513 191.884 68.283 191.243 68.1461C190.561 67.9999 189.715 68.844 188.551 69.9634C186.45 71.9817 180.284 78.7114 178.998 80.0635C177.712 81.4156 176.773 81.7884 176.74 79.5888C176.709 77.5261 176.928 75.3478 176.112 73.8837C174.747 71.4352 173.063 71.9219 172.971 73.504C172.839 75.737 172.167 78.2171 171.573 81.7653C171.264 83.6143 171.172 85.8396 171.061 87.1335C170.578 91.6516 166.645 93.781 163.361 95.7857C160.069 97.7945 151.186 102.223 151.186 102.223C151.186 102.223 136.036 84.78 131.573 80.4612C126.271 75.3299 124.916 75.6292 122.478 75.004L121.367 101.094C121.367 101.094 140.702 118.587 145.671 121.863C150.64 125.137 152.816 123.609 159.365 118.431C164.395 114.455 172.821 105.156 174.848 103.098C176.875 101.04 177.773 99.6948 180.025 99.0081C183.089 98.0742 184.718 96.6537 186.842 94.4755C187.858 93.4338 189.56 91.33 191.104 89.9335C193.616 87.6603 196.736 85.6976 197.617 85.0391C198.994 84.0111 199.327 81.7559 197.439 82.3674C193.872 83.5219 190.201 86.2894 190.1 86.0858C189.998 85.8823 191.34 84.8364 192.384 84.0479Z" fill="#F8A39A"/>
<path d="M162.558 95.6771L167.206 92.736C167.206 92.736 166.142 96.0833 168.556 99.9856C170.971 103.887 174.146 104.322 174.146 104.322L169.915 108.938C169.915 108.938 166.394 108.226 163.848 104.832C161.301 101.439 162.558 95.6771 162.558 95.6771Z" fill="#273E47"/>
<path d="M122.258 74.3301C128.452 75.4248 134.231 81.6516 139.567 87.8527C144.903 94.0538 151.236 101.314 151.236 101.314L163.925 94.8124C163.925 94.8124 161.625 99.1312 165.045 103.712C168.466 108.293 170.991 107.765 170.991 107.765C170.991 107.765 160.221 119.572 154.283 122.895C148.346 126.217 146.794 124.068 140.615 119.018C134.435 113.968 120.884 101.404 120.884 101.404L122.258 74.3301Z" fill="#17282F"/>
<path d="M177.749 83.3731C179.226 85.8224 179.273 91.4317 177.526 94.6738C180.933 91.69 180.907 85.9832 177.749 83.3731Z" fill="#F57F6D"/>
<path d="M151.236 101.314C148.193 103.51 144.966 108.668 145.582 113.899C144.642 110.017 143.837 104.26 149.945 99.8324L151.236 101.314Z" fill="#040606"/>
<path d="M76.4832 77.709C76.4832 77.709 67.7945 84.2462 68.7502 98.4701C69.4811 109.348 72.2556 121.334 72.5288 125.993C72.9477 133.138 72.3207 150.228 72.3207 150.228C82.9855 163.228 130 160.238 135.709 148.557C135.709 148.557 134.527 111.639 132.151 93.7699C130.905 84.4079 125.708 76.9624 122.258 74.3301C122.258 74.3301 118.591 73.5168 110.58 72.9583C105.666 72.6154 91.6366 73.5074 91.6366 73.5074L76.4832 77.709Z" fill="#EDEDEB"/>
<path d="M85.4836 33.3621C85.4836 33.3621 81.9238 33.5562 80.2608 36.2698C78.5978 38.9842 77.5979 43.9282 79.739 49.4477C82.0945 55.5223 86.6618 61.3702 87.6616 63.0747C88.6613 64.7791 90.5659 65.1802 90.5659 65.1802L90.0228 57.692L89.5011 52.4803C89.5011 52.4803 93.536 48.4608 93.7242 44.6902C93.9671 39.8369 91.9539 37.1883 91.9539 37.1883L85.4836 33.3621Z" fill="#273E47"/>
<path d="M111.524 40.935C109.457 40.061 106.858 39.8293 104.649 39.7933C102.547 39.7591 100.446 39.7146 98.3449 39.6753C96.0948 39.6325 93.8448 39.5906 91.5947 39.5479C91.5947 39.5479 84.3625 38.685 84.1256 33.6042C84.0087 31.1044 85.1575 29.3751 85.4034 29.0031C86.2736 27.6861 87.6821 26.1775 88.9641 25.265C92.0121 23.0962 94.8154 21.9271 98.6245 21.4807C101.371 21.1583 104.152 21.4183 106.888 21.8177C108.738 22.0879 110.633 22.4214 112.464 22.034C113.775 21.7561 115.15 20.906 115.315 19.5762C116.817 21.2336 117.189 23.8223 116.214 25.8354C118.012 25.6712 119.776 26.9831 120.327 28.703C120.943 30.628 120.112 32.2333 119.028 33.753C119.162 33.5657 119.95 34.9682 120.013 35.0871C120.447 35.9073 120.625 36.8565 120.492 37.7896C120.303 39.1134 119.171 40.1012 117.998 40.7409C115.93 41.8672 113.663 41.839 111.524 40.935Z" fill="#273E47"/>
<path d="M83.2717 60.2056C87.2459 61.9143 88.8751 58.7577 88.8751 58.7577L90.1768 74.1926C98.0994 83.8282 117.835 79.2956 109.325 72.1991L109.145 68.6722C109.145 68.6722 110.449 68.614 112.494 68.1873C115.908 67.4843 118.916 64.279 119.768 60.5058C121.024 54.9255 120.233 46.4495 117.721 37.1645C117.236 35.3711 116.362 33.4307 114.66 32.6858C110.437 30.8377 106.756 33.9575 101.109 36.4667C98.7699 37.5057 93.0126 38.1831 91.4562 37.5391C93.566 39.66 93.8738 46.659 91.0499 49.6377C90.5779 50.646 90.0613 51.2481 89.6585 51.6355C88.4509 52.7884 87.2896 50.0123 86.1812 48.9553C85.0627 47.9077 81.0525 47.1038 79.5135 50.8197C77.9587 54.6022 79.5899 58.6234 83.2717 60.2056Z" fill="#F8A39A"/>
<path d="M109.145 68.6722C104.632 68.856 100.6 68.4849 97.8848 67.486C95.1687 66.4871 92.6407 62.9936 91.7008 59.4564C91.8342 62.3325 93.3325 67.3739 97.4683 69.305C101.604 71.2352 106.311 71.13 109.267 71.0565L109.145 68.6722Z" fill="#F57F6D"/>
<path d="M100.621 42.329L97.2768 44.7749C96.6131 43.8094 96.8252 42.4778 97.7488 41.803C98.6725 41.1274 99.9587 41.3635 100.621 42.329Z" fill="#273E47"/>
<path d="M116.697 41.8057L112.927 40.0106C113.388 38.9424 114.605 38.4789 115.646 38.9749C116.687 39.4701 117.158 40.7384 116.697 41.8057Z" fill="#273E47"/>
<path d="M100.172 47.0497C100.248 47.9793 101.064 48.6695 101.992 48.5934C102.922 48.5173 103.613 47.7014 103.537 46.7726C103.46 45.843 102.644 45.152 101.715 45.2281C100.786 45.3051 100.095 46.1201 100.172 47.0497Z" fill="#17282F"/>
<path d="M112.431 44.9229C112.508 45.8525 113.323 46.5435 114.253 46.4674C115.181 46.3904 115.873 45.5754 115.796 44.6458C115.719 43.7171 114.904 43.0252 113.975 43.1022C113.045 43.1791 112.354 43.9941 112.431 44.9229Z" fill="#17282F"/>
<path d="M106.649 42.6096L108.54 53.28L114.113 50.9222C111.918 47.2303 109.43 44.4594 106.649 42.6096Z" fill="#F57F6D"/>
<path d="M103.214 55.814L110.114 57.7451C109.619 59.7172 107.672 60.8854 105.766 60.3526C103.859 59.819 102.718 57.787 103.214 55.814Z" fill="#C35363"/>
<path d="M103.988 57.0062C103.693 56.9558 103.404 56.9498 103.12 56.9643C103.211 58.5217 104.232 59.9233 105.766 60.3518C106.15 60.4595 106.533 60.4809 106.908 60.457C107.115 58.8535 105.837 57.3226 103.988 57.0062Z" fill="#F57F6D"/>
<path d="M103.497 108.337C106.802 105.835 108.468 104.864 110.014 104.415C111.56 103.966 116.979 101.664 119.059 101.13C120.379 100.791 120.929 102.889 119.257 104.348C117.969 105.471 114.609 106.955 113.138 107.776C111.665 108.596 108.789 112.142 108.789 112.142L103.497 108.337Z" fill="#F57F6D"/>
<path d="M95.0309 131.489C84.3859 136.784 72.8539 144.178 62.7514 145.121C52.8904 146.041 53.0374 137.929 53.5488 131.905C54.1942 124.302 59.7955 100.659 62.454 92.8258C65.2762 84.508 66.9873 81.4814 76.3345 78.5523C83.6178 83.9316 80.9954 100.215 79.0033 106.374C76.9254 112.798 74.5212 122.266 74.5212 122.266C74.5212 122.266 87.3135 119.117 90.4 118.112C95.8109 116.351 98.6947 112.274 100.704 110.317C103.439 107.655 104.806 107.999 106.207 108.199C110.794 108.853 111.802 109.232 112.777 109.841C113.751 110.45 113.681 111.618 113.681 111.618C114.898 111.762 116.719 111.71 116.969 113.707C117.133 115.026 117.053 115.308 117.053 115.308C117.053 115.308 117.491 115.349 117.847 115.756C118.869 116.921 117.162 120.994 116.066 121.993C115.296 122.693 114.193 122.788 112.741 122.602C111.507 122.443 112.071 121.185 112.071 121.185L110.348 121.3C106.64 123.973 106.232 128.204 101.314 129.396C100.276 129.648 97.5948 130.062 95.0309 131.489Z" fill="#F8A39A"/>
<path d="M84.5312 119.265L91.0251 117.577C91.0251 117.577 89.165 121.718 89.3027 127.092C89.4327 132.182 91.3946 133.768 91.3946 133.768L86.0948 136.852C86.0948 136.852 78.836 130.864 84.5312 119.265Z" fill="#273E47"/>
<path d="M76.4832 77.7091C64.8587 81.9714 64.271 84.5602 60.1593 98.4214C56.0473 112.284 51.3738 130.814 53.1303 138.892C54.8865 146.969 61.5264 146.376 65.6959 145.46C69.8656 144.544 81.9285 139.314 87.2511 136.179C87.2511 136.179 84.602 133.99 84.1303 128.593C83.659 123.197 86.1513 118.844 86.1513 118.844L75.3207 121.51C75.3207 121.51 79.2482 108.6 80.7128 103.877C82.1773 99.1535 83.8056 81.3591 76.4832 77.7091Z" fill="#17282F"/>
<path d="M113.681 111.618L108.231 110.559L113.562 110.866C113.647 111.12 113.688 111.372 113.681 111.618Z" fill="#F57F6D"/>
<path d="M117.053 115.308L110.784 114.541L117.055 114.581C117.083 114.808 117.078 115.052 117.053 115.308Z" fill="#F57F6D"/>
<path d="M116.248 118.073C116.06 118.397 115.746 118.643 115.41 118.81C115.074 118.99 114.716 119.103 114.342 119.184L114.425 119.124C114.26 119.453 114.084 119.776 113.905 120.097L113.774 119.93C114.138 119.862 114.494 119.96 114.772 120.167C115.049 120.374 115.22 120.676 115.323 120.981C115.161 120.7 114.936 120.464 114.681 120.303C114.421 120.157 114.102 120.096 113.831 120.154L113.591 120.205L113.701 119.987C113.867 119.66 114.037 119.334 114.218 119.014L114.247 118.964L114.301 118.953C114.651 118.89 115.003 118.784 115.34 118.657C115.67 118.518 116.002 118.355 116.248 118.073Z" fill="#F57F6D"/>
<path d="M114.59 118.891C113.967 119.025 112.324 119.067 112.324 119.067C112.324 119.067 112.279 119.514 111.554 120.277C111.166 120.685 110.348 121.301 110.348 121.301L112.071 121.185C112.071 121.185 112.486 120.412 114.036 120.103L114.59 118.891Z" fill="#F57F6D"/>
<path d="M76.1465 118.798L75.3207 121.51C70.8368 122.698 65.2088 126.623 64.1488 129.088C64.9589 125.187 68.2548 120.964 76.1465 118.798Z" fill="#040606"/>
<path d="M133.732 39.441C137.386 40.8641 142.948 39.6693 146.986 35.5865C146.986 35.5865 154.452 38.5259 168.216 39.193C188.576 40.1808 201.307 32.9123 199.595 20.5904C197.84 7.96326 184.883 0.581074 160.617 0.0157814C130.006 -0.696609 123.281 22.8345 140.09 33.1509C139.1 36.4443 136.898 38.8671 133.732 39.441Z" fill="#AD58B2"/>
<path d="M137.017 40.0156C135.829 40.0156 134.712 39.8223 133.732 39.4409C136.898 38.8671 139.1 36.4443 140.09 33.1508C134.099 29.4734 131.096 24.1181 131.101 18.779C131.109 9.36231 140.467 0.000312805 159.268 0.000312805C159.711 0.000312805 160.164 0.00545883 160.617 0.0157204C184.883 0.581017 197.84 7.9632 199.595 20.5904C199.699 21.3361 199.75 22.0639 199.749 22.772C199.739 33.0551 188.889 39.2827 171.825 39.2827C170.651 39.2827 169.447 39.2528 168.216 39.1929C154.452 38.5259 146.986 35.5865 146.986 35.5865C144.03 38.5754 140.259 40.0165 137.017 40.0156Z" fill="#DE9FD4"/>
<path d="M153.541 18.6834C153.404 20.4648 151.849 21.7981 150.069 21.6612C148.288 21.5244 146.954 19.9696 147.091 18.1882C147.227 16.4068 148.782 15.0744 150.563 15.2104C152.345 15.3472 153.678 16.902 153.541 18.6834Z" fill="white"/>
<path d="M168.711 19.8465C168.574 21.6279 167.019 22.9612 165.238 22.8243C163.457 22.6883 162.124 21.1336 162.261 19.3522C162.397 17.5708 163.952 16.2375 165.733 16.3743C167.514 16.5112 168.848 18.0659 168.711 19.8465Z" fill="white"/>
<path d="M183.88 21.0103C183.744 22.7917 182.189 24.125 180.407 23.9881C178.627 23.8513 177.294 22.2966 177.43 20.5151C177.566 18.7346 179.121 17.4013 180.903 17.5382C182.684 17.675 184.017 19.2289 183.88 21.0103Z" fill="white"/>
<path d="M59.9061 46.1057C54.0891 42.3539 42.5958 42.0298 30.5955 46.9156C19.6792 51.3593 7.78207 60.0901 8.84244 71.9202C9.74708 82.0092 21.8934 86.6555 31.6471 84.6475C35.8778 83.776 39.6584 82.5822 43.0094 81.2472C45.9853 83.67 50.7083 83.9505 53.7433 82.9157C51.4619 81.7466 50.1905 79.8292 49.4893 78.2454C52.6827 76.5427 55.2787 74.8134 57.2533 73.3408C71.2708 62.8824 66.4148 50.3039 59.9061 46.1057Z" fill="#E7E8E5"/>
</svg>
