<svg width="882" height="221" viewBox="0 0 882 221" fill="none" xmlns="http://www.w3.org/2000/svg">
<path d="M159.358 216.448H17.6582C10.9652 206.863 4.47721 195.859 1.45121 184.567C-1.57579 173.275 -0.105788 160.047 8.12621 151.746C12.9472 146.885 19.6682 144.053 23.8562 138.637C29.9322 130.779 29.0982 119.525 25.8662 110.132C22.6342 100.739 17.3362 92.0593 15.1362 82.3723C12.9372 72.6853 14.7712 61.0153 23.0362 55.5053C31.2672 50.0173 42.3312 52.6353 51.4942 56.3623C60.6572 60.0893 70.2292 64.8483 79.9512 63.0193C88.5782 61.3973 95.3262 54.9243 101.907 49.1143C111.652 40.5103 122.36 32.6583 134.616 28.3253C146.872 23.9923 160.913 23.4933 172.575 29.2383C184.237 34.9833 192.782 47.6903 191.501 60.6273C189.443 81.4173 165.423 93.7543 160.299 114.008C157.433 125.335 161.005 137.252 165.434 148.063C169.863 158.874 175.259 169.603 176.215 181.247C177.171 192.889 171.041 216.448 159.358 216.448Z" fill="#DAE2FF"/>
<path d="M151.6 127.805L136.429 93.9294C134.015 88.5384 128.659 85.0684 122.752 85.0684L121.708 109.27L135.479 137.944L151.6 127.805Z" fill="#DB9A83"/>
<path d="M127.148 187.349H48.4595L52.8555 85.0693H122.752L127.148 187.349Z" fill="#3D579E"/>
<path d="M87.8031 81.0812C84.4981 81.0812 81.3881 79.8262 78.6721 77.6162L78.1001 86.4842H97.5071L96.9351 77.6162C94.2191 79.8262 91.1091 81.0812 87.8031 81.0812Z" fill="#E9B49D"/>
<path d="M79.4479 65.5967L78.6719 77.6167C81.3879 79.8267 84.4979 81.0817 87.8029 81.0817C91.1079 81.0817 94.2179 79.8267 96.9339 77.6167L96.1579 65.5967H79.4479Z" fill="#272425"/>
<path d="M76.2593 85.0684C77.7223 90.0634 82.3353 93.7113 87.8033 93.7113C93.2713 93.7113 97.8843 90.0624 99.3473 85.0684H76.2593Z" fill="#E9B49D"/>
<path d="M122.752 85.0693C129.538 85.0693 135.693 89.0483 138.48 95.2353L146.635 113.343L126.068 122.539L121.708 109.27L122.752 85.0693Z" fill="#3D579E"/>
<path d="M127.724 121.799L145.375 113.906L130.079 126.703L127.724 121.799Z" fill="#272425"/>
<path d="M153.144 95.7103L142.818 89.7743L149.828 74.1133L164.274 82.4183L153.144 95.7103Z" fill="#E9B49D"/>
<path d="M142.818 89.7747L142.358 80.8027C142.307 79.8037 142.372 78.8017 142.552 77.8187L143.874 70.5957C145.121 70.8927 146.051 71.9367 146.2 73.2107L147.243 82.0767L142.818 89.7747Z" fill="#E9B49D"/>
<path d="M149.828 74.1137L156.856 60.4887C157.215 59.7887 158.086 59.5307 158.768 59.9227C159.366 60.2667 159.617 60.9997 159.356 61.6387L153.404 76.1697L149.828 74.1137Z" fill="#E9B49D"/>
<path d="M153.404 76.1696L161.697 61.7446C162.127 60.9976 163.08 60.7406 163.827 61.1696C164.516 61.5656 164.797 62.4166 164.48 63.1456L157.723 78.6526L153.404 76.1696Z" fill="#E9B49D"/>
<path d="M157.723 78.6531L166.306 65.6472C166.68 65.0812 167.43 64.9032 168.018 65.2412C168.617 65.5852 168.836 66.3431 168.514 66.9541L161.269 80.6921L157.723 78.6531Z" fill="#E9B49D"/>
<path d="M161.269 80.692L168.233 71.583C168.591 71.115 169.24 70.985 169.751 71.278C170.326 71.609 170.513 72.35 170.164 72.914L164.275 82.42L161.269 80.692Z" fill="#E9B49D"/>
<path d="M147.041 80.3418L158.684 87.0358L157 85.2868C154.575 82.7668 151.407 81.0898 147.96 80.4988L147.041 80.3418Z" fill="#DB9A83"/>
<path d="M141.87 146.1C137.266 144.698 134.407 140.107 135.181 135.357L142.818 88.4297L153.144 94.3667L154.284 136.642C154.461 143.206 148.152 148.013 141.87 146.1Z" fill="#E9B49D"/>
<path d="M35.5664 207.893C34.5574 206.14 32.7094 205.039 30.6874 204.986L28.3964 201.218L25.6794 197.792L25.1504 203.085L27.2744 205.755C28.3514 207.109 29.9864 207.897 31.7164 207.897H35.5694L35.5664 207.893Z" fill="#DB9A83"/>
<path d="M25.6934 199.776L31.5964 207.196C32.6734 208.55 34.3084 209.338 36.0384 209.338H39.8914L39.8884 209.333C38.8794 207.58 37.0314 206.479 35.0094 206.426L32.7184 202.658L29.1854 198.205L25.6934 199.776Z" fill="#DB9A83"/>
<path d="M30.0142 201.217L35.9172 208.637C36.9942 209.99 38.6292 210.779 40.3592 210.779H44.2122L44.2092 210.774C43.2002 209.021 41.3522 207.92 39.3302 207.867L37.0392 204.099L33.5062 199.646L30.0142 201.217Z" fill="#DB9A83"/>
<path d="M34.3364 202.657L40.2394 210.077C41.3164 211.431 42.9514 212.219 44.6814 212.219H48.5344L48.5314 212.214C47.5224 210.461 45.6744 209.36 43.6524 209.307L41.3614 205.539L37.8284 201.086L34.3364 202.657Z" fill="#DB9A83"/>
<path d="M53.8993 109.27L52.8553 85.0684C46.9483 85.0684 41.5923 88.5384 39.1783 93.9294L19.5043 136.662C17.1353 141.808 16.6053 147.612 18.0033 153.102L26.7233 187.349L25.2823 201.755L41.4343 208.382V187.35L34.0693 150.372L53.8993 109.27Z" fill="#E9B49D"/>
<path d="M52.8552 85.0693C46.0692 85.0693 39.9142 89.0483 37.1272 95.2353L28.9722 113.343L49.5392 122.539L53.8992 109.27L52.8552 85.0693Z" fill="#3D579E"/>
<path d="M47.8824 121.799L30.2314 113.906L45.5275 126.703L47.8824 121.799Z" fill="#272425"/>
<path d="M41.4355 187.35L47.0355 196.714L48.7645 206.654C47.1335 206.654 45.6905 205.6 45.1935 204.047L43.7225 199.451L41.4355 197.002V187.35Z" fill="#E9B49D"/>
<path d="M127.724 216.448H47.8823L50.1563 187.349H125.45L127.724 216.448Z" fill="#8496BA"/>
<path d="M50.1562 187.349H125.45L125.982 194.156L49.4902 195.874L50.1562 187.349Z" fill="#272425"/>
<path d="M108.932 129.15H58.6084V129.726H108.932V129.15Z" fill="#29437C"/>
<path d="M73.989 134.516L73.9482 135.092L118.126 138.219L118.166 137.643L73.989 134.516Z" fill="#29437C"/>
<path d="M53.6184 105.893L51.7894 113.986V99.1143H51.2134L51.3904 119.15L54.1804 106.02L53.6184 105.893Z" fill="#29437C"/>
<path d="M124.394 99.1143H123.818V113.986L121.989 105.893L121.426 106.02L124.217 119.15L124.394 99.1143Z" fill="#29437C"/>
<path d="M120.821 182.717L52.6831 183.508L52.6898 184.084L120.828 183.293L120.821 182.717Z" fill="#29437C"/>
<path d="M58.6353 177.546L58.5986 178.121L106.811 181.194L106.848 180.619L58.6353 177.546Z" fill="#29437C"/>
<path d="M121.69 173.882L78.7612 176.786L78.8001 177.361L121.729 174.456L121.69 173.882Z" fill="#29437C"/>
<path d="M104.113 86.5663L103.56 86.4043C102.775 89.0853 101.3 91.5413 99.2944 93.5083L99.6984 93.9193C101.773 91.8843 103.3 89.3413 104.113 86.5663Z" fill="#29437C"/>
<path d="M87.8032 98.7783C90.4572 98.7783 92.9982 98.1833 95.3572 97.0103L95.1002 96.4943C92.8212 97.6273 90.3662 98.2023 87.8022 98.2023C80.5602 98.2023 74.0812 93.3513 72.0452 86.4043L71.4922 86.5663C73.6002 93.7563 80.3072 98.7783 87.8032 98.7783Z" fill="#29437C"/>
<path d="M66.6035 63.7481C70.7805 63.7481 74.1665 60.362 74.1665 56.1851C74.1665 52.0082 70.7805 48.6221 66.6035 48.6221C62.4266 48.6221 59.0405 52.0082 59.0405 56.1851C59.0405 60.362 62.4266 63.7481 66.6035 63.7481Z" fill="#DB9A83"/>
<path d="M66.6036 60.2911C68.8712 60.2911 70.7096 58.4528 70.7096 56.1851C70.7096 53.9174 68.8712 52.0791 66.6036 52.0791C64.3359 52.0791 62.4976 53.9174 62.4976 56.1851C62.4976 58.4528 64.3359 60.2911 66.6036 60.2911Z" fill="#C97E67"/>
<path d="M109.004 63.7481C113.181 63.7481 116.567 60.362 116.567 56.1851C116.567 52.0082 113.181 48.6221 109.004 48.6221C104.827 48.6221 101.441 52.0082 101.441 56.1851C101.441 60.362 104.827 63.7481 109.004 63.7481Z" fill="#DB9A83"/>
<path d="M109.004 60.2911C111.268 60.2911 113.11 58.4491 113.11 56.1851C113.11 53.9211 111.268 52.0791 109.004 52.0791C106.74 52.0791 104.898 53.9211 104.898 56.1851C104.898 58.4491 106.74 60.2911 109.004 60.2911Z" fill="#C97E67"/>
<path d="M87.8037 76.0412C77.1957 76.0412 68.5957 67.4412 68.5957 56.8332V44.1562C68.5957 33.5482 77.1947 24.9482 87.8037 24.9482C98.4117 24.9482 107.012 33.5482 107.012 44.1562V50.4952V56.8342C107.012 67.4422 98.4117 76.0412 87.8037 76.0412Z" fill="#E9B49D"/>
<path d="M100.25 20.612C101.499 20.763 102.796 20.319 103.682 19.296C104.894 17.897 104.936 15.886 103.901 14.446L101.784 16.891C101.823 16.659 101.844 16.422 101.844 16.179C101.844 14.149 100.435 12.451 98.5426 12V16.406C98.3506 16.028 98.1106 15.669 97.7996 15.349C96.3836 13.894 94.1895 13.661 92.5195 14.658L96.7046 18.956C93.9346 17.919 90.9366 17.348 87.8046 17.348C73.7825 17.348 62.4146 28.715 62.4146 42.738C62.4146 49.191 64.8256 55.077 68.7916 59.557L70.7106 46.301L77.1886 45.597C83.9996 44.857 90.2576 41.503 94.6466 36.241L96.9376 33.494L94.0005 45.019L95.9696 43.691C97.8866 42.398 99.3615 40.549 100.195 38.392L100.802 40.298C101.47 42.398 102.945 44.147 104.901 45.162L106.82 59.556C110.785 55.077 113.196 49.19 113.196 42.737C113.194 33.241 107.974 24.966 100.25 20.612Z" fill="#272425"/>
<path d="M81.8378 52.0918C81.8378 53.1728 80.9618 54.0488 79.8808 54.0488C78.7998 54.0488 77.9238 53.1728 77.9238 52.0918C77.9238 51.0108 78.7998 50.1348 79.8808 50.1348C80.9618 50.1348 81.8378 51.0108 81.8378 52.0918Z" fill="#272425"/>
<path d="M79.8168 51.3034C79.8168 51.6414 79.5428 51.9164 79.2048 51.9164C78.8668 51.9164 78.5928 51.6424 78.5928 51.3034C78.5928 50.9654 78.8668 50.6914 79.2048 50.6914C79.5428 50.6914 79.8168 50.9654 79.8168 51.3034Z" fill="white"/>
<path d="M82.3658 48.8807C82.1448 48.8807 81.9228 48.7967 81.7548 48.6277C81.2378 48.1107 80.5498 47.8257 79.8178 47.8257C79.0858 47.8257 78.3978 48.1107 77.8808 48.6277C77.5428 48.9657 76.9958 48.9657 76.6588 48.6277C76.3208 48.2907 76.3208 47.7427 76.6588 47.4057C77.5028 46.5617 78.6248 46.0967 79.8178 46.0967C81.0108 46.0967 82.1328 46.5617 82.9768 47.4057C83.3148 47.7437 83.3148 48.2907 82.9768 48.6277C82.8078 48.7957 82.5868 48.8807 82.3658 48.8807Z" fill="#272425"/>
<path d="M95.7265 54.0488C96.8074 54.0488 97.6835 53.1726 97.6835 52.0918C97.6835 51.0109 96.8074 50.1348 95.7265 50.1348C94.6457 50.1348 93.7695 51.0109 93.7695 52.0918C93.7695 53.1726 94.6457 54.0488 95.7265 54.0488Z" fill="#272425"/>
<path d="M95.0505 51.9164C95.389 51.9164 95.6635 51.642 95.6635 51.3034C95.6635 50.9649 95.389 50.6904 95.0505 50.6904C94.7119 50.6904 94.4375 50.9649 94.4375 51.3034C94.4375 51.642 94.7119 51.9164 95.0505 51.9164Z" fill="white"/>
<path d="M93.2424 48.8807C93.4634 48.8807 93.6854 48.7967 93.8534 48.6277C94.3704 48.1107 95.0584 47.8257 95.7904 47.8257C96.5224 47.8257 97.2104 48.1107 97.7274 48.6277C98.0654 48.9657 98.6124 48.9657 98.9494 48.6277C99.2874 48.2907 99.2874 47.7427 98.9494 47.4057C98.1054 46.5617 96.9834 46.0967 95.7904 46.0967C94.5964 46.0967 93.4754 46.5617 92.6314 47.4057C92.2934 47.7437 92.2934 48.2907 92.6314 48.6277C92.8004 48.7957 93.0214 48.8807 93.2424 48.8807Z" fill="#272425"/>
<path d="M83.5308 58.8145C84.1858 60.5395 85.8488 61.7675 87.8038 61.7675C89.7578 61.7675 91.4218 60.5395 92.0768 58.8145H83.5308Z" fill="#C97E67"/>
<path d="M78.5806 63.0645C79.9936 66.7875 83.5846 69.4395 87.8036 69.4395C92.0226 69.4395 95.6136 66.7885 97.0266 63.0645H78.5806Z" fill="white"/>
<path d="M77.9233 59.5588C77.9233 61.4048 76.4263 62.9018 74.5803 62.9018C72.7343 62.9018 71.2373 61.4048 71.2373 59.5588C71.2373 57.7128 72.7343 56.2158 74.5803 56.2158C76.4263 56.2158 77.9233 57.7128 77.9233 59.5588Z" fill="#DB9387"/>
<path d="M97.6836 59.5588C97.6836 61.4048 99.1806 62.9018 101.027 62.9018C102.873 62.9018 104.37 61.4048 104.37 59.5588C104.37 57.7128 102.873 56.2158 101.027 56.2158C99.1806 56.2158 97.6836 57.7128 97.6836 59.5588Z" fill="#DB9387"/>
<path d="M639.084 219.968H497.384C481.352 207.203 471.574 183.817 472.014 163.328C472.454 142.839 482.921 122.801 499.485 110.735C504.307 107.223 509.726 104.237 513.213 99.3967C520.629 89.1047 516.757 74.9667 517.093 62.2847C517.578 44.0077 528.319 26.3397 544.323 17.4987C560.327 8.65667 581.001 8.96767 596.732 18.2877C612.463 27.6067 622.668 45.5897 622.603 63.8727C622.557 76.7017 617.878 89.7937 621.505 102.099C625.495 115.635 638.304 124.312 646.904 135.501C656.038 147.384 660.492 162.768 659.12 177.692C657.748 192.617 650.232 209.95 639.084 219.968Z" fill="#DAE2FF"/>
<path d="M608.54 219.967H528.698L530.972 190.868H606.266L608.54 219.967Z" fill="#75231E"/>
<path d="M529.835 205.418L607.15 202.183L607.786 210.318L529.835 207.579V205.418Z" fill="#272425"/>
<path d="M609.362 202.094L526.747 205.418L533.67 88.5879H603.568L609.362 202.094Z" fill="#D8672B"/>
<path d="M589.782 129.22H539.458V129.796H589.782V129.22Z" fill="#C64810"/>
<path d="M554.832 134.594L554.791 135.17L598.968 138.297L599.009 137.721L554.832 134.594Z" fill="#C64810"/>
<path d="M601.678 198.337L533.54 199.142L533.547 199.718L601.685 198.913L601.678 198.337Z" fill="#C64810"/>
<path d="M539.478 193.171L539.441 193.746L587.653 196.819L587.69 196.244L539.478 193.171Z" fill="#C64810"/>
<path d="M602.567 189.525L559.633 192.408L559.671 192.983L602.606 190.1L602.567 189.525Z" fill="#C64810"/>
<path d="M584.929 90.0858L584.376 89.9238C583.59 92.6048 582.116 95.0608 580.111 97.0278L580.514 97.4388C582.589 95.4028 584.116 92.8608 584.929 90.0858Z" fill="#C64810"/>
<path d="M568.62 102.298C571.274 102.298 573.816 101.703 576.175 100.53L575.918 100.014C573.639 101.147 571.184 101.722 568.62 101.722C561.378 101.722 554.899 96.8708 552.864 89.9238L552.311 90.0858C554.417 97.2758 561.124 102.298 568.62 102.298Z" fill="#C64810"/>
<path d="M568.619 84.6007C565.314 84.6007 562.204 83.3457 559.488 81.1357L558.916 90.0037H578.323L577.751 81.1357C575.034 83.3447 571.925 84.6007 568.619 84.6007Z" fill="#A76C54"/>
<path d="M560.264 69.1162L559.488 81.1362C562.204 83.3462 565.314 84.6012 568.619 84.6012C571.924 84.6012 575.034 83.3462 577.75 81.1362L576.974 69.1162H560.264Z" fill="#272425"/>
<path d="M557.075 88.5869C558.538 93.5819 563.151 97.2299 568.619 97.2299C574.087 97.2299 578.7 93.5809 580.163 88.5869H557.075Z" fill="#A76C54"/>
<path d="M636.813 31.0867L625.619 35.1577L618.16 19.7057L633.82 14.0107L636.813 31.0867Z" fill="#A76C54"/>
<path d="M625.619 35.1576L618.462 29.7276C617.665 29.1226 616.941 28.4276 616.305 27.6556L611.633 21.9896C612.664 21.2266 614.061 21.1896 615.132 21.8956L622.584 26.8116L625.619 35.1576Z" fill="#A76C54"/>
<path d="M618.16 19.7058L612.27 5.55177C611.966 4.82677 612.33 3.99377 613.069 3.72477C613.717 3.48877 614.44 3.76977 614.76 4.38077L622.037 18.2958L618.16 19.7058Z" fill="#A76C54"/>
<path d="M622.036 18.2957L616.35 2.65875C616.056 1.84875 616.473 0.95375 617.283 0.65975C618.03 0.38775 618.862 0.72175 619.214 1.43375L626.718 16.5938L622.036 18.2957Z" fill="#A76C54"/>
<path d="M626.719 16.5926L622.304 1.64855C622.112 0.997554 622.459 0.309553 623.097 0.0775531C623.747 -0.158447 624.467 0.161554 624.727 0.801554L630.564 15.1946L626.719 16.5926Z" fill="#A76C54"/>
<path d="M630.562 15.1944L628.083 3.99943C627.956 3.42443 628.275 2.84343 628.829 2.64243C629.453 2.41543 630.14 2.75043 630.346 3.38043L633.82 14.0094L630.562 15.1944Z" fill="#A76C54"/>
<path d="M621.126 25.8507L633.747 21.2607L631.325 21.4207C627.835 21.6517 624.511 22.9937 621.838 25.2487L621.126 25.8507Z" fill="#915844"/>
<path d="M592.999 36.8392C594.284 34.8112 594.474 32.1662 593.27 29.8842C592.065 27.6132 589.772 26.2882 587.369 26.2132C587.565 23.8222 586.51 21.3962 584.39 19.9382C582.269 18.4802 579.619 18.3702 577.452 19.4192C576.518 17.2062 574.45 15.5412 571.886 15.2412C569.334 14.9412 566.948 16.0762 565.519 18.0012C563.664 16.4802 561.059 15.9672 558.656 16.8832C556.253 17.8052 554.657 19.9252 554.288 22.3002C551.937 21.8162 549.402 22.5652 547.702 24.4952C545.996 26.4252 545.564 29.0412 546.342 31.3122C544.031 31.9752 542.13 33.8242 541.519 36.3312C540.908 38.8262 541.744 41.3442 543.484 42.9922C541.749 44.6462 540.926 47.1642 541.542 49.6592C542.164 52.1662 544.072 54.0042 546.388 54.6612C545.616 56.9372 546.059 59.5472 547.771 61.4722C549.477 63.3912 552.018 64.1342 554.369 63.6442C554.744 66.0182 556.345 68.1272 558.754 69.0372C561.163 69.9472 563.767 69.4292 565.617 67.8912C566.89 69.6022 568.93 70.6802 571.16 70.6802C571.436 70.6802 571.713 70.6692 571.995 70.6342C574.554 70.3232 576.617 68.6522 577.544 66.4332C579.716 67.4762 582.361 67.3552 584.482 65.8862C586.597 64.4222 587.64 61.9902 587.432 59.5992C589.835 59.5132 592.123 58.1812 593.321 55.9052C594.52 53.6232 594.318 50.9782 593.021 48.9502C595.101 47.7632 596.507 45.5162 596.507 42.9462C596.507 42.9342 596.507 42.9232 596.507 42.9112C596.507 42.8882 596.507 42.8592 596.507 42.8362C596.503 40.2622 595.085 38.0202 592.999 36.8392Z" fill="#231F20"/>
<path d="M547.419 67.2676C551.596 67.2676 554.982 63.8815 554.982 59.7046C554.982 55.5277 551.596 52.1416 547.419 52.1416C543.243 52.1416 539.856 55.5277 539.856 59.7046C539.856 63.8815 543.243 67.2676 547.419 67.2676Z" fill="#915844"/>
<path d="M547.419 63.8097C545.155 63.8097 543.313 61.9677 543.313 59.7037C543.313 57.4397 545.155 55.5977 547.419 55.5977C549.683 55.5977 551.525 57.4397 551.525 59.7037C551.525 61.9677 549.683 63.8097 547.419 63.8097Z" fill="#774332"/>
<path d="M589.821 67.2676C593.998 67.2676 597.384 63.8815 597.384 59.7046C597.384 55.5277 593.998 52.1416 589.821 52.1416C585.644 52.1416 582.258 55.5277 582.258 59.7046C582.258 63.8815 585.644 67.2676 589.821 67.2676Z" fill="#915844"/>
<path d="M589.82 63.8106C592.088 63.8106 593.926 61.9723 593.926 59.7046C593.926 57.437 592.088 55.5986 589.82 55.5986C587.552 55.5986 585.714 57.437 585.714 59.7046C585.714 61.9723 587.552 63.8106 589.82 63.8106Z" fill="#774332"/>
<path d="M568.619 79.5598C558.011 79.5598 549.411 70.9608 549.411 60.3528V47.6748C549.411 37.0668 558.011 28.4668 568.618 28.4668C579.226 28.4668 587.825 37.0658 587.825 47.6748V54.0138V60.3528C587.827 70.9598 579.227 79.5598 568.619 79.5598Z" fill="#A76C54"/>
<path d="M560.696 56.1601C561.777 56.1601 562.653 55.2839 562.653 54.2031C562.653 53.1223 561.777 52.2461 560.696 52.2461C559.615 52.2461 558.739 53.1223 558.739 54.2031C558.739 55.2839 559.615 56.1601 560.696 56.1601Z" fill="#272425"/>
<path d="M560.632 53.4157C560.632 53.7537 560.358 54.0277 560.02 54.0277C559.682 54.0277 559.408 53.7537 559.408 53.4157C559.408 53.0777 559.682 52.8027 560.02 52.8027C560.358 52.8027 560.632 53.0767 560.632 53.4157Z" fill="white"/>
<path d="M563.866 48.1221H557.527C556.97 48.1221 556.519 48.5731 556.519 49.1301C556.519 49.6871 556.97 50.1381 557.527 50.1381H563.866C564.423 50.1381 564.874 49.6871 564.874 49.1301C564.875 48.5731 564.423 48.1221 563.866 48.1221Z" fill="#272425"/>
<path d="M578.499 54.2031C578.499 55.2841 577.623 56.1601 576.542 56.1601C575.461 56.1601 574.585 55.2841 574.585 54.2031C574.585 53.1221 575.461 52.2461 576.542 52.2461C577.623 52.2461 578.499 53.1231 578.499 54.2031Z" fill="#272425"/>
<path d="M576.479 53.4157C576.479 53.7537 576.205 54.0277 575.866 54.0277C575.528 54.0277 575.254 53.7537 575.254 53.4157C575.254 53.0777 575.528 52.8027 575.866 52.8027C576.205 52.8027 576.479 53.0767 576.479 53.4157Z" fill="white"/>
<path d="M573.373 48.1221H579.712C580.269 48.1221 580.72 48.5731 580.72 49.1301C580.72 49.6871 580.268 50.1381 579.712 50.1381H573.373C572.816 50.1381 572.365 49.6871 572.365 49.1301C572.365 48.5731 572.816 48.1221 573.373 48.1221Z" fill="#272425"/>
<path d="M564.347 62.333C565.002 64.058 566.665 65.286 568.62 65.286C570.575 65.286 572.238 64.058 572.893 62.333H564.347Z" fill="#915844"/>
<path d="M559.396 66.583C560.809 70.306 564.4 72.957 568.619 72.957C572.838 72.957 576.429 70.306 577.842 66.583H559.396Z" fill="white"/>
<path d="M558.74 63.0784C558.74 64.9244 557.243 66.4214 555.397 66.4214C553.551 66.4214 552.054 64.9244 552.054 63.0784C552.054 61.2324 553.551 59.7354 555.397 59.7354C557.243 59.7354 558.74 61.2314 558.74 63.0784Z" fill="#915844"/>
<path d="M578.499 63.0784C578.499 64.9244 579.996 66.4214 581.842 66.4214C583.688 66.4214 585.185 64.9244 585.185 63.0784C585.185 61.2324 583.688 59.7354 581.842 59.7354C579.996 59.7354 578.499 61.2314 578.499 63.0784Z" fill="#915844"/>
<path d="M591.195 38.5157C590.528 38.5157 589.886 38.6157 589.277 38.7947C589.626 37.9747 589.821 37.0727 589.821 36.1257C589.821 32.3627 586.771 29.3127 583.008 29.3127C581.495 29.3127 580.103 29.8117 578.972 30.6457C578.238 27.6757 575.563 25.4707 572.366 25.4707C570.982 25.4707 569.696 25.8867 568.62 26.5957C567.545 25.8867 566.259 25.4707 564.875 25.4707C561.678 25.4707 559.003 27.6757 558.269 30.6457C557.139 29.8117 555.746 29.3127 554.233 29.3127C550.47 29.3127 547.42 32.3627 547.42 36.1257C547.42 37.0737 547.614 37.9747 547.964 38.7947C547.355 38.6157 546.712 38.5157 546.046 38.5157V52.1407C546.16 52.1407 546.271 52.1297 546.383 52.1237C546.259 52.7347 546.186 53.3647 546.186 54.0137C546.186 56.8547 547.438 59.3987 549.413 61.1417V51.2457C551.469 50.0727 552.858 47.8647 552.858 45.3277C552.858 44.3797 552.664 43.4787 552.314 42.6587C552.923 42.8367 553.566 42.9377 554.233 42.9377C557.43 42.9377 560.105 40.7327 560.839 37.7627C561.969 38.5967 563.362 39.0957 564.875 39.0957C566.259 39.0957 567.545 38.6807 568.62 37.9707C569.695 38.6797 570.981 39.0957 572.366 39.0957C573.879 39.0957 575.271 38.5967 576.402 37.7627C577.136 40.7327 579.811 42.9377 583.008 42.9377C583.675 42.9377 584.317 42.8377 584.926 42.6587C584.577 43.4787 584.382 44.3807 584.382 45.3277C584.382 47.8637 585.771 50.0727 587.827 51.2457V61.1417C589.802 59.3987 591.054 56.8547 591.054 54.0137C591.054 53.3657 590.981 52.7357 590.857 52.1237C590.969 52.1297 591.08 52.1407 591.194 52.1407V38.5157H591.195Z" fill="#231F20"/>
<path d="M636.813 31.0869L625.619 35.1579L627.101 40.8649L639.188 36.4559L636.813 31.0869Z" fill="#963B39"/>
<path d="M657.073 76.8761L642.442 41.2451C641.764 39.5941 640.776 38.0881 639.531 36.8081L639.188 36.4561L627.101 40.8651C626.645 43.1301 626.758 45.4721 627.429 47.6821L637.388 80.4631L603.48 87.6281L604.608 115.383L650.637 93.9801C657.088 90.9871 659.951 83.3781 657.073 76.8761Z" fill="#75231E"/>
<path d="M606.66 114.429L604.656 97.5342C608.949 101.249 611.049 106.898 610.226 112.516L610.186 112.79L606.66 114.429Z" fill="#272425"/>
<path d="M637.389 80.4628L647.851 78.3598L647.03 77.9398C643.732 76.2508 639.969 75.6958 636.324 76.3628L637.389 80.4628Z" fill="#272425"/>
<path d="M583.506 87.6279L593.926 196.919H616.447L603.482 87.6279H583.506Z" fill="#75231E"/>
<path d="M587.59 130.461L590.811 87.8979C591.03 84.9999 589.058 82.3929 586.209 81.8159L577.683 80.0889L578.232 88.5889H583.506L587.59 130.461Z" fill="#963B39"/>
<path d="M609.652 181.206L599.977 162.172L596.719 165.43L606.394 184.464L609.652 181.206Z" fill="#963B39"/>
<path d="M553.733 87.6279L543.313 196.919H520.792L533.757 87.6279H553.733Z" fill="#75231E"/>
<path d="M549.651 130.461L546.43 87.8979C546.211 84.9999 548.184 82.3929 551.032 81.8159L559.558 80.0889L559.009 88.5889H553.735L549.651 130.461Z" fill="#963B39"/>
<path d="M527.587 181.206L537.263 162.172L540.521 165.43L530.845 184.464L527.587 181.206Z" fill="#963B39"/>
<path d="M526.038 152.701L536.628 163.422L527.587 181.206L522.548 182.119L526.038 152.701Z" fill="#272425"/>
<path d="M528.655 179.106L505.731 162.605C499.152 157.869 496.81 149.161 500.126 141.764L520.423 96.4869C522.839 91.0969 528.196 87.6279 534.103 87.6279L532.515 114.423L517.479 147.268L535.643 165.36L528.655 179.106Z" fill="#75231E"/>
<path d="M529.902 120.131L532.142 101.245C527.518 108.427 525.354 116.917 525.976 125.435L526.182 128.257L529.902 120.131Z" fill="#272425"/>
<path d="M517.479 147.268L511.092 141.41L512.444 141.26C514.907 140.986 517.382 141.661 519.366 143.146L517.479 147.268Z" fill="#272425"/>
<path d="M869.727 220.148H728.027C720.026 211.911 712.941 202.854 708.655 192.2C704.369 181.547 704.899 168.112 712.998 159.972C717.099 155.85 722.695 153.456 726.748 149.287C734.184 141.638 734.929 129.632 732.963 119.147C730.997 108.662 726.796 98.6008 725.912 87.9688C725.028 77.3368 728.481 65.2718 737.881 60.2278C747.498 55.0668 759.858 58.8718 769.86 54.5048C780.743 49.7538 785.525 37.0518 794.35 29.1058C803.774 20.6208 818.223 18.2098 829.892 23.1748C841.561 28.1398 849.842 40.2238 850.262 52.8978C850.488 59.7178 848.71 66.9818 851.731 73.0998C856.745 83.2558 871.903 84.4028 877.793 94.0778C883.364 103.229 878.007 114.982 872.058 123.891C866.109 132.801 859.176 142.946 861.939 153.297C863.907 160.672 870.334 165.851 874.584 172.192C883.52 185.527 881.05 208.772 869.727 220.148Z" fill="#DAE2FF"/>
<path d="M857.999 135.588L843.293 94.2675C842.12 90.9705 838.999 88.7686 835.499 88.7686L832.283 111.863L848.375 146.86L857.999 135.588Z" fill="#E9B49D"/>
<path d="M850.687 115.438L842.482 134.043L848.376 146.861L850.687 115.438Z" fill="#272425"/>
<path d="M864.47 100.564L854.144 94.6268L861.154 78.9658L875.599 87.2718L864.47 100.564Z" fill="#E9B49D"/>
<path d="M854.144 94.6273L853.684 85.6552C853.633 84.6562 853.698 83.6552 853.878 82.6712L855.2 75.4482C856.447 75.7452 857.377 76.7892 857.527 78.0632L858.57 86.9292L854.144 94.6273Z" fill="#E9B49D"/>
<path d="M861.154 78.9663L868.182 65.3413C868.54 64.6413 869.412 64.3833 870.094 64.7753C870.692 65.1193 870.943 65.8523 870.682 66.4913L864.73 81.0223L861.154 78.9663Z" fill="#E9B49D"/>
<path d="M864.729 81.0221L873.022 66.5971C873.451 65.8501 874.405 65.5931 875.152 66.0221C875.841 66.4181 876.123 67.2691 875.806 67.9981L869.048 83.5051L864.729 81.0221Z" fill="#E9B49D"/>
<path d="M869.049 83.5054L877.631 70.4994C878.005 69.9324 878.755 69.7544 879.343 70.0934C879.942 70.4384 880.161 71.1954 879.839 71.8064L872.594 85.5444L869.049 83.5054Z" fill="#E9B49D"/>
<path d="M872.595 85.5446L879.559 76.4355C879.917 75.9675 880.566 75.8376 881.077 76.1306C881.652 76.4616 881.839 77.2025 881.49 77.7665L875.6 87.2726L872.595 85.5446Z" fill="#E9B49D"/>
<path d="M858.366 85.1943L870.009 91.8883L868.325 90.1393C865.899 87.6193 862.732 85.9423 859.284 85.3513L858.366 85.1943Z" fill="#DB9A83"/>
<path d="M853.196 150.952C848.592 149.55 845.734 144.959 846.507 140.209L854.145 93.2822L864.471 99.2192L865.61 141.494C865.786 148.059 859.477 152.865 853.196 150.952Z" fill="#E9B49D"/>
<path d="M763.475 215.918L763.472 215.913C762.463 214.16 760.615 213.059 758.593 213.006L756.302 209.238L752.769 204.785L750.426 205.839L748.447 203.345L746.104 204.399L744.125 201.905L741.782 202.959L740.618 201.492L740.089 206.785L742.213 209.455C743.29 210.809 744.925 211.597 746.655 211.597H747.212C748.242 212.513 749.576 213.038 750.977 213.038H751.533C752.564 213.954 753.897 214.479 755.298 214.479H755.855C756.886 215.395 758.219 215.92 759.62 215.92H763.475V215.918Z" fill="#DB9A83"/>
<path d="M770.949 111.863L767.795 88.7686C763.044 88.7686 758.742 91.5776 756.83 95.9276L737.736 139.391C736.139 143.026 735.581 147.033 736.125 150.966L741.664 191.049L740.223 205.455L756.375 212.082V191.05L750.509 146.861L770.949 111.863Z" fill="#E9B49D"/>
<path d="M756.376 191.049L761.976 200.413L763.705 210.353C762.074 210.353 760.631 209.299 760.134 207.746L758.663 203.15L756.376 200.701V191.049Z" fill="#E9B49D"/>
<path d="M835.03 101.983L830.466 86.6194C829.667 83.9284 829.118 81.1784 828.827 78.3994L827.448 65.2484L801.91 61.1094L776.372 65.2484L774.993 78.3994C774.702 81.1774 774.153 83.9274 773.354 86.6194L768.79 101.983C767.044 107.862 770.046 114.061 775.951 116.769L801.91 128.673L827.869 116.769C833.774 114.061 836.776 107.862 835.03 101.983Z" fill="#E59A2F"/>
<path d="M771.546 160.221H832.273L836.925 88.7686H766.894L771.546 160.221Z" fill="#C04EA0"/>
<path d="M769.289 125.549L769.997 136.43H833.822L834.531 125.549H769.289Z" fill="#A0448A"/>
<path d="M827.911 132.42H775.907C768.43 132.42 763.709 124.564 766.555 117.197L771.696 103.887H832.123L837.264 117.197C840.11 124.565 835.389 132.42 827.911 132.42Z" fill="#C04EA0"/>
<path d="M801.91 86.84C798.605 86.84 795.495 85.584 792.779 83.375L792.207 92.243H811.614L811.042 83.375C808.325 85.585 805.215 86.84 801.91 86.84Z" fill="#FFCAB8"/>
<path d="M793.554 71.3555L792.778 83.3755C795.494 85.5855 798.604 86.8405 801.909 86.8405C805.214 86.8405 808.324 85.5845 811.04 83.3755L810.264 71.3555H793.554Z" fill="#272425"/>
<path d="M774.998 88.7695C778.409 100.413 789.163 108.92 801.909 108.92C814.656 108.92 825.409 100.414 828.82 88.7695H774.998Z" fill="#FFCAB8"/>
<path d="M832.273 160.221H801.91H771.546C760.783 173.075 755.893 189.848 758.061 206.472L759.845 220.148H801.91H843.975L845.759 206.472C847.926 189.848 843.036 173.075 832.273 160.221Z" fill="#3D579E"/>
<path d="M800.388 103.788C800.388 103.765 800.388 103.742 800.388 103.725C800.388 103.742 800.382 103.766 800.376 103.788C800.18 104.722 799.264 105.321 798.33 105.125C797.396 104.923 796.797 104.007 796.993 103.074C796.999 103.045 797.005 103.022 797.01 102.993C797.004 103.022 796.993 103.045 796.981 103.068C796.578 103.938 795.552 104.319 794.688 103.915C793.818 103.518 793.438 102.492 793.841 101.622C793.853 101.599 793.864 101.57 793.876 101.547C793.864 101.57 793.847 101.593 793.83 101.616C793.248 102.371 792.165 102.515 791.404 101.933C790.649 101.351 790.505 100.268 791.087 99.5068C791.099 99.4888 791.116 99.4718 791.133 99.4548C791.11 99.4718 791.093 99.4839 791.075 99.5009C790.343 100.112 789.254 100.014 788.644 99.2819C788.033 98.5449 788.131 97.4548 788.863 96.8448C788.88 96.8278 788.898 96.8159 788.921 96.7989C788.898 96.8109 788.881 96.8219 788.858 96.8339C788.005 97.2659 786.968 96.9318 786.53 96.0848C786.098 95.2318 786.432 94.1888 787.285 93.7568C787.308 93.7458 787.331 93.7339 787.354 93.7219C787.331 93.7279 787.302 93.7388 787.279 93.7448C786.351 93.9808 785.412 93.4158 785.176 92.4948C784.94 91.5668 785.504 90.6278 786.426 90.3918C786.455 90.3858 786.478 90.3808 786.507 90.3748C786.478 90.3748 786.455 90.3809 786.426 90.3809C785.469 90.4039 784.68 89.6548 784.651 88.6978C784.628 87.7418 785.377 86.9459 786.333 86.9229C787.29 86.8999 788.085 87.6548 788.108 88.6058C788.131 89.4588 787.538 90.1789 786.731 90.3459C787.549 90.2879 788.316 90.8179 788.529 91.6429C788.736 92.4669 788.316 93.3018 787.572 93.6418C788.356 93.4058 789.22 93.7568 789.606 94.5118C789.992 95.2608 789.773 96.1658 789.122 96.6668C789.836 96.2638 790.752 96.4128 791.3 97.0638C791.842 97.7148 791.824 98.6489 791.3 99.2769C791.905 98.7289 792.838 98.6778 793.513 99.1898C794.187 99.7088 794.372 100.625 793.991 101.357C794.463 100.683 795.362 100.423 796.135 100.775C796.907 101.132 797.293 101.985 797.086 102.78C797.391 102.019 798.21 101.564 799.045 101.743C799.869 101.916 800.434 102.653 800.416 103.472C800.554 102.665 801.246 102.049 802.093 102.037C802.94 102.025 803.649 102.625 803.81 103.425C803.77 102.607 804.317 101.858 805.135 101.656C805.959 101.46 806.783 101.886 807.118 102.635C806.899 101.846 807.262 100.993 808.017 100.618C808.778 100.238 809.677 100.474 810.167 101.131C809.775 100.411 809.942 99.4949 810.599 98.9589C811.256 98.4289 812.189 98.4578 812.812 98.9938C812.27 98.3778 812.224 97.4438 812.754 96.7748C813.278 96.1118 814.194 95.9339 814.921 96.3199C814.258 95.8419 814.011 94.9428 814.373 94.1768C814.742 93.4048 815.6 93.0359 816.395 93.2549C815.634 92.9379 815.191 92.1139 815.375 91.2779C815.559 90.4539 816.314 89.9008 817.127 89.9298C816.326 89.7858 815.715 89.0829 815.715 88.2299C815.715 87.2789 816.487 86.5068 817.444 86.5068C818.394 86.5068 819.173 87.2789 819.173 88.2299C819.173 89.1869 818.395 89.9589 817.444 89.9589C817.421 89.9589 817.392 89.9589 817.369 89.9589C817.392 89.9649 817.421 89.9709 817.444 89.9759C818.371 90.1829 818.959 91.1108 818.752 92.0388C818.539 92.9718 817.617 93.5539 816.683 93.3469C816.654 93.3409 816.626 93.3349 816.597 93.3239C816.626 93.3359 816.649 93.3469 816.677 93.3589C817.536 93.7739 817.904 94.8048 817.495 95.6638C817.495 95.6638 817.495 95.6639 817.495 95.6699C817.08 96.5289 816.049 96.8918 815.184 96.4828C815.167 96.4708 815.144 96.4598 815.121 96.4478C815.138 96.4648 815.161 96.4768 815.179 96.4938C815.928 97.0818 816.055 98.1709 815.467 98.9199C814.873 99.6689 813.784 99.7959 813.035 99.2079C813.018 99.1909 813.001 99.1729 812.978 99.1559C812.996 99.1789 813.012 99.1959 813.03 99.2129C813.629 99.9559 813.514 101.045 812.776 101.645C812.033 102.25 810.944 102.135 810.345 101.391C810.328 101.374 810.316 101.356 810.299 101.339C810.311 101.356 810.322 101.379 810.334 101.403C810.754 102.256 810.403 103.293 809.55 103.719C808.691 104.14 807.66 103.788 807.234 102.93C807.222 102.913 807.217 102.89 807.205 102.867C807.211 102.89 807.217 102.913 807.222 102.936C807.441 103.864 806.87 104.797 805.943 105.022C805.015 105.241 804.081 104.67 803.857 103.743C803.851 103.72 803.851 103.703 803.845 103.679C803.845 103.702 803.845 103.719 803.845 103.743C803.857 104.699 803.096 105.483 802.14 105.495C802.134 105.495 802.128 105.495 802.122 105.495C801.172 105.494 800.405 104.739 800.388 103.788Z" fill="white"/>
<path d="M827.846 44.936C827.846 30.612 816.234 19 801.91 19C787.586 19 775.974 30.612 775.974 44.936V64.15H782.702V51.111L821.117 51.656V64.15H827.845L827.846 44.936Z" fill="#E59A2F"/>
<path d="M780.709 69.5059C784.886 69.5059 788.272 66.1198 788.272 61.9429C788.272 57.7659 784.886 54.3799 780.709 54.3799C776.533 54.3799 773.146 57.7659 773.146 61.9429C773.146 66.1198 776.533 69.5059 780.709 69.5059Z" fill="#E9B49D"/>
<path d="M780.71 66.0489C778.446 66.0489 776.604 64.2069 776.604 61.9429C776.604 59.6789 778.446 57.8369 780.71 57.8369C782.974 57.8369 784.815 59.6789 784.815 61.9429C784.815 64.2069 782.974 66.0489 780.71 66.0489Z" fill="#DB9387"/>
<path d="M823.111 69.5059C827.288 69.5059 830.674 66.1198 830.674 61.9429C830.674 57.7659 827.288 54.3799 823.111 54.3799C818.934 54.3799 815.548 57.7659 815.548 61.9429C815.548 66.1198 818.934 69.5059 823.111 69.5059Z" fill="#E9B49D"/>
<path d="M823.111 66.0489C825.379 66.0489 827.217 64.2106 827.217 61.9429C827.217 59.6752 825.379 57.8369 823.111 57.8369C820.843 57.8369 819.005 59.6752 819.005 61.9429C819.005 64.2106 820.843 66.0489 823.111 66.0489Z" fill="#DB9387"/>
<path d="M780.165 72.0032C781.204 72.0032 782.046 71.1611 782.046 70.1222C782.046 69.0834 781.204 68.2412 780.165 68.2412C779.126 68.2412 778.284 69.0834 778.284 70.1222C778.284 71.1611 779.126 72.0032 780.165 72.0032Z" fill="white"/>
<path d="M823.654 72.0032C824.693 72.0032 825.535 71.1611 825.535 70.1222C825.535 69.0834 824.693 68.2412 823.654 68.2412C822.616 68.2412 821.773 69.0834 821.773 70.1222C821.773 71.1611 822.616 72.0032 823.654 72.0032Z" fill="#FFE4CA"/>
<path d="M801.91 81.7991C791.302 81.7991 782.702 73.1991 782.702 62.5911V49.9141C782.702 39.3061 791.302 30.7061 801.91 30.7061C812.518 30.7061 821.117 39.3061 821.117 49.9141V56.2531V62.5921C821.117 73.1991 812.518 81.7991 801.91 81.7991Z" fill="#FFCAB8"/>
<path d="M793.986 59.8066C795.067 59.8066 795.943 58.9304 795.943 57.8496C795.943 56.7688 795.067 55.8926 793.986 55.8926C792.905 55.8926 792.029 56.7688 792.029 57.8496C792.029 58.9304 792.905 59.8066 793.986 59.8066Z" fill="#3D579E"/>
<path d="M793.31 57.6752C793.649 57.6752 793.923 57.4008 793.923 57.0622C793.923 56.7237 793.649 56.4492 793.31 56.4492C792.972 56.4492 792.697 56.7237 792.697 57.0622C792.697 57.4008 792.972 57.6752 793.31 57.6752Z" fill="white"/>
<path d="M796.471 54.6395C796.25 54.6395 796.028 54.5554 795.86 54.3864C795.343 53.8694 794.655 53.5845 793.923 53.5845C793.191 53.5845 792.503 53.8694 791.986 54.3864C791.648 54.7244 791.101 54.7244 790.764 54.3864C790.426 54.0494 790.426 53.5015 790.764 53.1645C791.608 52.3205 792.73 51.8555 793.923 51.8555C795.117 51.8555 796.238 52.3205 797.082 53.1645C797.42 53.5025 797.42 54.0494 797.082 54.3864C796.913 54.5544 796.692 54.6395 796.471 54.6395Z" fill="#E59A2F"/>
<path d="M811.79 57.8496C811.79 58.9306 810.914 59.8066 809.833 59.8066C808.752 59.8066 807.876 58.9306 807.876 57.8496C807.876 56.7686 808.752 55.8926 809.833 55.8926C810.914 55.8926 811.79 56.7696 811.79 57.8496Z" fill="#3D579E"/>
<path d="M809.77 57.0622C809.77 57.4002 809.496 57.6742 809.157 57.6742C808.819 57.6742 808.545 57.4002 808.545 57.0622C808.545 56.7242 808.819 56.4492 809.157 56.4492C809.496 56.4492 809.77 56.7242 809.77 57.0622Z" fill="white"/>
<path d="M807.349 54.6395C807.57 54.6395 807.792 54.5554 807.96 54.3864C808.477 53.8694 809.165 53.5845 809.897 53.5845C810.629 53.5845 811.317 53.8694 811.834 54.3864C812.172 54.7244 812.719 54.7244 813.056 54.3864C813.394 54.0494 813.394 53.5015 813.056 53.1645C812.212 52.3205 811.09 51.8555 809.897 51.8555C808.703 51.8555 807.582 52.3205 806.738 53.1645C806.4 53.5025 806.4 54.0494 806.738 54.3864C806.907 54.5544 807.128 54.6395 807.349 54.6395Z" fill="#E59A2F"/>
<path d="M797.638 63.8408C798.293 65.5658 799.956 66.7938 801.911 66.7938C803.866 66.7938 805.529 65.5658 806.184 63.8408H797.638Z" fill="#C97E67"/>
<path d="M792.031 65.3166C792.031 67.1626 790.534 68.6596 788.688 68.6596C786.842 68.6596 785.345 67.1626 785.345 65.3166C785.345 63.4706 786.842 61.9736 788.688 61.9736C790.534 61.9736 792.031 63.4706 792.031 65.3166Z" fill="#DB9387"/>
<path d="M811.789 65.3166C811.789 67.1626 813.286 68.6596 815.132 68.6596C816.978 68.6596 818.475 67.1626 818.475 65.3166C818.475 63.4706 816.978 61.9736 815.132 61.9736C813.286 61.9736 811.789 63.4706 811.789 65.3166Z" fill="#DB9387"/>
<path d="M803.503 68.3721C802.902 68.3721 802.352 68.5771 801.909 68.9161C801.466 68.5771 800.916 68.3721 800.315 68.3721C799.418 68.3721 798.628 68.8221 798.151 69.5061H801.338H802.479H805.666C805.19 68.8221 804.4 68.3721 803.503 68.3721Z" fill="#E16477"/>
<path d="M801.91 76.9733C800.472 76.9733 799.205 76.2523 798.441 75.1543H805.379C804.615 76.2523 803.348 76.9733 801.91 76.9733Z" fill="#E16477"/>
<path d="M792.687 69.5059C794.1 73.2289 797.691 75.8809 801.91 75.8809C806.129 75.8809 809.72 73.2299 811.133 69.5059H792.687Z" fill="white"/>
<path d="M823.054 51.4304L823.109 51.1114H823.004L817.251 30.0664H786.639V32.3454L780.709 51.1124L782.702 62.5934V51.1124H792.719C799.217 51.1124 804.952 47.8604 808.395 42.8974C810.885 47.6224 815.584 50.9954 821.117 51.6574V62.5924L822.994 51.7804C823.033 51.7804 823.071 51.7844 823.11 51.7844L823.054 51.4304Z" fill="#E59A2F"/>
<path d="M775.965 156.629L775.944 157.206L823.769 158.934L823.79 158.357L775.965 156.629Z" fill="#A0448A"/>
<path d="M825.708 154.741L790.412 155.33L790.422 155.906L825.717 155.317L825.708 154.741Z" fill="#A0448A"/>
<path d="M824.959 151.088H785.199V151.664H824.959V151.088Z" fill="#A0448A"/>
<path d="M766.1 203.627L766.03 204.199L836.574 212.784L836.643 212.212L766.1 203.627Z" fill="#29437C"/>
<path d="M782.359 202.03L782.35 202.606L841.822 203.618L841.831 203.042L782.359 202.03Z" fill="#29437C"/>
<path d="M836.536 194.416L776.702 198.283L776.739 198.858L836.573 194.991L836.536 194.416Z" fill="#29437C"/>
<path d="M773.413 190.227L773.409 190.803L820.228 191.093L820.232 190.517L773.413 190.227Z" fill="#29437C"/>
<path d="M826.773 100.998L826.393 100.684C829.162 97.3367 831.182 93.5357 832.398 89.3867L832.871 89.5257C831.636 93.7387 829.585 97.5987 826.773 100.998Z" fill="#A0448A"/>
<path d="M815.03 109.926L814.829 109.476C818.673 107.761 822.094 105.334 824.998 102.261L825.356 102.599C822.407 105.72 818.933 108.185 815.03 109.926Z" fill="#A0448A"/>
<path d="M801.91 112.707C795.137 112.707 788.656 110.631 783.166 106.703C782.096 105.937 781.062 105.097 780.092 104.206L780.425 103.843C781.38 104.721 782.399 105.548 783.452 106.302C788.857 110.17 795.24 112.214 801.909 112.214C805.802 112.214 809.603 111.518 813.207 110.146L813.382 110.606C809.722 112 805.863 112.707 801.91 112.707Z" fill="#A0448A"/>
<path d="M777.044 100.993C775.326 98.9152 773.873 96.6292 772.726 94.2002L773.172 93.9902C774.301 96.3832 775.732 98.6332 777.424 100.679L777.044 100.993Z" fill="#A0448A"/>
<path d="M772.234 93.1077C771.737 91.9437 771.304 90.7387 770.949 89.5257L771.422 89.3867C771.772 90.5807 772.198 91.7687 772.687 92.9147L772.234 93.1077Z" fill="#A0448A"/>
<path d="M418.477 218.933H276.777C267.882 209.774 258.5 199.673 254.164 187.41C249.827 175.147 251.794 159.381 262.024 151.915C265.534 149.354 269.727 147.939 273.139 145.235C280.399 139.48 282.748 128.786 281.306 119.355C279.864 109.924 275.292 101.394 270.876 93.0442C266.46 84.6942 262.043 76.0352 260.964 66.5512C259.255 51.5302 267.044 35.8042 279.738 28.6482C292.432 21.4922 309.218 23.3632 320.199 33.1572C327.658 39.8102 332.649 49.7032 341.484 54.1232C349.31 58.0392 358.604 56.7892 366.876 54.0652C375.148 51.3412 383.034 47.2322 391.547 45.5142C400.06 43.7962 409.768 44.9282 415.889 51.3742C424.241 60.1692 422.743 74.6902 419.504 86.6352C416.265 98.5802 411.89 111.465 416.287 122.995C418.527 128.869 422.807 133.575 426.24 138.776C433.851 150.304 437.341 164.759 435.881 178.702C434.42 192.646 428.292 209.417 418.477 218.933Z" fill="#DAE2FF"/>
<path d="M361.09 60.7578C354.652 60.7578 348.981 64.0318 345.646 69.0048C342.311 64.0318 336.639 60.7578 330.202 60.7578C319.939 60.7578 311.619 69.0778 311.619 79.3408C311.619 89.6038 319.939 97.9238 330.202 97.9238C336.64 97.9238 342.311 94.6498 345.646 89.6768C348.981 94.6498 354.653 97.9238 361.09 97.9238C371.353 97.9238 379.673 89.6038 379.673 79.3408C379.673 69.0778 371.353 60.7578 361.09 60.7578Z" fill="#74231A"/>
<path d="M315.612 171.106H376.34L380.334 87.5527H311.618L315.612 171.106Z" fill="#E16477"/>
<path d="M313.655 130.167L314.266 142.933H377.686L378.297 130.167H313.655Z" fill="#AF4763"/>
<path d="M371.766 137.781H320.186C312.77 137.781 308.078 129.903 310.892 122.51L315.98 109.146H375.971L381.059 122.51C383.874 129.903 379.182 137.781 371.766 137.781Z" fill="#E16477"/>
<path d="M286.906 132.85L300.798 95.2377C302.504 90.6197 306.905 87.5537 311.828 87.5537L314.355 109.749L298.952 145.646L286.906 132.85Z" fill="#E16477"/>
<path d="M296.46 111.756L304.646 132.376L298.952 145.646L296.46 111.756Z" fill="#272425"/>
<path d="M282.859 99.349L293.185 93.412L286.175 77.751L271.729 86.056L282.859 99.349Z" fill="#E9B49D"/>
<path d="M293.185 93.4124L293.645 84.4404C293.696 83.4414 293.631 82.4404 293.451 81.4564L292.129 74.2334C290.882 74.5304 289.952 75.5744 289.803 76.8484L288.76 85.7144L293.185 93.4124Z" fill="#E9B49D"/>
<path d="M286.175 77.7514L279.147 64.1264C278.789 63.4264 277.917 63.1684 277.235 63.5604C276.637 63.9044 276.386 64.6374 276.647 65.2754L282.599 79.8064L286.175 77.7514Z" fill="#E9B49D"/>
<path d="M282.599 79.8073L274.306 65.3823C273.877 64.6353 272.923 64.3783 272.176 64.8073C271.487 65.2033 271.206 66.0543 271.523 66.7833L278.28 82.2903L282.599 79.8073Z" fill="#E9B49D"/>
<path d="M278.28 82.2909L269.697 69.2849C269.323 68.7189 268.573 68.5409 267.985 68.8789C267.386 69.2229 267.167 69.9809 267.489 70.5919L274.734 84.3299L278.28 82.2909Z" fill="#E9B49D"/>
<path d="M274.734 84.3297L267.77 75.2207C267.412 74.7527 266.763 74.6227 266.252 74.9157C265.677 75.2467 265.49 75.9877 265.839 76.5517L271.728 86.0577L274.734 84.3297Z" fill="#E9B49D"/>
<path d="M288.963 83.9795L277.32 90.6735L279.004 88.9245C281.429 86.4045 284.597 84.7275 288.045 84.1375L288.963 83.9795Z" fill="#DB9A83"/>
<path d="M294.133 149.737C298.737 148.335 301.596 143.744 300.822 138.994L293.185 92.0674L282.859 98.0044L281.72 140.279C281.542 146.844 287.851 151.65 294.133 149.737Z" fill="#E9B49D"/>
<path d="M405.045 132.85L391.153 95.2377C389.447 90.6197 385.046 87.5537 380.123 87.5537L377.596 109.749L392.999 145.646L405.045 132.85Z" fill="#E16477"/>
<path d="M395.492 111.756L387.306 132.376L393 145.646L395.492 111.756Z" fill="#272425"/>
<path d="M409.093 99.349L398.767 93.412L405.777 77.751L420.223 86.056L409.093 99.349Z" fill="#E9B49D"/>
<path d="M398.767 93.4124L398.307 84.4404C398.256 83.4414 398.321 82.4404 398.501 81.4564L399.823 74.2334C401.07 74.5304 402 75.5744 402.149 76.8484L403.192 85.7144L398.767 93.4124Z" fill="#E9B49D"/>
<path d="M405.777 77.7514L412.805 64.1264C413.164 63.4264 414.035 63.1684 414.717 63.5604C415.315 63.9044 415.566 64.6374 415.305 65.2754L409.353 79.8064L405.777 77.7514Z" fill="#E9B49D"/>
<path d="M409.353 79.8073L417.646 65.3823C418.075 64.6353 419.029 64.3783 419.776 64.8073C420.465 65.2033 420.746 66.0543 420.429 66.7833L413.672 82.2903L409.353 79.8073Z" fill="#E9B49D"/>
<path d="M413.672 82.2909L422.255 69.2849C422.629 68.7189 423.379 68.5409 423.967 68.8789C424.566 69.2229 424.785 69.9809 424.463 70.5919L417.218 84.3299L413.672 82.2909Z" fill="#E9B49D"/>
<path d="M417.218 84.3297L424.182 75.2207C424.54 74.7527 425.189 74.6227 425.7 74.9157C426.275 75.2467 426.462 75.9877 426.113 76.5517L420.224 86.0577L417.218 84.3297Z" fill="#E9B49D"/>
<path d="M402.989 83.9795L414.632 90.6735L412.948 88.9245C410.523 86.4045 407.355 84.7275 403.907 84.1375L402.989 83.9795Z" fill="#DB9A83"/>
<path d="M397.819 149.737C393.215 148.335 390.356 143.744 391.13 138.994L398.767 92.0674L409.093 98.0044L410.233 140.279C410.41 146.844 404.101 151.65 397.819 149.737Z" fill="#E9B49D"/>
<path d="M396.733 218.933H295.219L315.612 171.106H376.34L396.733 218.933Z" fill="#3E2765"/>
<path d="M315.612 171.106H376.34L377.444 173.696L312.887 177.499L315.612 171.106Z" fill="#272425"/>
<path d="M365.366 103.868L365.003 103.421C369.791 99.5297 373.234 94.3597 374.96 88.4697L375.513 88.6317C373.754 94.6337 370.246 99.9017 365.366 103.868Z" fill="#AF4763"/>
<path d="M345.976 110.746C338.712 110.746 331.661 108.167 326.122 103.483L326.494 103.043C331.929 107.639 338.848 110.17 345.976 110.17C351.781 110.17 357.418 108.518 362.279 105.394L362.591 105.878C357.637 109.063 351.892 110.746 345.976 110.746Z" fill="#AF4763"/>
<path d="M321.892 99.1258C319.396 95.9908 317.561 92.4598 316.439 88.6308L316.992 88.4688C318.093 92.2257 319.893 95.6908 322.342 98.7668L321.892 99.1258Z" fill="#AF4763"/>
<path d="M343.111 117.154C336.327 117.154 329.681 114.726 323.722 112.549L323.919 112.008C330.749 114.503 338.491 117.33 346.232 116.394C349.326 116.019 352.414 115.036 355.401 114.085C360.051 112.605 364.859 111.075 369.739 111.845L369.649 112.414C364.905 111.668 360.373 113.107 355.576 114.635C352.564 115.594 349.449 116.585 346.301 116.966C345.237 117.094 344.172 117.154 343.111 117.154Z" fill="#AF4763"/>
<path d="M323.216 165.92L323.19 166.495L370.183 168.654L370.21 168.079L323.216 165.92Z" fill="#AF4763"/>
<path d="M365.185 164.063L336.179 164.345L336.184 164.921L365.19 164.639L365.185 164.063Z" fill="#AF4763"/>
<path d="M330.999 159.008L330.974 159.584L357.192 160.736L357.217 160.16L330.999 159.008Z" fill="#AF4763"/>
<path d="M313.288 110.647L306.844 105.644L307.197 105.189L311.911 108.848L307.427 98.1332L307.959 97.9102L313.288 110.647Z" fill="#AF4763"/>
<path d="M378.664 110.647L385.108 105.644L384.755 105.189L380.041 108.848L384.525 98.1332L383.993 97.9102L378.664 110.647Z" fill="#AF4763"/>
<path d="M318.716 189.444L318.692 190.021L375.548 192.325L375.571 191.748L318.716 189.444Z" fill="#281949"/>
<path d="M361.143 195.601L321.959 195.797L321.962 196.373L361.146 196.177L361.143 195.601Z" fill="#281949"/>
<path d="M369.416 186.768L333.112 187.727L333.127 188.302L369.431 187.344L369.416 186.768Z" fill="#281949"/>
<path d="M345.976 85.6252C342.671 85.6252 339.561 84.3702 336.845 82.1602L336.273 91.0282H355.68L355.108 82.1602C352.391 84.3692 349.281 85.6252 345.976 85.6252Z" fill="#E9B49D"/>
<path d="M337.621 70.1387L336.845 82.1587C339.561 84.3687 342.671 85.6237 345.976 85.6237C349.281 85.6237 352.391 84.3687 355.107 82.1587L354.331 70.1387H337.621Z" fill="#272425"/>
<path d="M322.119 87.5527C325.143 97.8747 334.676 105.416 345.976 105.416C357.276 105.416 366.809 97.8747 369.833 87.5527H322.119Z" fill="#E9B49D"/>
<path d="M324.776 68.291C328.953 68.291 332.339 64.905 332.339 60.728C332.339 56.5511 328.953 53.165 324.776 53.165C320.599 53.165 317.213 56.5511 317.213 60.728C317.213 64.905 320.599 68.291 324.776 68.291Z" fill="#DB9A83"/>
<path d="M324.776 64.8331C322.512 64.8331 320.67 62.9911 320.67 60.7271C320.67 58.4631 322.512 56.6211 324.776 56.6211C327.04 56.6211 328.882 58.4631 328.882 60.7271C328.882 62.9911 327.04 64.8331 324.776 64.8331Z" fill="#C97E67"/>
<path d="M367.176 68.291C371.353 68.291 374.739 64.905 374.739 60.728C374.739 56.5511 371.353 53.165 367.176 53.165C362.999 53.165 359.613 56.5511 359.613 60.728C359.613 64.905 362.999 68.291 367.176 68.291Z" fill="#DB9A83"/>
<path d="M367.176 64.8341C369.444 64.8341 371.282 62.9958 371.282 60.7281C371.282 58.4604 369.444 56.6221 367.176 56.6221C364.908 56.6221 363.07 58.4604 363.07 60.7281C363.07 62.9958 364.908 64.8341 367.176 64.8341Z" fill="#C97E67"/>
<path d="M345.976 80.5842C335.368 80.5842 326.768 71.9852 326.768 61.3772V48.6992C326.768 38.0912 335.368 29.4912 345.976 29.4912C356.584 29.4912 365.184 38.0912 365.184 48.6992V55.0382V61.3772C365.184 71.9842 356.584 80.5842 345.976 80.5842Z" fill="#E9B49D"/>
<path d="M340.01 56.6338C340.01 57.7148 339.134 58.5908 338.053 58.5908C336.972 58.5908 336.096 57.7148 336.096 56.6338C336.096 55.5528 336.972 54.6768 338.053 54.6768C339.134 54.6768 340.01 55.5528 340.01 56.6338Z" fill="#272425"/>
<path d="M337.377 56.4594C337.715 56.4594 337.99 56.1849 337.99 55.8464C337.99 55.5078 337.715 55.2334 337.377 55.2334C337.038 55.2334 336.764 55.5078 336.764 55.8464C336.764 56.1849 337.038 56.4594 337.377 56.4594Z" fill="white"/>
<path d="M340.537 53.4227C340.316 53.4227 340.094 53.3387 339.926 53.1697C339.409 52.6527 338.721 52.3677 337.989 52.3677C337.257 52.3677 336.569 52.6527 336.052 53.1697C335.714 53.5077 335.167 53.5077 334.83 53.1697C334.492 52.8327 334.492 52.2847 334.83 51.9477C335.674 51.1037 336.796 50.6387 337.989 50.6387C339.183 50.6387 340.304 51.1037 341.148 51.9477C341.486 52.2857 341.486 52.8327 341.148 53.1697C340.98 53.3387 340.758 53.4227 340.537 53.4227Z" fill="#74231A"/>
<path d="M355.856 56.6338C355.856 57.7148 354.98 58.5908 353.899 58.5908C352.818 58.5908 351.942 57.7148 351.942 56.6338C351.942 55.5528 352.818 54.6768 353.899 54.6768C354.98 54.6768 355.856 55.5528 355.856 56.6338Z" fill="#272425"/>
<path d="M353.836 55.8464C353.836 56.1844 353.562 56.4594 353.223 56.4594C352.885 56.4594 352.611 56.1854 352.611 55.8464C352.611 55.5084 352.885 55.2344 353.223 55.2344C353.561 55.2334 353.836 55.5074 353.836 55.8464Z" fill="white"/>
<path d="M351.415 53.4227C351.636 53.4227 351.857 53.3387 352.026 53.1697C352.543 52.6527 353.231 52.3677 353.963 52.3677C354.695 52.3677 355.383 52.6527 355.9 53.1697C356.238 53.5077 356.785 53.5077 357.122 53.1697C357.46 52.8327 357.46 52.2847 357.122 51.9477C356.278 51.1037 355.156 50.6387 353.963 50.6387C352.769 50.6387 351.648 51.1037 350.804 51.9477C350.466 52.2857 350.466 52.8327 350.804 53.1697C350.972 53.3387 351.194 53.4227 351.415 53.4227Z" fill="#74231A"/>
<path d="M341.703 62.625C342.358 64.35 344.021 65.578 345.976 65.578C347.931 65.578 349.594 64.35 350.249 62.625H341.703Z" fill="#C97E67"/>
<path d="M332.753 67.4448C334.599 67.4448 336.096 65.9481 336.096 64.1018C336.096 62.2555 334.599 60.7588 332.753 60.7588C330.906 60.7588 329.41 62.2555 329.41 64.1018C329.41 65.9481 330.906 67.4448 332.753 67.4448Z" fill="#DB9387"/>
<path d="M355.856 64.1018C355.856 65.9478 357.353 67.4448 359.199 67.4448C361.045 67.4448 362.542 65.9478 362.542 64.1018C362.542 62.2558 361.045 60.7588 359.199 60.7588C357.353 60.7578 355.856 62.2548 355.856 64.1018Z" fill="#DB9387"/>
<path d="M347.57 67.1562C346.969 67.1562 346.419 67.3612 345.976 67.7002C345.533 67.3612 344.983 67.1562 344.382 67.1562C343.485 67.1562 342.695 67.6063 342.218 68.2903H345.405H346.546H349.733C349.257 67.6063 348.467 67.1562 347.57 67.1562Z" fill="#E16477"/>
<path d="M345.976 75.7585C344.538 75.7585 343.271 75.0375 342.507 73.9395H349.445C348.681 75.0365 347.414 75.7585 345.976 75.7585Z" fill="#E16477"/>
<path d="M336.753 68.291C338.166 72.014 341.757 74.666 345.976 74.666C350.195 74.666 353.786 72.015 355.199 68.291H336.753Z" fill="white"/>
<path d="M372.158 45.182C372.158 38.314 369.51 32.066 365.183 27.396C360.401 22.234 353.567 19 345.975 19C338.383 19 331.55 22.234 326.767 27.396C322.44 32.066 319.792 38.314 319.792 45.182C319.792 52.05 322.44 58.298 326.767 62.968V55.913C329.734 54.443 331.78 51.395 331.78 47.86C331.78 47.203 331.705 46.565 331.571 45.949C334.049 46.812 336.766 46.918 339.352 46.192L337.255 49.215C341.801 50.34 346.767 48.645 349.595 44.568C349.635 44.509 349.669 44.448 349.709 44.389V48.917C352.969 47.675 355.318 44.6 355.493 40.948C355.641 41.199 355.797 41.447 355.966 41.69C357.155 43.404 358.725 44.692 360.481 45.531C360.282 46.274 360.17 47.053 360.17 47.859C360.17 51.395 362.216 54.443 365.183 55.912V62.967C369.51 58.298 372.158 52.05 372.158 45.182Z" fill="#74231A"/>
</svg>
