<svg width="489" height="478" viewBox="0 0 489 478" fill="none" xmlns="http://www.w3.org/2000/svg">
<path opacity="0.37" d="M366.69 367.393C434.189 299.895 434.189 190.459 366.69 122.96C299.192 55.4618 189.755 55.4618 122.257 122.96C54.7588 190.459 54.7588 299.895 122.257 367.393C189.755 434.892 299.192 434.892 366.69 367.393Z" fill="#D7E9F4"/>
<path d="M322.018 380.264C322.018 380.264 320.997 388.54 319.472 400.687C317.347 417.617 314.244 442.068 311.562 462.122C311.355 463.667 311.151 465.187 310.95 466.674C310.589 469.344 310.239 471.911 309.902 474.346C309.762 475.357 309.625 476.344 309.491 477.307H249.022C249.292 471.137 249.851 457.104 250.139 441.196V441.191C250.14 441.125 250.141 441.059 250.142 440.993C245.859 441.77 241.836 441.761 238.334 441.382C238.188 441.367 238.042 441.35 237.898 441.333C237.709 441.311 237.522 441.287 237.336 441.263C237.623 457.143 238.182 471.146 238.451 477.308H177.982C177.848 476.35 177.711 475.367 177.572 474.361C177.235 471.933 176.886 469.37 176.526 466.706C176.366 465.52 176.203 464.313 176.039 463.09C173.48 443.994 170.513 420.678 168.373 403.655C166.643 389.907 165.454 380.265 165.454 380.265C165.454 380.265 165.461 380.263 165.474 380.258C166.176 380.024 185.193 373.699 203.787 370.303C210.681 369.043 217.516 368.187 223.339 368.192C233.72 368.202 240.881 370.952 239.414 379.046C239.385 379.208 239.356 379.373 239.327 379.54L247.867 377.117C247.804 369.045 257.975 367.389 270.803 368.502C292.583 370.392 322.018 380.264 322.018 380.264Z" fill="#54213B"/>
<path opacity="0.45" d="M199.753 385.791C199.753 385.791 196.34 393.675 242.097 394.894C287.855 396.113 296.308 379.696 296.308 379.696C296.308 379.696 231.903 373.043 218.266 373.891C204.629 374.739 188.293 374.982 188.293 374.982L199.753 385.791Z" fill="#28101D"/>
<path opacity="0.39" d="M238.451 477.307H177.982C177.848 476.349 177.711 475.366 177.572 474.36C177.235 471.932 176.886 469.369 176.526 466.705C180.001 468.798 187.799 470.837 205.279 469.829C237.708 467.96 230.312 442.358 230.312 442.358C230.312 442.358 225.598 439.595 222.103 432.117C222.103 432.117 229.267 439.213 237.321 441.198C237.513 441.245 237.705 441.29 237.898 441.331C237.709 441.309 237.522 441.285 237.336 441.261C237.623 457.143 238.182 471.146 238.451 477.307Z" fill="#28101D"/>
<path opacity="0.56" d="M238.451 477.307H177.982C177.848 476.349 177.711 475.366 177.572 474.36C180.652 475.269 187.775 476.084 204.141 475.438C235.026 474.219 239.287 471.049 234.88 440.977L237.321 441.199L238.329 441.291C238.329 441.291 238.331 441.322 238.334 441.381C238.188 441.366 238.042 441.349 237.898 441.332C237.709 441.31 237.522 441.286 237.336 441.262C237.623 457.143 238.182 471.146 238.451 477.307Z" fill="#28101D"/>
<path opacity="0.39" d="M310.95 466.675C310.589 469.345 310.239 471.912 309.902 474.347C309.762 475.358 309.625 476.345 309.491 477.308H249.022C249.292 471.138 249.851 457.105 250.139 441.197V441.192C258.179 439.195 265.323 432.119 265.323 432.119C261.828 439.596 257.114 442.36 257.114 442.36C257.114 442.36 249.718 467.962 282.147 469.831C299.712 470.842 307.501 468.779 310.95 466.675Z" fill="#28101D"/>
<path opacity="0.56" d="M309.902 474.346C309.762 475.357 309.625 476.344 309.491 477.307H249.022C249.292 471.137 249.851 457.104 250.139 441.196L252.545 440.977C248.138 471.049 252.399 474.219 283.284 475.438C299.737 476.087 306.848 475.261 309.902 474.346Z" fill="#28101D"/>
<path opacity="0.39" d="M319.472 400.687C317.347 417.618 314.244 442.068 311.562 462.122C299.076 448.048 264.49 439.953 271.679 428.216C279.644 415.212 279.644 386.441 279.644 386.441C279.644 386.441 278.75 373.437 285.658 373.437C292.566 373.437 314.917 387.66 317.03 390.83C317.54 391.595 318.424 395.374 319.472 400.687Z" fill="#28101D"/>
<path opacity="0.39" d="M176.04 463.09C173.481 443.994 170.514 420.678 168.374 403.655C169.668 396.813 170.787 391.731 171.388 390.831C173.501 387.661 195.852 373.438 202.76 373.438C209.668 373.438 208.774 386.442 208.774 386.442C208.774 386.442 208.774 415.213 216.739 428.217C224.09 440.22 187.751 448.414 176.04 463.09Z" fill="#28101D"/>
<path d="M243.381 442.645C241.171 442.645 238.977 442.373 236.824 441.832C231.034 440.375 227.575 437.494 227.431 437.372L228.479 436.129C228.512 436.157 231.846 438.92 237.295 440.273C244.578 442.082 251.996 440.652 259.342 436.022L260.209 437.397C255.949 440.082 251.579 441.756 247.22 442.372C245.938 442.554 244.657 442.645 243.381 442.645Z" fill="#28101D"/>
<path d="M289.515 384.491C289.515 384.491 266.094 392.218 243.781 391.583C221.468 392.218 198.047 384.491 198.047 384.491C198.047 384.491 198.396 380.62 199.005 374C199.163 372.284 199.339 370.383 199.531 368.316C199.886 364.486 200.296 360.089 200.751 355.248C201.122 351.3 201.522 347.057 201.949 342.587C202.127 340.72 202.309 338.813 202.495 336.873C203.146 330.084 203.844 322.872 204.574 315.446C205.754 303.449 207.015 290.897 208.289 278.68C209.652 265.603 211.028 252.91 212.333 241.692C212.586 239.523 212.835 237.409 213.082 235.358C213.766 229.657 214.426 224.444 215.046 219.888C215.34 217.724 215.626 215.708 215.902 213.859C217.081 205.937 218.074 201.065 218.768 200.67C218.971 200.554 219.165 200.433 219.347 200.305C219.861 199.95 220.296 199.556 220.665 199.14C220.693 199.107 220.722 199.075 220.75 199.042C220.848 198.927 220.942 198.81 221.03 198.692C221.753 197.734 222.165 196.697 222.397 195.774C222.68 194.652 222.698 193.697 222.686 193.261C222.681 193.098 222.673 193.007 222.673 193.007C222.673 193.007 219.585 187.155 220.966 184.554C222.348 181.953 229.744 176.67 229.744 176.67L243.781 184.046L257.818 176.67C257.818 176.67 265.214 181.953 266.596 184.554C267.978 187.155 264.889 193.007 264.889 193.007C264.889 193.007 264.887 193.036 264.883 193.09C264.881 193.113 264.88 193.14 264.879 193.171C264.875 193.281 264.871 193.442 264.876 193.644C264.901 194.785 265.18 197.244 266.955 199.2C266.958 199.204 266.962 199.208 266.966 199.212C266.972 199.219 266.977 199.225 266.984 199.231C267.048 199.303 267.116 199.373 267.185 199.442C267.63 199.891 268.163 200.308 268.797 200.669C269.488 201.062 270.474 205.893 271.647 213.753C271.935 215.676 272.232 217.781 272.54 220.047C273.135 224.425 273.765 229.403 274.418 234.833C274.68 237.009 274.946 239.258 275.215 241.569C276.545 252.994 277.95 265.956 279.339 279.3V279.301C279.844 284.162 280.349 289.074 280.846 293.981C282.371 309.016 283.835 324 285.111 337.325C285.301 339.307 285.487 341.251 285.668 343.153C286.306 349.848 286.887 356.023 287.393 361.448C287.659 364.289 287.903 366.923 288.125 369.319C288.321 371.435 288.499 373.364 288.656 375.085C289.204 381.041 289.515 384.491 289.515 384.491Z" fill="#5A407C"/>
<g opacity="0.47">
<path d="M267.183 199.443C267.103 199.539 267.023 199.634 266.941 199.731L266.94 199.732C266.252 200.541 265.489 201.375 264.648 202.208C263.037 203.803 261.34 205.2 259.574 206.384C259.025 206.753 258.469 207.101 257.907 207.427C257.245 207.812 256.575 208.169 255.897 208.496C254.841 209.006 253.765 209.443 252.674 209.808C249.946 210.722 247.117 211.182 244.225 211.182C243.964 211.182 243.703 211.179 243.442 211.171C241.721 211.121 240.01 210.934 238.318 210.609C235.836 210.134 233.394 209.366 231.014 208.31C230.149 207.926 229.292 207.504 228.445 207.044C227.473 206.518 226.515 205.944 225.571 205.322C224.323 204.5 223.104 203.594 221.916 202.612C221.565 202.322 221.226 202.031 220.898 201.742C220.347 201.256 219.828 200.776 219.344 200.306C219.858 199.951 220.293 199.557 220.662 199.141C220.69 199.108 220.719 199.076 220.747 199.043C220.845 198.928 220.939 198.811 221.027 198.693C221.75 197.735 222.162 196.698 222.394 195.775C223.268 196.666 224.295 197.626 225.464 198.586C226.073 199.086 226.688 199.561 227.308 200.009C228.524 200.888 229.761 201.669 231.017 202.35C232.261 203.025 233.524 203.601 234.804 204.079C237.653 205.145 240.588 205.723 243.593 205.809C247.287 205.915 250.809 205.105 254.127 203.394C255.776 202.544 257.374 201.472 258.918 200.177C259.038 200.077 259.159 199.975 259.278 199.871C259.776 199.44 260.27 198.986 260.756 198.508C262.501 196.797 263.876 195.059 264.872 193.644C264.897 194.785 265.176 197.244 266.951 199.2C266.954 199.204 266.958 199.208 266.962 199.212C266.968 199.219 266.973 199.225 266.98 199.231C267.047 199.303 267.114 199.374 267.183 199.443Z" fill="#AB93D8"/>
<path d="M272.539 220.048C269.618 222.39 266.554 224.338 263.383 225.866C262.82 226.137 262.253 226.396 261.684 226.641C256.499 228.87 251.047 229.997 245.44 229.997C245.039 229.997 244.639 229.991 244.237 229.98C237.917 229.8 231.683 228.412 225.696 225.854C225.462 225.754 225.229 225.652 224.995 225.549C221.584 224.035 218.252 222.139 215.043 219.888C215.337 217.724 215.623 215.708 215.899 213.859C218.449 215.833 221.059 217.539 223.724 218.974C230.309 222.521 237.226 224.413 244.39 224.618C251.24 224.813 257.726 223.134 263.772 219.611C266.487 218.03 269.113 216.076 271.645 213.754C271.933 215.676 272.231 217.781 272.539 220.048Z" fill="#AB93D8"/>
<path d="M275.214 241.57C271.508 244.954 267.537 247.677 263.383 249.68C259.682 251.465 255.835 252.676 251.885 253.303C249.764 253.641 247.614 253.81 245.44 253.81C245.039 253.81 244.639 253.804 244.237 253.793C241.426 253.713 238.632 253.393 235.87 252.838C232.179 252.098 228.542 250.936 224.996 249.362C220.613 247.416 216.36 244.84 212.332 241.691C212.585 239.522 212.834 237.408 213.081 235.357C213.505 235.726 213.942 236.097 214.393 236.468C221.162 242.043 228.369 245.693 235.908 247.374C238.693 247.996 241.523 248.348 244.392 248.431C246.855 248.502 249.27 248.329 251.635 247.916C259.392 246.562 266.604 242.616 273.152 236.131C273.589 235.698 274.011 235.265 274.418 234.833C274.679 237.01 274.945 239.259 275.214 241.57Z" fill="#AB93D8"/>
<path d="M285.667 343.154C282.631 344.757 279.523 346.167 276.351 347.377C273.415 348.497 270.424 349.445 267.387 350.22C260.654 351.937 253.692 352.803 246.581 352.803C245.918 352.803 245.255 352.796 244.591 352.781C234.411 352.551 224.357 350.833 214.67 347.67C213.932 347.429 213.196 347.18 212.462 346.922C208.902 345.671 205.39 344.224 201.947 342.587C202.125 340.72 202.307 338.813 202.493 336.873C205.67 338.45 209.144 339.974 212.895 341.35C221.963 344.678 232.656 347.146 244.713 347.418C253.894 347.625 262.134 346.274 269.385 344.062C275.292 342.261 280.543 339.889 285.111 337.326C285.301 339.307 285.487 341.252 285.667 343.154Z" fill="#AB93D8"/>
<path d="M173.423 350.645L173.424 350.648L171.485 352.5L173.423 350.645Z" fill="#AB93D8"/>
<path d="M288.656 375.086C284.901 376.945 281.025 378.543 277.055 379.864C267.642 382.997 257.672 384.582 247.394 384.582C246.735 384.582 246.074 384.575 245.412 384.562C234.49 384.347 223.712 382.632 213.379 379.465C208.479 377.963 203.672 376.134 199.004 373.999C199.162 372.283 199.338 370.382 199.53 368.315C204.966 370.904 211.44 373.447 218.838 375.426C226.728 377.536 235.669 379.004 245.518 379.198C246.14 379.211 246.761 379.217 247.374 379.217C257.892 379.217 267.134 377.444 275.026 374.853C279.918 373.247 284.29 371.327 288.126 369.319C288.321 371.436 288.499 373.365 288.656 375.086Z" fill="#AB93D8"/>
</g>
<path opacity="0.31" d="M289.515 384.491C289.515 384.491 266.094 392.218 243.781 391.583C221.468 392.218 198.047 384.491 198.047 384.491C198.047 384.491 198.396 380.62 199.005 374C199.163 372.284 199.339 370.383 199.531 368.316C200.176 361.362 201 352.537 201.949 342.587C202.127 340.72 202.309 338.813 202.495 336.873C203.146 330.084 203.844 322.872 204.574 315.446L212.758 322.478C212.758 322.478 210.941 331.389 212.896 341.35C213.306 343.435 213.88 345.566 214.672 347.67C218.212 357.093 226.093 365.995 242.911 367.911C255.562 369.352 263.044 361.465 267.389 350.221C268.147 348.26 268.809 346.196 269.386 344.063C275.581 321.178 272.032 290.189 272.032 290.189C272.032 290.189 276.119 291.761 280.847 293.983C282.372 309.018 283.836 324.002 285.112 337.327C285.302 339.309 285.488 341.253 285.669 343.155C286.641 353.356 287.481 362.35 288.127 369.321C288.323 371.437 288.501 373.366 288.658 375.087C289.204 381.041 289.515 384.491 289.515 384.491Z" fill="#1E143A"/>
<path opacity="0.31" d="M235.87 252.838C235.625 254.03 235.238 255.355 234.701 256.889C231.206 266.886 236.326 288.911 223.404 290.943C210.481 292.975 208.008 282.932 208.392 282.142C208.438 282.048 208.385 280.803 208.288 278.68C209.651 265.603 211.027 252.91 212.332 241.692C212.585 239.523 212.834 237.409 213.081 235.358C213.765 229.657 214.425 224.444 215.045 219.888C215.339 217.724 215.625 215.708 215.901 213.859C217.08 205.937 218.073 201.065 218.767 200.67C218.97 200.554 219.164 200.433 219.346 200.305C219.86 199.95 220.295 199.556 220.664 199.14C220.724 199.882 220.801 200.757 220.9 201.742C221.332 206.076 222.17 212.515 223.726 218.975C224.285 221.298 224.937 223.623 225.698 225.854C226.49 228.184 227.401 230.412 228.444 232.426C232.434 240.124 235.068 243.756 235.908 247.376C236.299 249.062 236.301 250.746 235.87 252.838Z" fill="#1E143A"/>
<path opacity="0.31" d="M279.338 279.302C279.259 281.045 279.221 282.057 279.262 282.142C279.645 282.932 277.172 292.975 264.249 290.943C251.326 288.911 256.447 266.886 252.952 256.889C252.485 255.552 252.13 254.374 251.885 253.303C251.406 251.222 251.335 249.551 251.634 247.917C252.327 244.107 255.022 240.507 259.211 232.425C260.137 230.639 260.957 228.685 261.684 226.641C262.49 224.374 263.181 221.996 263.773 219.611C265.7 211.847 266.575 204.013 266.941 199.732L266.942 199.731C266.956 199.559 266.971 199.392 266.984 199.232C267.048 199.304 267.116 199.374 267.185 199.443C267.63 199.892 268.163 200.309 268.797 200.67C269.488 201.063 270.474 205.894 271.647 213.754C271.935 215.677 272.232 217.782 272.54 220.048C273.135 224.426 273.765 229.404 274.418 234.834C274.68 237.01 274.946 239.259 275.215 241.57C276.544 252.995 277.949 265.957 279.338 279.302Z" fill="#1E143A"/>
<path opacity="0.66" d="M261.21 186.179C259.422 182.522 259.863 179.474 259.863 179.474L243.688 188.427L227.513 179.474C227.513 179.474 227.954 182.522 226.166 186.179C224.378 189.836 224.866 189.511 228.442 191.868C232.018 194.225 231.205 199.101 235.35 198.939C236.086 198.91 236.858 198.907 237.652 198.92C239.602 198.952 241.684 199.085 243.688 199.182C245.691 199.085 247.773 198.953 249.723 198.92C250.517 198.907 251.289 198.909 252.025 198.939C256.17 199.102 255.357 194.225 258.933 191.868C262.511 189.512 262.999 189.837 261.21 186.179Z" fill="#1E143A"/>
<path opacity="0.66" d="M266.954 199.2C266.734 199.465 263.829 202.931 259.574 206.383C258.324 207.399 256.957 208.412 255.507 209.343C248.924 213.569 235.676 212.269 229.824 208.855C228.33 207.984 226.889 206.72 225.571 205.321C223.616 203.245 221.931 200.871 220.748 199.041C220.846 198.926 220.94 198.809 221.028 198.691C221.714 197.781 222.12 196.8 222.359 195.913C222.372 195.866 222.384 195.82 222.396 195.773C222.679 194.651 222.697 193.696 222.685 193.26C222.68 193.097 222.672 193.006 222.672 193.006C222.672 193.006 226.572 199.342 231.019 202.348C231.377 202.589 231.737 202.81 232.1 203.003C232.88 203.419 233.795 203.778 234.806 204.077C240.12 205.651 248.12 205.594 253.475 203.653C253.695 203.573 253.913 203.486 254.129 203.393C255.867 202.643 257.489 201.469 258.92 200.176C262.48 196.96 264.853 193.006 264.853 193.006L264.881 193.089C264.879 193.112 264.878 193.139 264.877 193.17C264.873 193.28 264.869 193.441 264.874 193.643C264.882 193.99 264.913 194.459 265.002 194.999C265.208 196.234 265.719 197.839 266.954 199.2Z" fill="#1E143A"/>
<path opacity="0.66" d="M265.004 194.999C262.52 198.945 256.771 206.785 249.981 207.392C240.878 208.205 233.97 208.449 229.012 203.653C226.17 200.903 223.835 197.941 222.36 195.913C222.373 195.866 222.385 195.82 222.397 195.773C222.68 194.651 222.698 193.696 222.686 193.26C222.681 193.097 222.673 193.006 222.673 193.006C222.673 193.006 226.573 199.342 231.02 202.348C231.378 202.589 231.738 202.81 232.101 203.003C232.881 203.419 233.796 203.778 234.807 204.077C240.121 205.651 248.121 205.594 253.476 203.653C253.696 203.573 253.914 203.486 254.13 203.393C255.868 202.643 257.49 201.469 258.921 200.176C262.481 196.96 264.854 193.006 264.854 193.006L264.882 193.089C264.88 193.112 264.879 193.139 264.878 193.17C264.874 193.28 264.87 193.441 264.875 193.643C264.883 193.991 264.914 194.46 265.004 194.999Z" fill="#1E143A"/>
<path opacity="0.66" d="M289.515 384.491C289.515 384.491 266.094 392.218 243.781 391.583C221.468 392.218 198.047 384.491 198.047 384.491C198.047 384.491 198.396 380.62 199.005 374C199.163 372.284 199.339 370.383 199.531 368.316C199.886 364.486 200.296 360.089 200.751 355.248L204.631 352.55C204.631 352.55 205.115 366.847 218.839 375.427C224.611 379.035 232.726 381.632 244.131 381.728C258.934 381.853 268.661 378.738 275.027 374.854C285.229 368.63 286.8 360.433 286.8 360.433C286.8 360.433 287.018 360.795 287.394 361.449C287.66 364.29 287.904 366.924 288.126 369.32C288.322 371.436 288.5 373.365 288.657 375.086C289.204 381.041 289.515 384.491 289.515 384.491Z" fill="#1E143A"/>
<path d="M372.316 244.311C372.316 244.311 376.097 238.003 374.448 218.383C372.799 198.763 379.37 196.02 379.52 189.27C379.669 182.52 380.212 174.577 380.212 174.577C380.212 174.577 391.481 168.473 389.131 197.351L391.465 200.01C391.465 200.01 395.716 199.146 408.144 182.659C420.572 166.172 425.798 168.651 425.522 171.204C425.522 171.204 431.177 165.515 434.934 170.154L431.439 177.312C431.439 177.312 441.519 171.949 432.157 189.448C432.157 189.448 433.799 188.479 435.448 189.778C437.097 191.077 434.335 196.588 423.096 212.334C423.096 212.334 416.721 223.641 410.275 230.014C410.275 230.014 407.176 236.547 406.684 242.617C406.192 248.688 375.156 245.437 375.156 245.437L372.316 244.311Z" fill="#FFC3B3"/>
<path d="M385.205 225.476L383.925 224.955C386.445 218.761 390.196 214.675 395.073 212.81C399.109 211.267 403.156 211.585 405.84 212.124C408.738 212.706 410.674 213.641 410.755 213.681L410.149 214.923C410.13 214.914 408.26 214.014 405.524 213.47C403.027 212.974 399.27 212.682 395.555 214.105C391.055 215.83 387.573 219.655 385.205 225.476Z" fill="#F27584"/>
<path d="M418.369 206.064L417.344 205.137C424.102 197.663 431.675 189.022 431.751 188.935L432.79 189.845C432.714 189.932 425.134 198.581 418.369 206.064Z" fill="#F27584"/>
<path d="M415.343 199.777L414.318 198.85C422.217 190.119 430.888 177.005 430.975 176.874L432.129 177.635C432.042 177.767 423.313 190.967 415.343 199.777Z" fill="#F27584"/>
<path d="M409.478 195.211L408.471 194.265C416.184 186.058 424.948 170.953 425.036 170.802L426.232 171.493C426.144 171.646 417.301 186.887 409.478 195.211Z" fill="#F27584"/>
<path d="M417.741 207.907C417.74 207.881 417.57 205.28 416.022 202.334C413.961 198.414 410.553 195.76 405.892 194.447L406.267 193.117C412.575 194.894 415.735 198.791 417.275 201.747C418.944 204.95 419.115 207.713 419.121 207.829L417.741 207.907Z" fill="#F27584"/>
<path d="M392.285 209.15L390.925 208.907C392.19 201.824 388.757 197.789 388.723 197.749L389.764 196.841C389.924 197.024 393.666 201.421 392.285 209.15Z" fill="#F27584"/>
<g opacity="0.2">
<path d="M409.838 213.608C409.838 213.608 392.802 207.071 385.045 224.073C385.045 224.073 383.972 212.747 386.865 205.402C389.758 198.057 390.438 205.015 392.176 204.492C393.914 203.97 405.472 200.737 409.838 213.608Z" fill="#F27584"/>
</g>
<path d="M264.665 261.914C265.855 265.191 267.294 269.055 269.035 273.611C270.561 277.605 271.752 281.159 272.689 284.434C273.42 286.989 273.998 289.375 274.46 291.667C274.633 292.528 274.792 293.375 274.935 294.213C275.459 297.269 275.797 300.204 276.049 303.213C276.077 303.537 276.102 303.863 276.128 304.189C277.019 315.646 276.851 328.461 281.133 353.245C288.863 397.988 277.081 428.242 277.081 428.242C277.385 429.059 277.98 430.009 278.817 431.054C280.816 433.552 284.189 436.594 288.233 439.654C289.221 440.402 290.251 441.152 291.31 441.895C299.78 447.837 310.158 453.357 317.173 454.527C318.854 454.808 320.341 454.839 321.563 454.566C329.122 452.876 347.348 436.486 357.308 427.096C361.392 423.246 364.087 420.573 364.087 420.573C364.087 420.573 371.414 402.731 342.796 358.122C342.324 357.386 341.864 356.658 341.415 355.938C337.442 349.57 334.335 343.779 331.933 338.47C328.74 331.41 326.796 325.199 325.732 319.611C325.526 318.529 325.352 317.471 325.209 316.434C325.143 315.952 325.082 315.475 325.029 315.003C324.401 309.47 324.63 304.557 325.286 299.999C325.415 299.102 325.56 298.22 325.718 297.348C325.825 296.762 325.938 296.181 326.055 295.605C326.617 292.849 327.293 290.202 327.971 287.596V287.594C328.964 283.783 329.963 280.06 330.628 276.213C333.2 261.327 330.28 235.399 326.024 221.061C325.894 220.624 325.763 220.197 325.631 219.782C325.549 219.524 325.466 219.27 325.383 219.021C323.984 214.823 322.47 211.923 320.976 211.06L320.974 211.059C319.699 210.324 316.839 209.449 313.073 208.519C312.683 208.423 312.282 208.326 311.872 208.227C309.858 207.747 307.626 207.254 305.268 206.761C301.763 206.028 297.98 205.293 294.215 204.593C292.259 204.229 290.307 203.875 288.403 203.536C286.771 203.245 285.173 202.965 283.636 202.7C282.201 202.452 280.82 202.216 279.512 201.996C277.488 201.655 275.642 201.348 274.052 201.088C273.344 200.972 272.687 200.865 272.088 200.768C269.608 200.366 268.12 200.134 268.12 200.134L265.024 232.384L259.113 243.65C259.115 243.649 258.244 244.223 264.665 261.914Z" fill="#CFE58C"/>
<path d="M321.401 315.5C322.788 315.891 324.064 316.195 325.21 316.432C329.159 317.248 331.552 317.26 331.552 317.26L333.174 323.122L334.474 327.819L334.503 327.923L338.879 330.466L344.453 336.916C347.083 338.112 349.057 339.544 350.704 341.068C352.033 342.297 353.15 343.587 354.228 344.861C357.791 349.073 360.928 353.119 369.883 354.28C377.207 355.23 383.256 352.793 387.715 349.265C387.964 349.068 388.208 348.868 388.446 348.665C392.709 345.039 395.377 340.458 396.144 337.188C397.724 330.45 381.811 296.231 369.868 279.831C367.342 276.363 365.174 273.46 363.198 270.819C363.167 270.777 363.135 270.734 363.103 270.693C363.091 270.677 363.079 270.661 363.067 270.645C359.228 265.516 356.109 261.357 352.488 255.913C351.195 253.969 349.837 251.861 348.36 249.487C346.113 245.875 343.59 241.646 340.593 236.439C339.423 234.406 338.308 232.535 337.246 230.812C334.495 226.344 332.105 222.877 330.068 220.189C329.333 219.22 328.644 218.35 328 217.573C327.8 217.331 327.603 217.097 327.411 216.872C323.135 211.859 321.045 211.084 320.979 211.06L320.977 211.059C320.977 211.059 320.568 218.378 320.085 229.142C320.023 230.498 319.961 231.91 319.899 233.367C319.536 241.851 319.155 251.925 318.89 262.061C318.865 263.06 318.84 264.058 318.816 265.057C318.805 265.541 318.793 266.026 318.782 266.51C318.229 291.069 318.471 314.674 321.401 315.5Z" fill="#CFE58C"/>
<path d="M343.736 411.198L340.864 416.385C340.864 416.385 313.28 406.893 298.901 390.156L302.181 384.646C302.181 384.646 315.754 400.079 343.736 411.198Z" fill="#60A555"/>
<path d="M284.648 321.958L289.929 324.776L302.019 331.228C302.019 331.228 307.801 325.757 311.453 321.697C313.164 319.796 314.406 318.206 314.37 317.631C314.361 317.487 314.341 317.213 314.314 316.831C314.118 314.146 313.503 306.122 313.055 300.297C312.999 299.57 312.946 298.879 312.897 298.236C312.694 295.605 312.554 293.789 312.554 293.789C312.505 293.754 312.455 293.719 312.406 293.685C311.613 293.133 310.817 292.648 310.023 292.223C299.647 286.669 289.443 291.472 284.528 294.611C283.213 295.45 282.276 296.171 281.816 296.542C281.604 296.713 281.493 296.81 281.493 296.81L281.885 299.93L282.267 302.975L284.292 319.099L284.648 321.958Z" fill="#60A555"/>
<path d="M302.698 331.108C301.038 321.649 300.083 303.877 300.073 303.699L298.693 303.772C298.702 303.951 299.663 321.807 301.337 331.347L302.698 331.108Z" fill="#1E5B41"/>
<path d="M279.675 298.087L299.544 304.532C299.544 304.532 314.355 294.917 314.37 294.168C314.373 294.016 314.364 293.584 314.349 292.992C314.335 292.449 314.315 291.771 314.292 291.052V291.051C314.218 288.708 314.12 285.927 314.12 285.927C297.393 281.087 278.435 288.636 278.435 288.636L279.127 293.91L279.307 295.285L279.675 298.087Z" fill="#60A555"/>
<g opacity="0.32">
<path d="M279.675 298.087L299.544 304.532C299.544 304.532 314.355 294.917 314.37 294.168C314.373 294.016 314.364 293.584 314.349 292.992C312.823 294.376 309.834 296.803 306.517 297.987C301.722 299.699 302.303 293.115 298.366 293.327C294.429 293.539 296.061 297.936 291.233 299.075C286.605 300.166 280.779 297.526 279.308 295.284L279.675 298.087Z" fill="#327F61"/>
</g>
<path d="M296.092 297.268C296.367 298.632 297.695 299.515 299.059 299.241C300.423 298.967 301.306 297.638 301.032 296.274C300.757 294.91 299.429 294.027 298.065 294.301C296.7 294.576 295.817 295.904 296.092 297.268Z" fill="#1E5B41"/>
<g opacity="0.57">
<path d="M305.27 206.76C307.045 208.134 308.797 209.799 310.405 211.815C318.479 221.936 317.97 241.521 317.97 241.521C318.466 236.401 319.204 232.347 320.083 229.141C321.599 223.609 323.537 220.605 325.383 219.019C326.297 218.233 327.19 217.796 327.997 217.571C327.797 217.329 327.6 217.095 327.408 216.87C323.132 211.857 321.042 211.082 320.976 211.058L320.974 211.057C319.699 210.322 316.839 209.447 313.073 208.517C312.683 208.421 312.282 208.324 311.872 208.225C309.86 207.745 307.628 207.253 305.27 206.76Z" fill="#84C16F"/>
</g>
<g opacity="0.57">
<path d="M314.179 286.841C316.693 314.256 306.07 340.533 332.545 375.459C359.02 410.385 345.997 429.416 335.35 429.36C335.35 429.36 341.283 444.752 318.966 453.738C318.296 454.008 317.698 454.27 317.172 454.526C318.853 454.807 320.34 454.838 321.562 454.565C329.121 452.875 347.347 436.485 357.307 427.095C361.391 423.245 364.086 420.572 364.086 420.572C364.086 420.572 371.413 402.73 342.795 358.121C342.323 357.385 341.863 356.657 341.414 355.937C337.441 349.569 334.334 343.778 331.932 338.469C328.739 331.409 326.795 325.198 325.731 319.61C325.525 318.528 325.351 317.47 325.208 316.433C329.157 317.249 331.55 317.261 331.55 317.261L333.172 323.123L334.472 327.82L334.501 327.924L338.877 330.467L344.451 336.917C347.081 338.113 349.055 339.545 350.702 341.069C352.031 342.298 353.148 343.588 354.226 344.862C357.789 349.074 360.926 353.12 369.881 354.281C377.205 355.231 383.254 352.794 387.713 349.266C387.962 349.069 388.206 348.869 388.444 348.666C384.235 350.219 378.085 350.931 369.668 348.347C351.086 342.641 348.894 317.933 354.889 294.998C354.889 294.998 350.332 300.455 345.624 314.816C340.916 329.177 336.835 316.883 337.696 307.866C338.556 298.849 333.162 304.51 331.825 311.411C331.285 314.201 328.63 307.565 325.718 297.347C323.195 288.492 320.479 276.944 318.781 266.511C317.591 259.201 316.9 252.439 317.125 247.532C317.126 247.53 311.664 259.426 314.179 286.841Z" fill="#84C16F"/>
</g>
<path d="M324.694 316.871C324.608 316.654 322.573 311.436 320.484 301.323C318.561 292.013 316.248 276.646 316.144 256.31L317.526 256.303C317.629 276.499 319.922 291.754 321.827 300.995C323.891 311.007 325.958 316.312 325.979 316.364L324.694 316.871Z" fill="#60A555"/>
<path d="M339.554 371.839C358.185 398.215 357.807 421.041 357.308 427.095C361.392 423.245 364.087 420.572 364.087 420.572C364.087 420.572 371.414 402.73 342.796 358.121C331.038 339.794 326.294 326.141 325.029 315.001L321.034 323.464C321.034 323.464 317.772 341.001 339.554 371.839Z" fill="#327F61"/>
<path d="M318.27 325.736L319.082 325.715C319.061 324.894 319.077 324.445 319.077 324.441L318.265 324.41C318.265 324.429 318.248 324.886 318.27 325.736Z" fill="#327F61"/>
<path d="M353.35 421.286L354.161 421.232C354.221 422.134 354.265 423.028 354.293 423.888L353.481 423.914C353.453 423.063 353.409 422.179 353.35 421.286ZM352.843 416.043L353.649 415.941C353.76 416.823 353.859 417.712 353.944 418.582L353.135 418.66C353.052 417.799 352.954 416.918 352.843 416.043ZM352.042 410.836L352.842 410.691C353 411.561 353.148 412.442 353.282 413.311L352.479 413.435C352.345 412.573 352.199 411.699 352.042 410.836ZM350.963 405.68L351.754 405.493C351.957 406.351 352.152 407.223 352.332 408.085L351.536 408.251C351.358 407.396 351.165 406.531 350.963 405.68ZM349.614 400.587L350.394 400.358C350.642 401.204 350.882 402.065 351.108 402.916L350.322 403.124C350.098 402.279 349.86 401.426 349.614 400.587ZM347.999 395.573L348.766 395.303C349.058 396.134 349.343 396.98 349.614 397.82L348.84 398.069C348.572 397.236 348.289 396.396 347.999 395.573ZM346.12 390.652L346.871 390.342C347.207 391.156 347.537 391.986 347.852 392.81L347.093 393.1C346.781 392.283 346.453 391.459 346.12 390.652ZM343.978 385.841L344.711 385.49C345.091 386.284 345.465 387.095 345.824 387.901L345.082 388.231C344.726 387.433 344.355 386.628 343.978 385.841ZM341.577 381.154L342.29 380.764C342.713 381.536 343.131 382.326 343.533 383.11L342.81 383.481C342.411 382.703 341.997 381.92 341.577 381.154ZM338.921 376.608L339.611 376.179C340.076 376.927 340.538 377.692 340.982 378.453L340.28 378.863C339.84 378.108 339.382 377.349 338.921 376.608ZM336.016 372.217L336.681 371.75C337.188 372.471 337.691 373.209 338.177 373.944L337.499 374.393C337.017 373.664 336.518 372.932 336.016 372.217ZM332.965 367.887L333.64 367.434C334.126 368.158 334.63 368.886 335.138 369.599L334.476 370.07C333.964 369.351 333.455 368.616 332.965 367.887ZM330.128 363.398L330.827 362.983C331.272 363.733 331.734 364.488 332.202 365.228L331.515 365.662C331.044 364.916 330.577 364.154 330.128 363.398ZM327.55 358.754L328.272 358.38C328.673 359.154 329.092 359.935 329.517 360.7L328.806 361.095C328.377 360.323 327.954 359.535 327.55 358.754ZM325.245 353.969L325.987 353.638C326.342 354.434 326.714 355.238 327.094 356.026L326.362 356.379C325.979 355.583 325.603 354.772 325.245 353.969ZM323.228 349.053L323.989 348.767C324.295 349.583 324.619 350.407 324.951 351.217L324.199 351.526C323.864 350.709 323.537 349.877 323.228 349.053ZM321.515 344.023L322.292 343.785C322.547 344.617 322.819 345.46 323.102 346.289L322.333 346.551C322.047 345.715 321.772 344.864 321.515 344.023ZM320.122 338.894L320.913 338.707C321.113 339.552 321.331 340.41 321.561 341.257L320.777 341.47C320.545 340.615 320.325 339.748 320.122 338.894ZM319.075 333.681L319.877 333.549C320.017 334.402 320.176 335.273 320.35 336.137L319.553 336.297C319.378 335.423 319.217 334.543 319.075 333.681ZM318.418 328.399L319.228 328.333C319.297 329.179 319.389 330.059 319.5 330.947L318.694 331.048C318.581 330.148 318.488 329.256 318.418 328.399Z" fill="#327F61"/>
<path d="M354.295 427.848C354.311 427.438 354.321 426.997 354.326 426.537L353.513 426.529C353.509 426.981 353.499 427.415 353.483 427.817L354.295 427.848Z" fill="#327F61"/>
<path d="M356.325 289.269C356.325 289.269 373.125 355.598 381.883 352.753C390.641 349.908 403.053 336.737 402.071 322.589C401.763 318.15 402.387 312.851 403.39 307.669C404.853 300.11 407.119 292.799 408.466 288.771C409.138 286.761 409.581 285.567 409.581 285.567C407.276 275.721 406.753 267.021 406.753 267.021C400.3 257.64 370.084 254.068 370.084 254.068L367.229 261.371L365.389 266.079L356.325 289.269Z" fill="#CFE58C"/>
<g opacity="0.57">
<path d="M365.389 266.078C366.833 265.751 370.395 266.112 379.183 270.045C392.468 275.992 405.646 276.559 408.465 288.77C409.137 286.76 409.58 285.566 409.58 285.566C407.275 275.72 406.752 267.02 406.752 267.02C400.299 257.639 370.083 254.067 370.083 254.067L367.228 261.37L365.389 266.078Z" fill="#84C16F"/>
</g>
<path d="M376.614 262.724L363.763 295.327L365.048 295.834L377.9 263.23L376.614 262.724Z" fill="#60A555"/>
<path d="M375.98 276.531C375.974 277.698 376.915 278.649 378.082 278.655C379.249 278.661 380.2 277.72 380.206 276.553C380.212 275.386 379.271 274.435 378.104 274.429C376.937 274.422 375.986 275.363 375.98 276.531Z" fill="#327F61"/>
<path d="M371.93 289.351C371.924 290.518 372.865 291.469 374.032 291.475C375.199 291.481 376.15 290.54 376.156 289.373C376.162 288.206 375.221 287.255 374.054 287.249C372.887 287.243 371.936 288.184 371.93 289.351Z" fill="#327F61"/>
<path d="M367.221 257.384C372.377 266.027 387.561 268.789 397.396 268.678C406.907 268.571 410.641 268.51 409.293 262.03C409.248 261.809 409.196 261.58 409.138 261.344C408.606 259.17 408.645 257.044 408.928 255.035C409.577 250.425 411.521 246.429 410.855 243.879C409.899 240.216 404.858 240.515 404.858 240.515C404.858 240.515 386.646 241.72 384.457 240.652C382.422 239.659 374.372 234.422 373.247 233.688C373.161 233.632 373.116 233.603 373.116 233.603C373.116 233.603 371.237 235.381 368.603 241.788C368.362 242.374 368.11 242.911 367.856 243.41C365.33 248.362 362.537 249.533 367.221 257.384Z" fill="#60A555"/>
<g opacity="0.32">
<path d="M367.221 257.384C372.377 266.027 387.561 268.789 397.396 268.678C407.231 268.567 410.889 268.505 409.138 261.344C408.606 259.17 408.645 257.044 408.928 255.035C407.019 257.399 403.965 259.669 399.112 261.216C384.708 265.807 364.862 250.377 373.247 233.687C373.161 233.631 373.116 233.602 373.116 233.602C373.116 233.602 371.237 235.38 368.603 241.787C365.969 248.194 362.065 248.742 367.221 257.384Z" fill="#327F61"/>
</g>
<g opacity="0.58">
<path d="M367.221 257.384C372.377 266.027 387.561 268.789 397.396 268.678C406.907 268.571 410.641 268.51 409.293 262.03C407.739 264.223 403.53 266.27 392.941 265.729C375.104 264.818 367.183 255.229 367.855 243.409C365.33 248.362 362.537 249.533 367.221 257.384Z" fill="#327F61"/>
</g>
<g opacity="0.57">
<path d="M345.946 269.22C349.881 262.82 358.36 257.825 355.934 270.979C353.508 284.133 355.373 292.647 355.373 292.647C356.232 289.608 360.655 277.395 363.102 270.691C363.09 270.675 363.078 270.659 363.066 270.643C359.227 265.514 356.108 261.355 352.487 255.911C351.194 253.967 349.836 251.859 348.359 249.485C346.052 262.793 342.412 274.968 345.946 269.22Z" fill="#84C16F"/>
</g>
<g opacity="0.57">
<path d="M278.707 289.104C289.405 279.407 279.759 274.561 284.823 269.711C289.888 264.861 304.545 244.131 293.228 217.088C290.461 210.477 289.013 206.209 288.404 203.534C286.772 203.243 285.174 202.963 283.637 202.698C282.202 202.45 280.821 202.214 279.513 201.994C277.489 201.653 275.643 201.346 274.053 201.086C273.345 200.97 272.688 200.863 272.089 200.766L271.721 226.566C271.721 226.566 268.009 298.801 278.707 289.104Z" fill="#84C16F"/>
</g>
<path d="M261.308 252.27C261.718 253.519 262.2 254.949 262.769 256.586V256.587C263.564 258.873 264.527 261.561 265.694 264.724C266.347 266.494 267.064 268.414 267.851 270.494C268.229 271.495 268.625 272.533 269.036 273.611C271.754 280.721 273.405 286.438 274.461 291.668L281.603 279.367L280.847 277.166L279.436 273.052L278.641 270.736C285.283 259.555 288.834 248.926 288.834 248.926C288.806 248.806 288.779 248.687 288.752 248.567C288.418 247.09 288.133 245.664 287.89 244.291C286.828 238.277 286.584 233.254 286.649 229.212C286.747 223.118 287.544 219.247 287.287 217.557V217.556C287.269 217.432 287.244 217.32 287.213 217.219C286.631 215.322 281.993 206.599 279.513 201.994C279.399 201.782 279.289 201.578 279.185 201.384C278.935 200.922 278.596 200.53 278.196 200.224C278.034 200.1 277.862 199.99 277.682 199.895C277.02 199.544 276.25 199.397 275.473 199.505C275.27 199.533 275.07 199.557 274.875 199.574C273.303 199.726 272.008 199.588 270.999 199.355C269.264 198.953 268.375 198.264 268.375 198.264L268.257 198.977L267.367 204.355L265.985 220.885L265.786 223.265L265.276 229.369L265.024 232.382L259.113 243.648C259.115 243.649 258.596 243.991 261.308 252.27Z" fill="white"/>
<g opacity="0.6">
<g opacity="0.92">
<path d="M268.258 198.977C269.038 201.926 270.19 204.489 271.822 204.273C274.505 203.92 276.678 201.321 277.683 199.895C277.021 199.544 276.251 199.397 275.474 199.505C275.271 199.533 275.071 199.557 274.876 199.574C273.304 199.726 272.009 199.588 271 199.355C269.265 198.953 268.376 198.264 268.376 198.264L268.258 198.977Z" fill="#D7E9F4"/>
</g>
<g opacity="0.92">
<path d="M265.026 232.383C265.026 232.383 275.9 220.168 275.921 216.185C275.938 213.042 272.117 217.775 265.986 220.885L265.787 223.265L265.277 229.369L265.026 232.383Z" fill="#D7E9F4"/>
</g>
<g opacity="0.92">
<path d="M288.752 248.566C288.418 247.089 288.133 245.664 287.89 244.291C286.828 238.277 286.583 233.254 286.648 229.212C286.746 223.118 287.543 219.247 287.286 217.557C284.873 220.547 277.343 230.332 276.403 237.11C275.656 242.489 283.449 246.49 288.752 248.566Z" fill="#D7E9F4"/>
</g>
<g opacity="0.32">
<path d="M281.603 279.366L280.846 277.165L279.436 273.051L278.641 270.735C278.641 270.735 263.518 287.236 281.603 279.366Z" fill="#327F61"/>
</g>
<g opacity="0.32">
<path d="M261.308 252.27C261.718 253.519 262.2 254.949 262.769 256.586V256.587C263.564 258.873 264.527 261.561 265.694 264.724C266.347 266.494 267.064 268.414 267.851 270.494C270.52 263.925 274.439 250.575 261.308 252.27Z" fill="#327F61"/>
</g>
</g>
<path d="M318.546 239.976L317.167 239.893C318.138 223.712 320.232 211.029 320.253 210.903L321.616 211.13C321.595 211.256 319.512 223.872 318.546 239.976Z" fill="#60A555"/>
<path d="M351.98 309.726L350.621 309.478C354.275 289.417 362.494 269.847 362.577 269.651L363.85 270.189C363.768 270.384 355.606 289.819 351.98 309.726Z" fill="#60A555"/>
<path d="M260.258 187.424C260.306 187.764 260.359 188.108 260.417 188.455C260.417 188.455 256.922 189.837 251.964 197.395C251.964 197.395 248.989 197.151 245.608 197.344C244.967 197.38 244.31 197.433 243.657 197.505C243.003 197.433 242.348 197.38 241.706 197.344C238.325 197.151 235.35 197.395 235.35 197.395C230.392 189.836 226.897 188.455 226.897 188.455C226.972 188.006 227.038 187.566 227.098 187.132C227.218 186.254 227.306 185.405 227.368 184.586C228.172 173.909 224.378 168.218 224.378 168.218L243.657 172.825L262.936 168.218C262.936 168.218 258.912 174.254 260.031 185.556C260.091 186.162 260.166 186.786 260.258 187.424Z" fill="#FFC3B3"/>
<path d="M243.804 185.285C253.069 185.285 260.579 179.809 260.579 173.053C260.579 166.297 253.069 160.821 243.804 160.821C234.539 160.821 227.029 166.297 227.029 173.053C227.029 179.809 234.539 185.285 243.804 185.285Z" fill="#F27584"/>
<g opacity="0.2">
<path d="M260.417 188.455C260.417 188.455 256.922 189.837 251.964 197.395C251.964 197.395 248.989 197.151 245.608 197.344C244.967 197.38 244.31 197.433 243.657 197.505C243.003 197.433 242.348 197.38 241.706 197.344C238.325 197.151 235.35 197.395 235.35 197.395C230.392 189.836 226.897 188.455 226.897 188.455C227.123 187.1 227.276 185.81 227.368 184.585C228.547 185.44 231.199 187.539 233.806 190.812C237.301 195.201 239.577 193.982 246.647 194.063C253.114 194.137 253.326 187.073 260.031 185.555C260.123 186.486 260.25 187.453 260.417 188.455Z" fill="#F27584"/>
</g>
<path d="M260.417 188.455C260.417 188.455 256.922 189.837 251.964 197.395C251.964 197.395 248.989 197.151 245.608 197.344C244.967 197.38 244.31 197.433 243.657 197.505C243.003 197.433 242.348 197.38 241.706 197.344C238.325 197.151 235.35 197.395 235.35 197.395C230.392 189.836 226.897 188.455 226.897 188.455C226.972 188.006 227.038 187.566 227.098 187.132C228.415 188.236 232.959 192.106 234.618 194.388C236.569 197.07 237.381 196.013 244.452 196.257C251.523 196.501 251.604 196.745 253.23 194.388C254.544 192.482 257.56 188.928 260.256 187.423C260.306 187.763 260.359 188.107 260.417 188.455Z" fill="#F27584"/>
<path d="M286.636 28.018C286.636 28.018 288.18 36.145 279.402 40.453C270.624 44.761 292.244 46.63 292.244 46.63C292.244 46.63 308.418 45.086 312.563 40.616C312.563 40.616 312.157 56.221 290.781 59.96C269.406 63.699 264.773 40.047 264.935 39.966C265.098 39.884 284.441 36.227 286.636 28.018Z" fill="#1E143A"/>
<path d="M215.551 40.858C215.769 42.45 216.153 44.131 216.739 45.898C217.413 47.928 217.847 49.442 218.092 50.534C218.905 54.181 217.595 53.145 215.955 50.979C214.073 48.495 211.754 44.526 211.701 44.436L211.7 44.434L211.699 44.432C211.68 44.368 211.12 42.406 211.05 39.554C211.042 39.219 211.04 38.871 211.047 38.512C211.158 32.979 213.291 24.898 223.645 20.296C223.506 20.399 213.724 27.537 215.551 40.858Z" fill="#3D2E56"/>
<path d="M211.701 44.437L211.7 44.435L211.699 44.433C209.044 40.95 206.191 38.964 203.498 37.89C197.528 35.509 192.345 37.611 191.829 37.833C199.484 34.287 205.08 35.575 208.857 37.925C209.672 38.431 210.402 38.988 211.05 39.555C213.763 41.935 215.032 44.516 215.032 44.516C215.032 44.516 220.558 56.057 211.701 44.437Z" fill="#3D2E56"/>
<g opacity="0.66">
<path d="M218.092 50.534C217.447 50.718 216.728 50.866 215.955 50.979C214.073 48.495 211.754 44.526 211.701 44.436L211.7 44.434L211.699 44.432C209.044 40.949 206.191 38.963 203.498 37.889C204.692 37.661 206.577 37.486 208.857 37.924C209.672 38.43 210.402 38.987 211.05 39.554C211.042 39.219 211.04 38.871 211.047 38.512C212.469 39.004 213.988 39.751 215.55 40.857C215.768 42.449 216.152 44.13 216.738 45.897C217.413 47.928 217.847 49.442 218.092 50.534Z" fill="#1E143A"/>
</g>
<path d="M175.939 105.961L179.759 123.516C179.759 123.516 190.487 145.298 202.11 150.174C213.732 155.051 196.014 93.281 196.014 93.281L175.939 105.961Z" fill="#1E143A"/>
<path d="M308.321 95.893L307.688 113.848C307.688 113.848 301.01 137.192 290.441 144.06C279.872 150.928 286.309 86.991 286.309 86.991L308.321 95.893Z" fill="#1E143A"/>
<path d="M296.177 103.36C296.177 103.36 294.021 126.272 290.059 142.415C289.157 146.093 288.16 149.419 287.075 152.044C281.908 164.53 262.236 174.543 247.239 176.607C246.01 176.776 244.813 176.892 243.658 176.951C242.503 176.892 241.306 176.776 240.077 176.607C225.08 174.543 205.407 164.53 200.241 152.044C199.08 149.24 198.022 145.633 197.071 141.653C193.228 125.561 191.138 103.36 191.138 103.36C191.138 103.36 194.958 92.55 198.046 77.027C201.135 61.503 222.185 58.984 229.418 56.464C233.426 55.068 239.256 59.611 243.657 63.94C248.059 59.611 253.889 55.068 257.896 56.464C265.13 58.984 286.18 61.503 289.268 77.027C292.358 92.55 296.177 103.36 296.177 103.36Z" fill="#FFC3B3"/>
<path d="M195.526 120.59C195.526 120.59 189.512 107.342 178.133 110.918C166.755 114.494 175.939 139.283 186.342 141.721C196.745 144.159 198.94 130.993 198.94 130.993L195.526 120.59Z" fill="#FFC3B3"/>
<g opacity="0.35">
<path d="M195.608 129.449C195.608 129.449 194.226 124.654 189.512 122.866C184.798 121.078 182.279 124.573 182.929 127.986C183.579 131.4 186.018 134.732 188.618 134.732C191.218 134.732 190.487 131.4 193.738 133.432C196.989 135.464 196.258 131.4 195.608 129.449Z" fill="#F27584"/>
</g>
<path d="M193.535 127.336L194.754 126.686C194.673 126.534 192.727 122.942 189.157 122.077C187.097 121.578 184.951 122.09 182.778 123.598L183.566 124.733C185.355 123.491 187.084 123.041 188.707 123.392C187.697 123.888 186.972 125.247 186.972 126.848C186.972 128.868 188.127 130.505 189.552 130.505C190.977 130.505 192.131 128.868 192.131 126.848C192.131 126.249 192.029 125.684 191.849 125.185C192.931 126.23 193.525 127.318 193.535 127.336Z" fill="#F27584"/>
<path d="M291.878 120.59C291.878 120.59 297.892 107.342 309.271 110.918C320.65 114.494 311.465 139.283 301.062 141.721C290.659 144.159 288.464 130.993 288.464 130.993L291.878 120.59Z" fill="#FFC3B3"/>
<g opacity="0.35">
<path d="M291.797 129.449C291.797 129.449 293.179 124.654 297.893 122.866C302.607 121.078 305.127 124.573 304.476 127.986C303.826 131.4 301.387 134.732 298.787 134.732C296.187 134.732 296.918 131.4 293.667 133.432C290.415 135.464 291.146 131.4 291.797 129.449Z" fill="#F27584"/>
</g>
<path d="M293.869 127.336L292.65 126.686C292.731 126.534 294.677 122.942 298.247 122.077C300.307 121.578 302.453 122.09 304.626 123.598L303.838 124.733C302.049 123.491 300.32 123.041 298.697 123.392C299.707 123.888 300.432 125.247 300.432 126.848C300.432 128.868 299.277 130.505 297.852 130.505C296.427 130.505 295.272 128.868 295.272 126.848C295.272 126.249 295.374 125.684 295.554 125.185C294.473 126.23 293.879 127.318 293.869 127.336Z" fill="#F27584"/>
<path d="M202.235 117.618L201.821 116.735C214.383 110.853 221.036 99.897 221.595 84.172C222.014 72.398 218.667 62.247 218.633 62.146L219.558 61.836C219.592 61.939 222.995 72.258 222.57 84.206C222.32 91.245 220.812 97.471 218.088 102.709C214.676 109.275 209.342 114.29 202.235 117.618Z" fill="#1E143A"/>
<path d="M243.386 92.578C241.064 90.37 238.932 87.334 237.049 83.554C235.55 80.546 234.203 77.061 233.045 73.194C231.076 66.619 230.324 61.135 230.316 61.08L231.283 60.95C231.29 61.004 232.034 66.425 233.984 72.929C235.774 78.902 238.975 87.036 244.059 91.872L243.386 92.578Z" fill="#1E143A"/>
<g opacity="0.2">
<path d="M290.059 142.415C289.157 146.093 288.16 149.419 287.075 152.044C281.908 164.53 262.236 174.543 247.239 176.607C246.01 176.776 244.813 176.892 243.658 176.951C242.503 176.892 241.306 176.776 240.077 176.607C225.08 174.543 205.407 164.53 200.241 152.044C199.08 149.24 198.022 145.633 197.071 141.653C204.08 149.003 244.964 187.704 290.059 142.415Z" fill="#F27584"/>
</g>
<path d="M216.414 78.083C216.414 78.083 225.029 65.973 242.422 70.931C259.815 75.889 226.411 45.817 226.411 45.817L207.149 61.503L216.414 78.083Z" fill="#1E143A"/>
<path d="M203.898 139.365C203.898 139.365 197.315 140.909 192.276 129.937C188.652 122.046 189.357 110.709 190.041 104.964C190.307 102.719 190.569 101.329 190.569 101.329L193.255 101.477L200.891 101.898C200.891 101.898 200.097 104.638 199.546 108.98C198.611 116.344 198.376 128.321 203.898 139.365Z" fill="#3D2E56"/>
<path d="M296.121 127.58C291.082 138.552 284.499 137.008 284.499 137.008C291.293 123.421 289.371 108.421 288.156 102.335C287.802 100.558 287.507 99.54 287.507 99.54L297.829 98.971C297.828 98.971 301.16 116.608 296.121 127.58Z" fill="#3D2E56"/>
<g opacity="0.66">
<path d="M203.898 139.365C203.898 139.365 197.315 140.909 192.276 129.937C188.652 122.046 189.357 110.709 190.041 104.964C191.115 103.646 192.204 102.439 193.256 101.476L200.892 101.897C200.892 101.897 200.098 104.637 199.547 108.979C197.972 109.431 194.15 111.251 192.683 118.396C190.812 127.499 197.233 138.227 203.898 139.365Z" fill="#1E143A"/>
</g>
<g opacity="0.66">
<path d="M296.121 127.58C291.082 138.552 284.499 137.008 284.499 137.008C284.506 137.009 284.514 137.008 284.523 137.008C287.611 137.089 296.145 130.75 295.983 117.177C295.87 107.721 291.063 103.828 288.156 102.335C287.802 100.558 287.507 99.54 287.507 99.54L297.829 98.971C297.828 98.971 301.16 116.608 296.121 127.58Z" fill="#1E143A"/>
</g>
<path d="M306.304 85.804C316.292 82.488 320.024 76.943 321.205 72.073C322.471 66.858 320.81 62.417 320.772 62.317L320.771 62.315L320.77 62.317C320.357 63.261 319.885 64.107 319.375 64.863C318.058 66.818 316.487 68.181 315.007 69.125C314.303 69.575 313.62 69.93 312.996 70.208C319.296 67.359 319.795 60.933 319.795 60.933C298.338 63.453 288.748 51.099 288.748 51.099C303.946 54.594 312.562 40.614 312.562 40.614C293.381 48.173 278.589 36.55 278.589 36.55C286.31 33.218 286.635 28.016 286.635 28.016C282.246 32.892 269.811 38.501 257.295 30.454C244.779 22.408 235.757 19.4 225.11 26.146C214.463 32.892 216.414 45.246 216.414 45.246C209.018 35.412 196.339 38.663 191.95 46.303C187.191 54.587 185.204 55.487 179.108 55.65C173.68 55.795 171.685 53.342 171.146 52.462C171.136 52.446 171.127 52.43 171.118 52.416C171.044 52.293 171.003 52.206 170.988 52.171C170.987 52.169 170.986 52.166 170.985 52.164C174.039 60.601 179.764 61.146 183.62 60.374C183.504 60.435 183.387 60.498 183.271 60.563C176.806 64.157 170.116 73.206 166.998 86.208C163.566 100.52 158.494 99.415 157.499 99.043C157.495 99.041 157.491 99.04 157.487 99.038C157.392 99.002 157.337 98.974 157.328 98.969L157.326 98.968C165.283 108.144 174.455 103.996 177.964 101.843L177.966 101.841C178.878 101.281 179.407 100.857 179.431 100.837C172.848 109.045 162.689 110.102 162.689 110.102C183.673 113.008 191.353 101.006 191.46 100.838C188.778 107.177 184.227 111.565 184.227 111.565C225.596 106.201 219.094 61.987 219.094 61.987L228.116 70.765L227.385 55.241C227.489 55.518 227.593 55.793 227.698 56.067C245.996 103.852 281.271 104.575 281.271 104.575C267.885 101.108 260.179 86.039 260.06 85.803L260.058 85.801C308.08 125.253 328.357 83.646 328.571 83.203L328.573 83.201C319.308 89.706 306.304 85.804 306.304 85.804ZM312.482 70.429C311.064 71.002 310.049 71.162 309.967 71.174C310.889 70.985 311.725 70.733 312.482 70.429Z" fill="#3D2E56"/>
<g opacity="0.66">
<path d="M183.335 94.501C180.815 99.865 179.027 100.922 179.027 100.922C178.702 101.241 178.348 101.549 177.967 101.845L177.965 101.847C174.455 104 165.284 108.147 157.327 98.972L157.329 98.973C157.382 98.996 157.435 99.019 157.488 99.042C157.492 99.044 157.496 99.045 157.5 99.047C170.606 104.652 183.335 94.501 183.335 94.501Z" fill="#1E143A"/>
</g>
<g opacity="0.66">
<path d="M183.272 60.566C183.388 60.501 183.504 60.438 183.621 60.377C179.765 61.149 174.039 60.604 170.986 52.167C170.988 52.169 170.989 52.171 170.989 52.174C171.006 52.207 171.048 52.293 171.119 52.419C171.128 52.434 171.137 52.449 171.147 52.465C172.195 54.281 178.46 63.175 195.933 52.971C195.933 52.969 190.32 57.89 183.272 60.566Z" fill="#1E143A"/>
</g>
<g opacity="0.66">
<path d="M220.931 50.212C220.931 50.212 224.555 41.927 238.034 44.111C249.575 45.98 256.809 55.571 267.943 67.437C279.078 79.303 297.527 85.968 304.436 85.968C304.436 85.968 284.849 90.682 262.904 66.706C241.485 43.303 230.811 42.09 220.931 50.212Z" fill="#1E143A"/>
</g>
<g opacity="0.66">
<path d="M220.803 48.174C220.803 48.174 221.241 33.268 239.415 34.357C257.052 35.414 262.497 56.87 286.636 58.333C286.636 58.333 275.014 62.884 255.589 44.76C238.76 29.058 223.81 38.583 220.803 48.174Z" fill="#1E143A"/>
</g>
<g opacity="0.66">
<path d="M221.534 52.481C221.534 52.481 220.152 47.279 211.375 52.725C202.597 58.17 197.233 69.143 197.233 69.143C197.233 69.143 202.397 54.163 211.863 50.043C220.64 46.223 221.209 50.287 221.534 52.481Z" fill="#1E143A"/>
</g>
<g opacity="0.66">
<path d="M218.608 47.686C218.608 47.686 215.682 43.46 208.205 46.304C200.728 49.149 197.639 54.513 197.639 54.513C197.639 54.513 201.68 46.266 209.018 44.272C216.495 42.241 218.608 47.686 218.608 47.686Z" fill="#1E143A"/>
</g>
<g opacity="0.66">
<path d="M281.272 104.579C281.272 104.579 245.998 103.856 227.699 56.071L227.67 55.855C227.67 55.855 251.444 98.89 281.272 104.579Z" fill="#1E143A"/>
</g>
<g opacity="0.66">
<path d="M328.571 83.207C328.357 83.65 308.08 125.256 260.058 85.805C260.058 85.805 256.158 81.986 254.126 79.223C254.379 79.414 301.093 114.894 328.571 83.207Z" fill="#1E143A"/>
</g>
<g opacity="0.66">
<path d="M321.205 72.074C311.137 77.342 304.028 73.695 304.028 73.695C308.97 72.616 312.503 70.901 315.007 69.127C317.115 67.634 318.495 66.099 319.375 64.865C320.417 63.403 320.756 62.363 320.77 62.319L320.771 62.317L320.772 62.319C320.81 62.418 322.471 66.859 321.205 72.074Z" fill="#1E143A"/>
</g>
<path d="M322.885 213C322.341 227.873 309.661 246.111 299.801 258.126C293.445 265.872 288.262 271.031 288.262 271.031C288.262 271.031 254.777 271.925 278.428 252.663C280.327 251.115 282.134 249.523 283.851 247.904C288.493 243.527 292.478 238.946 295.86 234.502C306.81 220.111 311.425 207.149 311.425 207.149C313.206 207.12 314.717 207.293 315.998 207.595C321.795 208.966 322.885 213 322.885 213Z" fill="#8E543F"/>
<path d="M116.187 244.311C116.187 244.311 112.406 238.003 114.055 218.383C115.704 198.763 109.133 196.02 108.983 189.27C108.834 182.52 108.291 174.577 108.291 174.577C108.291 174.577 97.0218 168.473 99.3718 197.351L97.0378 200.01C97.0378 200.01 92.7868 199.146 80.3588 182.659C67.9308 166.172 62.7048 168.651 62.9808 171.204C62.9808 171.204 57.3258 165.515 53.5688 170.154L57.0638 177.312C57.0638 177.312 46.9838 171.949 56.3458 189.448C56.3458 189.448 54.7038 188.479 53.0548 189.778C51.4058 191.077 54.1678 196.588 65.4068 212.334C65.4068 212.334 71.7818 223.641 78.2278 230.014C78.2278 230.014 81.3278 236.547 81.8188 242.617C82.3108 248.688 113.347 245.437 113.347 245.437L116.187 244.311Z" fill="#FFC3B3"/>
<path d="M103.298 225.476C100.928 219.65 97.4418 215.823 92.9358 214.101C85.7838 211.367 78.4268 214.887 78.3528 214.923L77.7468 213.681C77.8278 213.641 79.7648 212.706 82.6618 212.124C85.3458 211.585 89.3928 211.267 93.4288 212.81C98.3068 214.675 102.058 218.761 104.577 224.955L103.298 225.476Z" fill="#F27584"/>
<path d="M70.1339 206.064C63.3689 198.582 55.7889 189.932 55.7129 189.846L56.7519 188.936C56.8279 189.022 64.4009 197.663 71.1589 205.138L70.1339 206.064Z" fill="#F27584"/>
<path d="M73.1598 199.777C65.1898 190.967 56.4618 177.767 56.3738 177.634L57.5268 176.873C57.6138 177.005 66.2848 190.118 74.1838 198.849L73.1598 199.777Z" fill="#F27584"/>
<path d="M79.025 195.211C71.202 186.887 62.359 171.646 62.271 171.493L63.467 170.802C63.555 170.954 72.32 186.058 80.032 194.265L79.025 195.211Z" fill="#F27584"/>
<path d="M70.7618 207.906L69.3818 207.829C69.3888 207.713 69.5598 204.95 71.2278 201.747C72.7678 198.791 75.9278 194.894 82.2358 193.117L82.6108 194.447C77.9278 195.766 74.5108 198.437 72.4528 202.385C70.9218 205.327 70.7628 207.881 70.7618 207.906Z" fill="#F27584"/>
<path d="M96.2179 209.15C94.8369 201.422 98.5789 197.024 98.7389 196.841L99.7799 197.749L99.2589 197.295L99.7809 197.748C99.7719 197.758 98.9009 198.781 98.1989 200.661C97.5529 202.391 96.9199 205.226 97.5779 208.908L96.2179 209.15Z" fill="#F27584"/>
<g opacity="0.2">
<path d="M78.6648 213.608C78.6648 213.608 95.7008 207.071 103.458 224.073C103.458 224.073 104.531 212.747 101.638 205.402C98.7448 198.057 98.0648 205.015 96.3268 204.492C94.5888 203.97 83.0308 200.737 78.6648 213.608Z" fill="#F27584"/>
</g>
<path d="M224.178 262.283C222.971 265.554 221.511 269.41 219.746 273.957C218.198 277.943 216.989 281.49 216.035 284.761C215.29 287.312 214.7 289.695 214.226 291.985C214.048 292.845 213.886 293.691 213.738 294.528C213.198 297.581 212.845 300.515 212.577 303.522C212.548 303.846 212.52 304.171 212.493 304.497C211.541 315.949 211.642 328.765 207.23 353.526C199.265 398.227 210.887 428.543 210.887 428.543C210.579 429.358 209.978 430.305 209.136 431.346C207.124 433.834 203.735 436.858 199.675 439.896C198.683 440.639 197.65 441.383 196.586 442.121C188.085 448.018 177.678 453.484 170.657 454.617C168.975 454.889 167.487 454.912 166.266 454.632C158.716 452.903 140.577 436.417 130.666 426.974C126.602 423.103 123.922 420.415 123.922 420.415C123.922 420.415 116.689 402.534 145.541 358.077C146.016 357.344 146.481 356.618 146.933 355.9C150.939 349.553 154.077 343.779 156.506 338.482C159.736 331.439 161.712 325.238 162.806 319.656C163.018 318.575 163.197 317.518 163.346 316.481C163.415 316 163.478 315.523 163.534 315.051C164.192 309.521 163.987 304.607 163.356 300.046C163.232 299.149 163.091 298.265 162.937 297.393C162.833 296.806 162.723 296.225 162.609 295.648C162.061 292.889 161.4 290.238 160.735 287.628V287.626C159.762 283.81 158.783 280.081 158.138 276.231C155.645 261.332 158.701 235.419 163.032 221.104C163.165 220.668 163.298 220.242 163.432 219.827C163.516 219.569 163.599 219.316 163.684 219.067C165.105 214.877 166.634 211.985 168.133 211.13L168.135 211.129C169.414 210.401 172.279 209.541 176.049 208.631C176.44 208.537 176.841 208.442 177.251 208.346C179.267 207.876 181.502 207.395 183.863 206.915C187.372 206.201 191.159 205.485 194.928 204.805C196.886 204.451 198.84 204.108 200.746 203.779C202.38 203.497 203.979 203.226 205.518 202.968C206.954 202.727 208.337 202.499 209.645 202.285C211.67 201.954 213.518 201.657 215.109 201.406C215.818 201.294 216.475 201.19 217.075 201.096C219.557 200.707 221.046 200.483 221.046 200.483L223.972 232.749L229.824 244.046C229.824 244.046 230.692 244.626 224.178 262.283Z" fill="#CFE58C"/>
<path d="M167.161 315.569C165.772 315.953 164.494 316.25 163.348 316.481C159.395 317.276 157.002 317.276 157.002 317.276L155.349 323.129L154.024 327.819L153.995 327.923L149.606 330.443L143.998 336.864C141.362 338.046 139.381 339.467 137.725 340.983C136.39 342.205 135.266 343.489 134.181 344.757C130.596 348.95 127.438 352.98 118.477 354.094C111.148 355.005 105.112 352.537 100.672 348.985C100.424 348.787 100.181 348.586 99.9439 348.381C95.7009 344.733 93.0559 340.137 92.3069 336.863C90.7629 330.117 106.855 295.982 118.884 279.645C121.428 276.19 123.612 273.299 125.601 270.668C125.633 270.626 125.664 270.583 125.696 270.542C125.708 270.526 125.72 270.51 125.733 270.494C129.599 265.385 132.74 261.243 136.39 255.818C137.694 253.88 139.062 251.78 140.551 249.413C142.817 245.813 145.363 241.598 148.387 236.406C149.568 234.379 150.693 232.514 151.764 230.796C154.539 226.343 156.947 222.888 158.998 220.211C159.738 219.245 160.432 218.38 161.079 217.606C161.281 217.365 161.478 217.132 161.671 216.908C165.973 211.918 168.067 211.154 168.134 211.13L168.136 211.129C168.136 211.129 168.507 218.45 168.933 229.217C168.987 230.574 169.042 231.985 169.096 233.443C169.415 241.929 169.742 252.005 169.953 262.142C169.973 263.141 169.993 264.14 170.012 265.139C170.021 265.623 170.03 266.108 170.038 266.592C170.462 291.155 170.095 314.759 167.161 315.569Z" fill="#CFE58C"/>
<path d="M144.323 411.149L147.168 416.351C147.168 416.351 174.802 407.004 189.269 390.343L186.018 384.816C186.018 384.816 172.363 400.177 144.323 411.149Z" fill="#60A555"/>
<path d="M203.88 322.221L198.584 325.011L186.461 331.399C186.461 331.399 180.708 325.897 177.077 321.819C175.376 319.909 174.142 318.312 174.181 317.737C174.191 317.593 174.212 317.319 174.241 316.937C174.451 314.253 175.108 306.232 175.587 300.41C175.647 299.684 175.703 298.992 175.756 298.349C175.973 295.719 176.123 293.904 176.123 293.904C176.172 293.869 176.222 293.835 176.272 293.801C177.068 293.254 177.866 292.772 178.663 292.352C189.069 286.853 199.247 291.71 204.145 294.874C205.456 295.72 206.388 296.446 206.847 296.819C207.059 296.991 207.169 297.089 207.169 297.089L206.76 300.207L206.362 303.25L204.252 319.363L203.88 322.221Z" fill="#60A555"/>
<path d="M185.781 331.276C187.491 321.826 188.54 304.059 188.55 303.881L189.929 303.962C189.919 304.141 188.865 321.991 187.14 331.523L185.781 331.276Z" fill="#1E5B41"/>
<path d="M208.978 298.376L189.075 304.717C189.075 304.717 174.315 295.024 174.304 294.275C174.301 294.123 174.313 293.691 174.331 293.1C174.348 292.557 174.372 291.879 174.398 291.16V291.159C174.484 288.816 174.597 286.036 174.597 286.036C191.349 281.285 210.267 288.933 210.267 288.933L209.547 294.203L209.36 295.577L208.978 298.376Z" fill="#60A555"/>
<g opacity="0.32">
<path d="M208.978 298.376L189.075 304.717C189.075 304.717 174.315 295.024 174.304 294.275C174.301 294.123 174.313 293.691 174.331 293.1C175.85 294.491 178.826 296.935 182.136 298.136C186.922 299.873 186.376 293.286 190.312 293.519C194.248 293.752 192.593 298.141 197.415 299.304C202.037 300.419 207.877 297.81 209.36 295.576L208.978 298.376Z" fill="#327F61"/>
</g>
<path d="M192.566 297.471C192.284 298.834 190.951 299.71 189.588 299.428C188.225 299.146 187.349 297.813 187.631 296.45C187.913 295.087 189.246 294.211 190.609 294.493C191.972 294.776 192.848 296.109 192.566 297.471Z" fill="#1E5B41"/>
<g opacity="0.57">
<path d="M183.864 206.916C182.082 208.281 180.321 209.936 178.702 211.944C170.574 222.022 170.981 241.61 170.981 241.61C170.512 236.488 169.795 232.43 168.933 229.22C167.446 223.68 165.524 220.666 163.686 219.07C162.776 218.279 161.886 217.837 161.079 217.609C161.281 217.368 161.478 217.135 161.671 216.911C165.973 211.921 168.067 211.157 168.134 211.133L168.136 211.132C169.415 210.404 172.28 209.544 176.05 208.634C176.441 208.54 176.842 208.445 177.252 208.349C179.269 207.877 181.503 207.396 183.864 206.916Z" fill="#84C16F"/>
</g>
<g opacity="0.57">
<path d="M174.534 286.949C171.876 314.35 182.36 340.683 155.702 375.469C129.044 410.255 141.966 429.354 152.614 429.354C152.614 429.354 146.6 444.715 168.869 453.818C169.538 454.091 170.134 454.357 170.659 454.615C168.977 454.887 167.489 454.91 166.268 454.63C158.718 452.901 140.579 436.415 130.668 426.972C126.604 423.101 123.924 420.413 123.924 420.413C123.924 420.413 116.691 402.532 145.543 358.075C146.018 357.342 146.483 356.616 146.935 355.898C150.941 349.551 154.079 343.777 156.508 338.48C159.738 331.437 161.714 325.236 162.808 319.654C163.02 318.573 163.199 317.516 163.348 316.479C159.395 317.274 157.002 317.274 157.002 317.274L155.349 323.127L154.024 327.817L153.995 327.921L149.606 330.441L143.998 336.862C141.362 338.044 139.381 339.465 137.725 340.981C136.39 342.203 135.266 343.487 134.181 344.755C130.596 348.948 127.438 352.978 118.477 354.092C111.148 355.003 105.112 352.535 100.672 348.983C100.424 348.785 100.181 348.584 99.9438 348.379C104.145 349.954 110.291 350.698 118.721 348.159C137.333 342.551 139.655 317.855 133.781 294.889C133.781 294.889 138.309 300.369 142.941 314.755C147.574 329.141 151.719 316.868 150.906 307.847C150.093 298.825 155.457 304.515 156.758 311.423C157.284 314.216 159.973 307.594 162.939 297.392C165.508 288.55 168.285 277.017 170.038 266.593C171.267 259.29 171.993 252.531 171.794 247.623C171.794 247.623 177.193 259.547 174.534 286.949Z" fill="#84C16F"/>
</g>
<path d="M163.861 316.923L162.578 316.41C162.603 316.348 164.695 311.055 166.811 301.063C168.765 291.832 171.138 276.59 171.347 256.394L172.729 256.408C172.518 276.743 170.124 292.098 168.152 301.398C166.01 311.5 163.947 316.707 163.861 316.923Z" fill="#60A555"/>
<path d="M148.712 371.812C129.942 398.089 130.2 420.918 130.667 426.973C126.603 423.102 123.923 420.414 123.923 420.414C123.923 420.414 116.69 402.533 145.542 358.076C157.396 339.811 162.212 326.183 163.536 315.051L167.487 323.534C167.487 323.534 170.656 341.09 148.712 371.812Z" fill="#327F61"/>
<path d="M170.238 325.822L169.426 325.797C169.451 324.976 169.437 324.527 169.437 324.523L170.249 324.496C170.25 324.515 170.265 324.972 170.238 325.822Z" fill="#327F61"/>
<path d="M134.511 423.814L133.699 423.784C133.731 422.923 133.78 422.03 133.845 421.128L134.656 421.186C134.591 422.078 134.543 422.962 134.511 423.814ZM134.884 418.563L134.075 418.48C134.164 417.61 134.268 416.722 134.384 415.841L135.19 415.947C135.075 416.82 134.972 417.7 134.884 418.563ZM135.569 413.339L134.766 413.211C134.904 412.343 135.057 411.462 135.22 410.594L136.019 410.744C135.857 411.605 135.706 412.479 135.569 413.339ZM136.538 408.161L135.743 407.99C135.928 407.129 136.127 406.258 136.335 405.401L137.125 405.593C136.919 406.443 136.721 407.307 136.538 408.161ZM137.779 403.04L136.994 402.828C137.224 401.978 137.469 401.118 137.721 400.274L138.5 400.507C138.25 401.344 138.007 402.197 137.779 403.04ZM139.288 397.993L138.516 397.74C138.791 396.902 139.08 396.057 139.377 395.228L140.142 395.502C139.848 396.323 139.56 397.162 139.288 397.993ZM141.061 393.033L140.303 392.739C140.622 391.917 140.956 391.088 141.297 390.276L142.046 390.59C141.709 391.396 141.378 392.218 141.061 393.033ZM143.098 388.176L142.357 387.842C142.72 387.038 143.099 386.229 143.482 385.437L144.213 385.791C143.833 386.576 143.458 387.379 143.098 388.176ZM145.394 383.437L144.673 383.063C145.079 382.28 145.502 381.493 145.929 380.723L146.64 381.117C146.216 381.88 145.797 382.661 145.394 383.437ZM147.948 378.832L147.248 378.418C147.697 377.659 148.162 376.897 148.631 376.151L149.319 376.584C148.854 377.323 148.393 378.079 147.948 378.832ZM150.753 374.376L150.078 373.924C150.568 373.192 151.075 372.456 151.586 371.738L152.249 372.209C151.742 372.921 151.239 373.65 150.753 374.376ZM153.799 370.07L153.139 369.595C153.651 368.884 154.159 368.159 154.648 367.438L155.32 367.895C154.827 368.622 154.315 369.354 153.799 370.07ZM156.783 365.678L156.098 365.24C156.57 364.502 157.036 363.75 157.485 363.002L158.182 363.42C157.729 364.174 157.258 364.934 156.783 365.678ZM159.516 361.125L158.808 360.727C159.237 359.964 159.66 359.186 160.065 358.414L160.785 358.792C160.376 359.57 159.949 360.355 159.516 361.125ZM161.985 356.421L161.255 356.064C161.639 355.277 162.016 354.476 162.375 353.682L163.116 354.017C162.752 354.819 162.372 355.628 161.985 356.421ZM164.173 351.581L163.423 351.268C163.76 350.46 164.088 349.638 164.398 348.823L165.157 349.113C164.844 349.935 164.513 350.765 164.173 351.581ZM166.066 346.616L165.298 346.35C165.585 345.522 165.862 344.681 166.121 343.85L166.897 344.092C166.635 344.931 166.356 345.78 166.066 346.616ZM167.648 341.543L166.865 341.326C167.099 340.48 167.322 339.623 167.527 338.779L168.317 338.97C168.11 339.823 167.885 340.688 167.648 341.543ZM168.899 336.376L168.103 336.212C168.281 335.349 168.445 334.479 168.59 333.627L169.391 333.763C169.244 334.624 169.079 335.504 168.899 336.376ZM169.787 331.131L168.981 331.026C169.097 330.138 169.193 329.259 169.267 328.414L170.077 328.484C170.002 329.341 169.904 330.232 169.787 331.131Z" fill="#327F61"/>
<path d="M133.676 427.743C133.662 427.333 133.654 426.892 133.652 426.431L134.465 426.427C134.467 426.88 134.475 427.313 134.488 427.715L133.676 427.743Z" fill="#327F61"/>
<path d="M132.375 289.155C132.375 289.155 115.226 355.394 106.483 352.503C97.7399 349.612 85.3979 336.376 86.4539 322.234C86.7859 317.796 86.1889 312.494 85.2139 307.307C83.7909 299.74 81.5629 292.417 80.2369 288.382C79.5749 286.368 79.1389 285.172 79.1389 285.172C81.4959 275.338 82.0649 266.641 82.0649 266.641C88.5669 257.294 118.801 253.881 118.801 253.881L121.617 261.199L123.432 265.916L132.375 289.155Z" fill="#CFE58C"/>
<g opacity="0.57">
<path d="M123.434 265.917C121.992 265.582 118.428 265.924 109.619 269.812C96.3029 275.689 83.1229 276.186 80.2389 288.383C79.5769 286.369 79.1409 285.173 79.1409 285.173C81.4979 275.339 82.0669 266.642 82.0669 266.642C88.5689 257.295 118.803 253.882 118.803 253.882L121.619 261.2L123.434 265.917Z" fill="#84C16F"/>
</g>
<path d="M112.225 262.498L110.937 262.998L123.616 295.671L124.905 295.171L112.225 262.498Z" fill="#60A555"/>
<path d="M112.788 276.314C112.788 277.481 111.842 278.427 110.675 278.427C109.508 278.427 108.562 277.481 108.562 276.314C108.562 275.147 109.508 274.201 110.675 274.201C111.842 274.2 112.788 275.146 112.788 276.314Z" fill="#327F61"/>
<path d="M116.771 289.155C116.771 290.322 115.825 291.268 114.658 291.268C113.491 291.268 112.545 290.322 112.545 289.155C112.545 287.988 113.491 287.042 114.658 287.042C115.824 287.042 116.771 287.988 116.771 289.155Z" fill="#327F61"/>
<path d="M121.647 257.214C116.445 265.829 101.247 268.511 91.4129 268.349C81.9029 268.192 78.1689 268.111 79.5509 261.638C79.5969 261.417 79.6499 261.189 79.7099 260.953C80.2529 258.782 80.2259 256.656 79.9529 254.645C79.3279 250.032 77.4049 246.026 78.0849 243.479C79.0599 239.822 84.0989 240.147 84.0989 240.147C84.0989 240.147 102.305 241.447 104.499 240.391C106.539 239.409 114.617 234.214 115.746 233.486C115.832 233.431 115.878 233.402 115.878 233.402C115.878 233.402 117.747 235.19 120.348 241.611C120.586 242.199 120.835 242.737 121.087 243.237C123.585 248.201 126.372 249.387 121.647 257.214Z" fill="#60A555"/>
<g opacity="0.32">
<path d="M121.647 257.214C116.445 265.829 101.247 268.511 91.4128 268.349C81.5788 268.186 77.9208 268.105 79.7088 260.953C80.2518 258.782 80.2248 256.656 79.9518 254.645C81.8488 257.019 84.8898 259.305 89.7348 260.877C104.114 265.544 124.042 250.219 115.745 233.485C115.831 233.43 115.877 233.401 115.877 233.401C115.877 233.401 117.746 235.189 120.347 241.61C122.947 248.03 126.849 248.599 121.647 257.214Z" fill="#327F61"/>
</g>
<g opacity="0.58">
<path d="M121.647 257.214C116.445 265.829 101.247 268.511 91.4128 268.349C81.9028 268.192 78.1688 268.111 79.5508 261.638C81.0938 263.839 85.2918 265.908 95.8828 265.423C113.724 264.606 121.696 255.059 121.086 243.236C123.585 248.201 126.372 249.387 121.647 257.214Z" fill="#327F61"/>
</g>
<g opacity="0.57">
<path d="M142.86 269.161C138.959 262.74 130.506 257.701 132.863 270.868C135.22 284.035 133.31 292.539 133.31 292.539C132.467 289.495 128.108 277.259 125.696 270.543C125.708 270.527 125.72 270.511 125.733 270.495C129.599 265.386 132.74 261.244 136.39 255.819C137.694 253.881 139.062 251.781 140.551 249.414C142.788 262.733 146.364 274.928 142.86 269.161Z" fill="#84C16F"/>
</g>
<g opacity="0.57">
<path d="M209.993 289.399C199.346 279.646 209.018 274.851 203.979 269.974C198.94 265.098 184.392 244.291 195.851 217.308C198.653 210.712 200.123 206.451 200.746 203.78C202.38 203.498 203.979 203.227 205.518 202.969C206.954 202.728 208.337 202.5 209.645 202.286C211.67 201.955 213.518 201.658 215.109 201.407C215.818 201.295 216.475 201.191 217.075 201.097L217.307 226.899C217.307 226.899 220.64 299.152 209.993 289.399Z" fill="#84C16F"/>
</g>
<path d="M227.586 252.657C227.17 253.904 226.68 255.331 226.102 256.965V256.966C225.295 259.247 224.318 261.931 223.135 265.088C222.473 266.855 221.746 268.77 220.948 270.846C220.564 271.845 220.164 272.881 219.747 273.956C216.992 281.051 215.31 286.759 214.227 291.984L207.15 279.646L207.917 277.449L209.35 273.342L210.157 271.031C203.574 259.815 200.079 249.168 200.079 249.168C200.107 249.048 200.135 248.929 200.163 248.81V248.809C200.505 247.334 200.798 245.911 201.047 244.539C202.141 238.53 202.411 233.509 202.368 229.467C202.302 223.372 201.526 219.498 201.792 217.809V217.808C201.811 217.684 201.836 217.572 201.868 217.471C202.46 215.577 207.144 206.878 209.648 202.286C209.764 202.075 209.874 201.871 209.98 201.678C210.232 201.217 210.573 200.827 210.975 200.523C211.138 200.399 211.31 200.291 211.49 200.197C212.154 199.849 212.925 199.707 213.702 199.818C213.905 199.847 214.104 199.872 214.299 199.89C215.87 200.05 217.166 199.919 218.176 199.691C219.913 199.298 220.806 198.614 220.806 198.614L220.92 199.328L221.782 204.71L223.077 221.247L223.263 223.628L223.741 229.735L223.977 232.749L229.829 244.046C229.824 244.047 230.341 244.392 227.586 252.657Z" fill="white"/>
<g opacity="0.6">
<g opacity="0.92">
<path d="M220.917 199.328C220.121 202.273 218.956 204.829 217.325 204.605C214.644 204.238 212.484 201.627 211.487 200.197C212.151 199.849 212.922 199.707 213.699 199.818C213.902 199.847 214.101 199.872 214.296 199.89C215.867 200.05 217.163 199.919 218.173 199.691C219.91 199.298 220.803 198.614 220.803 198.614L220.917 199.328Z" fill="#D7E9F4"/>
</g>
<g opacity="0.92">
<path d="M223.973 232.75C223.973 232.75 213.163 220.477 213.163 216.495C213.163 213.352 216.959 218.105 223.073 221.247L223.259 223.628L223.737 229.735L223.973 232.75Z" fill="#D7E9F4"/>
</g>
<g opacity="0.92">
<path d="M200.161 248.808C200.503 247.333 200.796 245.91 201.045 244.538C202.139 238.529 202.409 233.508 202.366 229.466C202.3 223.371 201.524 219.497 201.79 217.808C204.188 220.811 211.666 230.636 212.57 237.418C213.289 242.801 205.475 246.76 200.161 248.808Z" fill="#D7E9F4"/>
</g>
<g opacity="0.92">
<path d="M207.149 279.646L207.916 277.449L209.349 273.342L210.156 271.031C210.156 271.031 225.192 287.611 207.149 279.646Z" fill="#D7E9F4"/>
</g>
<g opacity="0.92">
<path d="M227.586 252.657C227.17 253.904 226.68 255.331 226.102 256.965V256.966C225.295 259.247 224.318 261.931 223.135 265.088C222.473 266.855 221.746 268.77 220.948 270.846C218.313 264.263 214.464 250.893 227.586 252.657Z" fill="#D7E9F4"/>
</g>
</g>
<path d="M170.413 240.062C169.531 223.953 167.515 211.326 167.495 211.2L168.859 210.98C168.879 211.106 170.907 223.801 171.793 239.986L170.413 240.062Z" fill="#60A555"/>
<path d="M136.612 309.635C133.09 289.703 125.032 270.231 124.951 270.037L126.226 269.506C126.307 269.702 134.424 289.315 137.972 309.395L136.612 309.635Z" fill="#60A555"/>
<path d="M228.953 313.656C227.524 315.755 224.923 318.385 220.803 321.665C209.782 330.439 196.675 337.636 184.578 343.079C164.29 352.209 146.843 356.403 146.843 354.825C146.843 352.737 150.248 342.445 151.414 338.979C151.655 338.263 151.801 337.838 151.801 337.838C183.498 326.703 201.994 307.986 201.994 307.986C201.994 307.986 211.735 306.008 219.797 305.955C227.184 305.907 233.162 307.474 228.953 313.656Z" fill="#8E543F"/>
<path opacity="0.35" d="M228.953 313.656C227.524 315.755 224.923 318.385 220.803 321.665C220.02 322.288 219.226 322.904 218.423 323.511C214.512 326.47 210.378 329.238 206.148 331.808C199.023 336.138 191.629 339.906 184.578 343.079C206.225 330.212 204.646 316.708 187.074 325.821C170.883 334.218 156.514 337.859 151.414 338.979C151.655 338.263 151.801 337.838 151.801 337.838C169.107 331.759 182.477 323.42 191.051 317.101C198.181 311.845 201.994 307.987 201.994 307.987C201.994 307.987 204.527 307.473 208.078 306.961C211.492 306.469 215.846 305.981 219.797 305.956C224.406 309.378 228.19 312.498 228.953 313.656Z" fill="#5E3528"/>
<path opacity="0.35" d="M322.885 213C321.991 237.464 288.262 271.031 288.262 271.031C288.262 271.031 254.777 271.925 278.428 252.663C285.46 246.936 291.227 240.591 295.861 234.502C293.537 240.083 292.417 245.669 295.334 248.518C301.768 254.805 331.626 215.929 316 207.595C321.795 208.966 322.885 213 322.885 213Z" fill="#5E3528"/>
<path opacity="0.47" d="M206.148 331.808C206.489 328.556 205.85 324.77 202.841 321.096C199.378 316.867 194.917 316.367 191.05 317.101C198.18 311.845 201.993 307.987 201.993 307.987C201.993 307.987 204.526 307.473 208.077 306.961C211.417 312.165 215.693 319.073 218.423 323.51C214.512 326.47 210.378 329.237 206.148 331.808Z" fill="#5E3528"/>
<path opacity="0.47" d="M299.801 258.126C293.445 265.872 288.262 271.031 288.262 271.031C288.262 271.031 254.777 271.925 278.428 252.663C280.327 251.115 282.134 249.523 283.851 247.904C283.803 250.718 284.723 254.127 288.18 257.295C291.702 260.524 296.07 259.844 299.801 258.126Z" fill="#5E3528"/>
<path d="M278.27 296.458C277.191 297.833 276.068 299.221 274.912 300.614C271.138 305.161 267.011 309.751 262.888 314.063C262.705 314.255 262.522 314.446 262.339 314.636C258.187 318.957 254.054 322.98 250.305 326.379C232.831 342.228 229.336 341.984 212.675 327.354C199.14 315.47 195.045 306.483 199.779 297.951C200.543 296.573 201.538 295.208 202.76 293.844C203.286 293.255 203.855 292.669 204.466 292.08C207.624 289.04 213.798 283.997 221.165 278.353C221.621 278.004 222.081 277.652 222.546 277.299C240.272 263.81 264.012 247.457 269.73 246.728C278.02 245.671 289.34 265.984 290.862 271.354C292.239 276.214 286.519 285.949 278.27 296.458Z" fill="#F4BA38"/>
<path d="M278.27 296.458C277.191 297.833 276.068 299.221 274.912 300.614C251.965 300.087 212.795 298.494 199.779 297.952C200.543 296.574 201.538 295.209 202.76 293.845C218.703 294.502 257.4 296.05 278.27 296.458Z" fill="#F9F8E5"/>
<path opacity="0.19" d="M262.339 314.636C258.187 318.957 254.054 322.98 250.305 326.379C248.645 327.884 247.112 329.244 245.681 330.461C232.048 342.052 227.753 340.594 212.674 327.355C199.139 315.471 195.044 306.484 199.778 297.952C200.542 296.574 201.537 295.209 202.759 293.845C203.147 293.411 203.558 292.979 203.992 292.545C204.146 292.391 204.304 292.235 204.465 292.081C207.623 289.041 213.797 283.998 221.164 278.354C216.279 285.725 212.683 296.387 220.314 307.767C229.963 322.154 250.437 318.406 262.339 314.636Z" fill="#8E543F"/>
<path opacity="0.19" d="M245.682 330.461C232.049 342.052 227.754 340.594 212.675 327.355C199.14 315.471 195.045 306.484 199.779 297.952C200.543 296.574 201.538 295.209 202.76 293.845C203.148 293.411 203.559 292.979 203.993 292.545C201.823 299.531 201.434 310.087 212.187 320.365C224.451 332.085 238.018 331.887 245.682 330.461Z" fill="#8E543F"/>
<path opacity="0.63" d="M234.213 329.061C237.265 329.061 239.74 326.586 239.74 323.534C239.74 320.482 237.265 318.007 234.213 318.007C231.16 318.007 228.686 320.482 228.686 323.534C228.686 326.586 231.16 329.061 234.213 329.061Z" fill="#54213B"/>
<path d="M262.889 314.063L261.144 312.255L259.165 310.205C269.649 300.289 287.042 279.808 286.311 273.875C285.893 270.483 275.339 252.987 268.756 254.613C262.173 256.238 226.899 282.328 226.899 282.328L224.284 279.306L222.547 277.3C240.273 263.811 264.013 247.458 269.731 246.729C278.021 245.672 289.341 265.985 290.863 271.355C293.007 278.925 277.921 298.34 262.889 314.063Z" fill="#8E543F"/>
<path opacity="0.36" d="M262.889 314.063L261.144 312.255C276.161 298.765 289.232 278.775 288.749 272.819C288.261 266.805 276.07 248.843 269.487 249.412C263.487 249.93 230.143 274.89 224.283 279.307L222.546 277.301C240.272 263.812 264.012 247.459 269.73 246.73C278.02 245.673 289.34 265.986 290.862 271.356C293.007 278.925 277.921 298.34 262.889 314.063Z" fill="#F4BA38"/>
<path d="M241.203 150.705C241.09 150.705 240.976 150.677 240.87 150.619C240.536 150.435 240.415 150.013 240.599 149.679C240.644 149.598 241.715 147.696 243.886 147.696C246.065 147.696 246.978 149.374 247.016 149.445C247.194 149.782 247.066 150.2 246.729 150.379C246.392 150.558 245.974 150.429 245.795 150.092C245.775 150.056 245.215 149.078 243.886 149.078C242.542 149.078 241.837 150.297 241.807 150.349C241.681 150.577 241.446 150.705 241.203 150.705Z" fill="#F27584"/>
<path d="M230.775 117.807C230.03 120.231 227.461 121.593 225.037 120.848C222.613 120.103 221.251 117.534 221.996 115.11C222.741 112.686 225.31 111.324 227.734 112.069C230.158 112.814 231.52 115.383 230.775 117.807Z" fill="#3D2E56"/>
<path d="M222.742 113.67C222.742 113.67 220.348 117.708 218.795 119.442C217.242 121.176 225.044 117.365 225.044 117.365L222.742 113.67Z" fill="#3D2E56"/>
<path d="M257.362 117.113C258.094 119.541 260.656 120.916 263.084 120.184C265.512 119.452 266.887 116.89 266.155 114.462C265.423 112.034 262.861 110.659 260.433 111.391C258.006 112.123 256.63 114.685 257.362 117.113Z" fill="#3D2E56"/>
<path d="M265.417 113.018C265.417 113.018 267.79 117.068 269.334 118.81C270.878 120.552 263.096 116.701 263.096 116.701L265.417 113.018Z" fill="#3D2E56"/>
<path d="M243.632 129.329C243.575 129.329 243.517 129.328 243.458 129.327C241.527 129.363 240.153 128.779 239.373 127.588C237.63 124.927 239.753 120.254 239.844 120.057C240.004 119.711 240.414 119.559 240.761 119.719C241.107 119.879 241.259 120.289 241.099 120.636C240.568 121.791 239.431 125.156 240.53 126.833C241.034 127.602 242.014 127.976 243.443 127.946H243.457H243.472C244.901 127.975 245.881 127.602 246.385 126.833C247.485 125.156 246.347 121.791 245.816 120.636C245.657 120.289 245.808 119.879 246.155 119.72C246.501 119.56 246.911 119.712 247.071 120.058C247.162 120.256 249.285 124.928 247.542 127.589C246.786 128.744 245.471 129.329 243.632 129.329Z" fill="#F27584"/>
<path d="M224.838 142.544C226.06 137.852 223.246 133.059 218.554 131.837C213.862 130.616 209.069 133.43 207.848 138.122C206.626 142.813 209.44 147.607 214.132 148.828C218.824 150.049 223.617 147.236 224.838 142.544Z" fill="#F27584"/>
<path d="M278.178 146.515C282.661 144.67 284.799 139.54 282.954 135.057C281.109 130.574 275.979 128.436 271.496 130.281C267.014 132.126 264.875 137.256 266.72 141.739C268.565 146.222 273.695 148.36 278.178 146.515Z" fill="#F27584"/>
<path d="M255.596 143.835C255.036 146.027 252.388 146.319 249.465 146.169C247.523 146.07 245.461 145.776 243.807 145.716C242.106 145.779 239.972 146.088 237.981 146.178C235.126 146.307 232.567 145.986 232.019 143.836C231.413 141.462 232.188 137.738 235.301 135.376C237.196 133.937 239.959 133.004 243.804 133.189H243.811C247.773 132.999 250.585 133.995 252.484 135.509C255.455 137.873 256.191 141.505 255.596 143.835Z" fill="#1E143A"/>
<path d="M252.484 135.507C252.132 136.505 251.588 137.798 251.017 138.226C250.246 138.804 246.387 138.621 243.915 138.519C241.444 138.621 237.584 138.804 236.814 138.226C236.217 137.778 235.65 136.386 235.301 135.374C237.196 133.935 239.959 133.002 243.804 133.187H243.811C247.773 132.998 250.585 133.994 252.484 135.507Z" fill="white"/>
<path d="M249.465 146.07C249.465 146.103 249.465 146.136 249.464 146.169C247.522 146.07 245.46 145.776 243.806 145.716C242.105 145.779 239.971 146.088 237.98 146.178C237.978 146.142 237.978 146.106 237.978 146.071C237.978 143.086 240.549 140.666 243.721 140.666C246.893 140.666 249.465 143.085 249.465 146.07Z" fill="#F27584"/>
<path d="M225.68 124.776C225.655 124.776 225.631 124.775 225.606 124.772C223.342 124.529 222.674 124.28 222.563 124.232L223.107 122.962L223.092 122.956C223.115 122.965 223.692 123.177 225.753 123.398C226.132 123.439 226.407 123.779 226.366 124.158C226.328 124.513 226.029 124.776 225.68 124.776Z" fill="#F27584"/>
<path d="M262.172 124.532C261.79 124.532 261.481 124.223 261.481 123.841C261.481 123.459 261.79 123.15 262.172 123.15C262.75 123.15 264.433 123.083 265.272 122.784C265.631 122.656 266.027 122.843 266.155 123.202C266.283 123.561 266.096 123.957 265.737 124.085C264.5 124.527 262.266 124.532 262.172 124.532Z" fill="#F27584"/>
<path d="M227.386 108.48C221.209 111.162 218.202 112.463 215.926 111.162C215.482 110.908 215.129 110.548 214.89 110.114C213.97 108.442 214.74 105.667 218.608 103.604C223.485 101.003 229.905 97.752 232.344 99.947C232.463 100.054 232.571 100.163 232.673 100.276C234.652 102.493 233.263 105.928 227.386 108.48Z" fill="#3D2E56"/>
<path d="M273.641 106.587C273.447 107.293 272.996 107.874 272.362 108.236C270.086 109.537 267.079 108.236 260.902 105.554C256.152 103.492 254.334 100.853 254.857 98.745C255.013 98.112 255.381 97.527 255.945 97.02C258.383 94.825 264.804 98.076 269.681 100.677C273.116 102.51 274.107 104.904 273.641 106.587Z" fill="#3D2E56"/>
<g opacity="0.66">
<path d="M232.673 100.275C234.652 102.493 233.263 105.928 227.386 108.48C221.209 111.162 218.202 112.463 215.926 111.162C215.482 110.908 215.129 110.548 214.89 110.114C216.876 110.503 220.092 110.392 224.867 108.236C230.588 105.654 232.24 102.379 232.673 100.275Z" fill="#1E143A"/>
</g>
<g opacity="0.66">
<path d="M273.641 106.587C273.447 107.293 272.996 107.874 272.362 108.236C270.086 109.537 267.079 108.236 260.902 105.554C256.152 103.492 254.334 100.853 254.857 98.745C255.658 100.171 257.779 102.497 263.391 104.822C268.35 106.877 271.663 106.944 273.641 106.587Z" fill="#1E143A"/>
</g>
<path d="M322.55 182.632L324.698 175.79C325.533 173.132 328.364 171.653 331.023 172.487L341.024 175.627C343.683 176.462 345.161 179.293 344.327 181.952L342.179 188.794C341.344 191.452 338.513 192.931 335.854 192.096L325.853 188.956C323.194 188.122 321.715 185.291 322.55 182.632ZM335.171 144.401C335.985 141.807 338.705 140.344 341.33 141.051C345.926 142.288 349.696 142.947 352.641 143.028C356.531 143.134 359.86 141.805 362.63 139.039C365.398 136.273 367.867 131.432 370.04 124.512C370.913 121.731 371.261 119.443 371.078 117.651C370.898 115.86 369.792 114.645 367.762 114.007C365.656 113.346 363.982 113.812 362.738 115.405C361.495 116.997 360.378 119.373 359.386 122.531L358.347 125.839C357.512 128.497 354.681 129.976 352.022 129.141L341.458 125.825C338.799 124.99 337.321 122.159 338.156 119.5L341.036 110.326C343.302 103.106 347.307 98.375 353.052 96.13C358.794 93.885 365.54 93.978 373.286 96.41C382.684 99.36 388.574 103.957 390.954 110.197C393.331 116.438 392.928 124.633 389.74 134.786C386.624 144.712 381.684 151.96 374.922 156.529C369.253 160.359 362.683 161.554 355.214 160.117C352.663 159.626 350.139 161.062 349.361 163.54C348.526 166.198 345.695 167.677 343.036 166.843L334.276 164.093C331.618 163.258 330.139 160.427 330.974 157.768L335.171 144.401Z" fill="#F4BA38"/>
<path d="M112.208 140.981C111.081 138.507 112.127 135.601 114.552 134.373C118.798 132.224 122.043 130.194 124.289 128.286C127.255 125.766 128.844 122.553 129.057 118.643C129.268 114.737 127.871 109.483 124.864 102.883C123.656 100.231 122.386 98.296 121.053 97.084C119.722 95.872 118.087 95.707 116.151 96.589C114.142 97.504 113.208 98.969 113.347 100.985C113.486 103 114.242 105.514 115.615 108.527L117.053 111.682C118.208 114.218 117.089 117.209 114.554 118.364L104.477 122.955C101.942 124.11 98.9499 122.991 97.7949 120.456L93.8079 111.705C90.6709 104.819 90.4899 98.623 93.2629 93.114C96.0359 87.607 101.117 83.169 108.505 79.803C117.471 75.718 124.924 75.203 130.862 78.256C136.801 81.311 141.976 87.678 146.388 97.362C150.702 106.83 151.869 115.523 149.89 123.441C148.231 130.078 144.142 135.357 137.623 139.278C135.397 140.617 134.479 143.372 135.556 145.735C136.711 148.271 135.592 151.263 133.057 152.418L124.702 156.225C122.167 157.38 119.175 156.261 118.02 153.726L112.208 140.981ZM128.362 177.859L125.389 171.333C124.234 168.798 125.353 165.806 127.888 164.651L137.427 160.305C139.963 159.15 142.954 160.269 144.11 162.804L147.083 169.33C148.238 171.865 147.119 174.857 144.584 176.012L135.045 180.358C132.509 181.513 129.517 180.394 128.362 177.859Z" fill="#CFE58C"/>
</svg>
