<svg width="127" height="127" viewBox="0 0 127 127" fill="none" xmlns="http://www.w3.org/2000/svg">
<path d="M63.7319 126.36C98.48 126.36 126.649 98.191 126.649 63.4429C126.649 28.6948 98.48 0.525879 63.7319 0.525879C28.9838 0.525879 0.814941 28.6948 0.814941 63.4429C0.814941 98.191 28.9838 126.36 63.7319 126.36Z" fill="#96233C"/>
<path d="M124.083 45.6578L90.8899 24.2788V61.4898H64.1009V101.059H35.1819L73.3329 125.631C103.524 121.009 126.65 94.9258 126.65 63.4428C126.649 57.2638 125.743 51.2998 124.083 45.6578Z" fill="#6C0014"/>
<path d="M93.538 97.261C93.538 100.053 91.276 102.317 88.482 102.317H38.644C35.851 102.317 33.587 100.053 33.587 97.261V28.643C33.587 25.849 35.851 23.585 38.644 23.585H88.482C91.276 23.585 93.538 25.849 93.538 28.643V97.261Z" fill="#EACF33"/>
<path d="M88.482 23.5859H63.615V102.317H88.482C91.276 102.317 93.538 100.053 93.538 97.2609V28.6429C93.538 25.8489 91.276 23.5859 88.482 23.5859Z" fill="#E29523"/>
<path d="M40.209 39.357C40.209 40.555 39.24 41.525 38.042 41.525H29.375C28.178 41.525 27.208 40.555 27.208 39.357C27.208 38.158 28.178 37.189 29.375 37.189H38.042C39.24 37.19 40.209 38.159 40.209 39.357Z" fill="#FFFFF4"/>
<path d="M40.209 48.2641C40.209 49.4631 39.24 50.4321 38.042 50.4321H29.375C28.178 50.4321 27.208 49.4631 27.208 48.2641C27.208 47.0681 28.178 46.0981 29.375 46.0981H38.042C39.24 46.0991 40.209 47.0681 40.209 48.2641Z" fill="#FFFFF4"/>
<path d="M40.209 58.1377C40.209 59.3337 39.24 60.3027 38.042 60.3027H29.375C28.178 60.3027 27.208 59.3337 27.208 58.1377C27.208 56.9387 28.178 55.9697 29.375 55.9697H38.042C39.24 55.9697 40.209 56.9387 40.209 58.1377Z" fill="#FFFFF4"/>
<path d="M40.209 67.7671C40.209 68.9651 39.24 69.9351 38.042 69.9351H29.375C28.178 69.9351 27.208 68.9651 27.208 67.7671C27.208 66.5701 28.178 65.6011 29.375 65.6011H38.042C39.24 65.6011 40.209 66.5701 40.209 67.7671Z" fill="#FFFFF4"/>
<path d="M40.209 77.6382C40.209 78.8362 39.24 79.8052 38.042 79.8052H29.375C28.178 79.8052 27.208 78.8362 27.208 77.6382C27.208 76.4422 28.178 75.4722 29.375 75.4722H38.042C39.24 75.4722 40.209 76.4422 40.209 77.6382Z" fill="#FFFFF4"/>
<path d="M40.209 86.5469C40.209 87.7429 39.24 88.7129 38.042 88.7129H29.375C28.178 88.7129 27.208 87.7429 27.208 86.5469C27.208 85.3489 28.178 84.3789 29.375 84.3789H38.042C39.24 84.3789 40.209 85.3489 40.209 86.5469Z" fill="#FFFFF4"/>
<path d="M85.473 55.488C85.473 58.282 83.21 60.545 80.417 60.545H49.117C46.324 60.545 44.061 58.282 44.061 55.488V41.765C44.061 38.971 46.325 36.708 49.117 36.708H80.417C83.21 36.708 85.473 38.971 85.473 41.765V55.488Z" fill="#FFFFF4"/>
<path d="M85.473 66.323C85.473 67.387 84.591 68.249 83.501 68.249H46.273C45.185 68.249 44.302 67.387 44.302 66.323C44.302 65.259 45.185 64.397 46.273 64.397H83.501C84.591 64.397 85.473 65.259 85.473 66.323Z" fill="#FFFFF4"/>
<path d="M80.418 36.708H63.616V60.545H80.418C83.211 60.545 85.474 58.282 85.474 55.488V41.765C85.473 38.971 83.21 36.708 80.418 36.708Z" fill="#F0F0DE"/>
<path d="M83.501 64.397H63.615V68.248H83.501C84.591 68.248 85.473 67.386 85.473 66.322C85.473 65.259 84.591 64.397 83.501 64.397Z" fill="#F0F0DE"/>
</svg>
