<svg width="179" height="179" viewBox="0 0 179 179" fill="none" xmlns="http://www.w3.org/2000/svg">
<path d="M134.015 133.899C158.585 109.33 158.585 69.4945 134.015 44.9249C109.446 20.3553 69.6105 20.3553 45.0409 44.9249C20.4713 69.4945 20.4713 109.33 45.0409 133.899C69.6105 158.469 109.446 158.469 134.015 133.899Z" fill="#ABAA76"/>
<path d="M140.532 126.236C147.539 116.547 151.855 104.79 152.381 92.0493C151.795 103.795 147.35 115.775 140.532 126.236Z" fill="#ABAA76"/>
<path d="M152.447 89.4121C152.447 90.2961 152.416 91.1731 152.381 92.0491C152.424 91.1681 152.447 90.2891 152.447 89.4121Z" fill="#767544"/>
<path d="M152.447 89.4123C152.447 84.5123 151.868 79.7513 150.809 75.1723L123.4 55.9463L116.273 59.1413L116.192 64.7123V72.7403H108.163V106.656L110.621 109.031L116.683 112.225H117.256V124.759H102.51V123.53H100.79V124.513H56.2399L55.8149 125.988L98.6119 151.665C115.829 149.176 130.781 139.714 140.531 126.235C147.349 115.774 151.795 103.794 152.38 92.0483C152.417 91.1733 152.447 90.2963 152.447 89.4123Z" fill="#767544"/>
<path d="M122.218 55.7661H55.369V62.4411H123.693V55.7661H122.218Z" fill="#28152C"/>
<path d="M59.701 61.9971V63.472V74.3221H65.392V61.9971H59.701Z" fill="#28152C"/>
<path d="M66.3711 69.1299V71.5869V110.626H74.0301V69.1299H66.3711Z" fill="#28152C"/>
<path d="M76.9761 61.9971V63.472V74.3221H82.6661V61.9971H76.9761Z" fill="#28152C"/>
<path d="M95.2321 61.9971V63.472V74.3221H100.923V61.9971H95.2321Z" fill="#28152C"/>
<path d="M113.172 61.9971V63.472V74.3221H118.863V61.9971H113.172Z" fill="#28152C"/>
<path d="M104.642 69.6143V72.0732V110.845H112.299V69.6143H104.642Z" fill="#28152C"/>
<path d="M122.219 68.9053H55.368V74.5963H123.692V68.9053H122.219Z" fill="#28152C"/>
<path d="M122.218 107.377H55.369V114.053H123.693V107.377H122.218Z" fill="#28152C"/>
<path d="M59.701 113.607V115.081V125.932H65.392V113.607H59.701Z" fill="#28152C"/>
<path d="M76.9761 113.607V115.081V125.932H82.6671V113.607H76.9761Z" fill="#28152C"/>
<path d="M95.2321 113.607V115.081V125.932H100.921V113.607H95.2321Z" fill="#28152C"/>
<path d="M113.171 113.607V115.081V125.932H118.863V113.607H113.171Z" fill="#28152C"/>
<path d="M122.219 120.513H55.369V126.207H123.693V120.513H122.219Z" fill="#28152C"/>
<path d="M97.9511 87.6119C100.412 88.6019 100.412 90.2239 97.9511 91.2149L83.7381 99.2029C81.2791 100.194 79.2671 98.8349 79.2671 96.1839V82.644C79.2671 79.992 81.2791 78.6329 83.7381 79.6249L97.9511 87.6119Z" fill="#FFFFF4"/>
<path d="M90.3441 108.238C90.2631 108.238 90.1811 108.238 90.0991 108.238C89.6691 108.238 89.1051 108.377 88.8471 108.76C88.5971 109.133 89.0571 109.333 89.3661 109.333C89.4481 109.333 89.5291 109.333 89.6121 109.333C90.0421 109.333 90.6061 109.194 90.8641 108.811C91.1131 108.438 90.6531 108.238 90.3441 108.238Z" fill="#28152C"/>
</svg>
