<svg width="126" height="126" viewBox="0 0 126 126" fill="none" xmlns="http://www.w3.org/2000/svg">
<path d="M63.0221 125.571C97.6398 125.571 125.703 97.5078 125.703 62.89C125.703 28.2723 97.6398 0.208984 63.0221 0.208984C28.4043 0.208984 0.341064 28.2723 0.341064 62.89C0.341064 97.5078 28.4043 125.571 63.0221 125.571Z" fill="#E4C232"/>
<path d="M125.095 54.2372L99.7601 37.3643L74.0511 47.1583L67.5221 66.7462H60.1761V93.0272H39.2561C39.1161 93.3282 38.8991 93.5912 38.5981 93.7612C37.2611 94.5162 35.4951 94.4603 33.9771 94.7413C33.5011 94.8303 33.3581 94.8773 32.8341 94.9053L32.2631 95.1902L76.4611 124.114C104.618 117.961 125.705 92.8943 125.705 62.8923C125.704 59.9533 125.486 57.0682 125.095 54.2372Z" fill="#E29E35"/>
<path d="M97.559 40.2808H69.969V40.2867H97.559V40.2808Z" fill="#2E3D56"/>
<path d="M97.5651 85.929H97.5721L97.5651 63.103V85.929Z" fill="#2E3D56"/>
<path d="M26.405 37.3638C25.776 37.6708 25.337 38.3027 25.337 39.0367V87.1907C25.337 88.2217 26.198 89.0677 27.251 89.0677L38.586 89.0898H58.15V91.4037C43.428 91.7297 32.936 93.3048 32.184 95.2318H63.522V83.3268H32.426V42.9028H63.461V37.3638H26.405Z" fill="#2E3D56"/>
<path d="M69.969 40.2847L63.113 40.2867H69.969V40.2847Z" fill="#2E3D56"/>
<path d="M32.425 83.3268H63.1131V78.6448V42.9028H32.425V83.3268Z" fill="#2E3D56"/>
<path d="M63.113 83.3268H93.613V42.9028H63.113V78.6448V83.3268Z" fill="#2E3D56"/>
<path d="M63.113 40.2868V42.9028H93.613V83.3268H63.113V95.2318H97.015C96.25 93.2688 83.714 91.6688 68.592 91.3858V89.0868L71.933 89.0858V89.0648L98.825 89.0578C99.855 89.0568 100.7 88.2118 100.7 87.1788L100.687 39.0248C100.686 38.2988 100.264 37.6738 99.658 37.3628H63.113V40.2868ZM86.272 88.3378C85.858 88.3378 85.522 88.0018 85.522 87.5878C85.522 87.1738 85.858 86.8358 86.272 86.8358C86.687 86.8358 87.022 87.1728 87.022 87.5878C87.022 88.0018 86.687 88.3378 86.272 88.3378ZM91.255 88.3378C90.84 88.3378 90.504 88.0018 90.504 87.5878C90.504 87.1738 90.84 86.8358 91.255 86.8358C91.67 86.8358 92.005 87.1728 92.005 87.5878C92.005 88.0018 91.67 88.3378 91.255 88.3378ZM96.238 88.3378C95.824 88.3378 95.487 88.0018 95.487 87.5878C95.487 87.1738 95.824 86.8358 96.238 86.8358C96.652 86.8358 96.988 87.1728 96.988 87.5878C96.988 88.0018 96.652 88.3378 96.238 88.3378Z" fill="#1F293B"/>
<path d="M96.2381 86.8369C95.8241 86.8369 95.4871 87.1739 95.4871 87.5889C95.4871 88.0029 95.8241 88.3389 96.2381 88.3389C96.6521 88.3389 96.9881 88.0029 96.9881 87.5889C96.9881 87.1739 96.6521 86.8369 96.2381 86.8369Z" fill="#2E3D56"/>
<path d="M91.255 86.8369C90.84 86.8369 90.504 87.1739 90.504 87.5889C90.504 88.0029 90.84 88.3389 91.255 88.3389C91.67 88.3389 92.005 88.0029 92.005 87.5889C92.005 87.1739 91.67 86.8369 91.255 86.8369Z" fill="#2E3D56"/>
<path d="M86.272 86.8369C85.858 86.8369 85.522 87.1739 85.522 87.5889C85.522 88.0029 85.858 88.3389 86.272 88.3389C86.687 88.3389 87.022 88.0029 87.022 87.5889C87.022 87.1739 86.687 86.8369 86.272 86.8369Z" fill="#2E3D56"/>
<path d="M69.969 40.2852L63.113 40.2872H69.969V40.2852Z" fill="#2E3D56"/>
<path d="M63.1131 42.9033H32.425V83.3273H63.1131H93.6131V42.9033H63.1131Z" fill="#FFFFF4"/>
<path d="M32.425 83.3273H63.1131V78.6453V42.9033H32.425V83.3273Z" fill="#FFFFF4"/>
<path d="M63.113 83.3273H93.613V42.9033H63.113V78.6453V83.3273Z" fill="#E8E8E0"/>
<path d="M96.2381 86.8374C95.8241 86.8374 95.4871 87.1744 95.4871 87.5894C95.4871 88.0034 95.8241 88.3394 96.2381 88.3394C96.6521 88.3394 96.9881 88.0034 96.9881 87.5894C96.9881 87.1744 96.6521 86.8374 96.2381 86.8374Z" fill="#E8E8E0"/>
<path d="M91.255 86.8374C90.84 86.8374 90.504 87.1744 90.504 87.5894C90.504 88.0034 90.84 88.3394 91.255 88.3394C91.67 88.3394 92.005 88.0034 92.005 87.5894C92.005 87.1744 91.67 86.8374 91.255 86.8374Z" fill="#E8E8E0"/>
<path d="M86.2721 86.8374C85.8581 86.8374 85.5221 87.1744 85.5221 87.5894C85.5221 88.0034 85.8581 88.3394 86.2721 88.3394C86.6871 88.3394 87.0221 88.0034 87.0221 87.5894C87.0221 87.1744 86.6871 86.8374 86.2721 86.8374Z" fill="#E8E8E0"/>
</svg>
