<svg width="176" height="176" viewBox="0 0 176 176" fill="none" xmlns="http://www.w3.org/2000/svg">
<path d="M140.616 122.938C159.794 93.7871 151.709 54.6089 122.559 35.4309C93.4077 16.2529 54.2295 24.3375 35.0515 53.4883C15.8735 82.6391 23.9581 121.817 53.1089 140.995C82.2597 160.173 121.438 152.089 140.616 122.938Z" fill="#E8E8E0"/>
<path d="M151.044 88.2438C151.044 83.3828 150.477 78.6568 149.438 74.1118L123.862 56.8438L106.791 85.6548L93.916 93.4117L87.541 127.118L113.205 146.121C135.478 136.354 151.044 114.122 151.044 88.2438Z" fill="#C2C2B9"/>
<path d="M126.875 62.4709C124.158 54.5629 116.662 48.8779 107.833 48.8779C97.5771 48.8779 89.1181 56.5479 87.8631 66.4619C86.6081 56.5479 78.1491 48.8779 67.8931 48.8779C59.0641 48.8779 51.5671 54.5629 48.8501 62.4709C47.8201 65.0919 47.3861 68.6549 47.7571 73.4439C49.4591 95.3919 81.7871 124.187 87.8621 127.61C93.8681 124.59 126.265 95.3919 127.967 73.4439C128.34 68.6549 127.905 65.0909 126.875 62.4709Z" fill="#DB330A"/>
<path d="M126.875 62.4709C124.158 54.5629 116.662 48.8779 107.833 48.8779C97.5771 48.8779 89.1181 56.5479 87.8631 66.4619C87.8541 66.3949 87.8381 66.3299 87.8281 66.2629V127.589C87.8381 127.594 87.8521 127.604 87.8631 127.61C93.8691 124.59 126.266 95.3919 127.968 73.4439C128.34 68.6549 127.905 65.0909 126.875 62.4709Z" fill="#9F1301"/>
</svg>
