<svg width="123" height="124" viewBox="0 0 123 124" fill="none" xmlns="http://www.w3.org/2000/svg">
<path d="M61.091 123.135C94.8245 123.135 122.171 95.7886 122.171 62.0551C122.171 28.3215 94.8245 0.975098 61.091 0.975098C27.3574 0.975098 0.0109863 28.3215 0.0109863 62.0551C0.0109863 95.7886 27.3574 123.135 61.091 123.135Z" fill="#4D3B52"/>
<path d="M122.118 59.9343L99.882 45.6123V64.8343H96.542V73.1853H34.03V88.2163H24.624L73.377 119.616L71.716 122.194C100.381 117.162 122.17 92.1613 122.17 62.0543C122.171 61.3443 122.141 60.6393 122.118 59.9343Z" fill="#28152C"/>
<path d="M55.952 49.7882C53.447 43.1872 50.717 33.8562 50.261 30.8972C50.261 30.8972 45.074 30.0592 43.595 37.7122C43.348 38.9842 43.433 41.5942 43.889 43.8702C44.344 46.1462 47.074 51.8361 41.84 53.2011C36.604 54.5661 28.866 49.3322 22.948 53.6572C22.948 53.6572 17.487 57.5262 23.404 61.6222C23.404 61.6222 16.121 66.1752 22.265 70.7262C22.265 70.7262 20.445 72.0922 20.217 74.8222C20.019 77.2052 21.356 80.0582 24.543 80.2852C24.543 80.2852 22.693 81.6512 22.494 83.6992C22.296 85.7472 23.176 88.2521 26.135 89.1621C26.135 89.1621 38.653 95.3082 59.593 86.6592C59.593 86.6592 65.51 83.6992 67.559 83.0172V55.4771C67.559 55.4771 58.455 56.3882 55.952 49.7882Z" fill="#E0A593"/>
<path d="M81.215 83.9284C81.215 86.9444 78.769 89.3914 75.753 89.3914H68.697C65.68 89.3914 63.234 86.9444 63.234 83.9284V56.8434C63.234 53.8264 65.681 51.3804 68.697 51.3804H75.753C78.769 51.3804 81.215 53.8264 81.215 56.8434V83.9284Z" fill="#EBECEC"/>
<path d="M102.381 87.7972C102.381 90.8142 99.935 93.2592 96.919 93.2592H76.89C73.873 93.2592 71.427 90.8132 71.427 87.7972V50.0152C71.427 46.9982 73.873 44.5532 76.89 44.5532H96.919C99.935 44.5532 102.381 46.9992 102.381 50.0152V87.7972Z" fill="#5D8BA7"/>
<path d="M70.517 80.2872C70.517 81.6692 69.396 82.7892 68.014 82.7892C66.632 82.7892 65.511 81.6692 65.511 80.2872C65.511 78.9052 66.632 77.7832 68.014 77.7832C69.396 77.7832 70.517 78.9052 70.517 80.2872Z" fill="#424242"/>
</svg>
