<?xml version="1.0" encoding="utf-8"?>
<!-- Generator: Adobe Illustrator 27.5.0, SVG Export Plug-In . SVG Version: 6.00 Build 0)  -->
<svg version="1.1" xmlns="http://www.w3.org/2000/svg" xmlns:xlink="http://www.w3.org/1999/xlink" x="0px" y="0px"
	 viewBox="0 0 800 800" style="enable-background:new 0 0 800 800;" xml:space="preserve">
<g id="Background">
	<rect style="fill:#342D26;" width="800" height="800"/>
	<g>
		<g>
			<g id="Designed_by_Freepik">
				<g>
					<path style="fill:#E8E8E0;" d="M397.653,742.958h0.634v-0.801c0-0.833,0.104-1.496,0.316-1.988
						c0.207-0.49,0.57-0.846,1.072-1.072c0.504-0.221,1.195-0.333,2.072-0.333c1.557,0,2.328,0.376,2.328,1.146
						c0,0.242-0.08,0.457-0.246,0.628c-0.156,0.177-0.352,0.265-0.572,0.265c-0.102,0-0.283-0.018-0.541-0.06
						c-0.242-0.037-0.465-0.061-0.639-0.061c-0.478,0-0.785,0.145-0.928,0.43c-0.131,0.277-0.201,0.683-0.201,1.213v0.635h0.65
						c1.016,0,1.517,0.301,1.517,0.918c0,0.431-0.129,0.705-0.4,0.826c-0.27,0.116-0.642,0.174-1.117,0.174h-0.65v7.049
						c0,0.523-0.123,0.922-0.381,1.193c-0.246,0.281-0.566,0.42-0.965,0.42c-0.379,0-0.687-0.139-0.943-0.42
						c-0.248-0.271-0.373-0.67-0.373-1.193v-7.049h-0.732c-0.398,0-0.7-0.084-0.916-0.266c-0.215-0.176-0.323-0.41-0.323-0.7
						C396.316,743.272,396.762,742.958,397.653,742.958"/>
					<path style="fill:#E8E8E0;" d="M406.361,749.7v2.225c0,0.535-0.137,0.939-0.385,1.209c-0.254,0.273-0.572,0.404-0.961,0.404
						c-0.391,0-0.701-0.131-0.947-0.412c-0.244-0.271-0.369-0.67-0.369-1.201v-7.408c0-1.196,0.432-1.797,1.291-1.797
						c0.445,0,0.76,0.141,0.957,0.418c0.193,0.283,0.301,0.695,0.324,1.241c0.316-0.546,0.641-0.958,0.977-1.241
						c0.338-0.277,0.781-0.418,1.34-0.418c0.563,0,1.1,0.141,1.627,0.418c0.529,0.283,0.791,0.656,0.791,1.113
						c0,0.326-0.113,0.595-0.334,0.805c-0.227,0.211-0.467,0.318-0.725,0.318c-0.104,0-0.338-0.062-0.711-0.185
						c-0.375-0.116-0.705-0.175-0.988-0.175c-0.389,0-0.709,0.101-0.951,0.303c-0.25,0.209-0.443,0.511-0.582,0.912
						c-0.133,0.404-0.225,0.884-0.279,1.438C406.384,748.225,406.361,748.901,406.361,749.7"/>
					<path style="fill:#E8E8E0;" d="M418.59,748.782h-5.205c0.01,0.607,0.127,1.143,0.365,1.602
						c0.238,0.457,0.555,0.807,0.947,1.043c0.395,0.234,0.826,0.35,1.299,0.35c0.32,0,0.611-0.039,0.875-0.115
						c0.26-0.07,0.518-0.191,0.764-0.35c0.248-0.16,0.473-0.326,0.68-0.512c0.209-0.182,0.48-0.43,0.809-0.74
						c0.143-0.117,0.336-0.176,0.584-0.176c0.275,0,0.494,0.074,0.666,0.229c0.17,0.148,0.25,0.355,0.25,0.633
						c0,0.24-0.092,0.519-0.273,0.842c-0.195,0.324-0.477,0.627-0.858,0.924c-0.383,0.293-0.861,0.545-1.432,0.738
						c-0.576,0.193-1.238,0.289-1.984,0.289c-1.713,0-3.039-0.482-3.986-1.459c-0.947-0.979-1.424-2.297-1.424-3.965
						c0-0.785,0.117-1.518,0.353-2.193c0.23-0.678,0.574-1.245,1.025-1.732c0.445-0.476,0.994-0.845,1.654-1.102
						c0.654-0.256,1.381-0.384,2.182-0.384c1.039,0,1.93,0.218,2.674,0.659c0.74,0.439,1.305,1.004,1.67,1.699
						c0.369,0.696,0.555,1.406,0.555,2.127c0,0.662-0.193,1.1-0.576,1.297C419.82,748.684,419.285,748.782,418.59,748.782
						 M413.384,747.272h4.824c-0.066-0.908-0.307-1.589-0.734-2.039c-0.428-0.451-0.984-0.674-1.682-0.674
						c-0.662,0-1.207,0.223-1.633,0.681C413.734,745.704,413.476,746.378,413.384,747.272"/>
					<path style="fill:#E8E8E0;" d="M429.652,748.782h-5.203c0.006,0.607,0.129,1.143,0.363,1.602
						c0.236,0.457,0.555,0.807,0.945,1.043c0.392,0.234,0.826,0.35,1.303,0.35c0.316,0,0.609-0.039,0.869-0.115
						c0.264-0.07,0.518-0.191,0.768-0.35c0.248-0.16,0.471-0.326,0.682-0.512c0.203-0.182,0.478-0.43,0.807-0.74
						c0.141-0.117,0.336-0.176,0.584-0.176c0.277,0,0.494,0.074,0.668,0.229c0.168,0.148,0.248,0.355,0.248,0.633
						c0,0.24-0.094,0.519-0.281,0.842c-0.182,0.324-0.467,0.627-0.854,0.924c-0.379,0.293-0.859,0.545-1.43,0.738
						c-0.572,0.193-1.238,0.289-1.986,0.289c-1.709,0-3.035-0.482-3.986-1.459c-0.947-0.979-1.422-2.297-1.422-3.965
						c0-0.785,0.117-1.518,0.354-2.193c0.232-0.678,0.572-1.245,1.021-1.732c0.447-0.476,0.998-0.845,1.658-1.102
						c0.654-0.256,1.383-0.384,2.182-0.384c1.037,0,1.928,0.218,2.682,0.659c0.738,0.439,1.297,1.004,1.664,1.699
						c0.367,0.696,0.559,1.406,0.559,2.127c0,0.662-0.195,1.1-0.576,1.297C430.884,748.684,430.347,748.782,429.652,748.782
						 M424.449,747.272h4.82c-0.063-0.908-0.311-1.589-0.732-2.039c-0.43-0.451-0.986-0.674-1.684-0.674
						c-0.664,0-1.205,0.223-1.633,0.681C424.797,745.704,424.535,746.378,424.449,747.272"/>
					<path style="fill:#E8E8E0;" d="M435.478,744.216v0.32c0.498-0.615,1.021-1.069,1.566-1.359
						c0.527-0.287,1.143-0.438,1.826-0.438c0.815,0,1.576,0.213,2.264,0.635c0.69,0.428,1.229,1.039,1.629,1.855
						c0.4,0.814,0.602,1.771,0.602,2.885c0,0.816-0.115,1.566-0.344,2.256c-0.23,0.684-0.553,1.26-0.951,1.721
						c-0.406,0.461-0.881,0.826-1.426,1.076c-0.557,0.248-1.141,0.371-1.773,0.371c-0.76,0-1.4-0.15-1.914-0.459
						c-0.518-0.297-1.008-0.752-1.478-1.342v3.994c0,1.17-0.428,1.754-1.275,1.754c-0.504,0-0.828-0.148-0.996-0.451
						c-0.156-0.305-0.24-0.74-0.24-1.322v-11.479c0-0.507,0.109-0.886,0.328-1.135c0.221-0.246,0.525-0.378,0.908-0.378
						c0.379,0,0.682,0.132,0.918,0.387C435.363,743.365,435.478,743.731,435.478,744.216 M440.695,748.081
						c0-0.702-0.109-1.303-0.324-1.805c-0.215-0.508-0.512-0.888-0.891-1.161c-0.375-0.27-0.801-0.403-1.264-0.403
						c-0.73,0-1.35,0.287-1.853,0.867c-0.504,0.578-0.758,1.428-0.758,2.555c0,1.055,0.252,1.879,0.754,2.471
						c0.5,0.586,1.115,0.879,1.857,0.879c0.441,0,0.852-0.131,1.23-0.383c0.379-0.26,0.68-0.643,0.904-1.158
						C440.58,749.43,440.695,748.807,440.695,748.081"/>
					<path style="fill:#E8E8E0;" d="M446.043,741.479c-0.373,0-0.686-0.115-0.945-0.336c-0.266-0.236-0.398-0.551-0.398-0.963
						c0-0.379,0.135-0.689,0.406-0.932c0.268-0.244,0.584-0.369,0.938-0.369c0.35,0,0.652,0.111,0.918,0.33
						c0.266,0.225,0.4,0.547,0.4,0.971c0,0.406-0.131,0.727-0.389,0.959C446.711,741.364,446.406,741.479,446.043,741.479
						 M447.361,744.232v7.692c0,0.531-0.127,0.93-0.381,1.201c-0.254,0.281-0.574,0.412-0.965,0.412
						c-0.393,0-0.701-0.139-0.951-0.42c-0.238-0.281-0.365-0.676-0.365-1.193v-7.618c0-0.519,0.127-0.917,0.365-1.181
						c0.25-0.274,0.559-0.406,0.951-0.406c0.391,0,0.711,0.132,0.965,0.406C447.234,743.389,447.361,743.763,447.361,744.232"/>
					<path style="fill:#E8E8E0;" d="M455.937,752.327l-2.344-3.865l-1.447,1.363v2.119c0,0.512-0.133,0.902-0.406,1.174
						c-0.262,0.281-0.578,0.42-0.928,0.42c-0.412,0-0.732-0.131-0.967-0.412c-0.23-0.271-0.352-0.67-0.352-1.201v-11.35
						c0-0.588,0.115-1.039,0.34-1.345c0.23-0.313,0.559-0.467,0.979-0.467c0.408,0,0.73,0.14,0.971,0.425
						c0.242,0.273,0.363,0.688,0.363,1.232v6.453l2.992-3.14c0.373-0.388,0.652-0.655,0.85-0.8c0.197-0.139,0.43-0.215,0.707-0.215
						c0.334,0,0.609,0.108,0.838,0.316c0.217,0.213,0.328,0.477,0.328,0.797c0,0.383-0.363,0.911-1.082,1.559l-1.412,1.293
						l2.727,4.291c0.197,0.318,0.348,0.561,0.434,0.727c0.088,0.162,0.135,0.326,0.135,0.475c0,0.424-0.115,0.752-0.35,1
						c-0.23,0.242-0.539,0.361-0.91,0.361c-0.324,0-0.576-0.08-0.75-0.262C456.476,753.096,456.234,752.782,455.937,752.327"/>
					<path style="fill:#E8E8E0;" d="M461.716,753.538c-0.404,0-0.748-0.127-1.041-0.389c-0.291-0.256-0.439-0.623-0.439-1.094
						c0-0.394,0.143-0.736,0.422-1.019c0.281-0.287,0.625-0.428,1.031-0.428c0.408,0,0.758,0.141,1.051,0.418
						c0.287,0.285,0.435,0.631,0.435,1.029c0,0.467-0.148,0.826-0.435,1.086C462.447,753.411,462.105,753.538,461.716,753.538"/>
					<path style="fill:#E8E8E0;" d="M474.949,750.243c0,0.336-0.102,0.688-0.299,1.063c-0.197,0.383-0.502,0.734-0.91,1.08
						c-0.404,0.34-0.914,0.613-1.533,0.824c-0.617,0.205-1.313,0.313-2.082,0.313c-1.648,0-2.932-0.48-3.855-1.439
						c-0.92-0.959-1.383-2.242-1.383-3.852c0-1.099,0.211-2.059,0.637-2.9c0.418-0.833,1.031-1.484,1.83-1.941
						c0.799-0.461,1.758-0.686,2.865-0.686c0.689,0,1.32,0.101,1.9,0.302c0.574,0.199,1.059,0.462,1.461,0.777
						c0.395,0.325,0.703,0.66,0.912,1.017c0.213,0.364,0.315,0.7,0.315,1.017c0,0.313-0.115,0.586-0.352,0.804
						c-0.24,0.224-0.529,0.337-0.859,0.337c-0.225,0-0.41-0.063-0.557-0.174c-0.147-0.116-0.31-0.299-0.492-0.553
						c-0.326-0.495-0.662-0.864-1.018-1.109c-0.352-0.251-0.803-0.372-1.35-0.372c-0.781,0-1.42,0.308-1.9,0.923
						c-0.479,0.609-0.721,1.457-0.721,2.518c0,0.496,0.065,0.963,0.188,1.381c0.117,0.416,0.299,0.773,0.533,1.072
						c0.236,0.293,0.516,0.514,0.846,0.67c0.336,0.158,0.699,0.232,1.094,0.232c0.535,0,0.99-0.127,1.369-0.373
						c0.387-0.246,0.721-0.625,1.014-1.131c0.16-0.297,0.332-0.531,0.52-0.697c0.188-0.166,0.42-0.256,0.693-0.256
						c0.326,0,0.596,0.125,0.809,0.371C474.838,749.7,474.949,749.971,474.949,750.243"/>
					<path style="fill:#E8E8E0;" d="M486.427,748.133c0,0.791-0.127,1.52-0.365,2.191c-0.254,0.67-0.607,1.246-1.078,1.721
						c-0.465,0.484-1.029,0.852-1.672,1.107c-0.656,0.258-1.387,0.385-2.197,0.385c-0.803,0-1.531-0.127-2.174-0.389
						c-0.639-0.256-1.201-0.631-1.67-1.113c-0.473-0.488-0.826-1.061-1.076-1.717c-0.234-0.662-0.361-1.389-0.361-2.185
						c0-0.805,0.129-1.545,0.369-2.217c0.248-0.674,0.604-1.241,1.064-1.712c0.465-0.474,1.018-0.843,1.674-1.099
						c0.66-0.255,1.385-0.387,2.174-0.387c0.807,0,1.537,0.132,2.197,0.391c0.652,0.26,1.211,0.633,1.684,1.106
						c0.471,0.49,0.824,1.059,1.068,1.719C486.304,746.6,486.427,747.332,486.427,748.133 M483.754,748.133
						c0-1.086-0.238-1.926-0.715-2.531c-0.477-0.61-1.117-0.912-1.924-0.912c-0.522,0-0.977,0.132-1.375,0.403
						c-0.398,0.272-0.699,0.664-0.916,1.196c-0.211,0.526-0.32,1.139-0.32,1.844c0,0.697,0.103,1.297,0.314,1.818
						c0.217,0.52,0.516,0.922,0.912,1.195c0.395,0.273,0.855,0.418,1.385,0.418c0.807,0,1.447-0.305,1.924-0.914
						C483.515,750.04,483.754,749.202,483.754,748.133"/>
					<path style="fill:#E8E8E0;" d="M496.572,748.327v3.537c0,0.561-0.121,0.973-0.377,1.254c-0.258,0.281-0.586,0.42-1.004,0.42
						c-0.402,0-0.733-0.139-0.977-0.42c-0.252-0.281-0.379-0.693-0.379-1.254v-4.238c0-0.67-0.022-1.193-0.066-1.566
						c-0.049-0.361-0.174-0.668-0.371-0.908c-0.203-0.235-0.523-0.356-0.957-0.356c-0.873,0-1.443,0.299-1.719,0.903
						c-0.273,0.592-0.416,1.453-0.416,2.574v3.592c0,0.551-0.127,0.969-0.373,1.252c-0.254,0.283-0.582,0.422-0.99,0.422
						c-0.402,0-0.734-0.139-0.99-0.422c-0.258-0.283-0.389-0.701-0.389-1.252v-7.613c0-0.496,0.121-0.881,0.346-1.141
						c0.238-0.259,0.539-0.391,0.914-0.391c0.365,0,0.668,0.127,0.914,0.367c0.242,0.242,0.361,0.579,0.361,1.01v0.252
						c0.467-0.547,0.959-0.959,1.484-1.215c0.531-0.264,1.109-0.395,1.758-0.395c0.668,0,1.24,0.136,1.721,0.398
						c0.48,0.271,0.875,0.676,1.189,1.211c0.451-0.543,0.934-0.951,1.445-1.215c0.514-0.259,1.082-0.395,1.705-0.395
						c0.725,0,1.357,0.15,1.883,0.433c0.523,0.282,0.914,0.698,1.176,1.222c0.228,0.486,0.34,1.244,0.34,2.276v5.194
						c0,0.561-0.127,0.973-0.379,1.254c-0.25,0.281-0.588,0.42-1.004,0.42c-0.404,0-0.73-0.139-0.988-0.422
						c-0.258-0.283-0.385-0.701-0.385-1.252v-4.477c0-0.571-0.025-1.027-0.072-1.375c-0.049-0.342-0.18-0.631-0.393-0.865
						c-0.219-0.231-0.545-0.352-0.978-0.352c-0.35,0-0.684,0.112-0.998,0.317c-0.315,0.205-0.561,0.49-0.74,0.832
						C496.674,746.396,496.572,747.188,496.572,748.327"/>
					<path style="fill-rule:evenodd;clip-rule:evenodd;fill:#E8E8E0;" d="M379.23,754.471c0,0-1.453-0.234-2.87-1.783
						c-1.426-1.564-1.667-3.217-1.667-3.217s1.81,0.424,3.109,0.568c2.292,0.262,4.355,0.117,5.327,0.01
						c2.107-0.232,3.227-0.619,3.683-0.731c2.689-0.648,5.275-2.387,5.275-2.387s0.327,2.019-1.191,4.262
						c-0.594,0.873-1.775,1.879-3.134,2.572C383.104,755.753,379.23,754.471,379.23,754.471"/>
					<path style="fill-rule:evenodd;clip-rule:evenodd;fill:#E8E8E0;" d="M390.227,742.985c-0.498-0.605-2.166-3.462-5.54-3.878
						c-0.861-0.103-5.423,0.076-8.159,2.606c-0.27,0.256-1.66,1.475-2.119,3.749c-0.36,1.753,0.228,3.729,0.228,3.729
						s3.035,0.633,5.32,0.574c3.625-0.09,5.45-0.412,7.345-0.984c2.79-0.844,4.768-2.26,4.768-2.26S390.73,743.594,390.227,742.985
						 M379.765,747.332c-1.533,0.097-2.852-1.056-2.948-2.584c-0.094-1.521,1.073-2.841,2.604-2.934
						c1.534-0.104,2.857,1.056,2.948,2.575C382.467,745.917,381.298,747.236,379.765,747.332 M387.597,745.365
						c-0.965,0.054-1.795-0.671-1.857-1.631c-0.06-0.957,0.677-1.788,1.64-1.846c0.963-0.065,1.799,0.666,1.857,1.622
						C389.298,744.471,388.56,745.301,387.597,745.365"/>
					<path style="fill-rule:evenodd;clip-rule:evenodd;fill:#E8E8E0;" d="M388.916,741.006l0.881-1.057c0,0,1.216,0.602,2,1.727
						c0.778,1.124,1.287,2.152,1.287,2.152l-1.455,0.883c0,0-0.451-1.084-1.127-1.955
						C389.827,741.892,388.916,741.006,388.916,741.006"/>
					<path style="fill-rule:evenodd;clip-rule:evenodd;fill:#E8E8E0;" d="M391.681,741.742c0.228-0.134,0.612-0.157,0.588-0.479
						c-0.017-0.32-0.233-0.953,0.402-1.171c0.639-0.216,0.278,0.19,0.06,0.469c-0.219,0.278-0.148,0.45-0.121,0.861
						c0.023,0.405-0.263,0.545-0.693,0.745C391.484,742.37,391.452,741.878,391.681,741.742"/>
					<path style="fill-rule:evenodd;clip-rule:evenodd;fill:#E8E8E0;" d="M375.522,742.391c0,0-1.021,1.185-1.281,2.255
						c-0.257,1.075-0.205,2.367-0.205,2.367l-1.509-0.52c0,0-0.087-1.485,0.601-2.684c0.764-1.333,1.741-1.927,1.741-1.927
						L375.522,742.391z"/>
					<path style="fill-rule:evenodd;clip-rule:evenodd;fill:#E8E8E0;" d="M373.299,743.74c-0.246-0.159-0.27-0.542-0.463-0.793
						c-0.193-0.255-0.242-0.101-0.686-0.101c-0.443,0-0.456-0.211-0.581-0.319c-0.127-0.112-0.187,0.339-0.187,0.339
						s0.082,0.376,0.558,0.403c0.472,0.027,0.461-0.206,0.664,0.221c0.204,0.431,0.608,0.757,0.608,0.757
						S373.548,743.903,373.299,743.74"/>
					<path style="fill-rule:evenodd;clip-rule:evenodd;fill:#E8E8E0;" d="M381.314,738.116c2.478-0.621,4.026,0.092,4.026,0.092
						l-0.132,0.715c0,0-1.809-0.121-3.247,0.092c-1.433,0.207-2.086,0.661-2.086,0.661l-0.312-0.712
						C379.564,738.964,380.243,738.383,381.314,738.116"/>
					<polygon style="fill-rule:evenodd;clip-rule:evenodd;fill:#E8E8E0;" points="382.056,737.098 382.405,736.971 382.865,738.204 
						382.519,738.339 					"/>
					<path style="fill-rule:evenodd;clip-rule:evenodd;fill:#E8E8E0;" d="M392.97,739.393c0.349-0.019,0.65,0.246,0.669,0.594
						c0.025,0.349-0.241,0.647-0.592,0.671c-0.351,0.022-0.651-0.246-0.671-0.59C392.353,739.717,392.619,739.421,392.97,739.393"/>
					<path style="fill-rule:evenodd;clip-rule:evenodd;fill:#E8E8E0;" d="M371.213,741.789c0.347-0.023,0.649,0.243,0.673,0.591
						c0.02,0.347-0.244,0.642-0.597,0.665c-0.347,0.024-0.647-0.241-0.671-0.586C370.596,742.109,370.863,741.814,371.213,741.789"
						/>
					<path style="fill-rule:evenodd;clip-rule:evenodd;fill:#E8E8E0;" d="M382.36,735.518c0.556-0.03,1.037,0.384,1.071,0.941
						c0.033,0.549-0.391,1.029-0.948,1.066c-0.557,0.037-1.033-0.383-1.069-0.939C381.376,736.031,381.801,735.553,382.36,735.518"
						/>
					<path style="fill:#E8E8E0;" d="M303.213,752.075c0,0.623-0.391,1.031-0.934,1.031c-0.512,0-0.811-0.279-0.929-0.775
						c-0.349,0.57-1.069,0.85-1.703,0.85c-1.873,0-3.06-1.734-3.06-3.492c0-1.814,0.994-3.683,2.997-3.683
						c0.645,0,1.276,0.224,1.766,0.648v-2.533c0-0.619,0.387-1.027,0.929-1.027c0.543,0,0.934,0.408,0.934,1.027V752.075z
						 M299.894,747.714c-0.968,0-1.448,1.014-1.448,1.893c0,0.865,0.479,1.877,1.448,1.877c1.017,0,1.457-1.033,1.457-1.941
						C301.351,748.639,300.888,747.714,299.894,747.714"/>
					<path style="fill:#E8E8E0;" d="M305.765,750.216c0.134,0.912,0.892,1.344,1.762,1.344c0.952,0,1.609-0.746,2.103-0.746
						c0.398,0,0.756,0.395,0.756,0.801c0,0.801-1.648,1.566-3.031,1.566c-2.094,0-3.485-1.519-3.485-3.574
						c0-1.885,1.368-3.601,3.33-3.601c2.014,0,3.344,1.831,3.344,3.384c0,0.553-0.246,0.826-0.813,0.826H305.765z M308.685,748.975
						c-0.101-0.814-0.619-1.418-1.486-1.418c-0.825,0-1.382,0.631-1.471,1.418H308.685z"/>
					<path style="fill:#E8E8E0;" d="M315.117,748.174c-0.35,0-1.059-0.547-1.667-0.547c-0.334,0-0.633,0.158-0.633,0.523
						c0,0.865,3.229,0.734,3.229,2.852c0,1.238-1.044,2.178-2.65,2.178c-1.044,0-2.593-0.588-2.593-1.428
						c0-0.283,0.284-0.822,0.8-0.822c0.724,0,1.046,0.629,1.922,0.629c0.57,0,0.738-0.184,0.738-0.533
						c0-0.852-3.227-0.721-3.227-2.852c0-1.289,1.046-2.169,2.519-2.169c0.914,0,2.322,0.427,2.322,1.347
						C315.877,747.772,315.554,748.174,315.117,748.174"/>
					<path style="fill:#E8E8E0;" d="M318.653,744.315c0,0.582-0.463,1.073-1.046,1.073c-0.556,0-1.046-0.505-1.046-1.073
						c0-0.528,0.49-1.019,1.046-1.019C318.16,743.297,318.653,743.77,318.653,744.315 M316.676,747.12
						c0-0.621,0.387-1.037,0.93-1.037c0.541,0,0.928,0.416,0.928,1.037v4.955c0,0.623-0.387,1.031-0.928,1.031
						c-0.543,0-0.93-0.408-0.93-1.031V747.12z"/>
					<path style="fill:#E8E8E0;" d="M325.922,752.487c0,2.234-1.46,3.363-3.578,3.363c-0.76,0-2.932-0.379-2.932-1.398
						c0-0.348,0.387-0.814,0.753-0.814c0.591,0,1.25,0.578,2.322,0.578c0.906,0,1.574-0.522,1.574-1.471v-0.44h-0.025
						c-0.386,0.568-1.02,0.875-1.871,0.875c-1.949,0-2.868-1.711-2.868-3.56c0-1.871,1.185-3.614,3.06-3.614
						c0.635,0,1.354,0.284,1.705,0.851c0.118-0.487,0.413-0.773,0.93-0.773c0.541,0,0.93,0.416,0.93,1.037V752.487z
						 M322.601,747.714c-0.966,0-1.442,1.004-1.442,1.869c0,0.996,0.476,1.9,1.442,1.9c0.994,0,1.461-0.934,1.461-1.838
						C324.062,748.745,323.624,747.714,322.601,747.714"/>
					<path style="fill:#E8E8E0;" d="M326.979,747.12c0-0.621,0.385-1.037,0.93-1.037c0.476,0,0.789,0.258,0.851,0.689
						c0.364-0.506,0.915-0.767,1.795-0.767c1.458,0,2.543,0.93,2.543,2.503v3.566c0,0.623-0.382,1.031-0.926,1.031
						c-0.539,0-0.932-0.408-0.932-1.031v-3.24c0-0.865-0.539-1.277-1.212-1.277c-0.764,0-1.187,0.557-1.187,1.277v3.24
						c0,0.623-0.389,1.031-0.93,1.031c-0.545,0-0.93-0.408-0.93-1.031V747.12z"/>
					<path style="fill:#E8E8E0;" d="M335.654,750.216c0.13,0.912,0.89,1.344,1.757,1.344c0.957,0,1.614-0.746,2.103-0.746
						c0.402,0,0.766,0.395,0.766,0.801c0,0.801-1.656,1.566-3.037,1.566c-2.094,0-3.485-1.519-3.485-3.574
						c0-1.885,1.368-3.601,3.329-3.601c2.016,0,3.344,1.831,3.344,3.384c0,0.553-0.246,0.826-0.813,0.826H335.654z M338.573,748.975
						c-0.103-0.814-0.621-1.418-1.486-1.418c-0.827,0-1.384,0.631-1.471,1.418H338.573z"/>
					<path style="fill:#E8E8E0;" d="M347.442,752.075c0,0.623-0.389,1.031-0.932,1.031c-0.514,0-0.809-0.279-0.927-0.775
						c-0.351,0.57-1.071,0.85-1.704,0.85c-1.871,0-3.058-1.734-3.058-3.492c0-1.814,0.994-3.683,2.997-3.683
						c0.643,0,1.276,0.224,1.766,0.648v-2.533c0-0.619,0.387-1.027,0.927-1.027c0.543,0,0.932,0.408,0.932,1.027V752.075z
						 M344.125,747.714c-0.97,0-1.446,1.014-1.446,1.893c0,0.865,0.476,1.877,1.446,1.877c1.017,0,1.458-1.033,1.458-1.941
						C345.583,748.639,345.118,747.714,344.125,747.714"/>
					<path style="fill:#E8E8E0;" d="M351.959,744.12c0-0.619,0.391-1.027,0.934-1.027c0.543,0,0.928,0.408,0.928,1.027v2.533
						c0.493-0.424,1.122-0.648,1.768-0.648c2.001,0,2.995,1.868,2.995,3.683c0,1.758-1.185,3.492-3.06,3.492
						c-0.633,0-1.355-0.279-1.703-0.85c-0.117,0.496-0.412,0.775-0.928,0.775c-0.543,0-0.934-0.408-0.934-1.031V744.12z
						 M355.279,751.483c0.968,0,1.444-1.012,1.444-1.877c0-0.879-0.476-1.893-1.444-1.893c-0.994,0-1.459,0.926-1.459,1.828
						C353.82,750.45,354.262,751.483,355.279,751.483"/>
					<path style="fill:#E8E8E0;" d="M358.908,747.36c-0.052-0.139-0.092-0.283-0.092-0.475c0-0.469,0.491-0.803,0.879-0.803
						c0.449,0,0.773,0.248,0.93,0.657l1.274,3.503l1.372-3.503c0.155-0.409,0.476-0.657,0.93-0.657c0.387,0,0.875,0.334,0.875,0.803
						c0,0.191-0.025,0.336-0.088,0.475l-3.113,7.75c-0.152,0.385-0.438,0.74-0.877,0.74c-0.632,0-0.966-0.406-0.966-0.801
						c0-0.188,0.052-0.379,0.112-0.547l0.816-2.016L358.908,747.36z"/>
				</g>
			</g>
		</g>
	</g>
</g>
<g id="Objects">
	<g>
		<g>
			<circle style="fill:#96233C;" cx="398.732" cy="134.443" r="62.917"/>
		</g>
		<path style="fill:#6C0014;" d="M459.083,116.658L425.89,95.279v37.211h-26.789v39.569h-28.919l38.151,24.572
			c30.191-4.622,53.317-30.705,53.317-62.188C461.649,128.264,460.743,122.3,459.083,116.658z"/>
		<g>
			<path style="fill:#EACF33;" d="M428.538,168.261c0,2.792-2.262,5.056-5.056,5.056h-49.838c-2.793,0-5.057-2.264-5.057-5.056
				V99.643c0-2.794,2.264-5.058,5.057-5.058h49.838c2.794,0,5.056,2.264,5.056,5.058V168.261z"/>
			<path style="fill:#E29523;" d="M423.482,94.586h-24.867v78.731h24.867c2.794,0,5.056-2.264,5.056-5.056V99.643
				C428.538,96.849,426.276,94.586,423.482,94.586z"/>
			<path style="fill:#FFFFF4;" d="M375.209,110.357c0,1.198-0.969,2.168-2.167,2.168h-8.667c-1.197,0-2.167-0.97-2.167-2.168l0,0
				c0-1.199,0.97-2.168,2.167-2.168h8.667C374.24,108.19,375.209,109.159,375.209,110.357L375.209,110.357z"/>
			<path style="fill:#FFFFF4;" d="M375.209,119.264c0,1.199-0.969,2.168-2.167,2.168h-8.667c-1.197,0-2.167-0.969-2.167-2.168l0,0
				c0-1.196,0.97-2.166,2.167-2.166h8.667C374.24,117.099,375.209,118.068,375.209,119.264L375.209,119.264z"/>
			<path style="fill:#FFFFF4;" d="M375.209,129.138c0,1.196-0.969,2.165-2.167,2.165h-8.667c-1.197,0-2.167-0.969-2.167-2.165l0,0
				c0-1.199,0.97-2.168,2.167-2.168h8.667C374.24,126.97,375.209,127.939,375.209,129.138L375.209,129.138z"/>
			<path style="fill:#FFFFF4;" d="M375.209,138.767c0,1.198-0.969,2.168-2.167,2.168h-8.667c-1.197,0-2.167-0.97-2.167-2.168l0,0
				c0-1.197,0.97-2.166,2.167-2.166h8.667C374.24,136.601,375.209,137.57,375.209,138.767L375.209,138.767z"/>
			<path style="fill:#FFFFF4;" d="M375.209,148.638c0,1.198-0.969,2.167-2.167,2.167h-8.667c-1.197,0-2.167-0.969-2.167-2.167l0,0
				c0-1.196,0.97-2.166,2.167-2.166h8.667C374.24,146.472,375.209,147.442,375.209,148.638L375.209,148.638z"/>
			<path style="fill:#FFFFF4;" d="M375.209,157.547c0,1.196-0.969,2.166-2.167,2.166h-8.667c-1.197,0-2.167-0.97-2.167-2.166l0,0
				c0-1.198,0.97-2.168,2.167-2.168h8.667C374.24,155.379,375.209,156.349,375.209,157.547L375.209,157.547z"/>
			<path style="fill:#FFFFF4;" d="M420.473,126.488c0,2.794-2.263,5.057-5.056,5.057h-31.3c-2.793,0-5.056-2.263-5.056-5.057
				v-13.723c0-2.794,2.264-5.057,5.056-5.057h31.3c2.793,0,5.056,2.263,5.056,5.057V126.488z"/>
			<path style="fill:#FFFFF4;" d="M420.473,137.323c0,1.064-0.882,1.926-1.972,1.926h-37.228c-1.088,0-1.971-0.862-1.971-1.926l0,0
				c0-1.064,0.883-1.926,1.971-1.926h37.228C419.591,135.397,420.473,136.259,420.473,137.323L420.473,137.323z"/>
			<path style="fill:#F0F0DE;" d="M415.418,107.708h-16.802v23.837h16.802c2.793,0,5.056-2.263,5.056-5.057v-13.723
				C420.473,109.971,418.21,107.708,415.418,107.708z"/>
			<path style="fill:#F0F0DE;" d="M418.501,135.397h-19.886v3.851h19.886c1.09,0,1.972-0.862,1.972-1.926
				C420.473,136.259,419.591,135.397,418.501,135.397z"/>
		</g>
	</g>
	<g>
		<g>
			<circle style="fill:#64A6DC;" cx="262.112" cy="134.443" r="62.917"/>
		</g>
		<path style="fill:#4377AE;" d="M324.47,126.172L281.199,98.82l-0.492,58.493h-18.678v11.797l-25.806-0.245l40.224,26.835
			c27.838-6.49,48.582-31.444,48.582-61.257C325.029,131.637,324.826,128.88,324.47,126.172z"/>
		<g>
			<g>
				<g>
					<path style="fill:#FFFFF4;" d="M262.43,134.288c0.002-11.949,9.681-21.628,21.628-21.629l0,0
						c11.945,0.002,21.624,9.681,21.626,21.629l0,0c-0.002,11.945-9.681,21.624-21.626,21.626l0,0
						C272.111,155.912,262.431,146.233,262.43,134.288L262.43,134.288z M270.292,134.288c0.013,7.6,6.163,13.748,13.765,13.763l0,0
						c7.598-0.015,13.746-6.163,13.762-13.763l0,0c-0.016-7.601-6.164-13.75-13.762-13.765l0,0
						C276.456,120.538,270.306,126.687,270.292,134.288L270.292,134.288z"/>
				</g>
				<path style="fill:#FFFFF4;" d="M284.015,101.57c-0.418-1.718-1.96-3.001-3.809-3.001h-42.273c-2.171,0-3.932,1.76-3.932,3.932
					v20.522c0,0.069,0.017,0.133,0.021,0.2v41.529c0,3.309,2.682,5.991,5.991,5.991h37.949c3.31,0,5.993-2.682,5.993-5.991V124.14
					c0.019-0.063,0.046-0.121,0.061-0.186V101.57z"/>
			</g>
			<g>
				<g>
					<path style="fill:#F3F0EC;" d="M262.43,134.288c0.002-11.949,9.681-21.628,21.628-21.629l0,0
						c11.945,0.002,21.624,9.681,21.626,21.629l0,0c-0.002,11.945-9.681,21.624-21.626,21.626l0,0
						C272.111,155.912,262.431,146.233,262.43,134.288L262.43,134.288z M270.292,134.288c0.013,7.6,6.163,13.748,13.765,13.763l0,0
						c7.598-0.015,13.746-6.163,13.762-13.763l0,0c-0.016-7.601-6.164-13.75-13.762-13.765l0,0
						C276.456,120.538,270.306,126.687,270.292,134.288L270.292,134.288z"/>
				</g>
				<path style="fill:#F3F0EC;" d="M280.206,98.569H259.08v72.174h18.881c3.31,0,5.993-2.682,5.993-5.991V124.14
					c0.019-0.063,0.046-0.121,0.061-0.186V101.57C283.597,99.852,282.055,98.569,280.206,98.569z"/>
			</g>
			<g>
				<rect x="264.634" y="98.546" style="fill:#4D3B52;" width="1.966" height="20.645"/>
				<path style="fill:#E29523;" d="M276.431,128.038c0,5.791-4.694,10.485-10.485,10.485c-5.791,0-10.486-4.695-10.486-10.485
					c0-5.791,4.695-10.486,10.486-10.486C271.736,117.553,276.431,122.247,276.431,128.038z"/>
				<path style="fill:#4D3B52;" d="M269.878,128.038c0,2.171-1.761,3.932-3.932,3.932c-2.172,0-3.93-1.761-3.93-3.932
					c0-2.172,1.758-3.93,3.93-3.93C268.116,124.108,269.878,125.867,269.878,128.038z"/>
			</g>
		</g>
	</g>
	<g>
		<g>
			<circle style="fill:#E29523;" cx="125.491" cy="134.443" r="62.917"/>
		</g>
		<path style="fill:#B0701C;" d="M188.049,127.735l-49.26-31.209l0.316,56.67h-6.144v16.958c0,0-33.179-5.898-32.442-1.966
			c0.737,3.932,39.941,27.365,39.941,27.365c27.52-6.719,47.949-31.523,47.949-61.111
			C188.409,132.176,188.283,129.94,188.049,127.735z"/>
		<g>
			<path style="fill:#804218;" d="M154.979,165.762c0,3.375-2.737,6.112-6.112,6.112h-43.363c-3.376,0-6.113-2.737-6.113-6.112
				v-38.778c0-3.376,2.737-6.113,6.113-6.113h43.363c3.375,0,6.112,2.737,6.112,6.113V165.762z"/>
			<path style="fill:#FFFFF4;" d="M99.473,166.718c0.46,2.92,2.98,5.157,6.031,5.157h43.363c3.05,0,5.57-2.237,6.03-5.157H99.473z"
				/>
			<g>
				<g>
					<path style="fill:#FFFFF4;" d="M115.628,120.872V107.5c0.008-4.602,3.802-8.396,8.404-8.406h5.539
						c4.602,0.009,8.397,3.804,8.406,8.406v13.372h6.111V107.5c-0.01-8.007-6.511-14.507-14.518-14.517h-5.539
						c-8.005,0.011-14.506,6.511-14.518,14.517v13.372H115.628z"/>
				</g>
			</g>
			<g>
				<g>
					<g>
						<path style="fill:#E6E5CC;" d="M115.628,120.872V107.5c0.008-4.602,3.802-8.396,8.404-8.406h5.539
							c4.602,0.009,8.397,3.804,8.406,8.406v13.372h2.292v-13.385c-0.018-5.883-4.815-10.674-10.695-10.684h-5.542
							c-5.221,0.009-9.575,3.784-10.507,8.739v15.33H115.628z"/>
					</g>
				</g>
			</g>
			<path style="fill:#571902;" d="M148.513,120.872H125.71v51.003h22.803c3.571,0,6.466-2.737,6.466-6.112v-38.778
				C154.979,123.609,152.084,120.872,148.513,120.872z"/>
			<path style="fill:#E6E5CC;" d="M125.342,166.718v5.157h23.095c3.268,0,5.967-2.237,6.46-5.157H125.342z"/>
		</g>
	</g>
	<g>
		<path style="fill:#64A6DC;" d="M188.831,302.413c0,34.748-28.169,62.915-62.915,62.915C91.169,365.328,63,337.161,63,302.413
			c0-34.747,28.169-62.916,62.915-62.916C160.662,239.497,188.831,267.666,188.831,302.413z"/>
		<path style="fill:#4377AE;" d="M188.467,295.677l-2.598-1.673l-35.39-25.405l-1.721,2.766c0.042,0.032,0.086,0.055,0.128,0.088
			c0.64,0.49,1.265,1.01,1.872,1.552c0.016-0.022,0.034-0.044,0.051-0.067c8.07,6.705,9.656,18.846,6.551,28.613v9.566h-0.246v9.831
			h-12.779l-1.598,18.186l22.133,12.68c14.593-11.519,23.96-29.364,23.96-49.4C188.831,300.136,188.703,297.891,188.467,295.677z"/>
		<g>
			<g>
				<path style="fill:#1E2A39;" d="M131.401,270.026h-13.102c-6.954-0.002-13.219,2.038-17.689,5.614
					c-0.048,0.039-2.51,4.308-2.559,4.346c5.57-3.113,12.262-4.948,26.542-4.424c16.548-1.31,26.846,3.369,27.034,3.113
					c-0.246-0.218-2.281-2.803-2.54-3.013C144.615,272.073,138.351,270.025,131.401,270.026z"/>
				<path style="fill:#FFFFF4;" d="M162.023,289.139c-0.006-7.498-3.265-13.912-8.373-18.297c-0.215-0.184-0.452-0.392-0.737-0.621
					c-5.543-4.432-12.926-6.744-20.859-6.749h-13.101c-7.931,0.005-15.309,2.304-20.858,6.723l-0.048,0.037l-0.024,0.023
					c-5.511,4.395-9.059,11.043-9.044,18.874v0.017c0,0.006,0,0.013,0,0.019c0,14.267,0,14.247,0.003,24.544
					c0,2.081,1.684,3.765,3.767,3.768c2.083-0.005,3.765-1.688,3.767-3.768c0-10.294,0-10.279,0-24.544
					c0.035-5.581,2.282-9.775,6.158-12.975c0.032-0.024,0.089-0.074,0.119-0.1l0.005-0.007c3.934-3.154,9.644-5.07,16.097-5.076
					c0.018,0.001,0.035,0.001,0.051,0h13.497c6.31,0.072,11.889,1.981,15.759,5.098c0.222,0.179,0.445,0.369,0.669,0.568
					c3.537,3.158,5.586,7.233,5.619,12.584c0,13.541,0,24.626,0,24.628c0,2.079,1.684,3.766,3.767,3.766
					c2.08-0.002,3.763-1.682,3.767-3.766c0-0.002,0-11.085,0-24.632C162.025,289.183,162.023,289.144,162.023,289.139z"/>
			</g>
			<g>
				<path style="fill:#1E2A39;" d="M93.124,308.215H92.25c-2.445,0.004-4.41,1.974-4.417,4.415v20.438
					c0.005,2.438,1.972,4.412,4.417,4.416h0.874c2.441-0.006,4.41-1.974,4.414-4.416l0.002-20.438
					C97.531,310.187,95.565,308.219,93.124,308.215z"/>
				<path style="fill:#1E2A39;" d="M158.611,308.215h-0.876c-2.435,0.003-4.413,1.967-4.418,4.414v20.439
					c0.007,2.442,1.978,4.411,4.418,4.416h0.876c2.443-0.005,4.41-1.98,4.411-4.416l0.003-20.439
					C163.023,310.19,161.05,308.215,158.611,308.215z"/>
			</g>
			<g>
				<path style="fill:#FFFFF4;" d="M103.029,310.036c-7.44,0.662-10.654,6.908-10.654,14.519c0,7.611,3.214,13.856,10.654,14.518
					V310.036z"/>
				<path style="fill:#1E2A39;" d="M108.264,338.471c0,0.502-0.41,0.911-0.91,0.911h-6.219c-0.503,0-0.91-0.409-0.91-0.911v-28.21
					c0-0.504,0.407-0.911,0.91-0.911h6.219c0.5,0,0.91,0.407,0.91,0.911V338.471z"/>
			</g>
			<g>
				<path style="fill:#FFFFF4;" d="M147.582,310.036c7.44,0.662,10.654,6.908,10.654,14.519c0,7.611-3.214,13.856-10.654,14.518
					V310.036z"/>
				<path style="fill:#1E2A39;" d="M142.347,338.471c0,0.502,0.41,0.911,0.91,0.911h6.219c0.503,0,0.91-0.409,0.91-0.911v-28.21
					c0-0.504-0.407-0.911-0.91-0.911h-6.219c-0.5,0-0.91,0.407-0.91,0.911V338.471z"/>
			</g>
		</g>
	</g>
	<g>
		
			<ellipse transform="matrix(0.7071 -0.7071 0.7071 0.7071 -136.9438 274.2126)" style="fill:#ABAA76;" cx="262.532" cy="302.412" rx="62.915" ry="62.915"/>
		<g>
			<path style="fill:#ABAA76;" d="M313.532,339.236c7.007-9.689,11.323-21.446,11.849-34.187
				C324.795,316.795,320.35,328.775,313.532,339.236z"/>
			<path style="fill:#767544;" d="M325.447,302.412c0,0.884-0.031,1.761-0.066,2.637
				C325.424,304.168,325.447,303.289,325.447,302.412z"/>
			<path style="fill:#767544;" d="M325.447,302.412c0-4.9-0.579-9.661-1.638-14.24l-27.409-19.226l-7.127,3.195l-0.081,5.571v8.028
				h-8.029v33.916l2.458,2.375l6.062,3.194h0.573v12.534h-14.746v-1.229h-1.72v0.983H229.24l-0.425,1.475l42.797,25.677
				c17.217-2.489,32.169-11.951,41.919-25.43c6.818-10.461,11.264-22.441,11.849-34.187
				C325.417,304.173,325.447,303.296,325.447,302.412z"/>
		</g>
		<g>
			<g>
				<polygon style="fill:#28152C;" points="295.218,268.766 228.369,268.766 228.369,275.441 296.693,275.441 296.693,268.766 				
					"/>
				<g>
					<polygon style="fill:#28152C;" points="232.701,274.997 232.701,276.472 232.701,287.322 238.392,287.322 238.392,274.997 
											"/>
					<polygon style="fill:#28152C;" points="239.371,282.13 239.371,284.587 239.371,323.626 247.03,323.626 247.03,282.13 					"/>
					<polygon style="fill:#28152C;" points="249.976,274.997 249.976,276.472 249.976,287.322 255.666,287.322 255.666,274.997 
											"/>
					<polygon style="fill:#28152C;" points="268.232,274.997 268.232,276.472 268.232,287.322 273.923,287.322 273.923,274.997 
											"/>
					<polygon style="fill:#28152C;" points="286.172,274.997 286.172,276.472 286.172,287.322 291.863,287.322 291.863,274.997 
											"/>
					<polygon style="fill:#28152C;" points="277.642,282.614 277.642,285.073 277.642,323.845 285.299,323.845 285.299,282.614 
											"/>
				</g>
				<polygon style="fill:#28152C;" points="295.219,281.905 228.368,281.905 228.368,287.596 296.692,287.596 296.692,281.905 				
					"/>
			</g>
			<g>
				<polygon style="fill:#28152C;" points="295.218,320.377 228.369,320.377 228.369,327.053 296.693,327.053 296.693,320.377 				
					"/>
				<g>
					<polygon style="fill:#28152C;" points="232.701,326.607 232.701,328.081 232.701,338.932 238.392,338.932 238.392,326.607 
											"/>
					<polygon style="fill:#28152C;" points="249.976,326.607 249.976,328.081 249.976,338.932 255.667,338.932 255.667,326.607 
											"/>
					<polygon style="fill:#28152C;" points="268.232,326.607 268.232,328.081 268.232,338.932 273.921,338.932 273.921,326.607 
											"/>
					<polygon style="fill:#28152C;" points="286.171,326.607 286.171,328.081 286.171,338.932 291.863,338.932 291.863,326.607 
											"/>
				</g>
				<polygon style="fill:#28152C;" points="295.219,333.513 228.369,333.513 228.369,339.207 296.693,339.207 296.693,333.513 				
					"/>
			</g>
			<g>
				<path style="fill:#FFFFF4;" d="M270.951,300.612c2.461,0.99,2.461,2.612,0,3.603l-14.213,7.988
					c-2.459,0.991-4.471-0.368-4.471-3.019v-13.54c0-2.652,2.012-4.011,4.471-3.019L270.951,300.612z"/>
			</g>
			<g>
				<path style="fill:#28152C;" d="M263.344,321.238c-0.081,0-0.163,0-0.245,0c-0.43,0-0.994,0.139-1.252,0.522
					c-0.25,0.373,0.21,0.573,0.519,0.573c0.082,0,0.163,0,0.246,0c0.43,0,0.994-0.139,1.252-0.522
					C264.113,321.438,263.653,321.238,263.344,321.238L263.344,321.238z"/>
			</g>
		</g>
	</g>
	<g>
		
			<ellipse transform="matrix(0.7071 -0.7071 0.7071 0.7071 -96.9298 370.8151)" style="fill:#E8E8E0;" cx="399.148" cy="302.412" rx="62.915" ry="62.915"/>
		
			<ellipse transform="matrix(0.7071 -0.7071 0.7071 0.7071 -96.9298 370.8151)" style="fill:#E8E8E0;" cx="399.148" cy="302.412" rx="62.915" ry="62.915"/>
		<path style="fill:#C2C2B9;" d="M462.006,300.136l-47.845-30.815v37.965h-23.839v32.49l32.496,20.93
			c23.013-9.354,39.245-31.922,39.245-58.294C462.064,301.649,462.033,300.892,462.006,300.136z"/>
		<g>
			<g>
				<g>
					<path style="fill:#DB330A;" d="M374.561,318.764h49.754v-0.004c9.56-0.621,17.128-8.55,17.128-18.267
						c0-9.59-7.368-17.448-16.753-18.247c-3.968-10.009-13.716-17.096-25.137-17.096c-11.42,0-21.168,7.087-25.137,17.096
						c-9.384,0.799-16.752,8.657-16.752,18.247c0,9.64,7.444,17.522,16.894,18.255L374.561,318.764z"/>
				</g>
				<g>
					<path style="fill:#9F1301;" d="M424.69,282.246c-3.968-10.009-13.716-17.096-25.137-17.096c-0.128,0-0.256,0.008-0.384,0.014
						v53.6h25.146v-0.004c9.56-0.621,17.128-8.55,17.128-18.267C441.444,290.904,434.076,283.046,424.69,282.246z"/>
				</g>
				<g>
					<path style="fill:#EBB24A;" d="M416.991,310.736l-13.392-19.344c-3.412-4.677-6.358-4.823-9.417-0.127l-12.877,19.471
						c-1.805,4.482,0.67,8.151,5.503,8.151h0.476v14.668c0,6.602,5.352,7.573,11.954,7.573c6.603,0,11.954-0.97,11.954-7.573
						v-14.668h0.296C416.323,318.887,418.798,315.218,416.991,310.736z"/>
				</g>
				<g>
					<path style="fill:#E17424;" d="M416.991,310.736l-13.392-19.344c-1.601-2.193-3.097-3.377-4.553-3.545v53.278
						c0.065,0,0.127,0.002,0.192,0.002c6.603,0,11.954-0.97,11.954-7.573v-14.668h0.296
						C416.323,318.887,418.798,315.218,416.991,310.736z"/>
				</g>
			</g>
		</g>
	</g>
	<g>
		<ellipse style="fill:#E4C232;" cx="674.284" cy="134.272" rx="62.917" ry="62.747"/>
		<path style="fill:#E29E35;" d="M737.127,131.344l-49.325-31.683v37.021h-13.763v35.231l28.569,18.351l-0.033,0.051
			c20.534-10.331,34.627-31.539,34.627-56.043C737.201,133.29,737.172,132.314,737.127,131.344z"/>
		<g>
			<g>
				<g>
					<path style="fill:#64A6DC;" d="M649.813,149.93h49.757v-0.003c9.559-0.619,17.127-8.527,17.127-18.218
						c0-9.565-7.369-17.401-16.753-18.198c-3.969-9.982-13.717-17.05-25.137-17.05c-11.422,0-21.169,7.068-25.138,17.05
						c-9.386,0.798-16.754,8.633-16.754,18.198c0,9.614,7.444,17.476,16.896,18.206L649.813,149.93z"/>
				</g>
				<g>
					<path style="fill:#5187AB;" d="M699.944,113.51c-3.969-9.982-13.717-17.05-25.137-17.05c-0.094,0-0.185,0.006-0.277,0.011
						v53.46h25.04v-0.003c9.559-0.619,17.127-8.527,17.127-18.218C716.697,122.144,709.328,114.308,699.944,113.51z"/>
				</g>
				<g>
					<path style="fill:#FFFFF4;" d="M656.792,149.373l13.393,19.293c3.412,4.664,6.357,4.81,9.416,0.126l12.878-19.419
						c1.805-4.47-0.672-8.13-5.503-8.13H686.5v-14.628c0-6.584-5.353-7.552-11.954-7.552c-6.603,0-11.955,0.968-11.955,7.552v14.628
						h-0.297C657.46,141.243,654.985,144.902,656.792,149.373z"/>
				</g>
				<g>
					<path style="fill:#D0D5D6;" d="M686.976,141.243H686.5v-14.628c0-6.584-5.353-7.552-11.954-7.552
						c-0.033,0-0.065,0.001-0.098,0.001v53.102c1.751,0.364,3.435-0.742,5.153-3.374l12.878-19.419
						C694.284,144.902,691.807,141.243,686.976,141.243z"/>
				</g>
			</g>
		</g>
	</g>
	<g>
		
			<ellipse transform="matrix(0.974 -0.2267 0.2267 0.974 -54.6072 129.3285)" style="fill:#E8E8E0;" cx="535.765" cy="302.412" rx="62.915" ry="62.915"/>
		<path style="fill:#C2C2B9;" d="M518.817,265.091v19.078c0.157,0.119,0.314,0.231,0.47,0.352
			c4.474,3.346,9.071,6.816,12.935,10.703c5.503,5.535,9.263,11.054,12.345,17.367c-0.029-0.069-0.059-0.138-0.087-0.207
			c0.038,0.086,0.071,0.164,0.108,0.249c1.416,2.904,2.689,5.977,3.921,9.298l-0.945-2.238c2.325,5.903,3.538,10.627,4.254,18.761
			c0.016,0.185,0.02,0.37,0.033,0.555l21.504,13.851l-0.009,0.014c12.002-8.953,20.692-22.089,23.933-37.246L518.817,265.091z"/>
		<g>
			<path style="fill:#64A6DC;" d="M560.445,325.141l-34.198-30.836v-0.018l-15.699-13.748l-3.216,3.674
				c-0.859,0.98-2.349,1.079-3.33,0.219l-10.136-8.877c-1.402,5.933,0.375,12.426,5.215,16.804
				c5.451,4.93,13.181,5.734,19.373,2.615l26.982,23.543c-2.482,6.472-0.908,14.081,4.539,19.009
				c5.369,4.856,12.949,5.703,19.092,2.745l-10.603-9.287c-0.981-0.857-1.079-2.347-0.221-3.328L560.445,325.141z"/>
			<path style="fill:#5187AB;" d="M526.246,294.305l34.198,30.836l0.019,0.016l3.734-4.264c0.859-0.98,2.348-1.08,3.33-0.222
				l10.136,8.879c1.401-5.934-0.375-12.427-5.215-16.805c-5.359-4.848-12.918-5.697-19.055-2.762l-27.107-23.651
				c2.486-6.473,0.912-14.086-4.537-19.015c-5.368-4.857-12.949-5.704-19.091-2.746l10.602,9.287
				c0.981,0.858,1.079,2.348,0.221,3.329l-2.936,3.352l0,0l15.699,13.748V294.305z"/>
		</g>
	</g>
	<g>
		
			<ellipse transform="matrix(0.3901 -0.9208 0.9208 0.3901 131.616 803.5335)" style="fill:#7B7325;" cx="672.381" cy="302.412" rx="62.915" ry="62.916"/>
		<path style="fill:#524C19;" d="M734.162,290.537l-28.32-18.241v47.724h-72.254l0.164,13.271l47.714,31.374
			c30.44-4.404,53.832-30.594,53.832-62.254C735.297,298.35,734.898,294.385,734.162,290.537z"/>
		<g>
			<g>
				<g>
					<path style="fill:#E3BE9E;" d="M711.684,331.556c0,1.671-1.222,3.038-2.713,3.038h-73.193c-1.488,0-2.71-1.367-2.71-3.038
						V284.99c0-1.671,1.222-3.037,2.71-3.037h73.193c1.49,0,2.713,1.367,2.713,3.037V331.556z"/>
				</g>
				<g>
					<g>
						<path style="fill:#804218;" d="M675.131,315.053c-1.346,1.063-3.556,1.075-4.913,0.03l-37.151-28.671v6.074l37.151,28.671
							c1.357,1.046,3.567,1.034,4.913-0.029l36.552-28.859v-6.075L675.131,315.053z"/>
					</g>
					<path style="fill:#E9E9E9;" d="M708.971,281.953h-73.193c-1.488,0-2.71,1.367-2.71,3.037v1.421l37.151,28.671
						c1.357,1.046,3.567,1.033,4.913-0.03l36.552-28.861v-1.202C711.684,283.319,710.461,281.953,708.971,281.953z"/>
				</g>
			</g>
			<g>
				<g>
					<path style="fill:#C29B7A;" d="M708.971,281.953h-36.225v52.641h36.225c1.49,0,2.713-1.367,2.713-3.038V284.99
						C711.684,283.319,710.461,281.953,708.971,281.953z"/>
				</g>
				<g>
					<g>
						<path style="fill:#6B3515;" d="M675.131,315.053c-0.656,0.517-1.517,0.782-2.385,0.8v6.074c0.868-0.018,1.729-0.281,2.385-0.8
							l36.552-28.859v-6.075L675.131,315.053z"/>
					</g>
					<path style="fill:#D2CFCE;" d="M708.971,281.953h-36.225v33.9c0.868-0.018,1.729-0.282,2.385-0.8l36.552-28.861v-1.202
						C711.684,283.319,710.461,281.953,708.971,281.953z"/>
				</g>
			</g>
			<g>
				<path style="fill:#D45820;" d="M715.4,286.609c0,8.687-7.043,15.728-15.729,15.728c-8.687,0-15.729-7.041-15.729-15.728
					c0-8.687,7.042-15.729,15.729-15.729C708.357,270.88,715.4,277.922,715.4,286.609z"/>
				<g>
					<path style="fill:#FFFFF4;" d="M708.928,283.228c1.589,0,2.878,1.287,2.878,2.877l0,0c0,1.591-1.29,2.879-2.878,2.879h-18.951
						c-1.589,0-2.877-1.288-2.877-2.879l0,0c0-1.59,1.288-2.877,2.877-2.877H708.928z"/>
					<path style="fill:#FFFFF4;" d="M702.33,295.582c0,1.587-1.287,2.877-2.876,2.877l0,0c-1.591,0-2.88-1.289-2.88-2.877v-18.951
						c0-1.589,1.289-2.878,2.88-2.878l0,0c1.589,0,2.876,1.289,2.876,2.878V295.582z"/>
				</g>
			</g>
		</g>
	</g>
	<g>
		
			<ellipse transform="matrix(0.2328 -0.9725 0.9725 0.2328 59.9309 1015.1328)" style="fill:#E8A339;" cx="673.384" cy="469.581" rx="61.58" ry="61.58"/>
		<path style="fill:#B0701C;" d="M732.482,452.278l-34.372-22.138v57.761h-29.026v19.564h-24.668l36.126,23.268
			c30.635-3.549,54.422-29.567,54.422-61.153C734.964,463.571,734.087,457.77,732.482,452.278z"/>
		<g>
			<path style="fill:#323E4D;" d="M706.288,500.646c0,4.542-3.682,8.224-8.224,8.224h-48.883c-4.542,0-8.223-3.682-8.223-8.224
				v-52.995c0-4.541,3.681-8.223,8.223-8.223h48.883c4.541,0,8.224,3.682,8.224,8.223V500.646z"/>
			<path style="fill:#1E2F3F;" d="M706.288,462.384v-14.733c0-4.541-3.682-8.223-8.224-8.223h-48.883
				c-4.542,0-8.223,3.682-8.223,8.223v14.733H706.288z"/>
			<g>
				<path style="fill:#DF6E61;" d="M694.898,430.291v1.159c0.973,0.315,1.681,1.218,1.681,2.298c0,1.341-1.086,2.426-2.427,2.426
					c-1.341,0-2.426-1.085-2.426-2.426c0-1.044,0.661-1.927,1.587-2.268v-1.188h-5.153v1.159c0.974,0.315,1.681,1.218,1.681,2.298
					c0,1.341-1.086,2.426-2.427,2.426c-1.341,0-2.427-1.085-2.427-2.426c0-1.044,0.662-1.927,1.587-2.268v-1.188h-5.152v1.159
					c0.972,0.315,1.679,1.218,1.679,2.298c0,1.341-1.086,2.426-2.426,2.426c-1.34,0-2.426-1.085-2.426-2.426
					c0-1.044,0.661-1.927,1.586-2.268v-1.188h-5.152v1.159c0.973,0.315,1.68,1.218,1.68,2.298c0,1.341-1.086,2.426-2.426,2.426
					c-1.34,0-2.427-1.085-2.427-2.426c0-1.044,0.662-1.927,1.586-2.268v-1.188h-5.152v1.159c0.973,0.315,1.68,1.218,1.68,2.298
					c0,1.341-1.085,2.426-2.426,2.426c-1.341,0-2.427-1.085-2.427-2.426c0-1.044,0.662-1.927,1.587-2.268v-1.188h-5.153v1.159
					c0.973,0.315,1.68,1.218,1.68,2.298c0,1.341-1.086,2.426-2.426,2.426c-1.341,0-2.427-1.085-2.427-2.426
					c0-1.044,0.662-1.927,1.587-2.268v-1.188h-5.153v1.159c0.974,0.315,1.681,1.218,1.681,2.298c0,1.341-1.086,2.426-2.427,2.426
					c-1.34,0-2.426-1.085-2.426-2.426c0-1.044,0.661-1.927,1.587-2.268v-1.188h-3.7v29.353h49.341v-29.353H694.898z"/>
			</g>
			<path style="fill:#1E2F3F;" d="M698.064,439.429h-24.488v69.441h24.488c4.541,0,8.224-3.682,8.224-8.224v-52.995
				C706.288,443.111,702.605,439.429,698.064,439.429z"/>
			<g>
				<path style="fill:#C34B44;" d="M694.898,430.291v1.159c0.973,0.315,1.681,1.218,1.681,2.298c0,1.341-1.086,2.426-2.427,2.426
					c-1.341,0-2.426-1.085-2.426-2.426c0-1.044,0.661-1.927,1.587-2.268v-1.188h-5.153v1.159c0.974,0.315,1.681,1.218,1.681,2.298
					c0,1.341-1.086,2.426-2.427,2.426c-1.341,0-2.427-1.085-2.427-2.426c0-1.044,0.662-1.927,1.587-2.268v-1.188h-5.152v1.159
					c0.972,0.315,1.679,1.218,1.679,2.298c0,1.341-1.086,2.426-2.426,2.426c-1.34,0-2.426-1.085-2.426-2.426
					c0-1.044,0.661-1.927,1.586-2.268v-1.188h-5.152v1.159c0.973,0.315,1.68,1.218,1.68,2.298c0,1.341-1.086,2.426-2.426,2.426
					c-0.124,0-0.244-0.014-0.362-0.035v23.505h24.946v-29.353H694.898z"/>
			</g>
			<g>
				<rect x="648.75" y="470.157" style="fill:#FFFFF4;" width="22.064" height="7.205"/>
				<rect x="675.918" y="470.157" style="fill:#FFFFF4;" width="22.065" height="7.205"/>
				<rect x="661.877" y="499.466" style="fill:#64A6DC;" width="22.067" height="7.205"/>
				<rect x="661.877" y="488.208" style="fill:#64A6DC;" width="22.067" height="7.205"/>
				<rect x="656.18" y="462.727" style="fill:#FFFFF4;" width="7.205" height="22.065"/>
			</g>
			<g>
				<polygon style="fill:#FFFFF4;" points="697.037,442.626 697.037,442.626 650.667,442.626 650.667,442.626 650.667,439.657 
					650.667,439.657 697.037,439.657 697.037,439.657 				"/>
				<polygon style="fill:#FFFFF4;" points="697.037,448.45 697.037,448.45 650.667,448.45 650.667,448.45 650.667,445.481 
					650.667,445.481 697.037,445.481 697.037,445.481 				"/>
				<rect x="650.667" y="451.078" style="fill:#FFFFF4;" width="22.957" height="2.969"/>
			</g>
		</g>
	</g>
	<g>
		
			<ellipse transform="matrix(0.3851 -0.9229 0.9229 0.3851 -103.1029 783.8934)" style="fill:#4D3B52;" cx="536.703" cy="469.318" rx="61.83" ry="61.83"/>
		<path style="fill:#28152C;" d="M597.309,458.698l-47.883-30.839v0.049c0.755,1.038,1.46,2.11,2.106,3.213
			c3.535,6.096,5.314,12.672,5.336,19.726c0,10.324-4.15,20.339-11.446,27.635c-2.668,2.65-5.607,4.836-8.796,6.592l0.242,28.811
			l20.327,13.639c23.916-8.541,41.037-31.385,41.037-58.235C598.231,465.675,597.903,462.141,597.309,458.698z"/>
		<g>
			<g>
				<g>
					<g>
						<path style="fill:#E8A339;" d="M519.08,451.74c0-9.727,7.887-17.614,17.615-17.614v-9.27
							c-14.848,0-26.883,12.037-26.883,26.884c0,14.848,26.882,62.313,26.882,62.313l0.001-44.698
							C526.968,469.355,519.08,461.468,519.08,451.74z"/>
						<path style="fill:#E8A339;" d="M536.354,424.858l0.06,9.279c0.471-0.037,1.337,0.045,1.811,0.045
							c4.828,0,9.059,0.933,12.471,4.346c3.412,3.411,5.353,8.095,5.353,12.923c0,4.828-1.941,9.512-5.353,12.923
							c-3.412,3.412-8.437,5.01-13.265,5.01c-0.399,0-0.329,0.002-0.609-0.016c-0.053-0.004-0.221,0.001-0.297-0.004l0.17,44.689
							c1.712-2.991,26.886-47.964,26.886-62.313C563.58,436.922,551.398,424.908,536.354,424.858z"/>
						<path style="fill:#E17424;" d="M536.786,434.131c9.687,0.049,17.524,7.913,17.524,17.609c0,9.698-7.838,17.561-17.524,17.61
							l-0.092,44.703c1.685-2.991,26.886-47.964,26.886-62.313c0-14.817-11.989-26.832-26.794-26.882V434.131z"/>
					</g>
				</g>
			</g>
		</g>
	</g>
	<g>
		<circle style="fill:#4D3B52;" cx="264.091" cy="469.055" r="61.08"/>
		<path style="fill:#28152C;" d="M325.118,466.934l-22.236-14.322v19.222h-3.34v8.351H237.03v15.031h-9.406l48.753,31.4
			l-1.661,2.578c28.665-5.032,50.454-30.033,50.454-60.14C325.171,468.344,325.141,467.639,325.118,466.934z"/>
		<g>
			<path style="fill:#E0A593;" d="M258.952,456.788c-2.505-6.601-5.235-15.932-5.691-18.891c0,0-5.187-0.838-6.666,6.815
				c-0.247,1.272-0.162,3.882,0.294,6.158c0.455,2.276,3.185,7.966-2.049,9.331c-5.236,1.365-12.974-3.869-18.892,0.456
				c0,0-5.461,3.869,0.456,7.965c0,0-7.283,4.553-1.139,9.104c0,0-1.82,1.366-2.048,4.096c-0.198,2.383,1.139,5.236,4.326,5.463
				c0,0-1.85,1.366-2.049,3.414c-0.198,2.048,0.682,4.553,3.641,5.463c0,0,12.518,6.146,33.458-2.503c0,0,5.917-2.96,7.966-3.642
				v-27.54C270.559,462.478,261.455,463.388,258.952,456.788z"/>
			<path style="fill:#EBECEC;" d="M284.215,490.928c0,3.016-2.446,5.463-5.462,5.463h-7.056c-3.017,0-5.463-2.447-5.463-5.463
				v-27.085c0-3.017,2.447-5.463,5.463-5.463h7.056c3.016,0,5.462,2.446,5.462,5.463V490.928z"/>
			<path style="fill:#5D8BA7;" d="M305.381,494.797c0,3.017-2.446,5.462-5.462,5.462h-20.029c-3.017,0-5.463-2.446-5.463-5.462
				v-37.782c0-3.017,2.446-5.462,5.463-5.462h20.029c3.016,0,5.462,2.446,5.462,5.462V494.797z"/>
			<g>
				<path style="fill:#424242;" d="M273.517,487.287c0,1.382-1.121,2.502-2.503,2.502c-1.382,0-2.503-1.12-2.503-2.502
					c0-1.382,1.121-2.504,2.503-2.504C272.396,484.783,273.517,485.905,273.517,487.287z"/>
			</g>
		</g>
	</g>
	<g>
		
			<ellipse transform="matrix(0.2192 -0.9757 0.9757 0.2192 -357.1165 491.2971)" style="fill:#9CC34C;" cx="128.41" cy="468.779" rx="61.83" ry="61.83"/>
		<path style="fill:#6E9329;" d="M187.571,450.782l-19.44-12.52v38.644l-41.18-6.159l-11.714,6.159l2.053,23.307l36.522,24.934
			c21.474-9.693,36.428-31.277,36.428-56.368C190.24,462.518,189.301,456.478,187.571,450.782z"/>
		<g>
			<path style="fill:#E0A593;" d="M123.158,481.216c-2.535,6.683-5.299,16.128-5.761,19.123c0,0-5.25,0.848-6.748-6.899
				c-0.25-1.288-0.164-3.929,0.297-6.233c0.46-2.304,3.225-8.064-2.074-9.446c-5.3-1.382-13.133,3.916-19.124-0.461
				c0,0-5.529-3.916,0.461-8.064c0,0-7.373-4.608-1.153-9.215c0,0-1.843-1.383-2.074-4.148c-0.2-2.411,1.153-5.299,4.379-5.529
				c0,0-1.873-1.384-2.074-3.456c-0.201-2.073,0.69-4.609,3.686-5.53c0,0,12.671-6.222,33.869,2.533c0,0,5.99,2.997,8.064,3.687
				v27.878C134.907,475.457,125.692,474.535,123.158,481.216z"/>
			<path style="fill:#EBECEC;" d="M148.732,446.657c0-3.053-2.477-5.53-5.53-5.53h-7.142c-3.054,0-5.531,2.477-5.531,5.53v27.418
				c0,3.054,2.477,5.53,5.531,5.53h7.142c3.053,0,5.53-2.476,5.53-5.53V446.657z"/>
			<path style="fill:#E8A339;" d="M170.158,442.741c0-3.054-2.476-5.53-5.529-5.53h-20.275c-3.054,0-5.529,2.475-5.529,5.53v38.246
				c0,3.054,2.475,5.53,5.529,5.53h20.275c3.053,0,5.529-2.476,5.529-5.53V442.741z"/>
			<g>
				<path style="fill:#424242;" d="M137.626,473.139c0-1.399-1.135-2.533-2.534-2.533c-1.399,0-2.534,1.134-2.534,2.533
					c0,1.399,1.135,2.534,2.534,2.534C136.491,475.673,137.626,474.538,137.626,473.139z"/>
			</g>
		</g>
	</g>
	<g>
		<g>
			
				<ellipse transform="matrix(0.5496 -0.8354 0.8354 0.5496 -228.4901 848.6433)" style="fill:#E8E8E0;" cx="672.863" cy="636.244" rx="63.182" ry="63.182"/>
		</g>
		<g>
			<path style="fill:#C2C2B9;" d="M736.044,636.244c0-4.861-0.567-9.587-1.606-14.132l-25.576-17.268l-17.071,28.811l-12.875,7.757
				l-6.375,33.706l25.664,19.003C720.478,684.354,736.044,662.122,736.044,636.244z"/>
		</g>
		<g>
			<path style="fill:#DB330A;" d="M711.875,610.471c-2.717-7.908-10.213-13.593-19.042-13.593c-10.256,0-18.715,7.67-19.97,17.584
				c-1.255-9.914-9.714-17.584-19.97-17.584c-8.829,0-16.326,5.685-19.043,13.593c-1.03,2.621-1.464,6.184-1.093,10.973
				c1.702,21.948,34.03,50.743,40.105,54.166c6.006-3.02,38.403-32.218,40.105-54.166
				C713.34,616.655,712.905,613.091,711.875,610.471z"/>
			<path style="fill:#9F1301;" d="M711.875,610.471c-2.717-7.908-10.213-13.593-19.042-13.593c-10.256,0-18.715,7.67-19.97,17.584
				c-0.009-0.067-0.025-0.132-0.035-0.199v61.326c0.01,0.005,0.024,0.015,0.035,0.021c6.006-3.02,38.403-32.218,40.105-54.166
				C713.34,616.655,712.905,613.091,711.875,610.471z"/>
		</g>
	</g>
	<g>
		<circle style="fill:#64A6DC;" cx="399.522" cy="469.568" r="61.08"/>
		<g>
			<path style="fill:#4377AE;" d="M459.723,459.286l-32.782-22.843v6.69c3.324,5.1,4.75,12.57,2.349,18.194
				c1.085,1.836,1.365,4.074,0.952,6.343c-0.529,2.915-1.505,6.053-2.861,9.163c-1.75,4.017-4.14,7.987-7.036,11.381l25.98,20.582
				c8.905-10.613,14.276-24.292,14.276-39.23C460.602,466.061,460.29,462.63,459.723,459.286z"/>
		</g>
		<g>
			<path style="fill:#FFFFF4;" d="M370.343,459.751c0-1.677,0.147-3.378,0.458-5.082c0.804-4.428,2.578-8.403,5.07-11.78
				c1.361-1.844,0.969-4.443-0.876-5.804c-1.843-1.361-4.442-0.969-5.802,0.875c-3.225,4.368-5.528,9.534-6.557,15.224
				c-0.403,2.2-0.595,4.399-0.595,6.567c0.002,10.492,4.511,20.254,11.969,27.063c0.796,0.728,1.798,1.086,2.797,1.086
				c1.125,0,2.247-0.455,3.066-1.352c1.547-1.692,1.427-4.318-0.267-5.864C373.83,475.409,370.34,467.844,370.343,459.751z"/>
			<path style="fill:#FFFFF4;" d="M388.56,469.645c-2.41-2.67-3.829-6.185-3.828-9.908c0-0.875,0.077-1.76,0.239-2.646
				c0.405-2.232,1.273-4.224,2.487-5.939c1.325-1.869,0.887-4.459-0.981-5.785c-1.871-1.327-4.459-0.888-5.787,0.982
				c-1.903,2.677-3.264,5.816-3.884,9.252c-0.254,1.381-0.375,2.77-0.375,4.135c0.002,5.843,2.22,11.321,5.97,15.471
				c0.818,0.907,1.946,1.367,3.079,1.368c0.991,0,1.987-0.353,2.78-1.07c1.702-1.536,1.835-4.162,0.3-5.861L388.56,469.645z"/>
			<path style="fill:#FFFFF4;" d="M435.35,453.186c-1.032-5.692-3.334-10.858-6.559-15.227c-1.362-1.844-3.961-2.236-5.804-0.873
				c-1.844,1.361-2.235,3.959-0.874,5.803c2.491,3.377,4.266,7.351,5.068,11.774c0.308,1.711,0.457,3.413,0.459,5.088
				c0,8.093-3.488,15.659-9.264,20.932c-1.692,1.546-1.812,4.172-0.264,5.864c0.817,0.897,1.938,1.352,3.064,1.352
				c1,0,2.002-0.359,2.799-1.087c7.455-6.81,11.961-16.57,11.965-27.061C435.941,457.582,435.746,455.385,435.35,453.186z"/>
			<path style="fill:#FFFFF4;" d="M422.381,459.737c0-1.369-0.124-2.752-0.373-4.135c-0.622-3.435-1.982-6.575-3.885-9.254
				c-1.327-1.869-3.917-2.307-5.787-0.979c-1.869,1.325-2.308,3.915-0.979,5.784c1.215,1.715,2.081,3.707,2.482,5.925
				c0.164,0.896,0.24,1.788,0.24,2.66c0.003,3.726-1.417,7.24-3.826,9.907c-1.535,1.701-1.403,4.327,0.298,5.863
				c0.793,0.717,1.789,1.07,2.78,1.07c1.133,0,2.262-0.461,3.083-1.368l-0.002-0.001
				C420.163,471.056,422.379,465.578,422.381,459.737z"/>
			<path style="fill:#FFFFF4;" d="M399.267,452.225c-4.355,0-7.885,3.53-7.885,7.886c0,3.167,1.871,5.891,4.566,7.145v34.773
				c0,1.834,1.486,3.32,3.32,3.32c1.833,0,3.321-1.485,3.321-3.32v-34.774c2.694-1.254,4.564-3.977,4.564-7.144
				C407.153,455.755,403.622,452.225,399.267,452.225z"/>
		</g>
	</g>
	<g>
		
			<ellipse transform="matrix(0.7071 -0.7071 0.7071 0.7071 -292.4763 565.3441)" style="fill:#D45820;" cx="536.193" cy="635.722" rx="63.181" ry="63.182"/>
		<path style="fill:#A51201;" d="M598.816,627.436l-50.756-28.304l8.885,62.195l-27.148-33.566l-15.795,42.615l40.218,25.904
			c26.108-7.763,45.154-31.93,45.154-60.558C599.374,632.912,599.172,630.15,598.816,627.436z"/>
		<g>
			<path style="fill:#503324;" d="M537.552,642.357l-20.978-30.629c-1.511-2.207-3.984-2.207-5.495,0l-20.978,30.629
				c-1.511,2.206-0.559,4.012,2.115,4.012h9.456v2.674c0,25.283,30.548,28.443,35.2,25.136c-7.03-6.258-11.198-14.034-11.198-22.463
				c0-1.023-0.046-3.003-0.099-5.347h9.863C538.112,646.369,539.064,644.563,537.552,642.357z"/>
			<path style="fill:#E3BE9E;" d="M530.39,629.606l20.978,30.63c1.512,2.206,3.984,2.206,5.496,0l20.978-30.63
				c1.511-2.207,0.559-4.011-2.115-4.011h-9.456v-2.675c0-25.283-30.548-28.444-35.2-25.136c7.03,6.258,11.198,14.034,11.198,22.462
				c0,1.023,0.045,3.003,0.1,5.348h-9.864C529.831,625.595,528.879,627.399,530.39,629.606z"/>
		</g>
	</g>
	<g>
		<circle style="fill:#E4C232;" cx="400.022" cy="635.89" r="62.681"/>
		<path style="fill:#E29E35;" d="M462.095,627.237l-25.335-16.873l-25.709,9.794l-6.529,19.588h-7.346v26.281h-20.92
			c-0.14,0.301-0.357,0.564-0.658,0.734c-1.337,0.755-3.103,0.699-4.621,0.98c-0.476,0.089-0.619,0.136-1.143,0.164l-0.571,0.285
			l44.198,28.924c28.157-6.153,49.244-31.22,49.244-61.222C462.704,632.953,462.486,630.068,462.095,627.237z"/>
		<g>
			<rect x="406.969" y="613.281" style="fill:#2E3D56;" width="27.59" height="0.006"/>
			<polygon style="fill:#2E3D56;" points="434.565,658.929 434.572,658.929 434.565,636.103 			"/>
			<path style="fill:#2E3D56;" d="M363.405,610.364c-0.629,0.307-1.068,0.939-1.068,1.673v48.154c0,1.031,0.861,1.877,1.914,1.877
				l11.335,0.022h19.564v2.314c-14.722,0.326-25.214,1.901-25.966,3.828h31.338v-11.905h-31.096v-40.424h31.035v-5.539H363.405z"/>
			<polygon style="fill:#2E3D56;" points="406.969,613.285 400.113,613.287 406.969,613.287 			"/>
			<polygon style="fill:#2E3D56;" points="369.425,656.327 400.113,656.327 400.113,651.645 400.113,615.903 369.425,615.903 			"/>
			<polygon style="fill:#2E3D56;" points="400.113,656.327 430.613,656.327 430.613,615.903 400.113,615.903 400.113,651.645 			"/>
			<path style="fill:#1F293B;" d="M400.113,613.287v2.616h30.5v40.424h-30.5v11.905h33.902c-0.765-1.963-13.301-3.563-28.423-3.846
				v-2.299l3.341-0.001v-0.021l26.892-0.007c1.03-0.001,1.875-0.846,1.875-1.879l-0.013-48.154
				c-0.001-0.726-0.423-1.351-1.029-1.662h-36.545V613.287 M423.272,661.338c-0.414,0-0.75-0.336-0.75-0.75
				c0-0.414,0.336-0.752,0.75-0.752c0.415,0,0.75,0.337,0.75,0.752C424.022,661.002,423.687,661.338,423.272,661.338z
				 M428.255,661.338c-0.415,0-0.751-0.336-0.751-0.75c0-0.414,0.336-0.752,0.751-0.752c0.415,0,0.75,0.337,0.75,0.752
				C429.005,661.002,428.67,661.338,428.255,661.338z M433.238,661.338c-0.414,0-0.751-0.336-0.751-0.75
				c0-0.414,0.337-0.752,0.751-0.752c0.414,0,0.75,0.337,0.75,0.752C433.988,661.002,433.652,661.338,433.238,661.338z"/>
			<path style="fill:#2E3D56;" d="M433.238,659.837c-0.414,0-0.751,0.337-0.751,0.752c0,0.414,0.337,0.75,0.751,0.75
				c0.414,0,0.75-0.336,0.75-0.75C433.988,660.174,433.652,659.837,433.238,659.837z"/>
			<path style="fill:#2E3D56;" d="M428.255,659.837c-0.415,0-0.751,0.337-0.751,0.752c0,0.414,0.336,0.75,0.751,0.75
				c0.415,0,0.75-0.336,0.75-0.75C429.005,660.174,428.67,659.837,428.255,659.837z"/>
			<path style="fill:#2E3D56;" d="M423.272,659.837c-0.414,0-0.75,0.337-0.75,0.752c0,0.414,0.336,0.75,0.75,0.75
				c0.415,0,0.75-0.336,0.75-0.75C424.022,660.174,423.687,659.837,423.272,659.837z"/>
		</g>
		<g>
			<rect x="406.969" y="613.281" style="fill:none;" width="27.59" height="0.006"/>
			<polygon style="fill:none;" points="434.565,658.929 434.572,658.929 434.565,636.103 			"/>
			<polygon style="fill:#2E3D56;" points="406.969,613.285 400.113,613.287 406.969,613.287 			"/>
			<polygon style="fill:#FFFFF4;" points="400.113,615.903 369.425,615.903 369.425,656.327 400.113,656.327 430.613,656.327 
				430.613,615.903 			"/>
			<polygon style="fill:#FFFFF4;" points="369.425,656.327 400.113,656.327 400.113,651.645 400.113,615.903 369.425,615.903 			"/>
			<polygon style="fill:#E8E8E0;" points="400.113,656.327 430.613,656.327 430.613,615.903 400.113,615.903 400.113,651.645 			"/>
			<path style="fill:#E8E8E0;" d="M433.238,659.837c-0.414,0-0.751,0.337-0.751,0.752c0,0.414,0.337,0.75,0.751,0.75
				c0.414,0,0.75-0.336,0.75-0.75C433.988,660.174,433.652,659.837,433.238,659.837z"/>
			<path style="fill:#E8E8E0;" d="M428.255,659.837c-0.415,0-0.751,0.337-0.751,0.752c0,0.414,0.336,0.75,0.751,0.75
				c0.415,0,0.75-0.336,0.75-0.75C429.005,660.174,428.67,659.837,428.255,659.837z"/>
			<path style="fill:#E8E8E0;" d="M423.272,659.837c-0.414,0-0.75,0.337-0.75,0.752c0,0.414,0.336,0.75,0.75,0.75
				c0.415,0,0.75-0.336,0.75-0.75C424.022,660.174,423.687,659.837,423.272,659.837z"/>
		</g>
	</g>
	<g>
		<circle style="fill:#E8E8E0;" cx="127.348" cy="636.105" r="63.015"/>
		<path style="fill:#C2C2B9;" d="M113.518,600.351l-3.692,3.233c4.134,4.367,7.161,9.311,10.503,14.245
			c3.627,5.355,18.679,27.629,23.138,32.657c3.196,3.603,5.825,7.166,7.82,11.603c1.347,2.996,2.324,5.951-0.21,8.545
			c-2.258,2.312-6.303,0.494-8.48-0.891c-4.47-2.843-7.508-7.844-10.069-13.109c-0.079-0.112-0.157-0.225-0.235-0.337
			c-0.999-0.977-2.003-1.948-3.008-2.917c0.033,0.106,0.075,0.209,0.107,0.315c0.147,0.496,0.043,0.94-0.195,1.293
			c1.126,1.375,2.299,2.718,3.375,4.098c3.115,3.992,5.943,5.54,5.479,11.092l24.428,18.247
			c13.16-8.854,22.781-22.545,26.351-38.522L113.518,600.351z"/>
		<g>
			<path style="fill:#E29151;" d="M123.261,622.726L111.93,606.54c-1.494-2.123-4.418-2.641-6.547-1.155
				c-2.123,1.491-2.639,4.417-1.153,6.544l8.007,11.437l3.325,4.75l5.401,7.714c-3.822,0.565-7.81-0.989-10.178-4.368
				l-11.333-16.186c-3.334-4.767-2.177-11.33,2.585-14.668c4.769-3.334,11.331-2.177,14.67,2.587l11.333,16.188
				c2.38,3.402,2.459,7.715,0.583,11.123l-4.98-7.114C123.534,623.164,123.41,622.938,123.261,622.726z"/>
			<path style="fill:#B93D33;" d="M124.918,641.482l5.4,7.712l1.652,2.361l9.68,13.827c1.492,2.121,4.417,2.637,6.546,1.155
				c2.121-1.492,2.639-4.417,1.154-6.545l-11.333-16.187c-0.149-0.211-0.316-0.404-0.491-0.583l-4.984-7.118
				c3.844-0.598,7.869,0.952,10.253,4.354l11.333,16.189c3.333,4.767,2.177,11.329-2.588,14.668
				c-4.767,3.335-11.331,2.177-14.67-2.588l-11.332-16.187C123.175,649.16,123.08,644.879,124.918,641.482z"/>
			<path style="fill:#FFFFF4;" d="M138.182,647.208c0.923,1.318,0.602,3.138-0.716,4.061c-1.319,0.924-3.137,0.602-4.062-0.716
				l-19.733-28.189c-0.924-1.318-0.604-3.137,0.716-4.059c1.319-0.923,3.138-0.603,4.06,0.715L138.182,647.208z"/>
			<path style="fill:#64A6DC;" d="M138.182,647.208c0.923,1.318,0.602,3.138-0.716,4.061c-1.319,0.924-3.137,0.602-4.062-0.716
				l-19.733-28.189c-0.924-1.318-0.604-3.137,0.716-4.059c1.319-0.923,3.138-0.603,4.06,0.715L138.182,647.208z"/>
		</g>
	</g>
	<g>
		<circle style="fill:#C73A15;" cx="264.019" cy="636.368" r="61.348"/>
		<path style="fill:#A51201;" d="M319.658,610.524c0,0-22.533-14.357-25.169-15.076c-2.636-0.719,0.719,66.261,0.719,66.261h-56.795
			v13.6l33.112,21.933c30.338-3.703,53.842-29.536,53.842-60.874C325.367,627.132,323.313,618.379,319.658,610.524z"/>
		<g>
			<g>
				<g>
					<path style="fill:#FFFFF4;" d="M293.256,594.99h-2.176v1.154c1.244,0.314,2.148,1.214,2.148,2.289
						c0,1.336-1.388,2.417-3.102,2.417c-1.714,0-3.1-1.081-3.1-2.417c0-1.04,0.846-1.92,2.028-2.26v-1.183h-6.585v1.154
						c1.244,0.314,2.148,1.214,2.148,2.289c0,1.336-1.388,2.417-3.102,2.417c-1.714,0-3.102-1.081-3.102-2.417
						c0-1.04,0.847-1.92,2.028-2.26v-1.183h-6.584v1.154c1.243,0.314,2.146,1.214,2.146,2.289c0,1.336-1.388,2.417-3.1,2.417
						c-1.712,0-3.1-1.081-3.1-2.417c0-1.04,0.845-1.92,2.027-2.26v-1.183h-6.584v1.154c1.243,0.314,2.148,1.214,2.148,2.289
						c0,1.333-1.381,2.41-3.088,2.415c-1.706-0.005-3.088-1.082-3.088-2.415c0-1.075,0.904-1.975,2.147-2.289v-1.154h-6.584v1.183
						c1.181,0.34,2.027,1.22,2.027,2.26c0,1.336-1.388,2.417-3.1,2.417c-1.712,0-3.101-1.081-3.101-2.417
						c0-1.075,0.903-1.975,2.146-2.289v-1.154h-6.584v1.183c1.182,0.34,2.028,1.22,2.028,2.26c0,1.336-1.388,2.417-3.102,2.417
						s-3.102-1.081-3.102-2.417c0-1.075,0.904-1.975,2.148-2.289v-1.154h-6.585v1.183c1.183,0.34,2.028,1.22,2.028,2.26
						c0,1.336-1.387,2.417-3.1,2.417c-1.714,0-3.102-1.081-3.102-2.417c0-1.075,0.904-1.975,2.148-2.289v-1.154h-2.176
						c-1.202,0.18-2.454,0.754-2.454,2.375v53.771h0.023v14.139c0,7.941,5.479,12.461,13.42,12.461h17.95h0.023h17.95
						c7.941,0,13.42-4.521,13.42-12.461v-14.139h0.023c0,0,0-51.274,0-53.771C295.71,595.744,294.458,595.17,293.256,594.99z"/>
				</g>
				<g>
					<path style="fill:#E8E8E0;" d="M293.256,594.99h-2.176v1.154c1.244,0.314,2.148,1.214,2.148,2.289
						c0,1.336-1.388,2.417-3.102,2.417c-1.714,0-3.1-1.081-3.1-2.417c0-1.04,0.846-1.92,2.028-2.26v-1.183h-6.585v1.154
						c1.244,0.314,2.148,1.214,2.148,2.289c0,1.336-1.388,2.417-3.102,2.417c-1.714,0-3.102-1.081-3.102-2.417
						c0-1.04,0.847-1.92,2.028-2.26v-1.183h-6.584v1.154c1.243,0.314,2.146,1.214,2.146,2.289c0,1.336-1.388,2.417-3.1,2.417
						c-1.712,0-3.1-1.081-3.1-2.417c0-1.04,0.845-1.92,2.027-2.26v-1.183h-6.584v1.154c1.243,0.314,2.148,1.214,2.148,2.289
						c0,1.333-1.381,2.41-3.088,2.415l-0.012-0.001v76.889h17.973c7.941,0,13.42-4.521,13.42-12.461v-14.139h0.023
						c0,0,0-51.274,0-53.771C295.71,595.744,294.458,595.17,293.256,594.99z"/>
				</g>
			</g>
			<path style="fill:#C73A15;" d="M293.051,610.717c0,1.279-1.037,2.317-2.317,2.317h-53.04c-1.279,0-2.317-1.038-2.317-2.317l0,0
				c0-1.28,1.037-2.317,2.317-2.317h53.04C292.014,608.4,293.051,609.437,293.051,610.717L293.051,610.717z"/>
			<path style="fill:#C73A15;" d="M293.051,620.622c0,1.28-1.037,2.317-2.317,2.317h-53.04c-1.279,0-2.317-1.037-2.317-2.317l0,0
				c0-1.279,1.037-2.316,2.317-2.316h53.04C292.014,618.306,293.051,619.343,293.051,620.622L293.051,620.622z"/>
			<path style="fill:#C73A15;" d="M293.051,630.527c0,1.28-1.037,2.317-2.317,2.317h-53.04c-1.279,0-2.317-1.037-2.317-2.317l0,0
				c0-1.28,1.037-2.317,2.317-2.317h53.04C292.014,628.211,293.051,629.247,293.051,630.527L293.051,630.527z"/>
			<path style="fill:#C73A15;" d="M264.135,638.435h-26.44c-1.279,0-2.317,1.037-2.317,2.317c0,1.279,1.037,2.317,2.317,2.317h26.44
				V638.435z"/>
		</g>
	</g>
	<g>
		<g>
			<path style="fill:#D45820;" d="M598.27,134.442c0,34.749-28.17,62.918-62.917,62.918c-34.749,0-62.917-28.169-62.917-62.918
				c0-34.748,28.168-62.917,62.917-62.917C570.1,71.525,598.27,99.694,598.27,134.442z"/>
		</g>
		<g>
			<path style="fill:#A51201;" d="M597.946,128.029l-56.653-29.264l-2.339,3.391c0.633,0.771-2.985,4.604-2.454,5.456
				c4.178,6.513,10.814,7.413,10.814,12.903c0,5.023-5.161,8.848-8.971,11.551c-2.141,1.519-0.894,3.32-3.28,4.275v25.256h-19.17
				v4.915l-7.657,2.419l43.282,26.323c26.912-7.137,46.751-31.652,46.751-60.811C598.27,132.277,598.16,130.137,597.946,128.029z"/>
		</g>
		<g>
			<path style="fill:#E8E8E0;" d="M566.902,164.681c0,3.121-2.531,5.652-5.653,5.652h-49.464c-3.122,0-5.653-2.531-5.653-5.652
				v-24.733c0-3.122,2.531-5.652,5.653-5.652h49.464c3.122,0,5.653,2.53,5.653,5.652V164.681z"/>
			<g>
				<path style="fill:#DD782D;" d="M528.827,148.157c1.514,0,2.744,1.228,2.744,2.744l0,0c0,1.515-1.229,2.744-2.744,2.744H510.76
					c-1.515,0-2.744-1.229-2.744-2.744l0,0c0-1.516,1.229-2.744,2.744-2.744H528.827z"/>
				<path style="fill:#DD782D;" d="M522.537,159.936c0,1.514-1.227,2.743-2.743,2.743l0,0c-1.516,0-2.745-1.229-2.745-2.743v-18.068
					c0-1.514,1.229-2.742,2.745-2.742l0,0c1.516,0,2.743,1.229,2.743,2.742V159.936z"/>
			</g>
			<g>
				<g>
					<path style="fill:#E8E8E0;" d="M534.994,136.437c0-0.008-0.007-0.05-0.009-0.159l0,0c0.025-3.089,2.065-5.245,4.159-6.994l0,0
						c2.129-1.761,4.527-3.293,5.951-4.841l0,0c0.96-1.039,1.424-1.953,1.424-2.926l0,0c-0.001-0.762-0.282-1.719-1.188-2.987l0,0
						c-0.94-1.319-2.442-2.293-4.134-3.354l0,0c-1.671-1.067-3.536-2.226-4.871-4.195l0,0c-0.911-1.348-1.35-2.794-1.346-4.183l0,0
						c0.033-3.298,2.224-5.955,4.748-7.74l0,0c0.138-0.094,0.275-0.19,0.412-0.283l0,0c0.645-0.439,1.525-0.272,1.964,0.374l0,0
						c0.439,0.644,0.272,1.522-0.373,1.963l0,0c-0.13,0.088-0.258,0.175-0.383,0.262l0,0c-2.099,1.46-3.573,3.536-3.542,5.424l0,0
						c0.005,0.818,0.235,1.661,0.865,2.605l0,0c0.896,1.344,2.359,2.329,4.04,3.385l0,0c1.659,1.059,3.533,2.186,4.914,4.094l0,0
						c1.141,1.584,1.722,3.137,1.719,4.636l0,0c0.004,1.457-0.553,2.748-1.331,3.822l0,0c-0.781,1.078-1.781,1.992-2.841,2.852l0,0
						c-2.116,1.703-4.494,3.249-5.912,4.869l0,0c-0.939,1.072-1.43,2.057-1.447,3.166l0,0c0.037,0.748-0.519,1.402-1.271,1.476l0,0
						c-0.048,0.006-0.097,0.008-0.144,0.008l0,0C535.68,137.711,535.066,137.166,534.994,136.437L534.994,136.437z"/>
				</g>
			</g>
			<path style="fill:#C9C8AF;" d="M561.053,134.296h-25.544v36.037h25.544c3.23,0,5.848-2.531,5.848-5.652v-24.733
				C566.902,136.827,564.283,134.296,561.053,134.296z"/>
			<g>
				<path style="fill:#4D87C7;" d="M544.526,146.543c2.472,0,4.475,2.004,4.475,4.476c0,2.471-2.004,4.476-4.475,4.476
					c-2.472,0-4.476-2.005-4.476-4.476C540.051,148.547,542.055,146.543,544.526,146.543z"/>
				<path style="fill:#BC3320;" d="M560.306,146.543c2.472,0,4.475,2.004,4.475,4.476c0,2.471-2.003,4.476-4.475,4.476
					s-4.476-2.005-4.476-4.476C555.831,148.547,557.834,146.543,560.306,146.543z"/>
				<path style="fill:#DD782D;" d="M556.892,143.128c0,2.47-2.004,4.476-4.476,4.476c-2.471,0-4.477-2.006-4.477-4.476
					c0-2.473,2.005-4.478,4.477-4.478C554.888,138.651,556.892,140.656,556.892,143.128z"/>
				<path style="fill:#86C679;" d="M556.892,158.908c0,2.471-2.004,4.476-4.476,4.476c-2.471,0-4.477-2.005-4.477-4.476
					c0-2.472,2.005-4.475,4.477-4.475C554.888,154.433,556.892,156.436,556.892,158.908z"/>
			</g>
			<g>
				<path style="fill:#DD782D;" d="M541.346,161.382c0,1.625-1.318,2.945-2.944,2.945h-7.066c-1.627,0-2.945-1.319-2.945-2.945l0,0
					c0-1.626,1.318-2.944,2.945-2.944h7.066C540.028,158.439,541.346,159.757,541.346,161.382L541.346,161.382z"/>
			</g>
		</g>
	</g>
</g>
</svg>
