<svg width="238" height="245" viewBox="0 0 238 245" fill="none" xmlns="http://www.w3.org/2000/svg">
<g opacity="0.12">
<path d="M161.766 66.8553C144.542 58.7603 128.534 47.7183 110.219 42.5473C92.3514 37.5023 72.7754 38.4733 55.6434 45.6303C38.5104 52.7873 23.9784 66.1483 15.7604 82.7993C7.22243 100.097 5.63344 120.128 7.56344 139.321C9.94544 163.015 17.8854 186.819 33.9804 204.371C47.8344 219.479 66.7994 229.019 86.2594 235.462C107.006 242.331 129.252 246.041 150.798 242.387C173.921 238.465 195.375 225.949 210.672 208.172C225.97 190.393 235.103 167.539 236.935 144.158C238.53 123.798 233.906 101.631 218.871 87.8103C203.974 74.1133 180.837 75.8163 161.766 66.8553Z" fill="#0D124C"/>
<path d="M139.724 133.43C110.349 130.034 111.849 95.6583 62.2774 98.7413C26.1724 100.986 13.2494 132.3 8.89145 149.15C12.3124 169.484 20.1144 189.249 33.9804 204.37C47.8344 219.478 66.8004 229.018 86.2594 235.461C107.006 242.33 129.252 246.04 150.798 242.386C173.921 238.464 195.375 225.948 210.672 208.171C225.969 190.392 235.103 167.538 236.935 144.157C237.434 137.785 237.324 131.236 236.476 124.822C189.678 79.4073 166.665 136.545 139.724 133.43Z" fill="#0D124C"/>
<path opacity="0.15" d="M193.092 167.145C219.4 159.446 219.789 129.74 219.789 129.74L186.983 133.575L165.433 116.565L122.032 95.5301V86.6531C130.915 85.5921 136.487 77.0601 136.487 77.0601C151.346 83.2911 154.241 70.5391 154.241 70.5391L150.783 61.3051C141.624 56.4421 132.597 51.2771 123.144 47.2071L66.2434 46.5781C63.8634 59.7651 76.5924 59.9921 76.5924 59.9921L73.8904 69.5311C77.8074 89.5261 93.7744 77.6471 93.7744 77.6471C98.7914 87.8751 111.849 87.3161 111.849 87.3161V95.6581C111.849 95.6581 65.1484 116.5 56.6754 156.517C48.2024 196.535 83.5674 211.187 83.5674 211.187L82.1414 234.042C83.5104 234.529 84.8834 235.005 86.2594 235.46C107.006 242.329 129.252 246.039 150.798 242.385C162.571 240.388 173.906 236.153 184.222 230.141C180.359 198.899 163.985 180.922 163.985 180.922L166.494 168.475L164.082 167.144L164.945 163.246C172.322 167.585 181.938 170.409 193.092 167.145Z" fill="#0D124C"/>
<path d="M124.068 49.8752C123.072 49.4982 121.849 50.4812 122.003 51.5332C122.155 52.5872 123.606 53.1822 124.454 52.5392C125.302 51.8962 125.145 50.2822 124.068 49.8752Z" fill="#0D124C" stroke="#0D124C" stroke-width="0.9756" stroke-miterlimit="10" stroke-linecap="round" stroke-linejoin="round"/>
<path d="M219.341 16.2856C218.564 13.1396 216.017 10.7066 212.839 10.0686C197.978 7.08165 182.673 7.15864 167.83 9.85364C164.006 10.5476 161.114 13.7206 160.811 17.5946C159.779 30.7956 159.814 43.9306 160.867 56.9856C161.186 60.9316 164.196 64.1136 168.106 64.7296C168.646 64.8146 169.188 64.8886 169.729 64.9676C169.694 68.0706 169.668 71.2046 169.742 74.6846C172.225 71.9026 174.472 68.9156 176.487 65.7796C189.795 67.0366 203.288 66.3357 216.388 63.6817C220.346 62.8787 223.209 59.4447 223.275 55.4057C223.509 41.0567 222.317 28.3356 219.341 16.2856Z" fill="#0D124C"/>
<path opacity="0.15" d="M223.273 55.4071C223.354 50.5051 223.253 45.8061 222.986 41.2461C201.552 54.2691 171.401 51.0141 160.372 49.2301C160.5 51.8181 160.657 54.4041 160.865 56.9871C161.184 60.9331 164.194 64.1151 168.104 64.7311C168.644 64.8161 169.186 64.8901 169.727 64.9691C169.692 68.0721 169.666 71.2061 169.74 74.6861C172.223 71.9041 174.47 68.9171 176.485 65.7811C189.793 67.0381 203.286 66.3371 216.386 63.6831C220.345 62.8791 223.207 59.4451 223.273 55.4071Z" fill="#0D124C"/>
<path d="M171.674 9.21582C170.389 9.40882 169.108 9.62182 167.829 9.85382" stroke="#0D124C" stroke-width="1.0204" stroke-miterlimit="10" stroke-linecap="round" stroke-linejoin="round"/>
<path d="M164.189 11.4454C162.28 12.8834 161.005 15.0934 160.809 17.5954C159.777 30.7964 159.812 43.9314 160.865 56.9864C161.184 60.9324 164.194 64.1144 168.104 64.7304C168.644 64.8154 169.186 64.8894 169.727 64.9684C169.692 68.0714 169.666 71.2054 169.74 74.6854C172.223 71.9034 174.47 68.9164 176.485 65.7804C189.793 67.0374 203.286 66.3364 216.386 63.6824C220.344 62.8794 223.207 59.4454 223.273 55.4064C223.509 41.0574 222.317 28.3364 219.34 16.2864C218.563 13.1404 216.016 10.7074 212.838 10.0694C201.806 7.85238 190.53 7.32338 179.379 8.30038" stroke="#0D124C" stroke-width="1.0204" stroke-miterlimit="10" stroke-linecap="round" stroke-linejoin="round"/>
<path d="M186.503 43.6001C185.948 43.3101 185.426 42.7851 184.935 42.0231C184.443 41.2621 184.195 40.3611 184.19 39.3211C184.185 38.3141 184.449 37.5571 184.983 37.0491C185.517 36.5431 186.303 36.1571 187.342 35.8921L191.141 34.9461C192.764 34.5161 193.573 33.7311 193.567 32.5931C193.564 31.9761 193.26 31.4411 192.657 30.9881C192.053 30.5361 191.02 30.3141 189.558 30.3211C188.225 30.3281 186.974 30.5051 185.806 30.8521C184.637 31.1991 183.696 31.6021 182.983 32.0611C182.428 31.6421 181.954 31.1321 181.561 30.5321C181.168 29.9331 180.969 29.2101 180.965 28.3651C180.961 27.5201 181.201 26.7791 181.685 26.1421C182.17 25.5061 182.841 24.9831 183.701 24.5721C184.56 24.1621 185.582 23.8561 186.769 23.6541C187.954 23.4531 189.262 23.3491 190.693 23.3411C194.528 23.3221 197.434 24.1611 199.41 25.8571C201.385 27.5541 202.379 29.7851 202.394 32.5471C202.42 37.7481 198.763 41.0991 191.424 42.5991L186.503 43.6001ZM184.926 49.9961C184.919 48.6631 185.328 47.5641 186.153 46.6981C186.977 45.8331 188.121 45.3961 189.584 45.3891C191.047 45.3821 192.195 45.8071 193.028 46.6631C193.861 47.5201 194.281 48.6161 194.288 49.9481C194.295 51.2811 193.886 52.3811 193.061 53.2461C192.236 54.1111 191.093 54.5481 189.63 54.5551C188.167 54.5621 187.019 54.1371 186.186 53.2811C185.353 52.4251 184.933 51.3301 184.926 49.9961Z" fill="#0D124C"/>
<path d="M83.2965 103.825C76.7915 108.296 71.1624 114.007 66.8374 120.611C56.5464 136.328 53.8495 156.783 59.7145 174.63C65.5805 192.479 79.8864 207.345 97.4964 213.891C97.4964 213.891 99.1455 178.509 94.7545 148.984C90.3645 119.459 83.2965 103.825 83.2965 103.825Z" fill="#0D124C"/>
<path d="M62.3644 164.745C62.0224 167.163 62.7004 169.709 64.1994 171.638" stroke="#0D124C" stroke-width="1.0204" stroke-miterlimit="10" stroke-linecap="round" stroke-linejoin="round"/>
<path d="M155.006 150.24C162.023 156.834 170.776 161.805 180.287 163.305C189.798 164.806 200.06 162.588 207.439 156.401C214.262 150.677 218.138 142.157 220.514 133.575C225.809 114.458 223.526 92.0712 215.969 73.7322L203.022 71.2912C202.506 69.3962 201.868 67.5352 201.113 65.7222C200.119 63.3352 198.852 60.9472 196.775 59.4062C196.223 58.9972 195.526 58.6402 194.87 58.8502C194.006 59.1262 193.712 60.2092 193.749 61.1152C193.824 62.8982 194.63 64.5532 195.295 66.2082C197.22 71.0002 198.045 76.1542 198.698 81.2772L198.28 87.5402C200.418 96.3092 201.011 105.95 199.934 115.401C199.382 120.246 198.014 125.608 193.825 128.102C189.727 130.541 184.284 129.232 180.423 126.432C176.562 123.633 173.824 119.595 170.744 115.953C166.005 110.35 160.273 105.636 153.93 101.962C153.93 101.962 149.956 114.057 150.651 123.513C151.345 132.967 155.006 150.24 155.006 150.24Z" fill="#0D124C"/>
<path d="M222.883 120.84C219.236 133.573 210.585 153.161 191.679 154.594C170.164 156.225 157.545 144.379 152.777 138.685C153.892 144.984 155.006 150.241 155.006 150.241C162.023 156.835 170.776 161.806 180.287 163.306C189.799 164.807 200.06 162.589 207.439 156.402C214.261 150.678 218.138 142.158 220.514 133.576C221.654 129.46 222.422 125.187 222.883 120.84Z" fill="#0D124C"/>
<path d="M196.485 154.357C198.98 155.222 202.041 153.631 202.768 151.092" stroke="#0D124C" stroke-width="1.0204" stroke-miterlimit="10" stroke-linecap="round" stroke-linejoin="round"/>
<path d="M155.006 150.24C162.023 156.834 170.776 161.805 180.287 163.305C189.798 164.806 200.06 162.588 207.439 156.401C214.262 150.677 218.138 142.157 220.514 133.575" stroke="#0D124C" stroke-width="1.0204" stroke-miterlimit="10" stroke-linecap="round" stroke-linejoin="round"/>
<path d="M208.183 69.2957C207.626 68.8437 207.195 68.2597 206.723 67.7187C206.253 67.1777 205.716 66.6597 205.043 66.4087C204.371 66.1567 203.536 66.2267 203.039 66.7437C202.605 67.1927 202.511 67.8607 202.44 68.4797C202.033 71.9757 201.648 75.5897 202.682 78.9547C202.982 79.9277 203.547 80.9917 204.548 81.1737C205.313 81.3127 206.088 80.8527 206.544 80.2227C206.999 79.5927 207.195 78.8167 207.37 78.0587C208.032 75.1827 208.501 72.1917 208.183 69.2957Z" fill="#0D124C"/>
<path d="M208.183 69.2957C207.626 68.8437 207.195 68.2597 206.723 67.7187C206.253 67.1777 205.716 66.6597 205.043 66.4087C204.371 66.1567 203.536 66.2267 203.039 66.7437C202.605 67.1927 202.511 67.8607 202.44 68.4797C202.033 71.9757 201.648 75.5897 202.682 78.9547C202.982 79.9277 203.547 80.9917 204.548 81.1737C205.313 81.3127 206.088 80.8527 206.544 80.2227C206.999 79.5927 207.195 78.8167 207.37 78.0587C208.032 75.1827 208.501 72.1917 208.183 69.2957Z" stroke="#0D124C" stroke-width="1.0204" stroke-miterlimit="10" stroke-linecap="round" stroke-linejoin="round"/>
<path d="M212.471 75.073C212.676 72.691 212.866 70.2 211.902 68.001C211.563 67.225 210.996 66.443 210.138 66.267C209.332 66.102 208.491 66.547 207.994 67.18C207.497 67.814 207.28 68.605 207.113 69.379C206.396 72.674 206.371 76.117 207.172 79.387C207.289 79.865 207.428 80.348 207.705 80.759C207.985 81.169 208.427 81.504 208.935 81.55C209.859 81.635 210.583 80.805 211.005 80.01C211.799 78.516 212.319 76.839 212.471 75.073Z" fill="#0D124C"/>
<path d="M212.471 75.073C212.676 72.691 212.866 70.2 211.902 68.001C211.563 67.225 210.996 66.443 210.138 66.267C209.332 66.102 208.491 66.547 207.994 67.18C207.497 67.814 207.28 68.605 207.113 69.379C206.396 72.674 206.371 76.117 207.172 79.387C207.289 79.865 207.428 80.348 207.705 80.759C207.985 81.169 208.427 81.504 208.935 81.55C209.859 81.635 210.583 80.805 211.005 80.01C211.799 78.516 212.319 76.839 212.471 75.073Z" stroke="#0D124C" stroke-width="1.0204" stroke-miterlimit="10" stroke-linecap="round" stroke-linejoin="round"/>
<path d="M216.619 73.8417C216.854 72.2527 216.673 70.5947 216.099 69.0917C215.78 68.2537 215.223 67.3767 214.371 67.2457C213.724 67.1477 213.082 67.5347 212.69 68.0737C212.299 68.6147 212.115 69.2867 211.975 69.9497C211.371 72.8017 211.433 75.8417 212.373 78.6107C212.633 79.3767 213.111 80.2357 213.887 80.2757C214.598 80.3137 215.131 79.6287 215.459 78.9757C216.225 77.4617 216.345 75.6957 216.619 73.8417Z" fill="#0D124C"/>
<path d="M216.619 73.8417C216.854 72.2527 216.673 70.5947 216.099 69.0917C215.78 68.2537 215.223 67.3767 214.371 67.2457C213.724 67.1477 213.082 67.5347 212.69 68.0737C212.299 68.6147 212.115 69.2867 211.975 69.9497C211.371 72.8017 211.433 75.8417 212.373 78.6107C212.633 79.3767 213.111 80.2357 213.887 80.2757C214.598 80.3137 215.131 79.6287 215.459 78.9757C216.225 77.4617 216.345 75.6957 216.619 73.8417Z" stroke="#0D124C" stroke-width="1.0204" stroke-miterlimit="10" stroke-linecap="round" stroke-linejoin="round"/>
<path d="M198.282 87.5395C197.692 86.2345 196.439 85.3855 195.327 84.4855C194.215 83.5835 193.122 82.4135 193.092 80.9825C193.064 79.7005 193.898 78.5805 194.691 77.5735C196.304 75.5245 197.985 73.4184 200.283 72.1864C200.947 71.8294 201.874 71.5965 202.373 72.1595C202.874 72.7245 202.534 73.6044 202.175 74.2684C201.209 76.0554 200.241 77.8435 199.473 80.2745C204.581 77.9505 211.104 79.2355 214.952 83.3235" fill="#0D124C"/>
<path d="M198.282 87.5395C197.692 86.2345 196.439 85.3855 195.327 84.4855C194.215 83.5835 193.122 82.4135 193.092 80.9825C193.064 79.7005 193.898 78.5805 194.691 77.5735C196.304 75.5245 197.985 73.4184 200.283 72.1864C200.947 71.8294 201.874 71.5965 202.373 72.1595C202.874 72.7245 202.534 73.6044 202.175 74.2684C201.209 76.0554 200.241 77.8435 199.473 80.2745C204.581 77.9505 211.104 79.2355 214.952 83.3235" stroke="#0D124C" stroke-width="1.0204" stroke-miterlimit="10" stroke-linecap="round" stroke-linejoin="round"/>
<path d="M144.598 97.4776C134.938 93.7186 124.415 92.1816 114.105 93.2956C105.711 93.7086 97.6264 95.9556 90.3224 99.6556C90.3224 99.6556 90.9844 118.886 108.428 124.769C125.872 130.652 136.945 121.334 140.924 113.67C145.283 105.276 144.598 97.4776 144.598 97.4776Z" fill="#0D124C"/>
<path d="M145.053 97.6585C143.025 102.971 140.142 108.178 136.486 112.32C131.851 117.573 124.778 121.014 117.779 121.297C111.33 121.558 104.966 118.782 100.194 114.436C95.7814 110.415 92.6494 105.142 90.5764 99.5305L90.3234 99.6565C87.8884 100.889 85.5404 102.285 83.2974 103.827L83.2984 103.828C83.1184 127.621 84.4824 151.443 87.5514 175.646C110.8 178.575 134.537 177.594 158.222 172.755C163.675 160.625 162.269 146.576 159.593 133.547C157.442 123.07 154.526 112.574 153.928 101.962H153.931C150.943 100.231 147.819 98.7315 144.599 97.4785" fill="#0D124C"/>
<path opacity="0.15" d="M158.221 172.756C159.266 170.431 160.055 168.035 160.636 165.589C154.285 163.203 134.877 156.496 118.667 157.026C103.155 157.533 90.7664 162.033 86.2084 163.918C86.6164 167.819 87.0524 171.726 87.5494 175.646C110.798 178.574 134.536 177.595 158.221 172.756Z" fill="#0D124C"/>
<path d="M100.479 146.24C111.321 144.675 122.277 143.898 133.231 143.92" stroke="#0D124C" stroke-width="1.0204" stroke-miterlimit="10" stroke-linecap="round" stroke-linejoin="round"/>
<path d="M83.5685 168.101C84.8005 172.424 86.1235 177.382 88.1515 183.382C87.0865 200.361 86.0245 217.349 85.0565 235.05C85.4585 235.186 85.8575 235.328 86.2595 235.461C107.006 242.33 129.252 246.04 150.798 242.386C160.915 240.67 170.713 237.309 179.815 232.581C177.692 213.298 171.232 195.989 160.973 181.298C160.906 176.866 161.769 172.726 162.631 168.586C137.259 160.446 109.392 160.658 83.5685 168.101Z" fill="#0D124C"/>
<path opacity="0.15" d="M132.401 243.797C131.5 235.762 130.599 227.726 129.698 219.689C124.812 219.574 121.206 217.02 119.379 213.768C118.15 211.583 117.553 209.138 117.173 206.644C114.361 219.338 125.775 224.344 125.775 224.344V243.568C127.984 243.708 130.192 243.779 132.401 243.797Z" fill="#0D124C"/>
<path d="M116.724 202.983C117.121 206.691 117.553 210.516 119.38 213.767C121.207 217.019 124.813 219.573 129.699 219.689C130.599 227.726 131.5 235.762 132.401 243.797" stroke="#0D124C" stroke-width="1.0204" stroke-miterlimit="10" stroke-linecap="round" stroke-linejoin="round"/>
<path d="M161.708 181.047C137.639 186.757 112.547 188.134 87.9974 185.09C87.2904 185.002 86.7654 184.388 86.7834 183.676C86.8044 182.867 87.5124 182.256 88.3164 182.347C112.567 185.101 137.282 183.731 161.078 178.313C161.798 178.149 162.518 178.578 162.712 179.291L162.723 179.333C162.927 180.087 162.468 180.867 161.708 181.047Z" fill="#0D124C"/>
<path d="M88.0345 37.486C84.4525 33.628 79.0074 30.914 73.9384 32.339C71.2244 33.101 68.8975 34.993 67.3485 37.349C63.7795 42.775 64.6844 50.703 69.3864 55.183C74.0884 59.663 82.0504 60.187 87.2984 56.36L88.0345 37.486Z" fill="#0D124C"/>
<path opacity="0.15" d="M83.1685 33.6982C79.2275 38.6452 76.6014 48.8082 80.9254 58.8002C83.2134 58.5232 85.4294 57.7222 87.2994 56.3592L88.0354 37.4852C86.6494 35.9922 84.9825 34.6752 83.1685 33.6982Z" fill="#0D124C"/>
<path d="M137.644 31.3606C140.57 27.3706 145.659 25.0766 150.587 25.5266C155.514 25.9776 160.103 29.1546 162.259 33.6086C164.414 38.0616 164.058 43.6326 161.353 47.7756C159.307 50.9126 156.038 53.1746 152.449 54.2386C148.859 55.3036 144.972 55.2086 141.359 54.2226L137.644 31.3606Z" fill="#0D124C"/>
<path opacity="0.15" d="M145.082 54.8955C151.98 41.5575 144.471 31.5345 141.146 28.0195C139.801 28.9265 138.604 30.0495 137.643 31.3595L141.358 54.2225C142.576 54.5545 143.825 54.7765 145.082 54.8955Z" fill="#0D124C"/>
<path d="M141.336 59.0199C143.15 54.1089 144.397 48.9219 144.283 43.6869C144.168 38.4529 142.61 33.1509 139.301 29.0939C136.604 25.7879 132.854 23.4329 128.83 22.0109C124.807 20.5889 120.511 20.0599 116.245 20.0059C109.137 19.9119 101.899 21.1569 95.6385 24.5229C89.3785 27.8899 84.1765 33.5279 82.2105 40.3589C80.2455 47.1899 81.8745 55.1559 86.8995 60.5989C86.5685 62.9839 87.9715 65.3559 89.9005 66.7979C91.8305 68.2369 94.2175 68.9089 96.5675 69.4399C105.112 71.3689 113.995 71.7969 122.686 70.6989C126.465 70.2209 130.272 69.4349 133.622 67.6229C136.973 65.8099 139.912 62.8759 141.336 59.0199Z" fill="#0D124C"/>
<path d="M110.19 77.0605C110.036 83.6755 110.196 90.2995 110.57 97.1385C114.829 97.7515 119.181 97.7115 123.708 97.0595C123.711 90.6995 123.291 84.3395 122.454 78.0335L110.19 77.0605Z" fill="#0D124C"/>
<path d="M123.307 86.4386C123.101 83.6296 122.826 80.8256 122.455 78.0326L110.191 77.0596C110.114 80.3656 110.115 83.6736 110.183 87.0096C113.611 88.0206 119.223 88.9986 123.307 86.4386Z" fill="#0D124C"/>
<path d="M87.7964 54.9472C82.1124 53.3722 75.5024 56.7012 73.3854 62.2062C71.2694 67.7112 73.9454 74.6132 79.2204 77.2502C84.4954 79.8892 91.6224 77.8892 94.7564 72.8932L87.7964 54.9472Z" fill="#0D124C"/>
<path d="M77.7344 66.67C79.4074 63.825 82.7344 62.036 86.0324 62.211" stroke="#0D124C" stroke-width="1.0204" stroke-miterlimit="10" stroke-linecap="round" stroke-linejoin="round"/>
<path d="M85.2134 69.5321C83.3714 67.8641 82.1544 65.5411 81.7534 63.0781" stroke="#0D124C" stroke-width="1.0204" stroke-miterlimit="10" stroke-linecap="round" stroke-linejoin="round"/>
<path d="M75.1674 55.6441C74.6944 55.7571 74.5374 56.3851 74.7164 56.8481C74.8954 57.3111 75.2934 57.6551 75.6414 58.0161C75.9254 58.3111 76.1874 58.6301 76.5024 58.8911C76.8184 59.1521 77.2024 59.3531 77.6054 59.3561C78.0064 59.3591 78.4144 59.1201 78.5144 58.7371C78.6294 58.2991 78.3344 57.8481 78.0374 57.4861C77.6524 57.0171 77.2354 56.5721 76.7904 56.1571C76.3934 55.7861 75.8864 55.4721 75.1674 55.6441Z" fill="#0D124C"/>
<path d="M71.8944 60.2868C71.4954 60.5668 71.5814 61.2078 71.9184 61.5728C72.2554 61.9378 72.7524 62.1108 73.2084 62.3178C73.5814 62.4868 73.9424 62.6878 74.3314 62.8138C74.7214 62.9398 75.1524 62.9858 75.5284 62.8398C75.9024 62.6948 76.1934 62.3228 76.1464 61.9298C76.0914 61.4798 75.6524 61.1698 75.2424 60.9428C74.7114 60.6488 74.1604 60.3878 73.5934 60.1668C73.0864 59.9678 72.4994 59.8628 71.8944 60.2868Z" fill="#0D124C"/>
<path d="M138.886 53.7311C144.165 51.1021 151.288 53.1131 154.414 58.1141C157.54 63.1161 156.226 70.4001 151.548 73.9941C146.872 77.5881 139.495 76.9821 135.467 72.6731L138.886 53.7311Z" fill="#0D124C"/>
<path d="M150.994 63.3235C148.81 60.8475 145.203 59.7245 141.998 60.5245" stroke="#0D124C" stroke-width="1.0204" stroke-miterlimit="10" stroke-linecap="round" stroke-linejoin="round"/>
<path d="M144.197 67.5565C145.687 65.5685 146.439 63.0565 146.365 60.5615" stroke="#0D124C" stroke-width="1.0204" stroke-miterlimit="10" stroke-linecap="round" stroke-linejoin="round"/>
<path d="M147.441 50.3666C147.08 50.0406 146.474 50.2666 146.193 50.6756C145.912 51.0856 145.854 51.6076 145.754 52.0996C145.672 52.5006 145.557 52.8966 145.52 53.3046C145.484 53.7126 145.535 54.1436 145.76 54.4766C145.985 54.8086 146.412 55.0096 146.785 54.8766C147.211 54.7226 147.416 54.2256 147.547 53.7756C147.716 53.1926 147.847 52.5976 147.936 51.9956C148.017 51.4576 147.989 50.8616 147.441 50.3666Z" fill="#0D124C"/>
<path d="M152.857 53.0555C152.628 52.6255 151.982 52.6325 151.578 52.9215C151.175 53.2115 150.942 53.6835 150.681 54.1115C150.467 54.4605 150.225 54.7945 150.051 55.1655C149.878 55.5365 149.78 55.9595 149.879 56.3495C149.977 56.7385 150.311 57.0725 150.707 57.0735C151.16 57.0735 151.522 56.6755 151.798 56.2975C152.155 55.8065 152.481 55.2915 152.77 54.7555C153.028 54.2775 153.204 53.7085 152.857 53.0555Z" fill="#0D124C"/>
<path d="M138.886 53.7305C141.614 63.2965 137.488 74.3135 129.347 80.0295C121.207 85.7445 109.681 85.9675 101.134 80.8795C92.5874 75.7935 87.3234 65.7895 87.7954 54.9475C101.605 53.5155 114.626 45.7185 122.717 35.1035C124.65 43.1435 131.062 49.9485 138.886 53.7305Z" fill="#0D124C"/>
<path d="M134.878 65.9724C131.747 64.6204 127.678 66.3524 126.419 69.5214C125.16 72.6914 126.875 76.6984 130.013 78.0364C130.444 78.2204 130.892 78.3454 131.348 78.4264C134.304 75.8084 136.586 72.4514 138.014 68.7634C137.217 67.5324 136.111 66.5044 134.878 65.9724Z" fill="#0D124C"/>
<path d="M100.783 70.473C98.0024 69.272 94.4864 70.5069 92.8514 73.0189C95.0314 76.2139 97.8344 78.9169 101.134 80.8809C101.615 81.1669 102.109 81.432 102.608 81.684C103.462 81.082 104.184 80.2989 104.671 79.3689C106.253 76.3479 103.914 71.824 100.783 70.473Z" fill="#0D124C"/>
<path d="M125.388 54.1174C124.392 53.7404 123.169 54.7234 123.323 55.7754C123.475 56.8294 124.926 57.4244 125.774 56.7814C126.621 56.1384 126.464 54.5244 125.388 54.1174Z" fill="#0D124C" stroke="#0D124C" stroke-width="0.9756" stroke-miterlimit="10" stroke-linecap="round" stroke-linejoin="round"/>
<path d="M99.4864 56.6047C98.4904 56.2277 97.2674 57.2107 97.4214 58.2627C97.5734 59.3157 99.0244 59.9117 99.8724 59.2687C100.719 58.6257 100.562 57.0107 99.4864 56.6047Z" fill="#0D124C" stroke="#0D124C" stroke-width="0.9756" stroke-miterlimit="10" stroke-linecap="round" stroke-linejoin="round"/>
<path d="M123.541 62.7676C121.579 63.9626 119.699 65.2956 117.975 67.0026C119.193 67.8996 120.982 67.9296 122.228 67.0726C123.475 66.2176 124.089 64.5376 123.541 62.7676Z" fill="#0D124C" stroke="#0D124C" stroke-width="0.9756" stroke-miterlimit="10" stroke-linecap="round" stroke-linejoin="round"/>
<path d="M108.44 54.5869C107.144 56.1839 106.165 58.0369 105.557 60.0839C107.344 60.9439 109.316 61.4209 111.3 61.4719" stroke="#0D124C" stroke-width="1.0204" stroke-miterlimit="10" stroke-linecap="round" stroke-linejoin="round"/>
<path d="M117.789 49.1796C118.763 47.2846 120.81 45.9916 122.94 45.9256C125.069 45.8586 127.193 47.0226 128.283 48.8526" stroke="#0D124C" stroke-width="1.0204" stroke-miterlimit="10" stroke-linecap="round" stroke-linejoin="round"/>
</g>
<path d="M154.937 60.0262C137.713 51.9312 121.705 40.8892 103.39 35.7182C85.5224 30.6732 65.9464 31.6442 48.8144 38.8012C31.6814 45.9582 17.1494 59.3193 8.93144 75.9702C0.393442 93.2682 -1.19558 113.299 0.734421 132.492C3.11642 156.186 11.0564 179.991 27.1514 197.542C41.0054 212.65 59.9714 222.19 79.4304 228.633C100.177 235.502 122.423 239.212 143.97 235.558C167.093 231.636 188.547 219.12 203.844 201.343C219.142 183.564 228.275 160.71 230.107 137.329C231.702 116.969 227.078 94.8022 212.043 80.9812C197.144 67.2832 174.008 68.9872 154.937 60.0262Z" fill="#CFCECE"/>
<path d="M132.895 126.601C103.52 123.205 105.02 88.8292 55.4485 91.9122C19.3435 94.1572 6.42044 125.471 2.06244 142.321C5.48344 162.655 13.2854 182.42 27.1514 197.541C41.0054 212.649 59.9715 222.189 79.4305 228.632C100.177 235.501 122.423 239.211 143.969 235.557C167.092 231.635 188.546 219.119 203.843 201.342C219.141 183.563 228.274 160.709 230.106 137.328C230.605 130.956 230.495 124.407 229.647 117.993C182.849 72.5782 159.835 129.716 132.895 126.601Z" fill="#4A4A4A"/>
<path opacity="0.15" d="M186.262 160.315C212.57 152.616 212.96 122.91 212.96 122.91L180.154 126.745L158.604 109.734L115.203 88.7V79.8231C124.086 78.7621 129.658 70.23 129.658 70.23C144.517 76.461 147.412 63.709 147.412 63.709L143.955 54.475C134.796 49.612 125.769 44.447 116.316 40.377L59.4154 39.748C57.0354 52.935 69.7644 53.162 69.7644 53.162L67.0624 62.701C70.9794 82.6961 86.9464 70.817 86.9464 70.817C91.9634 81.045 105.021 80.4861 105.021 80.4861V88.828C105.021 88.828 58.3204 109.67 49.8484 149.687C41.3764 189.704 76.7404 204.357 76.7404 204.357L75.3144 227.212C76.6834 227.699 78.0564 228.175 79.4324 228.63C100.179 235.499 122.425 239.209 143.971 235.555C155.744 233.558 167.079 229.323 177.395 223.31C173.532 192.068 157.158 174.091 157.158 174.091L159.667 161.644L157.255 160.313L158.118 156.415C165.493 160.754 175.109 163.579 186.262 160.315Z" fill="#777777"/>
<path d="M117.239 43.0461C116.243 42.6691 115.02 43.6521 115.174 44.7041C115.326 45.7571 116.777 46.3531 117.625 45.7101C118.473 45.0671 118.316 43.4521 117.239 43.0461Z" fill="#2E2854" stroke="#2E2854" stroke-width="0.9756" stroke-miterlimit="10" stroke-linecap="round" stroke-linejoin="round"/>
<path d="M212.511 9.45652C211.734 6.31052 209.187 3.87752 206.009 3.24052C191.147 0.253515 175.843 0.330519 160.999 3.02552C157.175 3.71952 154.283 6.89252 153.98 10.7665C152.948 23.9675 152.983 37.1025 154.036 50.1575C154.354 54.1035 157.365 57.2855 161.275 57.9015C161.815 57.9865 162.357 58.0605 162.898 58.1385C162.863 61.2415 162.837 64.3755 162.911 67.8555C165.394 65.0735 167.641 62.0865 169.656 58.9505C182.964 60.2075 196.457 59.5065 209.557 56.8525C213.515 56.0495 216.378 52.6155 216.444 48.5765C216.68 34.2275 215.488 21.5065 212.511 9.45652Z" fill="white"/>
<path opacity="0.15" d="M216.444 48.576C216.525 43.674 216.425 38.974 216.158 34.415C194.724 47.438 164.573 44.183 153.544 42.399C153.672 44.987 153.829 47.573 154.037 50.156C154.355 54.102 157.366 57.2841 161.276 57.9001C161.816 57.9851 162.358 58.0591 162.899 58.1371C162.864 61.2401 162.838 64.374 162.912 67.854C165.395 65.072 167.642 62.085 169.657 58.949C182.965 60.206 196.458 59.505 209.558 56.851C213.516 56.049 216.378 52.615 216.444 48.576Z" fill="#777777"/>
<path d="M164.845 2.38672C163.56 2.57972 162.279 2.79272 161 3.02472" stroke="#2E2854" stroke-width="1.0204" stroke-miterlimit="10" stroke-linecap="round" stroke-linejoin="round"/>
<path d="M157.36 4.61532C155.451 6.05332 154.176 8.26332 153.98 10.7653C152.948 23.9663 152.983 37.1013 154.036 50.1563C154.354 54.1023 157.365 57.2843 161.275 57.9003C161.815 57.9853 162.357 58.0593 162.898 58.1373C162.863 61.2403 162.837 64.3743 162.911 67.8543C165.394 65.0723 167.641 62.0853 169.656 58.9493C182.964 60.2063 196.457 59.5053 209.557 56.8513C213.515 56.0483 216.378 52.6143 216.444 48.5753C216.68 34.2263 215.488 21.5053 212.511 9.45431C211.734 6.30831 209.187 3.87533 206.009 3.23833C194.977 1.02133 183.701 0.492328 172.55 1.46933" stroke="#2E2854" stroke-width="1.0204" stroke-miterlimit="10" stroke-linecap="round" stroke-linejoin="round"/>
<path d="M179.674 36.7701C179.12 36.4801 178.597 35.9551 178.106 35.1931C177.614 34.4321 177.366 33.5311 177.361 32.4911C177.356 31.4841 177.62 30.7261 178.154 30.2191C178.688 29.7131 179.474 29.3271 180.513 29.0621L184.312 28.1161C185.935 27.6861 186.744 26.9011 186.738 25.7631C186.735 25.1461 186.431 24.6111 185.828 24.1581C185.224 23.7061 184.191 23.4841 182.729 23.4911C181.396 23.4981 180.145 23.675 178.977 24.022C177.808 24.369 176.867 24.7721 176.154 25.2311C175.599 24.8121 175.126 24.3021 174.732 23.7021C174.339 23.1031 174.14 22.38 174.136 21.535C174.132 20.69 174.372 19.9491 174.856 19.3121C175.341 18.6761 176.012 18.153 176.872 17.742C177.731 17.332 178.753 17.025 179.94 16.824C181.125 16.623 182.433 16.5181 183.864 16.5111C187.699 16.4921 190.605 17.331 192.581 19.027C194.556 20.724 195.551 22.9551 195.564 25.7171C195.59 30.9181 191.933 34.2691 184.595 35.7691L179.674 36.7701ZM178.097 43.1661C178.09 41.8331 178.499 40.7341 179.324 39.8681C180.148 39.0031 181.292 38.5661 182.755 38.5591C184.218 38.5511 185.366 38.977 186.199 39.833C187.032 40.691 187.452 41.7861 187.459 43.1181C187.466 44.4511 187.056 45.5511 186.232 46.4161C185.407 47.2811 184.264 47.718 182.801 47.725C181.338 47.732 180.19 47.3071 179.357 46.4501C178.524 45.5941 178.104 44.4991 178.097 43.1661Z" fill="#2E2854"/>
<path d="M76.4674 96.9971C69.9624 101.468 64.3335 107.179 60.0085 113.783C49.7175 129.5 47.0204 149.955 52.8854 167.802C58.7524 185.65 73.0574 200.517 90.6674 207.063C90.6674 207.063 92.3164 171.681 87.9254 142.156C83.5354 112.63 76.4674 96.9971 76.4674 96.9971Z" fill="#FF98AA"/>
<path d="M55.5354 157.916C55.1934 160.334 55.8714 162.88 57.3704 164.809" stroke="#2E2854" stroke-width="1.0204" stroke-miterlimit="10" stroke-linecap="round" stroke-linejoin="round"/>
<path d="M148.177 143.412C155.193 150.006 163.947 154.977 173.458 156.477C182.97 157.978 193.231 155.76 200.61 149.573C207.433 143.849 211.309 135.329 213.685 126.747C218.98 107.63 216.697 85.2431 209.14 66.9041L196.193 64.463C195.677 62.568 195.039 60.707 194.284 58.894C193.29 56.507 192.023 54.1191 189.946 52.5781C189.394 52.1691 188.697 51.8121 188.041 52.0221C187.177 52.2991 186.883 53.381 186.921 54.287C186.996 56.07 187.802 57.7251 188.467 59.3801C190.392 64.1721 191.217 69.3261 191.87 74.4491L191.452 80.713C193.59 89.482 194.183 99.1231 193.106 108.574C192.554 113.419 191.185 118.781 186.997 121.275C182.899 123.714 177.456 122.405 173.595 119.604C169.734 116.805 166.996 112.767 163.916 109.125C159.177 103.522 153.445 98.8081 147.102 95.1341C147.102 95.1341 143.129 107.228 143.823 116.684C144.516 126.139 148.177 143.412 148.177 143.412Z" fill="#FF98AA"/>
<path d="M216.053 114.011C212.406 126.744 203.754 146.332 184.849 147.765C163.334 149.396 150.715 137.55 145.947 131.856C147.062 138.155 148.176 143.412 148.176 143.412C155.192 150.006 163.946 154.977 173.457 156.477C182.968 157.978 193.23 155.76 200.609 149.573C207.432 143.849 211.308 135.329 213.684 126.747C214.825 122.63 215.593 118.358 216.053 114.011Z" fill="#FF8095"/>
<path d="M189.656 147.527C192.151 148.392 195.212 146.802 195.939 144.262" stroke="#2E2854" stroke-width="1.0204" stroke-miterlimit="10" stroke-linecap="round" stroke-linejoin="round"/>
<path d="M148.177 143.412C155.193 150.006 163.947 154.977 173.458 156.477C182.97 157.978 193.231 155.76 200.61 149.573C207.433 143.849 211.309 135.329 213.685 126.747" stroke="#2E2854" stroke-width="1.0204" stroke-miterlimit="10" stroke-linecap="round" stroke-linejoin="round"/>
<path d="M201.354 62.4657C200.797 62.0137 200.366 61.4297 199.895 60.8887C199.424 60.3477 198.888 59.8297 198.215 59.5777C197.543 59.3257 196.709 59.3957 196.211 59.9127C195.777 60.3617 195.683 61.0297 195.612 61.6487C195.205 65.1447 194.82 68.7587 195.854 72.1237C196.154 73.0967 196.719 74.1607 197.72 74.3427C198.485 74.4817 199.26 74.0217 199.716 73.3917C200.171 72.7617 200.367 71.9857 200.542 71.2277C201.203 68.3537 201.672 65.3627 201.354 62.4657Z" fill="#FF98AA"/>
<path d="M201.354 62.4657C200.797 62.0137 200.366 61.4297 199.895 60.8887C199.424 60.3477 198.888 59.8297 198.215 59.5777C197.543 59.3257 196.709 59.3957 196.211 59.9127C195.777 60.3617 195.683 61.0297 195.612 61.6487C195.205 65.1447 194.82 68.7587 195.854 72.1237C196.154 73.0967 196.719 74.1607 197.72 74.3427C198.485 74.4817 199.26 74.0217 199.716 73.3917C200.171 72.7617 200.367 71.9857 200.542 71.2277C201.203 68.3537 201.672 65.3627 201.354 62.4657Z" stroke="#2E2854" stroke-width="1.0204" stroke-miterlimit="10" stroke-linecap="round" stroke-linejoin="round"/>
<path d="M205.642 68.2439C205.847 65.8619 206.037 63.3709 205.073 61.1719C204.734 60.3959 204.167 59.6139 203.309 59.4379C202.503 59.2729 201.661 59.7179 201.164 60.3509C200.667 60.9849 200.45 61.7759 200.283 62.5499C199.566 65.8449 199.541 69.2879 200.342 72.5579C200.459 73.0359 200.598 73.5189 200.875 73.9299C201.155 74.3399 201.597 74.6749 202.105 74.7209C203.029 74.8059 203.753 73.9759 204.175 73.1809C204.97 71.6869 205.49 70.0099 205.642 68.2439Z" fill="#FF98AA"/>
<path d="M205.642 68.2439C205.847 65.8619 206.037 63.3709 205.073 61.1719C204.734 60.3959 204.167 59.6139 203.309 59.4379C202.503 59.2729 201.661 59.7179 201.164 60.3509C200.667 60.9849 200.45 61.7759 200.283 62.5499C199.566 65.8449 199.541 69.2879 200.342 72.5579C200.459 73.0359 200.598 73.5189 200.875 73.9299C201.155 74.3399 201.597 74.6749 202.105 74.7209C203.029 74.8059 203.753 73.9759 204.175 73.1809C204.97 71.6869 205.49 70.0099 205.642 68.2439Z" stroke="#2E2854" stroke-width="1.0204" stroke-miterlimit="10" stroke-linecap="round" stroke-linejoin="round"/>
<path d="M209.79 67.0126C210.025 65.4226 209.844 63.7656 209.27 62.2626C208.951 61.4246 208.394 60.5476 207.542 60.4166C206.895 60.3186 206.253 60.7056 205.861 61.2446C205.47 61.7856 205.286 62.4576 205.146 63.1206C204.542 65.9726 204.604 69.0126 205.544 71.7816C205.804 72.5476 206.282 73.4066 207.058 73.4466C207.769 73.4846 208.301 72.7996 208.63 72.1466C209.396 70.6326 209.516 68.8666 209.79 67.0126Z" fill="#FF98AA"/>
<path d="M209.79 67.0126C210.025 65.4226 209.844 63.7656 209.27 62.2626C208.951 61.4246 208.394 60.5476 207.542 60.4166C206.895 60.3186 206.253 60.7056 205.861 61.2446C205.47 61.7856 205.286 62.4576 205.146 63.1206C204.542 65.9726 204.604 69.0126 205.544 71.7816C205.804 72.5476 206.282 73.4066 207.058 73.4466C207.769 73.4846 208.301 72.7996 208.63 72.1466C209.396 70.6326 209.516 68.8666 209.79 67.0126Z" stroke="#2E2854" stroke-width="1.0204" stroke-miterlimit="10" stroke-linecap="round" stroke-linejoin="round"/>
<path d="M191.452 80.7111C190.862 79.4061 189.61 78.5571 188.498 77.6571C187.386 76.7551 186.294 75.5841 186.264 74.1541C186.236 72.8721 187.07 71.7521 187.863 70.7451C189.476 68.6961 191.156 66.5902 193.454 65.3582C194.118 65.0012 195.046 64.7681 195.545 65.3321C196.046 65.8971 195.704 66.7771 195.345 67.4411C194.379 69.2281 193.412 71.0161 192.644 73.4471C197.752 71.1231 204.275 72.4082 208.123 76.4962" fill="#FF98AA"/>
<path d="M191.452 80.7111C190.862 79.4061 189.61 78.5571 188.498 77.6571C187.386 76.7551 186.294 75.5841 186.264 74.1541C186.236 72.8721 187.07 71.7521 187.863 70.7451C189.476 68.6961 191.156 66.5902 193.454 65.3582C194.118 65.0012 195.046 64.7681 195.545 65.3321C196.046 65.8971 195.704 66.7771 195.345 67.4411C194.379 69.2281 193.412 71.0161 192.644 73.4471C197.752 71.1231 204.275 72.4082 208.123 76.4962" stroke="#2E2854" stroke-width="1.0204" stroke-miterlimit="10" stroke-linecap="round" stroke-linejoin="round"/>
<path d="M137.769 90.6495C128.109 86.8905 117.586 85.3535 107.276 86.4675C98.8824 86.8805 90.7974 89.1275 83.4934 92.8265C83.4934 92.8265 84.1554 112.056 101.599 117.939C119.043 123.822 130.116 114.504 134.095 106.84C138.454 98.4475 137.769 90.6495 137.769 90.6495Z" fill="#FF98AA"/>
<path d="M138.224 90.8294C136.196 96.1414 133.313 101.348 129.657 105.49C125.022 110.743 117.949 114.184 110.95 114.467C104.501 114.728 98.1374 111.953 93.3654 107.607C88.9524 103.586 85.8204 98.3124 83.7474 92.7014L83.4944 92.8274C81.0594 94.0604 78.7114 95.4554 76.4684 96.9974L76.4694 96.9984C76.2894 120.791 77.6534 144.613 80.7224 168.816C103.971 171.745 127.708 170.765 151.393 165.926C156.846 153.796 155.44 139.746 152.764 126.717C150.613 116.24 147.697 105.744 147.099 95.1324H147.102C144.114 93.4014 140.99 91.9014 137.77 90.6494" fill="white"/>
<path opacity="0.15" d="M151.392 165.928C152.437 163.603 153.226 161.207 153.807 158.761C147.456 156.375 128.048 149.668 111.838 150.198C96.3264 150.705 83.9375 155.205 79.3795 157.09C79.7875 160.991 80.2234 164.898 80.7204 168.818C103.969 171.746 127.706 170.767 151.392 165.928Z" fill="#777777"/>
<path d="M93.6505 139.412C104.492 137.847 115.447 137.07 126.402 137.093" stroke="#2E2854" stroke-width="1.0204" stroke-miterlimit="10" stroke-linecap="round" stroke-linejoin="round"/>
<path d="M76.7384 161.272C77.9704 165.595 79.2934 170.553 81.3214 176.553C80.2564 193.532 79.1944 210.52 78.2264 228.221C78.6284 228.357 79.0274 228.499 79.4294 228.632C100.176 235.501 122.422 239.211 143.968 235.557C154.085 233.841 163.883 230.48 172.985 225.752C170.862 206.469 164.402 189.16 154.143 174.47C154.076 170.038 154.939 165.898 155.801 161.757C130.429 153.616 102.563 153.829 76.7384 161.272Z" fill="#272727"/>
<path opacity="0.15" d="M125.572 236.967C124.671 228.931 123.77 220.896 122.869 212.859C117.983 212.744 114.377 210.19 112.55 206.937C111.322 204.752 110.724 202.307 110.344 199.813C107.532 212.507 118.946 217.513 118.946 217.513V236.737C121.154 236.877 123.363 236.949 125.572 236.967Z" fill="#777777"/>
<path d="M109.894 196.154C110.291 199.862 110.723 203.687 112.55 206.938C114.377 210.19 117.983 212.744 122.869 212.86C123.769 220.897 124.67 228.933 125.571 236.968" stroke="#2E2854" stroke-width="1.0204" stroke-miterlimit="10" stroke-linecap="round" stroke-linejoin="round"/>
<path d="M154.878 174.219C130.809 179.929 105.717 181.306 81.1675 178.262C80.4605 178.174 79.9355 177.56 79.9535 176.848C79.9745 176.039 80.6825 175.428 81.4865 175.519C105.737 178.273 130.452 176.903 154.249 171.485C154.969 171.321 155.689 171.75 155.883 172.463L155.894 172.505C156.098 173.258 155.638 174.038 154.878 174.219Z" fill="#2E2854"/>
<path d="M81.2054 30.6569C77.6234 26.7989 72.1784 24.0849 67.1104 25.5099C64.3964 26.2719 62.0694 28.1639 60.5204 30.5199C56.9514 35.9459 57.8564 43.8739 62.5584 48.3539C67.2604 52.8339 75.2224 53.3579 80.4704 49.5309L81.2054 30.6569Z" fill="#7151B4"/>
<path opacity="0.15" d="M76.3394 26.8701C72.3984 31.8171 69.7724 41.9801 74.0964 51.9721C76.3844 51.6951 78.6004 50.8941 80.4704 49.5311L81.2054 30.6571C79.8194 29.1641 78.1534 27.8471 76.3394 26.8701Z" fill="#777777"/>
<path d="M130.814 24.5315C133.74 20.5415 138.829 18.2475 143.757 18.6975C148.684 19.1485 153.273 22.3255 155.429 26.7795C157.584 31.2325 157.228 36.8035 154.524 40.9465C152.478 44.0835 149.209 46.3455 145.62 47.4095C142.03 48.4745 138.143 48.3795 134.53 47.3935L130.814 24.5315Z" fill="#7151B4"/>
<path opacity="0.15" d="M138.253 48.0664C145.151 34.7284 137.642 24.7054 134.318 21.1904C132.973 22.0974 131.776 23.2205 130.815 24.5305L134.53 47.3925C135.746 47.7255 136.995 47.9464 138.253 48.0664Z" fill="#777777"/>
<path d="M134.507 52.1908C136.321 47.2798 137.568 42.0928 137.454 36.8578C137.339 31.6248 135.781 26.3218 132.472 22.2648C129.775 18.9598 126.025 16.6038 122.001 15.1818C117.978 13.7598 113.682 13.2308 109.416 13.1768C102.308 13.0828 95.0705 14.3278 88.8095 17.6938C82.5495 21.0608 77.3474 26.6988 75.3814 33.5298C73.4154 40.3598 75.0464 48.3268 80.0704 53.7698C79.7394 56.1548 81.1424 58.5268 83.0714 59.9688C85.0014 61.4078 87.3874 62.0798 89.7384 62.6108C98.2834 64.5398 107.166 64.9678 115.857 63.8698C119.636 63.3918 123.443 62.6058 126.793 60.7938C130.144 58.9808 133.083 56.0468 134.507 52.1908Z" fill="#7151B4"/>
<path d="M103.361 70.2305C103.207 76.8465 103.367 83.4695 103.741 90.3085C108 90.9215 112.352 90.8815 116.879 90.2295C116.882 83.8695 116.462 77.5085 115.625 71.2035L103.361 70.2305Z" fill="#FF98AA"/>
<path d="M116.477 79.6095C116.271 76.8005 115.996 73.9965 115.625 71.2035L103.361 70.2305C103.284 73.5365 103.285 76.8445 103.353 80.1805C106.782 81.1905 112.394 82.1685 116.477 79.6095Z" fill="#FF8095"/>
<path d="M80.9664 48.1171C75.2824 46.5421 68.6724 49.8711 66.5554 55.3751C64.4394 60.8801 67.1154 67.7821 72.3904 70.4191C77.6654 73.0581 84.7924 71.0581 87.9264 66.0621L80.9664 48.1171Z" fill="#FF98AA"/>
<path d="M70.9044 59.839C72.5774 56.994 75.9055 55.2049 79.2025 55.3799" stroke="#2E2854" stroke-width="1.0204" stroke-miterlimit="10" stroke-linecap="round" stroke-linejoin="round"/>
<path d="M78.3835 62.7021C76.5415 61.0341 75.3244 58.711 74.9234 56.248" stroke="#2E2854" stroke-width="1.0204" stroke-miterlimit="10" stroke-linecap="round" stroke-linejoin="round"/>
<path d="M68.3385 48.8135C67.8645 48.9265 67.7085 49.5545 67.8865 50.0185C68.0655 50.4815 68.4634 50.8255 68.8114 51.1865C69.0954 51.4815 69.3575 51.8005 69.6725 52.0615C69.9885 52.3225 70.3725 52.5235 70.7755 52.5265C71.1765 52.5295 71.5845 52.2915 71.6855 51.9075C71.8005 51.4695 71.5054 51.0185 71.2084 50.6565C70.8234 50.1875 70.4065 49.7425 69.9615 49.3275C69.5635 48.9565 69.0565 48.6425 68.3385 48.8135Z" fill="#FFB852"/>
<path d="M65.0654 53.4564C64.6664 53.7364 64.7524 54.3774 65.0894 54.7424C65.4264 55.1074 65.9234 55.2804 66.3794 55.4874C66.7514 55.6564 67.1124 55.8564 67.5024 55.9834C67.8924 56.1094 68.3234 56.1554 68.6994 56.0104C69.0734 55.8654 69.3644 55.4934 69.3174 55.1004C69.2624 54.6504 68.8234 54.3404 68.4134 54.1124C67.8824 53.8184 67.3314 53.5574 66.7644 53.3364C66.2574 53.1374 65.6704 53.0334 65.0654 53.4564Z" fill="#FFB852"/>
<path d="M132.057 46.902C137.336 44.273 144.459 46.284 147.585 51.285C150.711 56.287 149.397 63.571 144.719 67.165C140.043 70.759 132.666 70.153 128.638 65.844L132.057 46.902Z" fill="#FF98AA"/>
<path d="M144.165 56.4944C141.98 54.0184 138.374 52.8954 135.169 53.6954" stroke="#2E2854" stroke-width="1.0204" stroke-miterlimit="10" stroke-linecap="round" stroke-linejoin="round"/>
<path d="M137.368 60.7274C138.858 58.7394 139.61 56.2274 139.536 53.7334" stroke="#2E2854" stroke-width="1.0204" stroke-miterlimit="10" stroke-linecap="round" stroke-linejoin="round"/>
<path d="M140.611 43.5375C140.25 43.2115 139.644 43.4375 139.362 43.8465C139.082 44.2565 139.023 44.7785 138.923 45.2705C138.841 45.6715 138.726 46.0675 138.689 46.4755C138.653 46.8835 138.704 47.3145 138.93 47.6475C139.155 47.9795 139.582 48.1815 139.955 48.0475C140.381 47.8935 140.586 47.3965 140.716 46.9465C140.885 46.3635 141.016 45.7685 141.106 45.1665C141.188 44.6285 141.159 44.0325 140.611 43.5375Z" fill="#FFB852"/>
<path d="M146.028 46.2264C145.799 45.7964 145.152 45.8034 144.749 46.0924C144.346 46.3824 144.114 46.8544 143.852 47.2824C143.638 47.6314 143.396 47.9655 143.222 48.3365C143.049 48.7085 142.951 49.1304 143.049 49.5204C143.147 49.9094 143.481 50.2444 143.877 50.2444C144.33 50.2444 144.692 49.8464 144.968 49.4684C145.325 48.9774 145.651 48.4625 145.94 47.9265C146.199 47.4485 146.374 46.8784 146.028 46.2264Z" fill="#FFB852"/>
<path d="M132.057 46.9014C134.785 56.4674 130.659 67.4844 122.518 73.2004C114.378 78.9154 102.852 79.1384 94.3055 74.0504C85.7585 68.9644 80.4944 58.9614 80.9664 48.1184C94.7764 46.6854 107.797 38.8894 115.888 28.2744C117.82 36.3144 124.233 43.1194 132.057 46.9014Z" fill="#FF98AA"/>
<path d="M128.049 59.1434C124.917 57.7914 120.849 59.5224 119.59 62.6924C118.331 65.8624 120.046 69.8694 123.184 71.2074C123.615 71.3914 124.063 71.5164 124.519 71.5974C127.475 68.9794 129.758 65.6224 131.186 61.9344C130.388 60.7034 129.282 59.6754 128.049 59.1434Z" fill="#FF8095"/>
<path d="M93.9545 63.6429C91.1735 62.4419 87.6575 63.6769 86.0225 66.1889C88.2025 69.3839 91.0055 72.0869 94.3055 74.0509C94.7865 74.3379 95.2805 74.6018 95.7795 74.8548C96.6335 74.2528 97.3555 73.4699 97.8425 72.5399C99.4245 69.5189 97.0855 64.9949 93.9545 63.6429Z" fill="#FF8095"/>
<path d="M118.558 47.2883C117.562 46.9113 116.339 47.8943 116.493 48.9463C116.645 49.9993 118.096 50.5953 118.944 49.9523C119.792 49.3093 119.635 47.6943 118.558 47.2883Z" fill="#2E2854" stroke="#2E2854" stroke-width="0.9756" stroke-miterlimit="10" stroke-linecap="round" stroke-linejoin="round"/>
<path d="M92.6565 49.7756C91.6605 49.3986 90.4375 50.3816 90.5915 51.4336C90.7435 52.4866 92.1945 53.0826 93.0425 52.4396C93.8905 51.7966 93.7335 50.1816 92.6565 49.7756Z" fill="#2E2854" stroke="#2E2854" stroke-width="0.9756" stroke-miterlimit="10" stroke-linecap="round" stroke-linejoin="round"/>
<path d="M116.712 55.9385C114.75 57.1335 112.87 58.4665 111.146 60.1735C112.364 61.0705 114.153 61.1005 115.399 60.2435C116.645 59.3875 117.26 57.7085 116.712 55.9385Z" fill="#2E2854" stroke="#2E2854" stroke-width="0.9756" stroke-miterlimit="10" stroke-linecap="round" stroke-linejoin="round"/>
<path d="M101.61 47.7568C100.314 49.3528 99.3355 51.2068 98.7275 53.2538C100.514 54.1138 102.486 54.5908 104.47 54.6418" stroke="#2E2854" stroke-width="1.0204" stroke-miterlimit="10" stroke-linecap="round" stroke-linejoin="round"/>
<path d="M110.96 42.3505C111.934 40.4555 113.981 39.1625 116.111 39.0965C118.24 39.0295 120.364 40.1935 121.454 42.0235" stroke="#2E2854" stroke-width="1.0204" stroke-miterlimit="10" stroke-linecap="round" stroke-linejoin="round"/>
</svg>
