<svg width="231" height="238" viewBox="0 0 231 238" fill="none" xmlns="http://www.w3.org/2000/svg">
<path d="M154.937 60.0262C137.713 51.9312 121.705 40.8892 103.39 35.7182C85.5224 30.6732 65.9464 31.6442 48.8144 38.8012C31.6814 45.9582 17.1494 59.3193 8.93144 75.9702C0.393442 93.2682 -1.19558 113.299 0.734421 132.492C3.11642 156.186 11.0564 179.991 27.1514 197.542C41.0054 212.65 59.9714 222.19 79.4304 228.633C100.177 235.502 122.423 239.212 143.97 235.558C167.093 231.636 188.547 219.12 203.844 201.343C219.142 183.564 228.275 160.71 230.107 137.329C231.702 116.969 227.078 94.8022 212.043 80.9812C197.144 67.2832 174.008 68.9872 154.937 60.0262Z" fill="#FF7554"/>
<path d="M132.896 126.601C103.521 123.205 105.021 88.8292 55.4485 91.9122C19.3435 94.1572 6.4205 125.471 2.0625 142.321C5.4835 162.655 13.2855 182.42 27.1515 197.541C41.0055 212.649 59.9715 222.189 79.4305 228.632C100.178 235.501 122.424 239.211 143.97 235.557C167.093 231.635 188.546 219.119 203.843 201.342C219.141 183.563 228.274 160.709 230.106 137.328C230.605 130.956 230.495 124.407 229.647 117.993C182.849 72.5782 159.836 129.716 132.896 126.601Z" fill="#E86748"/>
<path opacity="0.15" d="M186.262 160.315C212.57 152.616 212.96 122.91 212.96 122.91L180.154 126.745L158.604 109.734L115.203 88.7V79.8231C124.086 78.7621 129.658 70.23 129.658 70.23C144.517 76.461 147.412 63.709 147.412 63.709L143.955 54.475C134.796 49.612 125.769 44.447 116.316 40.377L59.4155 39.748C57.0355 52.935 69.7645 53.162 69.7645 53.162L67.0625 62.701C70.9795 82.6961 86.9465 70.817 86.9465 70.817C91.9635 81.045 105.022 80.4861 105.022 80.4861V88.828C105.022 88.828 58.3205 109.67 49.8485 149.687C41.3765 189.704 76.7405 204.357 76.7405 204.357L75.3145 227.212C76.6835 227.699 78.0565 228.175 79.4325 228.63C100.179 235.499 122.425 239.209 143.971 235.555C155.744 233.558 167.079 229.323 177.395 223.31C173.532 192.068 157.158 174.091 157.158 174.091L159.667 161.644L157.255 160.313L158.118 156.415C165.493 160.754 175.109 163.579 186.262 160.315Z" fill="#402995"/>
<path d="M117.239 43.0461C116.243 42.6691 115.02 43.6521 115.174 44.7041C115.326 45.7571 116.777 46.3531 117.625 45.7101C118.473 45.0671 118.316 43.4521 117.239 43.0461Z" fill="#2E2854" stroke="#2E2854" stroke-width="0.9756" stroke-miterlimit="10" stroke-linecap="round" stroke-linejoin="round"/>
<path d="M212.511 9.45652C211.734 6.31052 209.187 3.87752 206.009 3.24052C191.147 0.253515 175.843 0.330519 160.999 3.02552C157.175 3.71952 154.283 6.89252 153.98 10.7665C152.948 23.9675 152.983 37.1025 154.036 50.1575C154.354 54.1035 157.365 57.2855 161.275 57.9015C161.815 57.9865 162.357 58.0605 162.898 58.1385C162.863 61.2415 162.837 64.3755 162.911 67.8555C165.394 65.0735 167.641 62.0865 169.656 58.9505C182.964 60.2075 196.457 59.5065 209.557 56.8525C213.515 56.0495 216.378 52.6155 216.444 48.5765C216.68 34.2275 215.488 21.5065 212.511 9.45652Z" fill="white"/>
<path opacity="0.15" d="M216.444 48.576C216.525 43.674 216.425 38.974 216.158 34.415C194.724 47.438 164.573 44.183 153.544 42.399C153.672 44.987 153.829 47.573 154.037 50.156C154.355 54.102 157.366 57.2841 161.276 57.9001C161.816 57.9851 162.358 58.0591 162.899 58.1371C162.864 61.2401 162.838 64.374 162.912 67.854C165.395 65.072 167.642 62.085 169.657 58.949C182.965 60.206 196.458 59.505 209.558 56.851C213.516 56.049 216.378 52.615 216.444 48.576Z" fill="#402995"/>
<path d="M164.845 2.38672C163.56 2.57972 162.279 2.79272 161 3.02472" stroke="#2E2854" stroke-width="1.0204" stroke-miterlimit="10" stroke-linecap="round" stroke-linejoin="round"/>
<path d="M157.36 4.61532C155.451 6.05332 154.176 8.26332 153.98 10.7653C152.948 23.9663 152.983 37.1013 154.036 50.1563C154.354 54.1023 157.365 57.2843 161.275 57.9003C161.815 57.9853 162.357 58.0593 162.898 58.1373C162.863 61.2403 162.837 64.3743 162.911 67.8543C165.394 65.0723 167.641 62.0853 169.656 58.9493C182.964 60.2063 196.457 59.5053 209.557 56.8513C213.515 56.0483 216.378 52.6143 216.444 48.5753C216.68 34.2263 215.488 21.5053 212.511 9.45431C211.734 6.30831 209.187 3.87533 206.009 3.23833C194.977 1.02133 183.701 0.492328 172.55 1.46933" stroke="#2E2854" stroke-width="1.0204" stroke-miterlimit="10" stroke-linecap="round" stroke-linejoin="round"/>
<path d="M179.674 36.7701C179.12 36.4801 178.597 35.9551 178.106 35.1931C177.614 34.4321 177.366 33.5311 177.361 32.4911C177.356 31.4841 177.62 30.7261 178.154 30.2191C178.688 29.7131 179.474 29.3271 180.513 29.0621L184.312 28.1161C185.935 27.6861 186.744 26.9011 186.738 25.7631C186.735 25.1461 186.431 24.6111 185.828 24.1581C185.224 23.7061 184.191 23.4841 182.729 23.4911C181.396 23.4981 180.145 23.675 178.977 24.022C177.808 24.369 176.867 24.7721 176.154 25.2311C175.599 24.8121 175.126 24.3021 174.732 23.7021C174.339 23.1031 174.14 22.38 174.136 21.535C174.132 20.69 174.372 19.9491 174.856 19.3121C175.341 18.6761 176.012 18.153 176.872 17.742C177.731 17.332 178.753 17.025 179.94 16.824C181.125 16.623 182.433 16.5181 183.864 16.5111C187.699 16.4921 190.605 17.331 192.581 19.027C194.556 20.724 195.551 22.9551 195.564 25.7171C195.59 30.9181 191.933 34.2691 184.595 35.7691L179.674 36.7701ZM178.097 43.1661C178.09 41.8331 178.499 40.7341 179.324 39.8681C180.148 39.0031 181.292 38.5661 182.755 38.5591C184.218 38.5511 185.366 38.977 186.199 39.833C187.032 40.691 187.452 41.7861 187.459 43.1181C187.466 44.4511 187.056 45.5511 186.232 46.4161C185.407 47.2811 184.264 47.718 182.801 47.725C181.338 47.732 180.19 47.3071 179.357 46.4501C178.524 45.5941 178.104 44.4991 178.097 43.1661Z" fill="#2E2854"/>
<path d="M76.4675 96.9971C69.9625 101.468 64.3335 107.179 60.0085 113.783C49.7175 129.5 47.0205 149.955 52.8855 167.802C58.7525 185.65 73.0575 200.517 90.6675 207.063C90.6675 207.063 92.3165 171.681 87.9255 142.156C83.5355 112.63 76.4675 96.9971 76.4675 96.9971Z" fill="#FF98AA"/>
<path d="M55.5354 157.916C55.1934 160.334 55.8715 162.88 57.3705 164.809" stroke="#2E2854" stroke-width="1.0204" stroke-miterlimit="10" stroke-linecap="round" stroke-linejoin="round"/>
<path d="M148.178 143.412C155.194 150.006 163.948 154.977 173.459 156.477C182.971 157.978 193.232 155.76 200.611 149.573C207.434 143.849 211.31 135.329 213.686 126.747C218.981 107.63 216.698 85.2431 209.141 66.9041L196.194 64.463C195.678 62.568 195.04 60.707 194.285 58.894C193.291 56.507 192.024 54.1191 189.947 52.5781C189.395 52.1691 188.698 51.8121 188.042 52.0221C187.178 52.2991 186.884 53.381 186.922 54.287C186.997 56.07 187.803 57.7251 188.468 59.3801C190.393 64.1721 191.218 69.3261 191.871 74.4491L191.453 80.713C193.591 89.482 194.184 99.1231 193.107 108.574C192.555 113.419 191.186 118.781 186.998 121.275C182.9 123.714 177.457 122.405 173.596 119.604C169.735 116.805 166.997 112.767 163.917 109.125C159.178 103.522 153.446 98.8081 147.103 95.1341C147.103 95.1341 143.13 107.228 143.824 116.684C144.517 126.139 148.178 143.412 148.178 143.412Z" fill="#FF98AA"/>
<path d="M216.053 114.011C212.406 126.744 203.755 146.332 184.85 147.765C163.335 149.396 150.716 137.55 145.948 131.856C147.063 138.155 148.177 143.412 148.177 143.412C155.193 150.006 163.946 154.977 173.457 156.477C182.968 157.978 193.231 155.76 200.61 149.573C207.433 143.849 211.308 135.329 213.684 126.747C214.825 122.63 215.593 118.358 216.053 114.011Z" fill="#FF8095"/>
<path d="M189.656 147.527C192.151 148.392 195.212 146.802 195.939 144.262" stroke="#2E2854" stroke-width="1.0204" stroke-miterlimit="10" stroke-linecap="round" stroke-linejoin="round"/>
<path d="M148.177 143.412C155.193 150.006 163.947 154.977 173.458 156.477C182.97 157.978 193.232 155.76 200.611 149.573C207.434 143.849 211.31 135.329 213.686 126.747" stroke="#2E2854" stroke-width="1.0204" stroke-miterlimit="10" stroke-linecap="round" stroke-linejoin="round"/>
<path d="M201.355 62.4657C200.798 62.0137 200.367 61.4297 199.896 60.8887C199.425 60.3477 198.889 59.8297 198.216 59.5777C197.544 59.3257 196.71 59.3957 196.212 59.9127C195.778 60.3617 195.684 61.0297 195.613 61.6487C195.206 65.1447 194.821 68.7587 195.855 72.1237C196.155 73.0967 196.72 74.1607 197.721 74.3427C198.486 74.4817 199.261 74.0217 199.717 73.3917C200.172 72.7617 200.368 71.9857 200.543 71.2277C201.204 68.3537 201.673 65.3627 201.355 62.4657Z" fill="#FF98AA"/>
<path d="M201.355 62.4657C200.798 62.0137 200.367 61.4297 199.896 60.8887C199.425 60.3477 198.889 59.8297 198.216 59.5777C197.544 59.3257 196.71 59.3957 196.212 59.9127C195.778 60.3617 195.684 61.0297 195.613 61.6487C195.206 65.1447 194.821 68.7587 195.855 72.1237C196.155 73.0967 196.72 74.1607 197.721 74.3427C198.486 74.4817 199.261 74.0217 199.717 73.3917C200.172 72.7617 200.368 71.9857 200.543 71.2277C201.204 68.3537 201.673 65.3627 201.355 62.4657Z" stroke="#2E2854" stroke-width="1.0204" stroke-miterlimit="10" stroke-linecap="round" stroke-linejoin="round"/>
<path d="M205.642 68.2439C205.847 65.8619 206.038 63.3709 205.074 61.1719C204.735 60.3959 204.167 59.6139 203.309 59.4379C202.503 59.2729 201.662 59.7179 201.165 60.3509C200.668 60.9849 200.45 61.7759 200.283 62.5499C199.566 65.8449 199.541 69.2879 200.342 72.5579C200.459 73.0359 200.599 73.5189 200.876 73.9299C201.156 74.3399 201.597 74.6749 202.105 74.7209C203.029 74.8059 203.753 73.9759 204.175 73.1809C204.97 71.6869 205.49 70.0099 205.642 68.2439Z" fill="#FF98AA"/>
<path d="M205.642 68.2439C205.847 65.8619 206.038 63.3709 205.074 61.1719C204.735 60.3959 204.167 59.6139 203.309 59.4379C202.503 59.2729 201.662 59.7179 201.165 60.3509C200.668 60.9849 200.45 61.7759 200.283 62.5499C199.566 65.8449 199.541 69.2879 200.342 72.5579C200.459 73.0359 200.599 73.5189 200.876 73.9299C201.156 74.3399 201.597 74.6749 202.105 74.7209C203.029 74.8059 203.753 73.9759 204.175 73.1809C204.97 71.6869 205.49 70.0099 205.642 68.2439Z" stroke="#2E2854" stroke-width="1.0204" stroke-miterlimit="10" stroke-linecap="round" stroke-linejoin="round"/>
<path d="M209.791 67.0126C210.026 65.4226 209.845 63.7656 209.271 62.2626C208.952 61.4246 208.395 60.5476 207.543 60.4166C206.896 60.3186 206.254 60.7056 205.862 61.2446C205.471 61.7856 205.287 62.4576 205.147 63.1206C204.543 65.9726 204.605 69.0126 205.545 71.7816C205.805 72.5476 206.283 73.4066 207.059 73.4466C207.77 73.4846 208.302 72.7996 208.631 72.1466C209.397 70.6326 209.517 68.8666 209.791 67.0126Z" fill="#FF98AA"/>
<path d="M209.791 67.0126C210.026 65.4226 209.845 63.7656 209.271 62.2626C208.952 61.4246 208.395 60.5476 207.543 60.4166C206.896 60.3186 206.254 60.7056 205.862 61.2446C205.471 61.7856 205.287 62.4576 205.147 63.1206C204.543 65.9726 204.605 69.0126 205.545 71.7816C205.805 72.5476 206.283 73.4066 207.059 73.4466C207.77 73.4846 208.302 72.7996 208.631 72.1466C209.397 70.6326 209.517 68.8666 209.791 67.0126Z" stroke="#2E2854" stroke-width="1.0204" stroke-miterlimit="10" stroke-linecap="round" stroke-linejoin="round"/>
<path d="M191.453 80.7111C190.863 79.4061 189.611 78.5571 188.499 77.6571C187.387 76.7551 186.294 75.5841 186.264 74.1541C186.236 72.8721 187.07 71.7521 187.863 70.7451C189.476 68.6961 191.157 66.5902 193.455 65.3582C194.119 65.0012 195.046 64.7681 195.545 65.3321C196.046 65.8971 195.705 66.7771 195.346 67.4411C194.38 69.2281 193.413 71.0161 192.645 73.4471C197.753 71.1231 204.276 72.4082 208.124 76.4962" fill="#FF98AA"/>
<path d="M191.453 80.7111C190.863 79.4061 189.611 78.5571 188.499 77.6571C187.387 76.7551 186.294 75.5841 186.264 74.1541C186.236 72.8721 187.07 71.7521 187.863 70.7451C189.476 68.6961 191.157 66.5902 193.455 65.3582C194.119 65.0012 195.046 64.7681 195.545 65.3321C196.046 65.8971 195.705 66.7771 195.346 67.4411C194.38 69.2281 193.413 71.0161 192.645 73.4471C197.753 71.1231 204.276 72.4082 208.124 76.4962" stroke="#2E2854" stroke-width="1.0204" stroke-miterlimit="10" stroke-linecap="round" stroke-linejoin="round"/>
<path d="M137.769 90.6495C128.109 86.8905 117.586 85.3535 107.276 86.4675C98.8824 86.8805 90.7974 89.1275 83.4934 92.8265C83.4934 92.8265 84.1554 112.056 101.599 117.939C119.043 123.822 130.116 114.504 134.095 106.84C138.454 98.4475 137.769 90.6495 137.769 90.6495Z" fill="#FF98AA"/>
<path d="M138.225 90.8294C136.197 96.1414 133.314 101.348 129.658 105.49C125.023 110.743 117.95 114.184 110.951 114.467C104.502 114.728 98.1376 111.953 93.3656 107.607C88.9526 103.586 85.8205 98.3124 83.7475 92.7014L83.4946 92.8274C81.0596 94.0604 78.7116 95.4554 76.4686 96.9974L76.4696 96.9984C76.2896 120.791 77.6536 144.613 80.7226 168.816C103.972 171.745 127.709 170.765 151.394 165.926C156.847 153.796 155.441 139.746 152.765 126.717C150.614 116.24 147.698 105.744 147.1 95.1324H147.103C144.115 93.4014 140.991 91.9014 137.771 90.6494" fill="white"/>
<path opacity="0.15" d="M151.393 165.928C152.438 163.603 153.227 161.207 153.808 158.761C147.457 156.375 128.049 149.668 111.839 150.198C96.3266 150.705 83.9376 155.205 79.3796 157.09C79.7876 160.991 80.2236 164.898 80.7206 168.818C103.97 171.746 127.707 170.767 151.393 165.928Z" fill="#402995"/>
<path d="M93.6506 139.412C104.493 137.847 115.448 137.07 126.403 137.093" stroke="#2E2854" stroke-width="1.0204" stroke-miterlimit="10" stroke-linecap="round" stroke-linejoin="round"/>
<path d="M76.7385 161.272C77.9705 165.595 79.2935 170.553 81.3215 176.553C80.2565 193.532 79.1945 210.52 78.2265 228.221C78.6285 228.357 79.0275 228.499 79.4295 228.632C100.177 235.501 122.423 239.211 143.969 235.557C154.086 233.841 163.884 230.48 172.986 225.752C170.863 206.469 164.403 189.16 154.144 174.47C154.077 170.038 154.94 165.898 155.802 161.757C130.43 153.616 102.564 153.829 76.7385 161.272Z" fill="#FA52F2"/>
<path opacity="0.15" d="M125.573 236.967C124.672 228.931 123.771 220.896 122.87 212.859C117.984 212.744 114.378 210.19 112.551 206.937C111.323 204.752 110.725 202.307 110.345 199.813C107.533 212.507 118.947 217.513 118.947 217.513V236.737C121.155 236.877 123.364 236.949 125.573 236.967Z" fill="#402995"/>
<path d="M109.895 196.154C110.292 199.862 110.724 203.687 112.551 206.938C114.378 210.19 117.984 212.744 122.87 212.86C123.77 220.897 124.671 228.933 125.572 236.968" stroke="#2E2854" stroke-width="1.0204" stroke-miterlimit="10" stroke-linecap="round" stroke-linejoin="round"/>
<path d="M154.879 174.219C130.81 179.929 105.718 181.306 81.1676 178.262C80.4606 178.174 79.9356 177.56 79.9536 176.848C79.9746 176.039 80.6826 175.428 81.4866 175.519C105.738 178.273 130.453 176.903 154.25 171.485C154.97 171.321 155.69 171.75 155.884 172.463L155.895 172.505C156.099 173.258 155.639 174.038 154.879 174.219Z" fill="#2E2854"/>
<path d="M81.2054 30.6569C77.6234 26.7989 72.1784 24.0849 67.1104 25.5099C64.3964 26.2719 62.0694 28.1639 60.5204 30.5199C56.9514 35.9459 57.8564 43.8739 62.5584 48.3539C67.2604 52.8339 75.2224 53.3579 80.4704 49.5309L81.2054 30.6569Z" fill="#7151B4"/>
<path opacity="0.15" d="M76.3393 26.8701C72.3983 31.8171 69.7723 41.9801 74.0963 51.9721C76.3843 51.6951 78.6003 50.8941 80.4703 49.5311L81.2053 30.6571C79.8193 29.1641 78.1533 27.8471 76.3393 26.8701Z" fill="#402995"/>
<path d="M130.814 24.5315C133.74 20.5415 138.829 18.2475 143.757 18.6975C148.684 19.1485 153.273 22.3255 155.429 26.7795C157.584 31.2325 157.228 36.8035 154.524 40.9465C152.478 44.0835 149.209 46.3455 145.62 47.4095C142.03 48.4745 138.143 48.3795 134.53 47.3935L130.814 24.5315Z" fill="#7151B4"/>
<path opacity="0.15" d="M138.253 48.0664C145.151 34.7284 137.642 24.7054 134.318 21.1904C132.973 22.0974 131.776 23.2205 130.815 24.5305L134.53 47.3925C135.746 47.7255 136.995 47.9464 138.253 48.0664Z" fill="#402995"/>
<path d="M134.507 52.1908C136.321 47.2798 137.568 42.0928 137.454 36.8578C137.339 31.6248 135.781 26.3218 132.472 22.2648C129.775 18.9598 126.025 16.6038 122.001 15.1818C117.978 13.7598 113.682 13.2308 109.416 13.1768C102.308 13.0828 95.0704 14.3278 88.8094 17.6938C82.5494 21.0608 77.3474 26.6988 75.3814 33.5298C73.4154 40.3598 75.0464 48.3268 80.0704 53.7698C79.7394 56.1548 81.1424 58.5268 83.0714 59.9688C85.0014 61.4078 87.3874 62.0798 89.7384 62.6108C98.2834 64.5398 107.166 64.9678 115.857 63.8698C119.636 63.3918 123.443 62.6058 126.793 60.7938C130.144 58.9808 133.083 56.0468 134.507 52.1908Z" fill="#7151B4"/>
<path d="M103.361 70.2305C103.207 76.8465 103.367 83.4695 103.741 90.3085C108 90.9215 112.352 90.8815 116.879 90.2295C116.882 83.8695 116.462 77.5085 115.625 71.2035L103.361 70.2305Z" fill="#FF98AA"/>
<path d="M116.477 79.6095C116.271 76.8005 115.996 73.9965 115.625 71.2035L103.361 70.2305C103.284 73.5365 103.285 76.8445 103.353 80.1805C106.782 81.1905 112.394 82.1685 116.477 79.6095Z" fill="#FF8095"/>
<path d="M80.9664 48.1171C75.2824 46.5421 68.6725 49.8711 66.5555 55.3751C64.4395 60.8801 67.1155 67.7821 72.3905 70.4191C77.6655 73.0581 84.7925 71.0581 87.9265 66.0621L80.9664 48.1171Z" fill="#FF98AA"/>
<path d="M70.9043 59.839C72.5773 56.994 75.9053 55.2049 79.2023 55.3799" stroke="#2E2854" stroke-width="1.0204" stroke-miterlimit="10" stroke-linecap="round" stroke-linejoin="round"/>
<path d="M78.3834 62.7021C76.5414 61.0341 75.3243 58.711 74.9233 56.248" stroke="#2E2854" stroke-width="1.0204" stroke-miterlimit="10" stroke-linecap="round" stroke-linejoin="round"/>
<path d="M68.3384 48.8135C67.8644 48.9265 67.7084 49.5545 67.8864 50.0185C68.0654 50.4815 68.4634 50.8255 68.8114 51.1865C69.0954 51.4815 69.3574 51.8005 69.6724 52.0615C69.9884 52.3225 70.3724 52.5235 70.7754 52.5265C71.1764 52.5295 71.5844 52.2915 71.6854 51.9075C71.8004 51.4695 71.5054 51.0185 71.2084 50.6565C70.8234 50.1875 70.4064 49.7425 69.9614 49.3275C69.5634 48.9565 69.0564 48.6425 68.3384 48.8135Z" fill="#FFB852"/>
<path d="M65.0653 53.4564C64.6663 53.7364 64.7523 54.3774 65.0893 54.7424C65.4263 55.1074 65.9234 55.2804 66.3794 55.4874C66.7514 55.6564 67.1123 55.8564 67.5023 55.9834C67.8923 56.1094 68.3233 56.1554 68.6993 56.0104C69.0733 55.8654 69.3643 55.4934 69.3173 55.1004C69.2623 54.6504 68.8233 54.3404 68.4133 54.1124C67.8823 53.8184 67.3313 53.5574 66.7643 53.3364C66.2573 53.1374 65.6703 53.0334 65.0653 53.4564Z" fill="#FFB852"/>
<path d="M132.057 46.902C137.336 44.273 144.459 46.284 147.585 51.285C150.711 56.287 149.397 63.571 144.719 67.165C140.043 70.759 132.666 70.153 128.638 65.844L132.057 46.902Z" fill="#FF98AA"/>
<path d="M144.165 56.4944C141.98 54.0184 138.374 52.8954 135.169 53.6954" stroke="#2E2854" stroke-width="1.0204" stroke-miterlimit="10" stroke-linecap="round" stroke-linejoin="round"/>
<path d="M137.368 60.7274C138.858 58.7394 139.61 56.2274 139.536 53.7334" stroke="#2E2854" stroke-width="1.0204" stroke-miterlimit="10" stroke-linecap="round" stroke-linejoin="round"/>
<path d="M140.611 43.5375C140.25 43.2115 139.644 43.4375 139.362 43.8465C139.082 44.2565 139.023 44.7785 138.923 45.2705C138.841 45.6715 138.726 46.0675 138.689 46.4755C138.653 46.8835 138.704 47.3145 138.93 47.6475C139.155 47.9795 139.582 48.1815 139.955 48.0475C140.381 47.8935 140.586 47.3965 140.716 46.9465C140.885 46.3635 141.016 45.7685 141.106 45.1665C141.188 44.6285 141.159 44.0325 140.611 43.5375Z" fill="#FFB852"/>
<path d="M146.028 46.2264C145.799 45.7964 145.152 45.8034 144.749 46.0924C144.346 46.3824 144.114 46.8544 143.852 47.2824C143.638 47.6314 143.396 47.9655 143.222 48.3365C143.049 48.7085 142.951 49.1304 143.049 49.5204C143.147 49.9094 143.481 50.2444 143.877 50.2444C144.33 50.2444 144.692 49.8464 144.968 49.4684C145.325 48.9774 145.651 48.4625 145.94 47.9265C146.199 47.4485 146.374 46.8784 146.028 46.2264Z" fill="#FFB852"/>
<path d="M132.057 46.9014C134.785 56.4674 130.659 67.4844 122.518 73.2004C114.378 78.9154 102.852 79.1384 94.3053 74.0504C85.7583 68.9644 80.4943 58.9614 80.9663 48.1184C94.7763 46.6854 107.797 38.8894 115.888 28.2744C117.82 36.3144 124.233 43.1194 132.057 46.9014Z" fill="#FF98AA"/>
<path d="M128.049 59.1434C124.917 57.7914 120.849 59.5224 119.59 62.6924C118.331 65.8624 120.046 69.8694 123.184 71.2074C123.615 71.3914 124.063 71.5164 124.519 71.5974C127.475 68.9794 129.757 65.6224 131.185 61.9344C130.387 60.7034 129.282 59.6754 128.049 59.1434Z" fill="#FF8095"/>
<path d="M93.9542 63.6429C91.1732 62.4419 87.6572 63.6769 86.0222 66.1889C88.2022 69.3839 91.0052 72.0869 94.3052 74.0509C94.7862 74.3379 95.2802 74.6018 95.7792 74.8548C96.6332 74.2528 97.3552 73.4699 97.8422 72.5399C99.4242 69.5189 97.0852 64.9949 93.9542 63.6429Z" fill="#FF8095"/>
<path d="M118.558 47.2883C117.562 46.9113 116.339 47.8943 116.493 48.9463C116.645 49.9993 118.096 50.5953 118.944 49.9523C119.792 49.3093 119.635 47.6943 118.558 47.2883Z" fill="#2E2854" stroke="#2E2854" stroke-width="0.9756" stroke-miterlimit="10" stroke-linecap="round" stroke-linejoin="round"/>
<path d="M92.6563 49.7756C91.6603 49.3986 90.4373 50.3816 90.5913 51.4336C90.7433 52.4866 92.1944 53.0826 93.0424 52.4396C93.8904 51.7966 93.7333 50.1816 92.6563 49.7756Z" fill="#2E2854" stroke="#2E2854" stroke-width="0.9756" stroke-miterlimit="10" stroke-linecap="round" stroke-linejoin="round"/>
<path d="M116.712 55.9385C114.75 57.1335 112.87 58.4665 111.146 60.1735C112.364 61.0705 114.153 61.1005 115.399 60.2435C116.645 59.3875 117.26 57.7085 116.712 55.9385Z" fill="#2E2854" stroke="#2E2854" stroke-width="0.9756" stroke-miterlimit="10" stroke-linecap="round" stroke-linejoin="round"/>
<path d="M101.61 47.7568C100.314 49.3528 99.3353 51.2068 98.7273 53.2538C100.514 54.1138 102.486 54.5908 104.47 54.6418" stroke="#2E2854" stroke-width="1.0204" stroke-miterlimit="10" stroke-linecap="round" stroke-linejoin="round"/>
<path d="M110.96 42.3505C111.934 40.4555 113.981 39.1625 116.111 39.0965C118.24 39.0295 120.364 40.1935 121.454 42.0235" stroke="#2E2854" stroke-width="1.0204" stroke-miterlimit="10" stroke-linecap="round" stroke-linejoin="round"/>
</svg>
