<svg width="461" height="452" viewBox="0 0 461 452" fill="none" xmlns="http://www.w3.org/2000/svg">
<path d="M393.455 225.827C483.071 277.567 483.071 361.454 393.454 413.194C303.837 464.935 158.54 464.936 68.9235 413.195C-33.7908 353.892 -11.4842 272.252 68.9247 225.827C158.541 174.087 303.838 174.087 393.455 225.827Z" fill="#484848"/>
<path d="M70.419 348.301L57.9213 355.516C58.088 351.057 58.4759 344.422 57.8605 339.957C54.0866 312.641 43.4456 303.635 38.3852 290.34C33.0571 276.339 39.5557 271.834 47.9969 274.351C55.5247 276.596 66.4176 287.736 69.8487 308.119C72.1292 321.682 71.7255 336.41 70.419 348.301Z" fill="#AD58B2"/>
<path d="M57.9211 355.516L61.4327 353.488C60.8828 340.747 57.7947 331.025 54.4337 324.112C49.6023 308.394 42.3132 300.659 38.385 290.34C37.0438 286.816 36.4521 283.894 36.4521 281.533C36.4517 276.147 39.5325 273.687 43.8206 273.687C45.1195 273.687 46.5283 273.913 47.9967 274.351C55.5246 276.596 66.4174 287.736 69.8485 308.119C71.0154 315.059 71.4795 322.306 71.4795 329.32C71.4795 336.012 71.0564 342.495 70.4188 348.301L57.9211 355.516Z" fill="#232323"/>
<path d="M63.794 352.126L62.5425 352.848C67.0133 321.001 56.1249 293.382 45.3781 281.974C45.1712 281.758 45.1813 281.409 45.3982 281.202C45.6252 280.995 45.9685 281.005 46.1754 281.223C56.917 292.635 67.8002 320.44 63.794 352.126Z" fill="white"/>
<path d="M61.4326 353.488L54.3995 357.549H54.3942C50.6553 346.54 46.8157 342.131 42.0479 334.891C37.7039 328.302 32.6536 324.22 29.9692 319.588C27.5927 315.486 25.8067 310.335 29.3385 307.217C34.9592 302.252 42.2954 307.504 47.3406 313.181C51.6998 318.09 60.469 331.148 61.4326 353.488Z" fill="#AD58B2"/>
<path d="M54.3995 357.549H54.3943C50.6553 346.54 46.8157 342.131 42.048 334.891C37.704 328.302 32.6537 324.22 29.9693 319.588C28.556 317.149 27.3513 314.338 27.3501 311.804C27.3493 310.078 27.9072 308.48 29.3385 307.217C30.9163 305.824 32.6299 305.234 34.3892 305.234C38.8978 305.234 43.7115 309.097 47.3406 313.181C51.6999 318.09 60.469 331.148 61.4327 353.488L57.9212 355.516L54.3995 357.549Z" fill="#232323"/>
<path d="M58.5468 355.153L57.5223 355.748C54.5711 338.337 42.7443 318.191 35.3933 313.432C35.136 313.266 35.0604 312.918 35.2318 312.655C35.398 312.394 35.7414 312.317 36.0038 312.489C43.6122 317.423 55.4136 337.474 58.5468 355.153Z" fill="white"/>
<path d="M389.268 348.301L401.765 355.516C401.599 351.057 401.211 344.422 401.826 339.957C405.599 312.641 416.241 303.635 421.301 290.34C426.629 276.339 420.131 271.834 411.689 274.351C404.162 276.596 393.269 287.736 389.838 308.119C387.557 321.682 387.961 336.41 389.268 348.301Z" fill="#AD58B2"/>
<path d="M401.765 355.516L389.268 348.301C388.63 342.495 388.207 336.012 388.207 329.32C388.207 322.306 388.67 315.059 389.838 308.119C393.269 287.736 404.162 276.596 411.689 274.351C413.158 273.913 414.566 273.687 415.866 273.687C420.153 273.687 423.234 276.147 423.234 281.533C423.234 283.894 422.642 286.816 421.301 290.34C417.373 300.659 410.084 308.393 405.253 324.112C401.892 331.025 398.804 340.747 398.253 353.488L401.765 355.516Z" fill="#232323"/>
<path d="M395.892 352.126L397.143 352.848C392.673 321.001 403.561 293.382 414.308 281.974C414.515 281.758 414.504 281.409 414.288 281.202C414.061 280.995 413.718 281.005 413.511 281.223C402.769 292.635 391.886 320.44 395.892 352.126Z" fill="white"/>
<path d="M398.253 353.488L405.287 357.549H405.292C409.031 346.54 412.87 342.131 417.638 334.891C421.982 328.302 427.033 324.22 429.717 319.588C432.093 315.486 433.88 310.335 430.347 307.217C424.727 302.252 417.391 307.504 412.346 313.181C407.986 318.09 399.217 331.148 398.253 353.488Z" fill="#AD58B2"/>
<path d="M405.292 357.549H405.287L401.765 355.516L398.253 353.488C399.217 331.148 407.986 318.09 412.346 313.181C415.975 309.097 420.788 305.234 425.297 305.234C427.056 305.234 428.77 305.824 430.348 307.217C431.779 308.48 432.337 310.078 432.336 311.804C432.335 314.338 431.131 317.149 429.717 319.588C427.033 324.22 421.982 328.302 417.638 334.891C412.87 342.131 409.031 346.54 405.292 357.549Z" fill="#232323"/>
<path d="M401.14 355.153L402.164 355.748C405.115 338.337 416.941 318.191 424.294 313.432C424.55 313.266 424.626 312.918 424.454 312.655C424.288 312.394 423.945 312.317 423.683 312.489C416.074 317.423 404.273 337.474 401.14 355.153Z" fill="white"/>
<path d="M392.853 341.943C424.305 360.103 424.305 389.544 392.853 407.704C361.4 425.863 310.405 425.863 278.952 407.704C247.5 389.544 247.5 360.103 278.953 341.943C310.405 323.785 361.4 323.785 392.853 341.943Z" fill="#353534"/>
<path d="M183.494 341.943C214.947 360.103 214.947 389.544 183.494 407.704C152.042 425.863 101.047 425.863 69.5948 407.704C38.1422 389.544 38.1422 360.103 69.5952 341.943C101.048 323.785 152.042 323.785 183.494 341.943Z" fill="#353534"/>
<path d="M378.798 351.693C378.422 340.2 379.293 332.65 379.13 312.711C379.118 306.731 379.008 300.323 378.701 294.627C377.667 275.463 374.824 268.869 374.612 265.171C374.612 265.171 374.598 235.379 374.037 193.474C373.774 173.76 368.164 166.139 363.773 155.605H309.546C303.061 181.312 300.084 238.344 299.827 264.945C299.695 278.507 304.96 339.181 305.043 340.852C305.334 346.778 304.394 350.109 302.032 352.559C297.087 357.693 289.962 360.87 283.798 365.315C284.642 367.658 292.99 368.821 296.644 367.109C302.481 364.372 308.3 360.146 310.3 358.716C315.364 355.095 322.874 354.079 323.049 348.444C323.074 347.743 323.394 345.924 323.36 345.813C323.509 342.524 329.062 305.174 330.721 294.017C332.198 284.084 332.198 267.623 332.198 267.623L337.03 227.003C337.03 227.003 340.804 251.238 344.104 267.921C346.55 280.288 351.852 305.811 355.175 319.33C357.541 328.957 360.273 340.448 362.154 351.023C361.854 355.273 365.889 377.445 366.872 382.595C367.855 387.746 379.04 388.066 379.902 379.25C380.476 373.382 378.889 354.511 378.798 351.693Z" fill="#F8A39A"/>
<path d="M276.167 373.31C275.858 373.313 275.425 376.73 277.121 378.165C279.08 379.819 284.806 382.511 292.326 381.461C299.845 380.411 303.899 378.04 306.887 375.487C309.874 372.935 314.061 369.336 317.459 368.549C320.617 367.82 324.038 366.352 325.04 365.363C326.043 364.375 325.859 360.029 325.859 360.029L276.167 373.31Z" fill="#17282F"/>
<path d="M323.667 342.967C323.667 342.967 324.411 343.133 324.616 344.137C324.86 345.334 324.368 349.009 324.885 350.97C325.604 353.698 326.124 359.295 325.732 361.527C325.341 363.758 320.198 365.359 316.915 366.647C313.561 367.964 309.693 370.646 306.304 373.5C302.796 376.452 295.382 379.455 290.476 379.577C282.984 379.763 278.113 377.779 276.586 375.102C274.7 371.789 275.068 368.755 283.637 364.679C285.259 363.908 290.95 360.462 292.888 359.214C294.937 357.895 296.897 356.432 298.703 354.793C299.615 353.965 300.488 353.09 301.305 352.165C302.023 351.352 303.037 350.367 303.457 349.359C303.552 349.131 303.617 348.865 303.701 348.628C303.946 347.944 304.112 347.315 304.242 346.604C304.373 345.888 304.451 344.843 305.128 344.407C305.903 343.907 307.315 343.954 308.2 344.012C309.315 344.085 311.786 344.607 312.867 344.88C314.796 345.368 315.328 345.907 316.091 347.089C316.677 347.995 316.777 349.147 316.832 350.2C316.859 350.702 316.853 351.209 316.863 351.712C316.867 351.926 316.78 352.314 317.08 352.221C317.365 352.132 317.677 351.378 317.782 351.122C318.016 350.557 318.163 349.953 318.418 349.397C318.711 348.761 319.042 348.109 319.471 347.564C319.872 347.055 320.311 346.566 320.819 346.161C321.282 345.793 321.875 345.607 322.284 345.192C322.803 344.665 323.626 343.393 323.667 342.967Z" fill="#273E47"/>
<path d="M282.255 365.35C293.11 365.988 297.659 373.74 298.161 377.881C295.483 378.86 292.718 379.522 290.476 379.577C282.984 379.763 277.804 377.785 276.278 375.108C274.499 371.983 274.595 368.346 282.255 365.35Z" fill="#FAFAF9"/>
<path d="M299.582 366.385C299.699 366.383 299.818 366.343 299.915 366.262C300.14 366.074 300.169 365.741 299.982 365.516C298.453 363.682 293.008 360.191 289.071 360.659C288.78 360.694 288.571 360.957 288.606 361.247C288.64 361.537 288.897 361.744 289.195 361.711C292.87 361.284 297.957 364.74 299.169 366.195C299.275 366.322 299.427 366.387 299.582 366.385Z" fill="#EDEDEB"/>
<path d="M304.225 363.616C304.344 363.614 304.461 363.575 304.559 363.493C304.785 363.305 304.813 362.972 304.626 362.747C303.096 360.912 297.65 357.413 293.715 357.891C293.424 357.924 293.216 358.188 293.251 358.479C293.285 358.767 293.536 358.977 293.839 358.942C297.515 358.51 302.601 361.971 303.813 363.426C303.918 363.553 304.072 363.618 304.225 363.616Z" fill="#EDEDEB"/>
<path d="M308.522 360.464C308.64 360.462 308.758 360.422 308.856 360.34C309.08 360.153 309.109 359.818 308.923 359.594C307.395 357.759 301.931 354.266 298.011 354.737C297.721 354.772 297.513 355.036 297.548 355.326C297.582 355.615 297.834 355.821 298.135 355.79C301.807 355.361 306.898 358.819 308.11 360.273C308.215 360.4 308.367 360.465 308.522 360.464Z" fill="#EDEDEB"/>
<path d="M312.731 357.312C312.846 357.31 312.962 357.271 313.059 357.193C313.287 357.01 313.321 356.676 313.137 356.449C311.033 353.846 305.255 351.077 301.322 351.547C301.032 351.581 300.822 351.846 300.859 352.136C300.893 352.425 301.147 352.625 301.447 352.599C304.988 352.179 310.447 354.809 312.314 357.115C312.419 357.247 312.575 357.312 312.731 357.312Z" fill="#EDEDEB"/>
<path d="M363.292 386.537C363.506 391.658 364.245 395.062 366.011 398.092C367.776 401.122 371.185 402.12 374.666 401.299C378.148 400.478 382.629 398.203 383.695 393.806C384.762 389.411 385.391 386.396 384.682 381.639L363.292 386.537Z" fill="#17282F"/>
<path d="M378.736 349.338C380.163 349.474 380.049 356.747 380.76 363.637C381.52 371.024 383.671 374.109 384.36 380.165C385.148 387.085 383.954 390.151 381.465 394.287C378.978 398.422 370.346 402.375 366.223 396.327C362.863 391.395 363.189 386 363.237 379.097C363.288 371.87 362.894 366.992 362.216 361.618C361.435 355.424 360.903 351.577 362.154 351.023C362.237 351.784 362.314 352.749 362.403 353.496C362.513 354.416 362.762 356.227 362.762 356.227C362.901 356.615 363.27 357.055 363.41 356.432C363.505 356.01 363.47 355.571 363.431 355.146C363.252 353.239 364.215 353.099 364.735 352.96C365.863 352.658 371.217 351.819 372.288 351.764C373.382 351.707 377.152 351.605 377.631 352.235C377.955 352.66 377.991 353.366 378.078 354.24C378.184 355.28 378.196 355.931 378.446 355.72C378.744 355.47 378.754 353.503 378.744 353.035C378.734 352.587 378.728 351.569 378.729 351.118C378.73 350.676 378.759 349.78 378.736 349.338Z" fill="#273E47"/>
<path d="M384.858 384.173C385.034 388.465 383.961 391.384 382.013 394.621C379.525 398.757 370.203 402.713 366.081 396.664C364.029 393.654 363.524 390.127 363.294 386.534C365.9 381.967 380.932 380.184 384.858 384.173Z" fill="#FAFAF9"/>
<path d="M366.535 379.077L366.713 379.032C366.77 379.005 373.427 376.381 379.837 377.976C380.121 378.042 380.407 377.873 380.48 377.589C380.55 377.305 380.376 377.017 380.092 376.947C373.312 375.263 366.524 377.953 366.271 378.066C366.005 378.19 365.887 378.503 366.009 378.77C366.105 378.978 366.32 379.096 366.535 379.077Z" fill="#EDEDEB"/>
<path d="M379.602 372.825C379.803 372.807 379.986 372.676 380.058 372.475C380.155 372.199 380.012 371.895 379.737 371.796C373.368 369.521 366.205 372.661 365.935 372.797C365.673 372.928 365.568 373.245 365.701 373.508C365.833 373.769 366.155 373.867 366.412 373.743C366.471 373.713 373.453 370.67 379.379 372.796L379.602 372.825Z" fill="#EDEDEB"/>
<path d="M379.457 367.968C379.654 367.952 379.833 367.824 379.908 367.627C380.011 367.352 379.873 367.046 379.6 366.944C372.596 364.304 365.789 367.752 365.537 367.9C365.284 368.048 365.199 368.372 365.347 368.625C365.496 368.877 365.825 368.963 366.072 368.814C366.128 368.78 372.707 365.481 379.225 367.935L379.457 367.968Z" fill="#EDEDEB"/>
<path d="M379.185 363.185C379.38 363.168 379.558 363.045 379.634 362.851C379.741 362.578 379.609 362.271 379.335 362.164C372.775 359.582 365.45 363.111 365.175 363.266C364.92 363.405 364.828 363.729 364.969 363.985C365.109 364.242 365.432 364.339 365.689 364.192C365.753 364.158 372.855 360.751 378.947 363.149L379.185 363.185Z" fill="#E7E8E5"/>
<path d="M367.558 155.605C373.789 167.426 377.09 178.686 377.166 213.531C377.243 248.377 375.947 258.284 376.014 262.487C376.081 266.69 379.751 276.041 379.848 296.845C379.929 314.469 379.774 327.839 379.774 327.839C379.774 327.839 377.723 332.004 369.8 332.582C362.49 333.116 357.155 330.317 357.155 330.317C357.155 330.317 348.22 301.109 345.82 288.568C343.046 274.068 337.513 239.58 337.513 239.58L333.533 267.623C333.533 267.623 334.209 278.761 332.411 292.347C330.011 310.472 327.046 324.24 327.046 324.24C327.046 324.24 320.378 326.07 314.134 325.873C307.892 325.675 303.234 322.893 303.234 322.893C303.234 322.893 299.071 284.171 298.717 258.516C298.433 237.949 299.872 185.976 301.944 155.605H367.558Z" fill="#273E47"/>
<path d="M311.517 230.018L313.76 201.678C312.145 211.026 310.852 220.43 309.82 229.86C308.815 239.304 307.848 248.708 307.66 258.297C307.823 267.844 308.394 277.276 309.013 286.747C309.627 296.206 310.422 305.657 311.38 315.094C311.273 305.608 311.05 296.131 310.722 286.661L310.24 272.46C310.08 267.734 309.87 262.984 309.852 258.298C309.85 253.631 310.208 248.893 310.503 244.18C310.796 239.458 311.177 234.741 311.517 230.018ZM357.98 264.691C356.34 255.003 355.222 245.217 354.119 235.425C353.049 225.628 351.988 215.819 350.789 206.021C351.222 215.882 351.769 225.734 352.58 235.573C353.369 245.412 354.407 255.248 356.02 265.019C357.756 274.768 359.508 284.439 361.378 294.13C363.22 303.817 365.19 313.483 367.286 323.132C365.952 313.355 364.493 303.595 362.905 293.857C361.348 284.124 359.667 274.368 357.98 264.691ZM364.489 176.894C365.574 178.923 366.603 180.979 367.642 183.037L370.703 189.319C370.542 186.947 369.975 184.625 369.224 182.384C368.483 180.135 367.508 177.974 366.429 175.876C365.313 173.796 364.093 171.775 362.702 169.872C361.321 167.962 359.814 166.143 358.084 164.516C359.077 166.673 360.169 168.726 361.254 170.773C362.328 172.826 363.438 174.845 364.489 176.894ZM358.536 183.224C359.293 186.575 359.974 189.947 360.703 193.314C361.416 196.688 362.133 200.058 362.907 203.456C363.041 199.969 362.792 196.488 362.392 193.038C362.001 189.584 361.406 186.157 360.676 182.755C359.908 179.364 359.019 175.991 357.867 172.699C356.726 169.41 355.377 166.165 353.558 163.183C354.543 166.526 355.412 169.846 356.233 173.182C357.034 176.523 357.819 179.864 358.536 183.224ZM311.425 186.59C314.387 195.135 325.572 201.268 330.512 202.538L334.407 239.599L333.533 267.623L337.513 239.58L332.673 195.92C332.673 195.92 318.937 194.71 311.425 186.59Z" fill="#17282F"/>
<path d="M368.056 44.2631C369.188 46.5187 369.328 49.1381 369.219 51.6596C368.904 58.9736 366.689 66.2578 367.69 73.51C368.072 76.2716 368.911 78.9456 369.67 81.6289C369.84 82.2286 370.007 82.8479 369.937 83.4672C369.866 84.0865 369.501 84.714 368.908 84.9077C368.149 85.1571 367.287 84.6429 366.538 84.919C366.581 86.4297 366.624 87.9403 366.667 89.4509C366.675 89.725 366.681 90.0105 366.57 90.2619C366.246 91.0028 365.212 91.0059 364.411 90.8894C364.872 93.4212 362.669 95.8706 360.157 96.4291C357.645 96.9886 355.024 96.0828 352.789 94.8072C351.178 93.888 349.66 92.7504 348.55 91.2635C346.022 87.8764 345.88 82.9282 345.713 78.8662C345.516 74.1046 345.972 69.3471 346.426 64.6132C347.204 56.5191 348.016 48.2849 351.136 40.775C351.52 39.8518 351.971 38.8997 352.782 38.3144C353.704 37.6477 354.918 37.5776 356.057 37.5869C361.043 37.6301 365.714 39.5942 368.056 44.2631Z" fill="#17282F"/>
<path d="M362.084 40.5637C362.389 41.2613 362.59 41.9651 362.659 42.6318C362.924 45.1595 360.779 47.7479 358.055 47.2636C356.037 46.904 353.659 44.6092 352.583 42.9698C351.528 41.3602 350.457 37.8969 352.141 36.3832C355.715 33.1693 360.431 36.7861 362.084 40.5637Z" fill="#FCC8FF"/>
<path d="M314.391 91.9467C302.446 94.496 300.773 97.0299 294.579 106.087C287.499 116.439 275.741 134.412 274.546 146.05C278.649 146.281 294.063 146.402 294.063 146.402L306.467 124.969L314.391 91.9467Z" fill="#D7D7D7"/>
<path d="M373.445 167.053C372.426 151.765 371.975 146.355 371.975 138.04C371.975 129.727 372.494 125.62 372.634 119.482C372.978 104.392 367.495 95.315 364.416 92.71C364.416 92.71 359.667 91.7724 352.923 90.271C350.616 89.7578 348.564 89.4961 345.061 89.0015C337.281 87.9041 333.635 89.0056 330.726 89.3013C329.291 89.4466 323.761 89.6981 323.761 89.6981C321.704 90.1772 314.398 91.9413 314.391 91.9465C314.391 91.9465 312.145 94.8379 307.749 102.693C304.395 108.688 301.888 112.805 301.282 126.257C300.461 144.488 300.177 168.706 300.177 168.706C308.607 179.98 359.35 183.469 373.445 167.053Z" fill="#353534"/>
<path d="M353.995 41.1923C352.474 31.8163 336.206 20.5073 317.786 30.078C313.236 32.4418 308.702 35.595 306.07 40.1155C304.959 42.0208 303.899 43.9106 304.054 46.1961C304.215 48.5837 305.472 50.9454 307.552 52.1912C307.795 52.3375 308.066 52.49 308.169 52.7559C308.284 53.0516 308.149 53.3783 308.039 53.6761C307.061 56.3377 308.205 59.4321 310.228 61.4188C312.252 63.4045 315.002 64.4658 317.738 65.2108C320.023 65.8332 322.358 66.2711 324.713 66.5195C325.618 66.6143 326.536 66.6844 327.395 66.9822C328.086 67.2212 328.717 67.6014 329.342 67.9817C332.526 69.9271 335.669 71.9891 338.377 74.5569C341.085 77.1237 343.358 80.2367 344.491 83.7927C346.165 78.1469 349.834 73.3503 353.232 68.5412C356.735 63.5848 361.273 57.0796 360.564 50.694C360.045 46.0261 357.993 41.8446 353.995 41.1923Z" fill="#17282F"/>
<path d="M347.819 83.8948C347.819 80.6355 347.466 67.9436 347.466 67.9436C347.5 68.7803 351.386 71.4492 355.303 68.1167C359.701 64.3762 359.795 59.527 357.83 56.4655C356.689 54.688 354.565 53.7369 352.48 54.1038C351.72 54.2367 351.125 54.5129 350.536 54.9992C349.418 55.9204 348.468 57.0457 347.748 58.3028C347.416 58.8809 346.832 60.0247 346.103 60.1854C345.342 60.3534 344.613 59.5187 344.391 58.886C344.14 58.1647 344.224 57.3713 344.372 56.6222C344.49 56.0173 344.648 55.3898 344.487 54.7942C344.223 53.8132 343.212 53.2588 342.571 52.4705C341.339 50.9547 341.657 49.0041 341.481 47.206C341.305 45.4079 340.587 43.7932 339.099 42.6937C336.88 41.0543 333.788 40.5937 331.188 41.4448C329.762 41.9116 328.336 42.7452 326.864 42.4516C325.8 42.2393 324.944 41.4685 323.964 41.0017C322.345 40.2299 320.383 40.3258 318.757 41.0821C317.562 41.6375 316.818 42.3104 316.026 43.3584C315.246 44.3919 314.661 45.9365 314.334 47.1823C313.143 51.7276 312.439 56.4202 312.274 61.1169C311.857 72.9793 314.939 77.4319 318.265 80.1399C320.124 81.6536 322.63 82.5367 327.087 82.4821C327.087 82.4821 327.157 82.6809 327.238 84.8675C327.313 86.8655 327.087 88.5246 325.383 89.1583C324.179 89.6055 322.274 90.062 322.274 90.062C322.274 90.062 316.072 98.1643 327.63 99.6615C346.053 102.048 354.225 90.637 354.225 90.637C354.225 90.637 352.159 90.1424 351.541 89.9548C348.986 89.1779 347.819 87.153 347.819 83.8948Z" fill="#F8A39A"/>
<path d="M332.3 67.4303C332.235 67.2541 331.972 66.9687 331.768 67.1511C331.521 67.3695 331.324 67.6457 331.088 67.8786C330.88 68.0857 330.665 68.2825 330.436 68.4659C329.977 68.8338 329.478 69.1481 328.946 69.3985C328.439 69.6365 327.907 69.8282 327.361 69.959C327.048 70.0342 326.732 70.0868 326.41 70.1208C326.052 70.16 325.629 70.1301 325.277 70.2259C325.01 70.2991 325.135 70.7226 325.347 70.7906C326.034 71.0111 326.851 70.8926 327.547 70.7607C328.235 70.6309 328.906 70.4134 329.536 70.1074C330.138 69.8137 330.712 69.4521 331.228 69.0224C331.515 68.7823 331.783 68.5226 332.027 68.2382C332.236 67.995 332.42 67.759 332.3 67.4303Z" fill="#C35363"/>
<path d="M327.087 82.482C335.093 82.2409 342.589 79.2515 345.301 72.8917C345.301 72.8917 345.006 77.8172 340.422 80.8858C334.536 84.8283 327.239 84.8674 327.239 84.8674L327.087 82.482Z" fill="#F47089"/>
<path d="M316.816 51.1372L321.63 49.6894C321.278 48.3344 319.913 47.5605 318.584 47.9604C317.255 48.3602 316.463 49.7832 316.816 51.1372Z" fill="#17282F"/>
<path d="M337.225 52.3428L332.574 50.2716C333.102 48.9547 334.571 48.3529 335.856 48.9248C337.139 49.4967 337.752 51.0279 337.225 52.3428Z" fill="#17282F"/>
<path d="M321.055 55.668C321.062 56.8479 320.101 57.836 318.907 57.8752C317.712 57.9154 316.739 56.9901 316.732 55.8102C316.725 54.6293 317.688 53.6432 318.881 53.604C320.074 53.5639 321.049 54.4892 321.055 55.668Z" fill="#17282F"/>
<path d="M335.645 56.9354C335.651 58.1153 334.69 59.1034 333.496 59.1426C332.301 59.1818 331.328 58.2564 331.321 57.0776C331.313 55.8967 332.276 54.9096 333.47 54.8714C334.663 54.8312 335.638 55.7556 335.645 56.9354Z" fill="#17282F"/>
<path d="M319.22 62.8099L325.607 65.4519L326.716 54.0037L319.22 62.8099Z" fill="#F47089"/>
<path d="M364.416 92.7101C375.413 96.093 376.454 101.718 376.614 106.069C376.832 112.008 372.742 124.542 369.496 134.098C363.432 151.942 357.759 159.215 351.383 159.215L346.456 134.336L351.995 116.729C351.995 116.729 356.924 97.0132 364.416 92.7101Z" fill="#D7D7D7"/>
<path d="M324.831 111.672C331.283 117.298 337.734 122.747 343.514 127.487C348.432 131.518 351.91 134.265 353.798 137.516C355.686 140.767 356.886 153.04 354.637 157.435C352.388 161.83 340.551 157.404 335.916 152.831C331.282 148.258 327.734 139.814 323.922 133.693C320.109 127.571 317.31 123.498 314.036 121.778L324.831 111.672Z" fill="#F8A39A"/>
<path d="M314.036 121.778L314.98 120.894C318.447 122.316 320.784 124.634 323.582 128.758C327.126 133.981 331.979 150.091 337.986 154.542C337.204 153.985 336.502 153.409 335.916 152.831C331.282 148.258 327.734 139.815 323.922 133.693C320.109 127.571 317.31 123.498 314.036 121.778Z" fill="#F47089"/>
<path d="M293.385 121.519C294.051 122.622 292.812 124.508 291.956 125.692C291.102 126.875 288.082 129.783 284.636 131.998C280.974 134.349 277.429 137.595 275.692 141.334C273.954 145.072 274.067 152.132 275.772 154.674C277.479 157.217 281.607 156.292 285.286 154.559C290.35 152.175 293.115 148.421 296.894 142.878C301.001 136.853 304.14 131.726 306.615 128.705C309.089 125.682 293.385 121.519 293.385 121.519Z" fill="#F8A39A"/>
<path d="M291.683 148.256C294.079 145.051 300.412 130.826 298.982 128.135C297.551 125.443 293.611 123.653 292.664 124.646C293.329 123.576 293.877 122.334 293.385 121.519C293.385 121.519 309.089 125.682 306.615 128.704C304.14 131.726 301.001 136.853 296.894 142.878C293.115 148.421 290.35 152.175 285.286 154.559C285.286 154.559 289.287 151.46 291.683 148.256Z" fill="#F47089"/>
<path d="M288.706 119.467C290.93 119.679 292.764 121.037 294.51 122.344C296.255 123.651 302.05 127.743 305.361 127.948C308.672 128.153 294.663 115.853 288.706 119.467Z" fill="#C35363"/>
<path d="M298.043 113.785C294.612 113.117 292.15 114.604 289.008 114.83C285.866 115.056 284.038 114.745 281.853 116.059C279.666 117.373 278.764 119.143 281.475 119.938C284.185 120.734 286.775 119.354 289.413 119.531C292.051 119.708 293.811 120.079 296.76 122.49C299.71 124.901 303.809 129.151 306.246 130.716C308.682 132.281 310.126 131.094 310.126 131.094C310.126 131.094 311.735 132.977 313.208 133.519C314.683 134.061 315.415 132.672 315.301 131.797C316.616 131.926 317.745 131.238 317.438 129.615C317.132 127.992 314.567 125.022 314.567 125.022C314.567 125.022 316.094 126.31 316.905 126.908C318.419 128.025 319.969 126.808 319.056 124.596C318.143 122.383 310.462 116.059 307.64 115.053C304.816 114.049 302.166 114.93 302.166 114.93C302.166 114.93 300.427 114.249 298.043 113.785Z" fill="#F8A39A"/>
<path d="M315.706 124.647C317.988 126.503 318.743 126.782 319.228 126.447C318.918 127.362 317.906 127.647 316.905 126.908C316.094 126.31 314.567 125.022 314.567 125.022L308.939 119.256C308.939 119.256 313.337 122.719 315.706 124.647Z" fill="#F47089"/>
<path d="M308.232 121.519C308.681 122.414 310.293 123.862 311.648 125.633C313.004 127.403 314.611 129.538 315.747 130.412C316.635 131.095 317.332 130.387 317.484 130.231C317.429 131.41 316.435 131.908 315.301 131.797C315.099 130.6 313.443 128.517 311.868 126.568C310.293 124.619 307.184 121.606 307.36 121.087C307.537 120.569 307.784 120.625 308.232 121.519Z" fill="#F47089"/>
<path d="M304.806 122.136C304.298 121.552 305.211 120.72 305.578 121.528C305.945 122.336 305.493 122.395 306.667 123.765C307.841 125.135 310.138 127.557 310.748 128.419C311.358 129.28 312.285 130.453 311.592 132.518V132.519C310.758 131.833 310.126 131.094 310.126 131.094C310.846 130.501 310.801 128.899 309.488 127.435C308.176 125.97 305.313 122.721 304.806 122.136Z" fill="#F47089"/>
<path d="M279.814 118.596C280.354 119.424 283.037 119.382 284.811 118.768C286.583 118.154 290.482 117.093 292.709 117.521C294.935 117.95 297.186 119.418 299.539 122.425C301.89 125.432 305.099 128.892 307.074 130.195C309.048 131.498 309.839 131.265 309.84 131.265C309.307 131.525 308.05 131.874 306.247 130.716C303.81 129.151 299.711 124.901 296.761 122.49C293.811 120.079 292.051 119.708 289.414 119.531C286.776 119.354 284.185 120.734 281.475 119.939C280.384 119.618 279.885 119.139 279.814 118.596Z" fill="#F47089"/>
<path d="M313.758 120.909C311.655 120.445 310.346 120.37 307.57 120.306C303.758 119.934 300.17 119.585 299.51 118.615C298.85 117.646 296.512 115.305 296.465 114.244C296.417 113.183 297.162 112.501 297.162 112.501C297.162 112.501 296.197 111.576 295.79 110.33C295.383 109.083 296.285 107.569 296.285 107.569C296.285 107.569 295.577 107.036 295.249 105.901C294.873 104.603 295.734 103.156 297.101 102.737C296.176 102.052 295.898 100.834 295.994 99.851C296.129 98.46 297.913 97.4584 300.243 97.9828C302.574 98.5084 307.206 99.8521 308.256 99.1607C309.306 98.4692 308.794 94.7483 308.926 92.3804C309.058 90.0114 310.592 86.0576 312.829 86.4615C314.019 86.6769 313.392 90.3339 313.968 93.5932C314.543 96.8514 317.652 100.572 319.343 104.607C320.14 106.508 322.283 109.045 324.831 111.672C324.385 116.244 320.173 121.008 316.994 121.952C315.645 121.376 314.868 121.153 313.758 120.909Z" fill="#F8A39A"/>
<path d="M308.256 99.1607C308.899 98.7382 308.956 97.1802 308.934 95.4933V95.4923C309.386 97.106 311.409 99.0216 310.502 99.7676C309.595 100.514 306.404 99.4224 304.349 98.9494H304.35C306.078 99.3132 307.689 99.5337 308.256 99.1607Z" fill="#F47089"/>
<path d="M296.138 103.269C296.415 103.035 296.739 102.849 297.102 102.737C297.102 102.737 299.609 103.986 301.84 104.907C298.611 104.477 296.963 103.787 296.138 103.269Z" fill="#F47089"/>
<path d="M296.285 107.569C297.535 108.462 300.253 109.891 300.253 109.891C300.253 109.891 297.491 109.211 295.848 108.604C296.025 108.007 296.285 107.569 296.285 107.569Z" fill="#F47089"/>
<path d="M297.163 112.501C298.151 113.42 301.056 115.277 301.056 115.277C301.056 115.277 298.145 114.348 296.595 113.412C296.797 112.843 297.163 112.501 297.163 112.501Z" fill="#F47089"/>
<path d="M297.121 115.62C298.285 117.106 299.824 118.613 304.061 119.083C307.668 119.483 311.407 119.496 314.98 120.894C315.56 121.12 316.661 121.678 317.057 121.933L316.943 121.967C313.532 120.752 310.933 120.634 307.571 120.306C303.758 119.934 300.17 119.585 299.51 118.615C299.068 117.966 297.876 116.703 297.121 115.62Z" fill="#F47089"/>
<path d="M307.569 120.306L304.173 119.829C303.048 119.657 301.909 119.51 300.835 119.178C300.303 119.003 299.769 118.836 299.489 118.346C299.129 117.89 298.757 117.457 298.377 117.031C298 116.602 297.628 116.17 297.283 115.719C296.949 115.269 296.566 114.813 296.464 114.244C296.516 114.824 296.862 115.323 297.16 115.806C297.484 116.283 297.839 116.735 298.195 117.183C298.547 117.634 298.927 118.064 299.264 118.515C299.337 118.625 299.425 118.743 299.545 118.869C299.665 118.971 299.79 119.072 299.925 119.137C300.188 119.288 300.467 119.382 300.744 119.473C301.866 119.791 303.006 119.942 304.144 120.064C305.284 120.182 306.427 120.252 307.569 120.306Z" fill="#C35363"/>
<path d="M302.913 104.801C303.132 104.953 303.296 105.157 303.619 105.467C303.874 105.712 304.187 105.905 304.512 106.053C304.666 106.124 304.937 106.197 305.104 106.223C305.266 106.249 306.021 106.289 306.126 106.307C306.256 106.327 306.406 106.366 306.51 106.449L306.495 106.562C306.292 106.674 306.044 106.703 305.817 106.72C305.568 106.739 305.332 106.821 305.085 106.814C304.716 106.804 304.374 106.721 304.053 106.539C303.753 106.368 303.53 106.066 303.334 105.786C303.053 105.387 302.995 105.174 302.906 104.815L302.913 104.801Z" fill="#F47089"/>
<path d="M301.416 109.691C301.634 109.843 301.798 110.047 302.121 110.356C302.376 110.603 302.689 110.794 303.014 110.944C303.168 111.015 303.439 111.087 303.606 111.113C303.768 111.139 304.523 111.18 304.628 111.196C304.758 111.217 304.908 111.256 305.012 111.338L304.997 111.453C304.794 111.563 304.546 111.594 304.319 111.61C304.07 111.628 303.834 111.711 303.587 111.704C303.218 111.694 302.876 111.611 302.555 111.428C302.255 111.257 302.032 110.956 301.836 110.677C301.555 110.277 301.497 110.065 301.408 109.704L301.416 109.691Z" fill="#F47089"/>
<path d="M301.003 113.912C301.223 114.064 301.387 114.268 301.709 114.578C301.965 114.823 302.277 115.016 302.603 115.164C302.756 115.236 303.027 115.308 303.194 115.334C303.357 115.36 304.111 115.4 304.216 115.418C304.346 115.439 304.496 115.477 304.601 115.56L304.585 115.673C304.382 115.785 304.135 115.815 303.907 115.831C303.659 115.85 303.423 115.932 303.175 115.926C302.806 115.916 302.464 115.832 302.143 115.65C301.843 115.479 301.621 115.177 301.425 114.898C301.142 114.498 301.086 114.285 300.996 113.926L301.003 113.912Z" fill="#F47089"/>
<path d="M399.187 11.692C393.366 16.4237 389.919 23 388.964 29.907L388.714 33.1477C388.57 39.6612 390.633 46.2591 395.053 51.6967C404.945 63.8662 422.889 65.723 435.058 55.8308C440.496 51.4113 443.869 45.3708 445.057 38.9728L445.467 35.7444C445.955 28.789 443.922 21.646 439.192 15.8261C429.299 3.65657 411.355 1.79975 399.187 11.692Z" fill="white"/>
<path d="M439.192 15.826C443.923 21.646 445.956 28.789 445.467 35.7444L445.057 38.9728C443.869 45.3708 440.496 51.4112 435.058 55.8308C422.889 65.723 404.945 63.8662 395.053 51.6967C390.633 46.259 388.571 39.6611 388.714 33.1477L388.964 29.907C389.919 22.9999 393.366 16.4237 399.187 11.6919C411.356 1.79973 429.3 3.65654 439.192 15.826ZM397.665 9.82684C385.825 19.447 382.998 36.0999 390.285 48.9567L385.534 57.2816C384.722 58.7026 386.084 60.3792 387.641 59.8753L396.76 56.9261C407.852 66.6885 424.734 67.3295 436.577 57.7021C449.782 46.9824 451.793 27.5071 441.063 14.3072C430.333 1.10623 410.865 -0.902092 397.665 9.82684Z" fill="#232323"/>
<path d="M431.664 23.3327C429.298 17.8611 424.13 14.8924 418.359 14.5411C415.264 14.3525 412.052 15.1243 409.596 17.0728C407.37 18.838 405.247 21.9097 405.8 24.8877C405.87 25.2679 406.937 25.6131 407.048 25.0886C407.294 23.9397 407.239 23.3328 407.747 22.2632C408.253 21.1997 409.16 19.9828 410.002 19.1595C411.805 17.3974 414.456 16.638 416.959 16.4566C421.945 16.0939 426.4 17.8209 429.094 22.1477C431.699 26.3344 431.414 31.737 428.878 35.8845C427.518 38.1072 425.989 39.5168 424.117 41.2871C422.107 43.1883 420.609 44.4908 419.452 46.6815C418.877 47.7696 418.407 48.9268 417.68 49.9274C416.897 51.0073 415.657 51.5668 414.333 51.6255C412.981 51.6853 411.151 51.2504 409.982 50.4951C409.019 49.8717 407.677 48.8773 407.264 46.3363C407.097 45.31 405.933 45.6613 406.015 46.8505C406.102 48.1251 406.187 48.9278 407.199 50.2386C408.052 51.3463 409.382 52.3592 410.666 52.7941C413.182 53.6483 416.618 53.6823 418.585 51.6997C420.46 49.8078 420.979 47.0236 422.848 45.1059C424.885 43.0162 426.716 41.451 428.662 39.2561C432.467 34.9643 433.988 28.7096 431.664 23.3327Z" fill="#232323"/>
<path d="M425.424 24.1911C425.657 23.7902 425.343 23.0999 425.167 22.7392C425.018 22.4291 424.81 22.1457 424.573 21.8922C422.793 19.9962 419.739 19.4758 417.277 19.9766C413.94 20.6557 410.035 23.8139 410.749 27.609C411.066 29.2918 412.535 30.7395 414.274 30.8323C415.954 30.9229 417.163 29.7555 418.62 29.1516C420.797 28.25 421.95 30.5407 422.183 32.3625C422.311 33.3672 422.447 34.5707 422.19 35.563C421.95 36.4925 421.194 36.8336 420.364 37.1272C419.584 37.4034 418.759 37.6311 418.089 38.136C417.222 38.7914 417.037 39.6992 416.642 40.6503C416.395 41.2449 415.944 41.8662 415.422 42.2454C414.911 42.6195 414.316 42.6339 413.721 42.4917C413.133 42.3505 412.678 41.925 412.312 41.4551C412.112 41.2006 411.973 40.7977 411.687 40.6297C411.099 40.2845 410.789 40.8523 410.734 41.351C410.664 41.9919 410.973 42.6267 411.396 43.0904C412.265 44.0466 413.783 44.3506 415.011 44.0373C416.229 43.7261 417.318 42.8183 417.946 41.7426C418.398 40.9687 418.443 39.8775 419.166 39.2922C419.748 38.8223 420.569 38.6626 421.254 38.4081C421.903 38.1669 422.549 37.8609 423.041 37.3611C423.82 36.5677 423.975 35.461 423.964 34.3955C423.943 32.4913 423.813 30.4046 422.501 28.9022C421.262 27.4854 419.427 27.1196 417.728 27.8873C416.441 28.4685 414.757 30.0842 413.354 28.9466C411.538 27.472 412.619 24.8547 413.962 23.4955C415.426 22.0148 417.54 21.2193 419.614 21.3461C420.563 21.4027 421.487 21.682 422.333 22.1106C423.147 22.5238 423.614 23.0896 424.163 23.7851C424.449 24.1499 424.888 24.8485 425.376 24.2601L425.424 24.1911Z" fill="#232323"/>
<path d="M399.886 42.4546C399.488 41.7261 399.756 40.812 400.484 40.4143L434.465 21.8519C435.194 21.4532 436.108 21.7211 436.506 22.4496C436.904 23.1782 436.636 24.0911 435.908 24.4899L401.926 43.0522C401.198 43.451 400.285 43.1831 399.886 42.4546Z" fill="#33535F"/>
<path d="M416.828 139.963C409.999 136.859 405.002 131.368 402.329 124.928L401.267 121.855C399.481 115.591 399.807 108.686 402.707 102.307C409.198 88.0298 426.089 81.6936 440.364 88.1844C446.744 91.084 451.534 96.0744 454.303 101.963L455.517 104.984C457.75 111.59 457.59 119.014 454.486 125.842C447.994 140.117 431.104 146.455 416.828 139.963Z" fill="white"/>
<path d="M416.828 139.963C409.999 136.859 405.002 131.368 402.329 124.928L401.267 121.855C399.481 115.591 399.807 108.686 402.707 102.307C409.198 88.0299 426.089 81.6937 440.364 88.1844C446.744 91.0841 451.534 96.0745 454.303 101.963L455.517 104.984C457.75 111.59 457.59 119.014 454.485 125.842C447.994 140.118 431.104 146.455 416.828 139.963ZM456.68 126.838C463.721 111.353 456.847 93.0203 441.36 85.9896C427.466 79.673 411.296 84.5635 403.036 96.8154L393.467 96.2693C391.833 96.1765 390.939 98.1416 392.084 99.3111L398.788 106.164C394.99 120.445 401.94 135.842 415.827 142.153C431.313 149.194 449.639 142.324 456.68 126.838Z" fill="#232323"/>
<path d="M417.586 123.746L410.968 125.26C410.514 125.364 410.06 125.079 409.956 124.624L407.518 113.957C407.414 113.502 407.698 113.049 408.153 112.945L414.771 111.432C415.226 111.328 415.679 111.612 415.783 112.068L418.221 122.735C418.325 123.189 418.041 123.643 417.586 123.746Z" fill="#232323"/>
<path d="M431.154 129.639L416.627 123.965L413.812 111.652L424.431 100.229C425.714 98.8504 428.017 99.4676 428.437 101.304L434.295 126.93C434.716 128.766 432.909 130.324 431.154 129.639Z" fill="#232323"/>
<path d="M441.284 111.849C440.483 108.341 437.818 105.742 434.576 104.859C433.919 104.68 433.224 105.006 432.935 105.624L432.932 105.63C432.567 106.408 432.98 107.34 433.811 107.561C436.109 108.171 437.988 110.007 438.552 112.473C439.116 114.945 438.218 117.414 436.417 118.956C435.761 119.518 435.792 120.541 436.464 121.083L436.47 121.088C436.999 121.515 437.763 121.506 438.277 121.061C440.815 118.857 442.086 115.357 441.284 111.849Z" fill="#232323"/>
<path d="M446.859 110.574C445.668 105.36 441.891 101.393 437.186 99.7017C436.495 99.4534 435.724 99.746 435.409 100.41L435.404 100.423C435.045 101.177 435.429 102.059 436.215 102.338C440.063 103.699 443.152 106.935 444.126 111.198C445.101 115.462 443.728 119.731 440.853 122.631C440.265 123.224 440.305 124.184 440.953 124.707C441.525 125.168 442.343 125.099 442.859 124.577C446.369 121.03 448.054 115.8 446.859 110.574Z" fill="#232323"/>
<path d="M416.711 132.465C416.077 132.066 415.886 131.229 416.284 130.595L438.942 94.4691C439.339 93.8354 440.176 93.6437 440.811 94.0415C441.445 94.4403 441.636 95.277 441.238 95.9107L418.58 132.037C418.182 132.671 417.346 132.862 416.711 132.465Z" fill="#33535F"/>
<path d="M140.594 345.152L137.638 326.735L160.12 323.088C160.12 323.088 159.989 337.768 160.471 344.472C160.698 347.631 163.211 353.463 163.211 353.463C163.211 353.463 154.549 358.643 149.825 356.973C145.099 355.303 141.651 348.066 141.691 346.704L140.594 345.152Z" fill="#F8A39A"/>
<path d="M190.274 374.511C190.59 374.508 190.892 377.457 189.183 378.947C187.211 380.668 180.903 384.02 173.226 383.08C165.549 382.142 161.385 379.796 158.305 377.246C155.225 374.697 150.907 371.102 147.434 370.36C144.208 369.671 139.827 367.088 138.793 366.099C137.757 365.109 137.883 360.676 137.883 360.676L190.274 374.511Z" fill="#17282F"/>
<path d="M140.322 343.393C140.322 343.393 139.915 343.614 139.72 344.641C139.488 345.864 139.246 349.418 138.748 351.427C138.053 354.218 137.603 359.932 138.033 362.2C138.465 364.468 144.6 367.155 147.963 368.411C151.398 369.695 155.377 372.361 158.871 375.21C162.487 378.159 170.083 381.2 175.084 381.129C181.002 381.043 187.655 379.082 189.172 376.326C191.049 372.917 192.41 368.962 183.621 364.957C181.958 364.198 176.111 360.785 174.118 359.547C168.726 356.197 164.93 353.116 162.432 347.139C162.141 346.44 161.834 345.667 161.164 345.314C160.651 345.045 160.032 345.087 159.457 345.173C157.996 345.388 152.17 346.232 150.84 346.877C149.664 347.447 147.997 348.112 148.028 349.62C148.039 350.145 148.193 350.656 148.365 351.152C148.471 351.459 148.554 351.868 148.286 352.051C148.032 352.225 147.694 352.031 147.464 351.829C146.543 351.011 145.866 349.961 145.089 349.005C144.673 348.493 143.345 346.858 142.822 346.454C142.345 346.088 141.739 345.908 141.315 345.491C140.781 344.964 140.35 344.1 140.322 343.393Z" fill="#33535F"/>
<path d="M158.871 375.21C157.336 373.958 155.707 372.75 154.071 371.671V371.662C154.071 371.662 164.413 377.865 168.571 374.988C171.25 373.134 169.964 370.913 169.897 370.201C169.829 369.489 179.292 364.395 181.9 364.066C182.628 364.462 183.231 364.803 183.621 364.957C190.483 367.648 191.408 371.175 190.285 375.626C188.769 378.381 182.838 381.256 175.19 381.31C170.189 381.345 162.487 378.159 158.871 375.21Z" fill="#273E47"/>
<path d="M169.167 368.129C174.632 370.273 172.308 371.309 170.781 371.537C169.254 371.767 160.051 366.467 154.434 362.073C148.575 357.491 143.999 351.316 141.823 349.633C141.012 349.006 140.138 348.234 139.361 347.513C139.499 346.31 139.611 345.216 139.72 344.641C139.915 343.614 140.322 343.393 140.322 343.393C140.322 343.393 140.781 344.964 141.316 345.491C141.739 345.908 142.345 346.088 142.822 346.454C143.346 346.858 144.673 348.493 145.089 349.005C145.866 349.961 146.543 351.011 147.464 351.828C152.253 357.843 163.704 365.986 169.167 368.129Z" fill="#273E47"/>
<path d="M170.39 370.738C170.269 370.739 170.149 370.701 170.048 370.619C169.816 370.432 169.78 370.092 169.969 369.859C171.502 367.962 178.782 363.435 182.798 363.849C183.095 363.877 183.311 364.144 183.278 364.44C183.248 364.736 183.013 364.944 182.685 364.922C178.937 364.546 172.021 369.034 170.806 370.537C170.701 370.669 170.547 370.737 170.39 370.738Z" fill="#17282F"/>
<path d="M165.62 367.842C165.5 367.843 165.379 367.804 165.278 367.722C165.046 367.536 165.011 367.195 165.199 366.963C166.731 365.068 174.009 360.544 178.028 360.954C178.324 360.983 178.541 361.249 178.509 361.544C178.478 361.842 178.22 362.058 177.916 362.028C174.164 361.657 167.251 366.137 166.037 367.641C165.931 367.773 165.777 367.842 165.62 367.842Z" fill="#17282F"/>
<path d="M160.85 365.101C160.729 365.102 160.609 365.062 160.508 364.981C160.276 364.795 160.242 364.454 160.428 364.221C161.963 362.324 169.242 357.795 173.257 358.212C173.554 358.242 173.77 358.508 173.738 358.804C173.708 359.099 173.454 359.316 173.146 359.287C169.394 358.911 162.481 363.396 161.267 364.9C161.162 365.03 161.006 365.099 160.85 365.101Z" fill="#17282F"/>
<path d="M156.427 361.962C156.307 361.963 156.186 361.925 156.086 361.842C155.853 361.656 155.819 361.316 156.007 361.083C157.538 359.186 164.834 354.661 168.835 355.074C169.132 355.103 169.348 355.37 169.316 355.665C169.286 355.962 169.03 356.176 168.723 356.149C164.977 355.775 158.059 360.258 156.844 361.761C156.739 361.893 156.585 361.961 156.427 361.962Z" fill="#17282F"/>
<path d="M152.094 358.823C151.978 358.824 151.858 358.787 151.759 358.709C151.524 358.525 151.484 358.185 151.668 357.95C153.775 355.262 161.402 351.47 165.417 351.881C165.713 351.91 165.93 352.176 165.898 352.472C165.867 352.768 165.61 352.976 165.305 352.955C161.691 352.587 154.387 356.232 152.517 358.615C152.411 358.752 152.253 358.822 152.094 358.823Z" fill="#17282F"/>
<path d="M100.801 351.32L104.964 328.302L82.6717 325.707L83.2083 348.238C83.2083 348.238 81.7564 354.362 83.0867 356.393C84.417 358.425 97.8135 360.064 98.9784 358.627C100.143 357.19 100.801 351.32 100.801 351.32Z" fill="#F8A39A"/>
<path d="M100.015 387.354C99.6345 392.494 98.7096 395.846 96.6399 398.707C94.5693 401.569 90.7056 402.202 86.8076 400.992C82.9096 399.781 77.9293 396.997 76.8481 392.446C75.7682 387.896 76.0206 384.859 76.9488 380.14L100.015 387.354Z" fill="#17282F"/>
<path d="M83.2078 348.239C81.5981 348.218 82.1923 352.227 81.7084 359.157C81.1847 366.654 78.1039 372.639 77.162 378.671C76.0865 385.563 76.4677 388.713 79.1561 393.156C81.8433 397.6 91.4533 402.533 96.2589 396.886C100.177 392.282 100.384 386.834 100.092 379.839C99.7886 372.608 99.5121 367.518 99.8872 362.081C100.246 356.884 102.194 352.015 100.801 351.32C100.687 352.077 99.5297 357.374 98.6281 357.326C98.5505 356.652 98.5714 356.033 98.627 355.357C98.6756 354.771 98.6257 354.121 98.2007 353.636C97.7728 353.146 96.2162 352.579 95.565 352.409C93.9839 351.998 91.1692 351.519 89.5615 351.257C88.7613 351.126 87.9575 351.025 87.1524 350.966C86.4999 350.92 85.7311 350.905 85.1117 351.059C84.7309 351.153 84.3778 351.366 84.2346 351.696C84.1284 351.938 84.1457 352.216 84.1432 352.485C84.1396 352.967 84.0672 353.443 83.9295 353.9C83.8687 354.101 83.7081 354.339 83.4783 354.271C83.2915 354.214 83.2194 354 83.2198 353.827C83.2207 352.985 83.1704 348.682 83.2078 348.239Z" fill="#33535F"/>
<path d="M77.5446 376.718C77.3796 377.711 76.3717 384.294 78.3843 385.662C80.5619 387.143 81.8085 382.005 81.8085 382.005C81.8085 382.005 86.9554 381.018 94.4032 384.57C94.0103 385.619 95.1326 389.278 97.1894 388.694C99.2326 388.116 100.103 380.541 100.114 380.442C100.367 387.146 100.063 392.415 96.2592 396.886C91.4536 402.533 81.8435 397.6 79.1563 393.156C76.4679 388.713 76.0868 385.563 77.1631 378.671C77.2701 377.981 77.4006 377.336 77.5446 376.718Z" fill="#273E47"/>
<path d="M82.3911 382.5C82.3368 385.019 79.5687 383.938 79.479 380.368C79.3888 376.797 80.8889 368.056 81.3555 362.192C81.4883 353.778 81.5986 348.218 83.2083 348.238L83.1977 348.494C83.1977 348.494 83.2207 353.284 83.2199 353.827C83.1354 358.966 83.4646 368.933 82.9297 373.594C82.3951 378.256 82.4447 379.981 82.3911 382.5Z" fill="#273E47"/>
<path d="M93.5369 384.429C94.0867 381.995 94.546 380.358 95.1461 375.708C95.7428 371.093 98.0801 361.803 99.2229 356.814C99.6238 355.985 100.801 351.32 100.801 351.32C101.925 351.593 100.988 356.035 100.55 358.114C100.111 360.194 99.563 362.425 99.0297 365.404C97.5976 371.289 97.7851 380.029 96.8468 383.421C95.9082 386.814 92.9879 386.861 93.5369 384.429Z" fill="#273E47"/>
<path d="M94.5597 384.787L94.3428 384.712C94.2856 384.679 88.4681 381.518 81.9578 382.535C81.6374 382.583 81.3129 382.385 81.2316 382.094C81.1488 381.802 81.3416 381.525 81.6607 381.474C88.6263 380.386 94.6495 383.667 94.9051 383.808C95.1949 383.969 95.306 384.302 95.1495 384.551C95.0319 384.74 94.7936 384.828 94.5597 384.787Z" fill="#17282F"/>
<path d="M95.9507 379.425L95.7526 379.359C95.6886 379.327 89.1457 376.022 81.886 376.927C81.5648 376.963 81.2468 376.761 81.1735 376.466C81.1019 376.173 81.3051 375.9 81.6271 375.86C89.3056 374.908 95.9946 378.292 96.2771 378.435C96.5729 378.588 96.6962 378.918 96.552 379.172C96.4386 379.372 96.1934 379.467 95.9507 379.425Z" fill="#17282F"/>
<path d="M82.3207 371.76C82.0961 371.721 81.8936 371.57 81.8176 371.359C81.7161 371.069 81.8848 370.779 82.1971 370.709C89.4295 369.114 96.5283 372.993 96.829 373.16C97.1204 373.32 97.2299 373.652 97.0737 373.902C96.9175 374.151 96.5516 374.216 96.267 374.061C96.199 374.025 89.3027 370.263 82.5731 371.756L82.3207 371.76Z" fill="#17282F"/>
<path d="M82.7772 366.892C82.5558 366.854 82.3574 366.706 82.2784 366.5C82.1694 366.21 82.3328 365.918 82.6439 365.844C90.6 363.951 97.2899 368.102 97.57 368.278C97.8506 368.455 97.9375 368.792 97.7637 369.031C97.5901 369.269 97.2155 369.319 96.9425 369.142C96.8809 369.101 90.4439 365.125 83.0392 366.885L82.7772 366.892Z" fill="#17282F"/>
<path d="M83.3145 361.425C83.0967 361.388 82.8991 361.244 82.8186 361.04C82.7059 360.753 82.8636 360.458 83.1732 360.38C90.6298 358.496 97.8992 362.785 98.2043 362.972C98.4897 363.141 98.5839 363.476 98.4173 363.72C98.2518 363.963 97.8871 364.026 97.601 363.85C97.5301 363.807 90.5079 359.667 83.5838 361.416L83.3145 361.425Z" fill="#17282F"/>
<path d="M89.3319 162.415C86.9759 184.172 85.4524 196.258 85.991 224.752C86.1954 235.555 85.8115 247.553 85.7032 258.358C85.6722 261.422 86.0349 265.04 85.5281 268.071C84.5902 273.68 84.0226 277.171 83.0599 284.045C82.4766 288.209 82.1917 293.494 81.901 297.689C81.4651 303.982 82.0834 310.376 80.7651 316.549C80.27 318.867 79.5041 321.14 79.2899 323.499C79.1743 324.768 79.2303 326.082 79.5749 327.315C79.923 328.561 82.1678 331.534 82.5587 332.659C83.1286 334.3 82.6047 336.767 82.5982 338.533C82.5982 338.533 94.2594 344.338 103.155 341.177C103.572 339.61 103.698 337.015 104.583 335.723C105.214 334.8 108.055 332.581 108.842 331.666C109.673 330.701 110.29 329.555 110.606 328.326C111.048 326.613 110.929 324.813 111.087 323.052C111.46 318.896 113.361 315.048 114.703 311.09C118.323 300.425 117.692 289.093 119.93 278.179C122.953 263.444 124.399 254.124 126.108 243.628C127.819 233.134 132.161 264.537 132.162 264.541C132.41 266.326 131.961 268.463 131.89 270.258C131.741 273.986 131.831 277.649 131.349 281.33C130.278 289.497 130.502 297.827 132.019 305.919C132.816 310.176 133.512 313.106 133.282 317.442C133.146 319.987 132.702 322.239 133.691 324.589C134.403 326.279 136.244 329.084 137.137 330.651C137.505 331.297 137.518 336.402 137.918 336.647C137.918 336.647 150.242 343.747 159.521 336.094C159.648 334.608 160.479 331.664 161.095 330.35C162.697 328.662 164.19 325.453 164.375 322.901C164.547 320.502 163.816 318.753 163.805 316.349C163.79 313.399 164.291 310.474 164.613 307.541C165.072 303.358 165.167 299.146 165.097 294.943C165.036 291.288 164.427 287.414 164.992 283.832C165.931 277.867 166.055 271.556 166.241 265.513C166.971 241.744 163.796 193.511 162.378 162.833L89.3319 162.415Z" fill="#33535F"/>
<path d="M131.675 205.57L125.401 247.984C125.635 246.542 125.869 245.098 126.109 243.628C127.819 233.133 132.162 264.541 132.162 264.541L131.388 245.101C131.099 238.686 132.147 232.586 133.039 225.563C134.196 216.452 135.276 210.016 135.276 210.016C147.459 207.298 151.266 199.642 151.266 199.642C145.709 205.019 131.675 205.57 131.675 205.57Z" fill="#17282F"/>
<path d="M82.334 339.273C86.2761 342.5 95.2711 344.886 103.263 342.07L104.963 335.274C98.9325 337.25 89.1694 336.26 82.5762 332.003L82.334 339.273Z" fill="#17282F"/>
<path d="M137.913 337.438C140.588 340.222 153.178 341.53 160.574 337.178L161.095 330.35C155.489 333.487 142.592 333.92 137.137 330.651L137.913 337.438Z" fill="#17282F"/>
<path d="M86.1275 229.571C86.1275 229.571 85.4396 260.521 85.5116 262.746C85.5838 264.972 103.156 269.677 103.589 268.265C104.309 265.914 104.164 260.661 105.728 235.354C92.179 233.516 86.1275 229.571 86.1275 229.571Z" fill="#273E47"/>
<path d="M103.126 244.053C102.634 243.883 102.096 243.931 101.583 243.916C100.983 243.898 100.384 243.868 99.7858 243.815C98.5203 243.702 97.2625 243.5 96.0231 243.212C94.6227 242.886 93.2421 242.449 91.9009 241.92C90.8073 241.489 89.7733 240.909 88.6788 240.486C88.5758 240.447 88.5576 240.649 88.6241 240.699C89.6586 241.475 90.889 242.009 92.0683 242.498C93.1781 242.957 94.316 243.331 95.4761 243.63C96.7102 243.948 97.9644 244.181 99.2288 244.324C99.8606 244.396 100.495 244.445 101.13 244.472C101.73 244.498 102.588 244.641 103.132 244.335C103.216 244.289 103.227 244.088 103.126 244.053Z" fill="#17282F"/>
<path d="M95.7195 240.688C95.5371 240.936 95.1463 240.989 94.8951 240.841C94.4794 240.595 94.5704 239.772 95.0815 239.721C95.2421 239.704 95.4104 239.743 95.5379 239.844C95.7541 240.017 95.9038 240.438 95.7195 240.688ZM96.0354 239.757C95.8805 239.442 95.7605 239.246 95.4087 239.203C95.1226 239.166 94.8219 239.239 94.584 239.412C94.3594 239.576 94.2089 239.823 94.1734 240.102C94.1126 240.58 94.3525 241.023 94.7518 241.254C95.0976 241.453 95.5879 241.486 95.9224 241.239C96.1429 241.077 96.2062 240.811 96.2109 240.542C96.2153 240.274 96.153 239.995 96.0354 239.757Z" fill="#17282F"/>
<path d="M231.803 101.269C233.633 99.8851 233.972 99.5214 236.432 97.7645C238.255 96.462 239.712 95.4109 240.209 94.6175C241.184 93.0554 240.447 91.4139 239.697 91.6334C238.191 92.0723 236.374 93.2264 232.835 95.378C228.95 97.7397 226.164 100.128 225.986 99.711C225.986 99.711 226.873 98.4683 230.248 95.2018C235.105 90.4988 236.054 89.6498 236.99 88.1113C238.948 84.8912 236.485 84.208 235.347 84.8314C234.059 85.5373 232.618 86.9655 229.158 90.0372C225.397 93.3769 222.095 96.8031 221.828 96.5733C221.561 96.3425 226.78 91.2284 229.953 87.4405C232.9 83.9226 231.2 82.2739 230.428 82.109C229.606 81.9328 228.587 82.9499 227.184 84.2987C224.653 86.7305 217.224 94.839 215.674 96.4682C214.124 98.0973 212.993 98.5466 212.953 95.8963C212.916 93.4109 213.179 90.7863 212.196 89.0222C210.552 86.0721 208.523 86.6584 208.412 88.5647C208.253 91.2552 207.443 94.2435 206.728 98.5188C206.356 100.747 206.245 103.428 206.111 104.987C205.528 110.431 200.79 112.996 196.833 115.412C192.866 117.832 182.163 123.168 182.163 123.168C182.163 123.168 163.909 102.151 158.532 96.9473C152.143 90.7647 150.511 91.1254 147.573 90.3721L146.235 121.808C146.235 121.808 169.531 142.885 175.519 146.832C181.506 150.777 184.127 148.936 192.018 142.697C198.078 137.906 208.231 126.702 210.673 124.222C213.116 121.743 214.199 120.122 216.912 119.294C220.603 118.169 222.566 116.458 225.125 113.833C226.349 112.578 228.4 110.043 230.26 108.36C233.287 105.622 237.046 103.257 238.108 102.463C239.767 101.225 240.169 98.5074 237.893 99.2442C233.595 100.635 229.173 103.97 229.05 103.725C228.928 103.479 230.544 102.219 231.803 101.269Z" fill="#F8A39A"/>
<path d="M195.865 115.281L201.465 111.737C201.465 111.737 200.184 115.77 203.093 120.472C206.002 125.173 209.829 125.698 209.829 125.698L204.73 131.259C204.73 131.259 200.488 130.4 197.42 126.312C194.351 122.223 195.865 115.281 195.865 115.281Z" fill="#273E47"/>
<path d="M147.308 89.5601C154.771 90.879 161.734 98.3817 168.163 105.853C174.592 113.325 182.224 122.072 182.224 122.072L197.512 114.239C197.512 114.239 194.74 119.443 198.862 124.962C202.984 130.482 206.026 129.845 206.026 129.845C206.026 129.845 193.049 144.072 185.895 148.076C178.741 152.079 176.872 149.489 169.426 143.405C161.98 137.32 145.652 122.182 145.652 122.182L147.308 89.5601Z" fill="#777777"/>
<path d="M214.17 100.456C215.948 103.407 216.005 110.166 213.901 114.072C218.006 110.477 217.974 103.601 214.17 100.456Z" fill="#F57F6D"/>
<path d="M182.224 122.072C178.558 124.719 174.669 130.934 175.412 137.236C174.278 132.559 173.309 125.622 180.668 120.288L182.224 122.072Z" fill="#040606"/>
<path d="M92.154 93.6314C92.154 93.6314 81.685 101.508 82.8365 118.646C83.7172 131.754 87.0602 146.195 87.3894 151.809C87.8941 160.417 87.1386 181.01 87.1386 181.01C99.9886 196.673 156.636 193.07 163.515 178.996C163.515 178.996 162.091 134.513 159.227 112.983C157.727 101.703 151.465 92.7318 147.308 89.5601C147.308 89.5601 142.89 88.5802 133.237 87.9073C127.317 87.4941 110.412 88.5689 110.412 88.5689L92.154 93.6314Z" fill="#EDEDEB"/>
<path d="M102.999 40.1979C102.999 40.1979 98.7094 40.4318 96.7056 43.7014C94.7019 46.972 93.4971 52.929 96.077 59.5794C98.9151 66.8987 104.418 73.9448 105.623 75.9985C106.827 78.0521 109.122 78.5354 109.122 78.5354L108.468 69.5129L107.839 63.2334C107.839 63.2334 112.701 58.3903 112.928 53.8471C113.22 47.9994 110.795 44.8081 110.795 44.8081L102.999 40.1979Z" fill="#273E47"/>
<path d="M134.374 49.3226C131.884 48.2695 128.752 47.9902 126.091 47.947C123.559 47.9057 121.027 47.8521 118.495 47.8047C115.784 47.7532 113.073 47.7027 110.362 47.6512C110.362 47.6512 101.648 46.6115 101.363 40.4897C101.222 37.4777 102.606 35.3941 102.902 34.9459C103.951 33.359 105.648 31.5413 107.192 30.4418C110.865 27.8287 114.243 26.4201 118.832 25.8822C122.141 25.4937 125.492 25.807 128.788 26.2882C131.018 26.6138 133.302 27.0156 135.507 26.5488C137.086 26.214 138.743 25.1897 138.942 23.5874C140.753 25.5844 141.2 28.7035 140.025 31.1292C142.192 30.9313 144.318 32.512 144.982 34.5842C145.724 36.9037 144.722 38.8379 143.416 40.669C143.577 40.4433 144.527 42.1332 144.604 42.2765C145.126 43.2646 145.34 44.4084 145.181 45.5326C144.953 47.1277 143.589 48.3179 142.175 49.0887C139.683 50.4458 136.953 50.4118 134.374 49.3226Z" fill="#273E47"/>
<path d="M100.334 72.5413C105.122 74.6001 107.085 70.7967 107.085 70.7967L108.654 89.3941C118.2 101.004 141.979 95.5427 131.725 86.9921L131.509 82.7426C131.509 82.7426 133.079 82.6726 135.544 82.1584C139.658 81.3113 143.282 77.4492 144.308 72.903C145.822 66.1793 144.868 55.9667 141.841 44.7792C141.257 42.6183 140.204 40.2803 138.153 39.3828C133.065 37.156 128.63 40.915 121.826 43.9383C119.008 45.1903 112.071 46.0064 110.195 45.2305C112.737 47.786 113.108 56.2191 109.706 59.8081C109.137 61.023 108.515 61.7484 108.029 62.2152C106.574 63.6043 105.175 60.2595 103.839 58.9858C102.492 57.7235 97.66 56.7549 95.8056 61.2322C93.9322 65.7898 95.8977 70.635 100.334 72.5413Z" fill="#F8A39A"/>
<path d="M131.509 82.7426C126.07 82.9642 121.212 82.5169 117.941 81.3134C114.668 80.1098 111.622 75.9005 110.49 71.6386C110.65 75.104 112.456 81.1784 117.439 83.5051C122.422 85.8308 128.094 85.7041 131.655 85.6155L131.509 82.7426Z" fill="#F57F6D"/>
<path d="M121.239 51.0022L117.209 53.9492C116.409 52.7859 116.664 51.1815 117.777 50.3684C118.89 49.5544 120.44 49.8388 121.239 51.0022Z" fill="#273E47"/>
<path d="M140.608 50.3716L136.065 48.2087C136.621 46.9217 138.087 46.3632 139.341 46.9608C140.595 47.5574 141.163 49.0856 140.608 50.3716Z" fill="#273E47"/>
<path d="M120.697 56.69C120.788 57.8101 121.771 58.6417 122.89 58.55C124.01 58.4583 124.843 57.4752 124.751 56.3562C124.659 55.2361 123.675 54.4035 122.556 54.4952C121.436 54.5879 120.604 55.5699 120.697 56.69Z" fill="#17282F"/>
<path d="M135.468 54.1275C135.56 55.2476 136.542 56.0802 137.662 55.9885C138.781 55.8957 139.615 54.9137 139.522 53.7936C139.43 52.6746 138.448 51.8409 137.327 51.9337C136.207 52.0264 135.375 53.0084 135.468 54.1275Z" fill="#17282F"/>
<path d="M128.501 51.34L130.779 64.1968L137.495 61.3558C134.85 56.9074 131.852 53.5688 128.501 51.34Z" fill="#F57F6D"/>
<path d="M124.362 67.25L132.676 69.5767C132.08 71.9529 129.733 73.3605 127.437 72.7185C125.14 72.0755 123.764 69.6272 124.362 67.25Z" fill="#C35363"/>
<path d="M125.294 68.6865C124.94 68.6257 124.592 68.6185 124.25 68.636C124.359 70.5125 125.589 72.2013 127.437 72.7176C127.899 72.8474 128.362 72.8732 128.813 72.8443C129.063 70.9123 127.522 69.0678 125.294 68.6865Z" fill="#F57F6D"/>
<path d="M124.703 130.534C128.685 127.52 130.693 126.351 132.556 125.809C134.418 125.268 140.948 122.495 143.454 121.851C145.044 121.443 145.707 123.971 143.692 125.728C142.14 127.081 138.092 128.869 136.319 129.858C134.544 130.847 131.079 135.12 131.079 135.12L124.703 130.534Z" fill="#F57F6D"/>
<path d="M114.502 158.431C101.676 164.81 87.7812 173.719 75.6088 174.856C63.7273 175.965 63.9044 166.19 64.5206 158.931C65.2983 149.771 72.0473 121.283 75.2505 111.845C78.6509 101.823 80.7126 98.1767 91.975 94.6475C100.751 101.129 97.5909 120.748 95.1907 128.17C92.6871 135.91 89.7902 147.318 89.7902 147.318C89.7902 147.318 105.204 143.523 108.922 142.312C115.442 140.191 118.917 135.279 121.337 132.921C124.633 129.713 126.28 130.128 127.968 130.369C133.495 131.157 134.71 131.613 135.884 132.347C137.059 133.081 136.973 134.488 136.973 134.488C138.44 134.661 140.634 134.599 140.935 137.006C141.133 138.595 141.037 138.935 141.037 138.935C141.037 138.935 141.565 138.983 141.993 139.474C143.225 140.878 141.168 145.785 139.847 146.989C138.92 147.833 137.59 147.947 135.842 147.723C134.355 147.532 135.034 146.016 135.034 146.016L132.957 146.154C128.489 149.375 127.999 154.473 122.073 155.909C120.822 156.212 117.592 156.712 114.502 158.431Z" fill="#F8A39A"/>
<path d="M101.851 143.701L109.675 141.668C109.675 141.668 107.434 146.658 107.6 153.133C107.757 159.265 110.121 161.177 110.121 161.177L103.735 164.892C103.735 164.892 94.9889 157.677 101.851 143.701Z" fill="#273E47"/>
<path d="M92.1543 93.6314C78.148 98.7672 77.4399 101.886 72.4858 118.588C67.5312 135.29 61.9001 157.618 64.0165 167.35C66.1325 177.083 74.1329 176.368 79.1567 175.264C84.1808 174.16 98.7153 167.859 105.129 164.082C105.129 164.082 101.937 161.444 101.368 154.942C100.8 148.439 103.803 143.195 103.803 143.195L90.7536 146.406C90.7536 146.406 95.4859 130.852 97.2505 125.161C99.0151 119.47 100.977 98.0294 92.1543 93.6314Z" fill="#777777"/>
<path d="M136.973 134.488L130.407 133.213L136.83 133.581C136.933 133.889 136.982 134.192 136.973 134.488Z" fill="#F57F6D"/>
<path d="M141.037 138.935L133.483 138.01L141.04 138.059C141.074 138.332 141.067 138.625 141.037 138.935Z" fill="#F57F6D"/>
<path d="M140.067 142.266C139.84 142.656 139.462 142.952 139.057 143.154C138.653 143.371 138.221 143.507 137.77 143.605L137.87 143.532C137.672 143.928 137.46 144.318 137.243 144.704L137.086 144.503C137.525 144.422 137.953 144.539 138.288 144.789C138.622 145.038 138.828 145.402 138.953 145.77C138.757 145.431 138.486 145.146 138.179 144.952C137.866 144.777 137.481 144.703 137.155 144.773L136.865 144.835L136.998 144.572C137.198 144.178 137.403 143.785 137.621 143.4L137.656 143.339L137.722 143.326C138.143 143.25 138.566 143.122 138.972 142.97C139.37 142.802 139.771 142.606 140.067 142.266Z" fill="#F57F6D"/>
<path d="M138.068 143.251C137.318 143.413 135.339 143.464 135.339 143.464C135.339 143.464 135.284 144.002 134.41 144.922C133.944 145.413 132.958 146.155 132.958 146.155L135.034 146.016C135.034 146.016 135.534 145.084 137.402 144.712L138.068 143.251Z" fill="#F57F6D"/>
<path d="M91.7484 143.139L90.7534 146.406C85.3508 147.839 78.5696 152.567 77.2925 155.537C78.2685 150.837 82.2397 145.749 91.7484 143.139Z" fill="#040606"/>
<path d="M161.133 47.5224C165.536 49.2371 172.237 47.7975 177.103 42.8782C177.103 42.8782 186.098 46.4199 202.682 47.2236C227.215 48.4138 242.554 39.656 240.491 24.8095C238.377 9.59504 222.764 0.700279 193.527 0.0191574C156.643 -0.839199 148.541 27.5133 168.794 39.9435C167.601 43.9117 164.948 46.831 161.133 47.5224Z" fill="#AD58B2"/>
<path d="M165.091 48.2148C163.66 48.2148 162.314 47.982 161.133 47.5224C164.948 46.831 167.601 43.9117 168.794 39.9435C161.575 35.5126 157.957 29.06 157.963 22.627C157.973 11.2808 169.248 0.000572205 191.901 0.000572205C192.435 0.000572205 192.981 0.00677109 193.527 0.0191383C222.765 0.700256 238.377 9.59502 240.491 24.8095C240.616 25.708 240.678 26.5849 240.677 27.4381C240.664 39.8281 227.592 47.3318 207.032 47.3318C205.617 47.3318 204.166 47.2957 202.682 47.2236C186.099 46.4198 177.103 42.8782 177.103 42.8782C173.542 46.4796 168.997 48.2159 165.091 48.2148Z" fill="#232323"/>
<path d="M185.001 22.5115C184.836 24.6579 182.963 26.2643 180.817 26.0994C178.671 25.9346 177.065 24.0613 177.229 21.9148C177.393 19.7684 179.267 18.163 181.413 18.3268C183.559 18.4917 185.166 20.3651 185.001 22.5115Z" fill="white"/>
<path d="M203.279 23.9128C203.114 26.0592 201.241 27.6657 199.094 27.5008C196.949 27.337 195.342 25.4636 195.507 23.3172C195.671 21.1708 197.544 19.5644 199.691 19.7292C201.837 19.8941 203.444 21.7674 203.279 23.9128Z" fill="white"/>
<path d="M221.557 25.3154C221.392 27.4618 219.519 29.0683 217.372 28.9034C215.227 28.7385 213.621 26.8652 213.784 24.7188C213.949 22.5734 215.823 20.967 217.969 21.1318C220.115 21.2967 221.722 23.169 221.557 25.3154Z" fill="white"/>
<path d="M72.1807 55.5524C65.1718 51.0319 51.3236 50.6414 36.8645 56.5283C23.7114 61.8824 9.37668 72.4022 10.6543 86.6562C11.7443 98.8123 26.3793 104.411 38.1316 101.991C43.2291 100.941 47.7843 99.5027 51.8219 97.8942C55.4075 100.813 61.0983 101.151 64.7552 99.9046C62.0064 98.496 60.4744 96.1857 59.6295 94.2774C63.4772 92.2258 66.6051 90.1422 68.9844 88.3678C85.8739 75.7666 80.023 60.6109 72.1807 55.5524Z" fill="#232323"/>
</svg>
