<svg width="882" height="221" viewBox="0 0 882 221" fill="none" xmlns="http://www.w3.org/2000/svg">
<path d="M869.727 220.148H728.027C720.026 211.911 712.941 202.854 708.655 192.2C704.369 181.547 704.899 168.112 712.998 159.972C717.099 155.85 722.695 153.456 726.748 149.287C734.184 141.638 734.929 129.632 732.963 119.147C730.997 108.662 726.796 98.6008 725.912 87.9688C725.028 77.3368 728.481 65.2718 737.881 60.2278C747.498 55.0668 759.858 58.8718 769.86 54.5048C780.743 49.7538 785.525 37.0518 794.35 29.1058C803.774 20.6208 818.223 18.2098 829.892 23.1748C841.561 28.1398 849.842 40.2238 850.262 52.8978C850.488 59.7178 848.71 66.9818 851.731 73.0998C856.745 83.2558 871.903 84.4028 877.793 94.0778C883.364 103.229 878.007 114.982 872.058 123.891C866.109 132.801 859.176 142.946 861.939 153.297C863.907 160.672 870.334 165.851 874.584 172.192C883.52 185.527 881.05 208.772 869.727 220.148Z" fill="#DAE2FF"/>
<path d="M857.999 135.587L843.293 94.2666C842.12 90.9696 838.999 88.7676 835.499 88.7676L832.283 111.862L848.375 146.859L857.999 135.587Z" fill="#E9B49D"/>
<path d="M850.687 115.438L842.482 134.043L848.376 146.86L850.687 115.438Z" fill="#272425"/>
<path d="M864.47 100.564L854.144 94.6268L861.154 78.9658L875.599 87.2718L864.47 100.564Z" fill="#E9B49D"/>
<path d="M854.143 94.6268L853.683 85.6548C853.632 84.6558 853.697 83.6547 853.877 82.6707L855.199 75.4478C856.446 75.7448 857.376 76.7887 857.526 78.0627L858.569 86.9287L854.143 94.6268Z" fill="#E9B49D"/>
<path d="M861.153 78.9658L868.181 65.3408C868.539 64.6408 869.411 64.3828 870.093 64.7748C870.691 65.1188 870.942 65.8518 870.681 66.4908L864.729 81.0218L861.153 78.9658Z" fill="#E9B49D"/>
<path d="M864.729 81.0216L873.022 66.5966C873.451 65.8496 874.405 65.5926 875.152 66.0216C875.841 66.4176 876.123 67.2686 875.806 67.9976L869.048 83.5046L864.729 81.0216Z" fill="#E9B49D"/>
<path d="M869.048 83.5049L877.63 70.4989C878.004 69.9319 878.754 69.7539 879.342 70.0929C879.941 70.4379 880.16 71.1949 879.838 71.8059L872.593 85.5439L869.048 83.5049Z" fill="#E9B49D"/>
<path d="M872.594 85.5436L879.558 76.4346C879.916 75.9666 880.565 75.8366 881.076 76.1296C881.651 76.4606 881.838 77.2016 881.489 77.7656L875.599 87.2716L872.594 85.5436Z" fill="#E9B49D"/>
<path d="M858.365 85.1938L870.008 91.8878L868.324 90.1389C865.898 87.6189 862.731 85.9419 859.283 85.3509L858.365 85.1938Z" fill="#DB9A83"/>
<path d="M853.195 150.952C848.591 149.55 845.733 144.959 846.506 140.209L854.144 93.2817L864.47 99.2187L865.609 141.494C865.785 148.059 859.476 152.865 853.195 150.952Z" fill="#E9B49D"/>
<path d="M763.475 215.919L763.472 215.914C762.463 214.161 760.615 213.06 758.593 213.007L756.302 209.239L752.769 204.786L750.426 205.84L748.447 203.346L746.104 204.4L744.125 201.906L741.782 202.96L740.618 201.493L740.089 206.786L742.213 209.456C743.29 210.81 744.925 211.598 746.655 211.598H747.212C748.242 212.514 749.576 213.039 750.977 213.039H751.533C752.564 213.955 753.897 214.48 755.298 214.48H755.855C756.886 215.396 758.219 215.921 759.62 215.921H763.475V215.919Z" fill="#DB9A83"/>
<path d="M770.949 111.863L767.795 88.769C763.044 88.769 758.742 91.578 756.83 95.928L737.736 139.391C736.139 143.026 735.581 147.033 736.125 150.966L741.664 191.049L740.223 205.455L756.375 212.082V191.05L750.509 146.861L770.949 111.863Z" fill="#E9B49D"/>
<path d="M756.376 191.049L761.976 200.413L763.705 210.353C762.074 210.353 760.631 209.299 760.134 207.746L758.663 203.15L756.376 200.701V191.049Z" fill="#E9B49D"/>
<path d="M835.029 101.983L830.465 86.6189C829.666 83.9279 829.117 81.1779 828.826 78.3989L827.447 65.2479L801.909 61.1089L776.371 65.2479L774.992 78.3989C774.701 81.1769 774.152 83.9269 773.353 86.6189L768.789 101.983C767.043 107.862 770.045 114.061 775.95 116.769L801.909 128.673L827.868 116.769C833.773 114.061 836.775 107.862 835.029 101.983Z" fill="#363636"/>
<path d="M771.547 160.221H832.274L836.926 88.769H766.895L771.547 160.221Z" fill="#3A3A3A"/>
<path d="M769.29 125.549L769.998 136.43H833.823L834.532 125.549H769.29Z" fill="#A0448A"/>
<path d="M827.911 132.42H775.907C768.43 132.42 763.709 124.564 766.555 117.197L771.696 103.887H832.123L837.264 117.197C840.11 124.565 835.389 132.42 827.911 132.42Z" fill="#3A3A3A"/>
<path d="M801.91 86.84C798.605 86.84 795.495 85.584 792.779 83.375L792.207 92.243H811.614L811.042 83.375C808.325 85.585 805.215 86.84 801.91 86.84Z" fill="#FFCAB8"/>
<path d="M793.554 71.355L792.778 83.375C795.494 85.585 798.604 86.84 801.909 86.84C805.214 86.84 808.324 85.584 811.04 83.375L810.264 71.355H793.554Z" fill="#272425"/>
<path d="M774.998 88.769C778.409 100.412 789.163 108.919 801.909 108.919C814.656 108.919 825.409 100.413 828.82 88.769H774.998Z" fill="#FFCAB8"/>
<path d="M832.273 160.221H801.91H771.546C760.783 173.075 755.893 189.848 758.061 206.472L759.845 220.148H801.91H843.975L845.759 206.472C847.926 189.848 843.036 173.075 832.273 160.221Z" fill="#292929"/>
<path d="M800.388 103.788C800.388 103.765 800.388 103.742 800.388 103.725C800.388 103.742 800.382 103.766 800.376 103.788C800.18 104.722 799.264 105.321 798.33 105.125C797.396 104.923 796.797 104.007 796.993 103.074C796.999 103.045 797.005 103.022 797.01 102.993C797.004 103.022 796.993 103.045 796.981 103.068C796.578 103.938 795.552 104.319 794.688 103.915C793.818 103.518 793.438 102.492 793.841 101.622C793.853 101.599 793.864 101.57 793.876 101.547C793.864 101.57 793.847 101.593 793.83 101.616C793.248 102.371 792.165 102.515 791.404 101.933C790.649 101.351 790.505 100.268 791.087 99.5068C791.099 99.4888 791.116 99.4718 791.133 99.4548C791.11 99.4718 791.093 99.4839 791.075 99.5009C790.343 100.112 789.254 100.014 788.644 99.2819C788.033 98.5449 788.131 97.4548 788.863 96.8448C788.88 96.8278 788.898 96.8159 788.921 96.7989C788.898 96.8109 788.881 96.8219 788.858 96.8339C788.005 97.2659 786.968 96.9318 786.53 96.0848C786.098 95.2318 786.432 94.1888 787.285 93.7568C787.308 93.7458 787.331 93.7339 787.354 93.7219C787.331 93.7279 787.302 93.7388 787.279 93.7448C786.351 93.9808 785.412 93.4158 785.176 92.4948C784.94 91.5668 785.504 90.6278 786.426 90.3918C786.455 90.3858 786.478 90.3808 786.507 90.3748C786.478 90.3748 786.455 90.3809 786.426 90.3809C785.469 90.4039 784.68 89.6548 784.651 88.6978C784.628 87.7418 785.377 86.9459 786.333 86.9229C787.29 86.8999 788.085 87.6548 788.108 88.6058C788.131 89.4588 787.538 90.1789 786.731 90.3459C787.549 90.2879 788.316 90.8179 788.529 91.6429C788.736 92.4669 788.316 93.3018 787.572 93.6418C788.356 93.4058 789.22 93.7568 789.606 94.5118C789.992 95.2608 789.773 96.1658 789.122 96.6668C789.836 96.2638 790.752 96.4128 791.3 97.0638C791.842 97.7148 791.824 98.6489 791.3 99.2769C791.905 98.7289 792.838 98.6778 793.513 99.1898C794.187 99.7088 794.372 100.625 793.991 101.357C794.463 100.683 795.362 100.423 796.135 100.775C796.907 101.132 797.293 101.985 797.086 102.78C797.391 102.019 798.21 101.564 799.045 101.743C799.869 101.916 800.434 102.653 800.416 103.472C800.554 102.665 801.246 102.049 802.093 102.037C802.94 102.025 803.649 102.625 803.81 103.425C803.77 102.607 804.317 101.858 805.135 101.656C805.959 101.46 806.783 101.886 807.118 102.635C806.899 101.846 807.262 100.993 808.017 100.618C808.778 100.238 809.677 100.474 810.167 101.131C809.775 100.411 809.942 99.4949 810.599 98.9589C811.256 98.4289 812.189 98.4578 812.812 98.9938C812.27 98.3778 812.224 97.4438 812.754 96.7748C813.278 96.1118 814.194 95.9339 814.921 96.3199C814.258 95.8419 814.011 94.9428 814.373 94.1768C814.742 93.4048 815.6 93.0359 816.395 93.2549C815.634 92.9379 815.191 92.1139 815.375 91.2779C815.559 90.4539 816.314 89.9008 817.127 89.9298C816.326 89.7858 815.715 89.0829 815.715 88.2299C815.715 87.2789 816.487 86.5068 817.444 86.5068C818.394 86.5068 819.173 87.2789 819.173 88.2299C819.173 89.1869 818.395 89.9589 817.444 89.9589C817.421 89.9589 817.392 89.9589 817.369 89.9589C817.392 89.9649 817.421 89.9709 817.444 89.9759C818.371 90.1829 818.959 91.1108 818.752 92.0388C818.539 92.9718 817.617 93.5539 816.683 93.3469C816.654 93.3409 816.626 93.3349 816.597 93.3239C816.626 93.3359 816.649 93.3469 816.677 93.3589C817.536 93.7739 817.904 94.8048 817.495 95.6638C817.495 95.6638 817.495 95.6639 817.495 95.6699C817.08 96.5289 816.049 96.8918 815.184 96.4828C815.167 96.4708 815.144 96.4598 815.121 96.4478C815.138 96.4648 815.161 96.4768 815.179 96.4938C815.928 97.0818 816.055 98.1709 815.467 98.9199C814.873 99.6689 813.784 99.7959 813.035 99.2079C813.018 99.1909 813.001 99.1729 812.978 99.1559C812.996 99.1789 813.012 99.1959 813.03 99.2129C813.629 99.9559 813.514 101.045 812.776 101.645C812.033 102.25 810.944 102.135 810.345 101.391C810.328 101.374 810.316 101.356 810.299 101.339C810.311 101.356 810.322 101.379 810.334 101.403C810.754 102.256 810.403 103.293 809.55 103.719C808.691 104.14 807.66 103.788 807.234 102.93C807.222 102.913 807.217 102.89 807.205 102.867C807.211 102.89 807.217 102.913 807.222 102.936C807.441 103.864 806.87 104.797 805.943 105.022C805.015 105.241 804.081 104.67 803.857 103.743C803.851 103.72 803.851 103.703 803.845 103.679C803.845 103.702 803.845 103.719 803.845 103.743C803.857 104.699 803.096 105.483 802.14 105.495C802.134 105.495 802.128 105.495 802.122 105.495C801.172 105.494 800.405 104.739 800.388 103.788Z" fill="white"/>
<path d="M827.846 44.936C827.846 30.612 816.234 19 801.91 19C787.586 19 775.974 30.612 775.974 44.936V64.15H782.702V51.111L821.117 51.656V64.15H827.845L827.846 44.936Z" fill="#363636"/>
<path d="M780.709 69.5059C784.886 69.5059 788.272 66.1198 788.272 61.9429C788.272 57.7659 784.886 54.3799 780.709 54.3799C776.533 54.3799 773.146 57.7659 773.146 61.9429C773.146 66.1198 776.533 69.5059 780.709 69.5059Z" fill="#E9B49D"/>
<path d="M780.71 66.0489C778.446 66.0489 776.604 64.2069 776.604 61.9429C776.604 59.6789 778.446 57.8369 780.71 57.8369C782.974 57.8369 784.815 59.6789 784.815 61.9429C784.815 64.2069 782.974 66.0489 780.71 66.0489Z" fill="#DB9387"/>
<path d="M823.11 69.5059C827.287 69.5059 830.673 66.1198 830.673 61.9429C830.673 57.7659 827.287 54.3799 823.11 54.3799C818.933 54.3799 815.547 57.7659 815.547 61.9429C815.547 66.1198 818.933 69.5059 823.11 69.5059Z" fill="#E9B49D"/>
<path d="M823.11 66.0489C825.378 66.0489 827.216 64.2106 827.216 61.9429C827.216 59.6752 825.378 57.8369 823.11 57.8369C820.843 57.8369 819.004 59.6752 819.004 61.9429C819.004 64.2106 820.843 66.0489 823.11 66.0489Z" fill="#DB9387"/>
<path d="M780.166 72.0027C781.204 72.0027 782.047 71.1606 782.047 70.1217C782.047 69.0829 781.204 68.2407 780.166 68.2407C779.127 68.2407 778.285 69.0829 778.285 70.1217C778.285 71.1606 779.127 72.0027 780.166 72.0027Z" fill="white"/>
<path d="M823.654 72.0027C824.693 72.0027 825.535 71.1606 825.535 70.1217C825.535 69.0829 824.693 68.2407 823.654 68.2407C822.616 68.2407 821.773 69.0829 821.773 70.1217C821.773 71.1606 822.616 72.0027 823.654 72.0027Z" fill="#FFE4CA"/>
<path d="M801.911 81.7991C791.303 81.7991 782.703 73.1991 782.703 62.5911V49.9141C782.703 39.3061 791.303 30.7061 801.911 30.7061C812.519 30.7061 821.118 39.3061 821.118 49.9141V56.2531V62.5921C821.118 73.1991 812.519 81.7991 801.911 81.7991Z" fill="#FFCAB8"/>
<path d="M793.986 59.8061C795.067 59.8061 795.943 58.9299 795.943 57.8491C795.943 56.7683 795.067 55.8921 793.986 55.8921C792.905 55.8921 792.029 56.7683 792.029 57.8491C792.029 58.9299 792.905 59.8061 793.986 59.8061Z" fill="#292929"/>
<path d="M793.31 57.6752C793.649 57.6752 793.923 57.4008 793.923 57.0622C793.923 56.7237 793.649 56.4492 793.31 56.4492C792.972 56.4492 792.697 56.7237 792.697 57.0622C792.697 57.4008 792.972 57.6752 793.31 57.6752Z" fill="white"/>
<path d="M796.471 54.639C796.25 54.639 796.028 54.555 795.86 54.386C795.343 53.869 794.655 53.584 793.923 53.584C793.191 53.584 792.503 53.869 791.986 54.386C791.648 54.724 791.101 54.724 790.764 54.386C790.426 54.049 790.426 53.501 790.764 53.164C791.608 52.32 792.73 51.855 793.923 51.855C795.117 51.855 796.238 52.32 797.082 53.164C797.42 53.502 797.42 54.049 797.082 54.386C796.913 54.554 796.692 54.639 796.471 54.639Z" fill="#363636"/>
<path d="M811.789 57.8491C811.789 58.9301 810.913 59.8061 809.832 59.8061C808.751 59.8061 807.875 58.9301 807.875 57.8491C807.875 56.7681 808.751 55.8921 809.832 55.8921C810.913 55.8921 811.789 56.7691 811.789 57.8491Z" fill="#292929"/>
<path d="M809.769 57.0622C809.769 57.4002 809.495 57.6742 809.156 57.6742C808.818 57.6742 808.544 57.4002 808.544 57.0622C808.544 56.7242 808.818 56.4492 809.156 56.4492C809.495 56.4492 809.769 56.7242 809.769 57.0622Z" fill="white"/>
<path d="M807.348 54.639C807.569 54.639 807.791 54.555 807.959 54.386C808.476 53.869 809.164 53.584 809.896 53.584C810.628 53.584 811.316 53.869 811.833 54.386C812.171 54.724 812.718 54.724 813.055 54.386C813.393 54.049 813.393 53.501 813.055 53.164C812.211 52.32 811.089 51.855 809.896 51.855C808.702 51.855 807.581 52.32 806.737 53.164C806.399 53.502 806.399 54.049 806.737 54.386C806.906 54.554 807.127 54.639 807.348 54.639Z" fill="#363636"/>
<path d="M797.638 63.8408C798.293 65.5658 799.956 66.7938 801.911 66.7938C803.866 66.7938 805.529 65.5658 806.184 63.8408H797.638Z" fill="#C97E67"/>
<path d="M792.031 65.3171C792.031 67.1631 790.534 68.6601 788.688 68.6601C786.842 68.6601 785.345 67.1631 785.345 65.3171C785.345 63.4711 786.842 61.9741 788.688 61.9741C790.534 61.9741 792.031 63.4711 792.031 65.3171Z" fill="#DB9387"/>
<path d="M811.79 65.3171C811.79 67.1631 813.287 68.6601 815.133 68.6601C816.979 68.6601 818.476 67.1631 818.476 65.3171C818.476 63.4711 816.979 61.9741 815.133 61.9741C813.287 61.9741 811.79 63.4711 811.79 65.3171Z" fill="#DB9387"/>
<path d="M803.503 68.3721C802.902 68.3721 802.352 68.5771 801.909 68.9161C801.466 68.5771 800.916 68.3721 800.315 68.3721C799.418 68.3721 798.628 68.8221 798.151 69.5061H801.338H802.479H805.666C805.19 68.8221 804.4 68.3721 803.503 68.3721Z" fill="#262626"/>
<path d="M801.91 76.9728C800.472 76.9728 799.205 76.2518 798.441 75.1538H805.379C804.615 76.2518 803.348 76.9728 801.91 76.9728Z" fill="#262626"/>
<path d="M792.687 69.5059C794.1 73.2289 797.691 75.8809 801.91 75.8809C806.129 75.8809 809.72 73.2299 811.133 69.5059H792.687Z" fill="white"/>
<path d="M823.054 51.4299L823.109 51.1109H823.004L817.251 30.0659H786.639V32.3449L780.709 51.1119L782.702 62.5929V51.1119H792.719C799.217 51.1119 804.952 47.8599 808.395 42.8969C810.885 47.6219 815.584 50.9949 821.117 51.6569V62.5919L822.994 51.7799C823.033 51.7799 823.071 51.7839 823.11 51.7839L823.054 51.4299Z" fill="#363636"/>
<path d="M775.965 156.63L775.944 157.207L823.768 158.934L823.789 158.358L775.965 156.63Z" fill="#A0448A"/>
<path d="M825.708 154.74L790.412 155.33L790.422 155.906L825.717 155.316L825.708 154.74Z" fill="#A0448A"/>
<path d="M824.959 151.088H785.199V151.664H824.959V151.088Z" fill="#A0448A"/>
<path d="M766.1 203.628L766.03 204.2L836.574 212.784L836.643 212.212L766.1 203.628Z" fill="#2C2C2C"/>
<path d="M782.359 202.03L782.35 202.606L841.822 203.618L841.831 203.042L782.359 202.03Z" fill="#2C2C2C"/>
<path d="M836.536 194.416L776.702 198.284L776.739 198.858L836.573 194.991L836.536 194.416Z" fill="#2C2C2C"/>
<path d="M773.413 190.227L773.409 190.803L820.228 191.094L820.232 190.518L773.413 190.227Z" fill="#2C2C2C"/>
<path d="M826.772 100.998L826.392 100.684C829.161 97.3372 831.181 93.5362 832.397 89.3872L832.87 89.5262C831.635 93.7392 829.584 97.5992 826.772 100.998Z" fill="#A0448A"/>
<path d="M815.03 109.926L814.829 109.476C818.673 107.761 822.094 105.334 824.998 102.261L825.356 102.599C822.407 105.72 818.933 108.185 815.03 109.926Z" fill="#A0448A"/>
<path d="M801.91 112.707C795.137 112.707 788.656 110.631 783.166 106.703C782.096 105.937 781.062 105.097 780.092 104.206L780.425 103.843C781.38 104.721 782.399 105.548 783.452 106.302C788.857 110.17 795.24 112.214 801.909 112.214C805.802 112.214 809.603 111.518 813.207 110.146L813.382 110.606C809.722 112 805.863 112.707 801.91 112.707Z" fill="#A0448A"/>
<path d="M777.043 100.994C775.325 98.9162 773.872 96.6302 772.725 94.2012L773.171 93.9912C774.3 96.3842 775.731 98.6342 777.423 100.68L777.043 100.994Z" fill="#A0448A"/>
<path d="M772.234 93.1082C771.737 91.9442 771.304 90.7392 770.949 89.5262L771.422 89.3872C771.772 90.5812 772.198 91.7692 772.687 92.9152L772.234 93.1082Z" fill="#A0448A"/>
<path d="M639.084 219.968H497.384C481.352 207.203 471.574 183.817 472.014 163.328C472.454 142.839 482.921 122.801 499.485 110.735C504.307 107.223 509.726 104.237 513.213 99.3967C520.629 89.1047 516.757 74.9667 517.093 62.2847C517.578 44.0077 528.319 26.3397 544.323 17.4987C560.327 8.65667 581.001 8.96767 596.732 18.2877C612.463 27.6067 622.668 45.5897 622.603 63.8727C622.557 76.7017 617.878 89.7937 621.505 102.099C625.495 115.635 638.304 124.312 646.904 135.501C656.038 147.384 660.492 162.768 659.12 177.692C657.748 192.617 650.232 209.95 639.084 219.968Z" fill="#DAE2FF"/>
<path d="M608.54 219.968H528.698L530.972 190.869H606.266L608.54 219.968Z" fill="#1E1E1E"/>
<path d="M529.835 205.418L607.15 202.183L607.786 210.318L529.835 207.579V205.418Z" fill="#272425"/>
<path d="M609.362 202.093L526.747 205.417L533.67 88.5874H603.568L609.362 202.093Z" fill="#3A3A3A"/>
<path d="M589.782 129.219H539.458V129.795H589.782V129.219Z" fill="#373737"/>
<path d="M554.832 134.593L554.791 135.169L598.968 138.296L599.009 137.72L554.832 134.593Z" fill="#373737"/>
<path d="M601.678 198.337L533.54 199.141L533.547 199.717L601.685 198.913L601.678 198.337Z" fill="#373737"/>
<path d="M539.478 193.171L539.441 193.746L587.653 196.818L587.69 196.243L539.478 193.171Z" fill="#373737"/>
<path d="M602.567 189.525L559.633 192.408L559.671 192.982L602.606 190.099L602.567 189.525Z" fill="#373737"/>
<path d="M584.929 90.0853L584.376 89.9233C583.59 92.6043 582.116 95.0603 580.111 97.0273L580.514 97.4383C582.589 95.4023 584.116 92.8603 584.929 90.0853Z" fill="#373737"/>
<path d="M568.619 102.297C571.273 102.297 573.815 101.702 576.174 100.529L575.917 100.013C573.638 101.146 571.183 101.721 568.619 101.721C561.377 101.721 554.898 96.8703 552.863 89.9233L552.31 90.0853C554.416 97.2753 561.123 102.297 568.619 102.297Z" fill="#373737"/>
<path d="M568.619 84.6017C565.314 84.6017 562.204 83.3467 559.488 81.1367L558.916 90.0047H578.323L577.751 81.1367C575.034 83.3457 571.925 84.6017 568.619 84.6017Z" fill="#A76C54"/>
<path d="M560.264 69.1167L559.488 81.1367C562.204 83.3467 565.314 84.6017 568.619 84.6017C571.924 84.6017 575.034 83.3467 577.75 81.1367L576.974 69.1167H560.264Z" fill="#272425"/>
<path d="M557.075 88.5879C558.538 93.5829 563.151 97.2309 568.619 97.2309C574.087 97.2309 578.7 93.5819 580.163 88.5879H557.075Z" fill="#A76C54"/>
<path d="M636.813 31.0867L625.619 35.1577L618.16 19.7057L633.82 14.0107L636.813 31.0867Z" fill="#A76C54"/>
<path d="M625.619 35.1576L618.462 29.7276C617.665 29.1226 616.941 28.4276 616.305 27.6556L611.633 21.9896C612.664 21.2266 614.061 21.1896 615.132 21.8956L622.584 26.8116L625.619 35.1576Z" fill="#A76C54"/>
<path d="M618.16 19.7058L612.27 5.55177C611.966 4.82677 612.33 3.99377 613.069 3.72477C613.717 3.48877 614.44 3.76977 614.76 4.38077L622.037 18.2958L618.16 19.7058Z" fill="#A76C54"/>
<path d="M622.036 18.2957L616.35 2.65875C616.056 1.84875 616.473 0.95375 617.283 0.65975C618.03 0.38775 618.862 0.72175 619.214 1.43375L626.718 16.5938L622.036 18.2957Z" fill="#A76C54"/>
<path d="M626.719 16.5926L622.304 1.64855C622.112 0.997554 622.459 0.309553 623.097 0.0775531C623.747 -0.158447 624.467 0.161554 624.727 0.801554L630.564 15.1946L626.719 16.5926Z" fill="#A76C54"/>
<path d="M630.563 15.1944L628.084 3.99943C627.957 3.42443 628.275 2.84343 628.829 2.64243C629.453 2.41543 630.14 2.75043 630.346 3.38043L633.82 14.0094L630.563 15.1944Z" fill="#A76C54"/>
<path d="M621.126 25.8507L633.747 21.2607L631.325 21.4207C627.835 21.6517 624.511 22.9937 621.838 25.2487L621.126 25.8507Z" fill="#915844"/>
<path d="M592.999 36.8397C594.284 34.8117 594.474 32.1667 593.27 29.8847C592.065 27.6137 589.772 26.2886 587.369 26.2136C587.565 23.8226 586.51 21.3967 584.39 19.9387C582.269 18.4807 579.619 18.3707 577.452 19.4197C576.518 17.2067 574.45 15.5416 571.886 15.2416C569.334 14.9416 566.948 16.0767 565.519 18.0017C563.664 16.4807 561.059 15.9677 558.656 16.8837C556.253 17.8057 554.657 19.9257 554.288 22.3007C551.937 21.8167 549.402 22.5657 547.702 24.4957C545.996 26.4257 545.564 29.0416 546.342 31.3126C544.031 31.9756 542.13 33.8246 541.519 36.3316C540.908 38.8266 541.744 41.3447 543.484 42.9927C541.749 44.6467 540.926 47.1647 541.542 49.6597C542.164 52.1667 544.072 54.0047 546.388 54.6617C545.616 56.9377 546.059 59.5476 547.771 61.4726C549.477 63.3916 552.018 64.1347 554.369 63.6447C554.744 66.0187 556.345 68.1277 558.754 69.0377C561.163 69.9477 563.767 69.4296 565.617 67.8916C566.89 69.6026 568.93 70.6806 571.16 70.6806C571.436 70.6806 571.713 70.6697 571.995 70.6347C574.554 70.3237 576.617 68.6526 577.544 66.4336C579.716 67.4766 582.361 67.3557 584.482 65.8867C586.597 64.4226 587.64 61.9906 587.432 59.5996C589.835 59.5136 592.123 58.1816 593.321 55.9056C594.52 53.6236 594.318 50.9787 593.021 48.9507C595.101 47.7637 596.507 45.5166 596.507 42.9466C596.507 42.9346 596.507 42.9237 596.507 42.9117C596.507 42.8887 596.507 42.8596 596.507 42.8366C596.503 40.2626 595.085 38.0207 592.999 36.8397Z" fill="#231F20"/>
<path d="M547.419 67.2676C551.596 67.2676 554.982 63.8815 554.982 59.7046C554.982 55.5277 551.596 52.1416 547.419 52.1416C543.243 52.1416 539.856 55.5277 539.856 59.7046C539.856 63.8815 543.243 67.2676 547.419 67.2676Z" fill="#915844"/>
<path d="M547.419 63.8097C545.155 63.8097 543.313 61.9677 543.313 59.7037C543.313 57.4397 545.155 55.5977 547.419 55.5977C549.683 55.5977 551.525 57.4397 551.525 59.7037C551.525 61.9677 549.683 63.8097 547.419 63.8097Z" fill="#774332"/>
<path d="M589.82 67.2676C593.997 67.2676 597.383 63.8815 597.383 59.7046C597.383 55.5277 593.997 52.1416 589.82 52.1416C585.643 52.1416 582.257 55.5277 582.257 59.7046C582.257 63.8815 585.643 67.2676 589.82 67.2676Z" fill="#915844"/>
<path d="M589.819 63.8106C592.087 63.8106 593.925 61.9723 593.925 59.7046C593.925 57.437 592.087 55.5986 589.819 55.5986C587.552 55.5986 585.713 57.437 585.713 59.7046C585.713 61.9723 587.552 63.8106 589.819 63.8106Z" fill="#774332"/>
<path d="M568.62 79.5608C558.012 79.5608 549.412 70.9618 549.412 60.3538V47.6758C549.412 37.0678 558.012 28.4678 568.619 28.4678C579.227 28.4678 587.826 37.0668 587.826 47.6758V54.0148V60.3538C587.828 70.9608 579.228 79.5608 568.62 79.5608Z" fill="#A76C54"/>
<path d="M560.697 56.1606C561.778 56.1606 562.654 55.2844 562.654 54.2036C562.654 53.1228 561.778 52.2466 560.697 52.2466C559.616 52.2466 558.74 53.1228 558.74 54.2036C558.74 55.2844 559.616 56.1606 560.697 56.1606Z" fill="#272425"/>
<path d="M560.633 53.4167C560.633 53.7547 560.359 54.0287 560.021 54.0287C559.683 54.0287 559.409 53.7547 559.409 53.4167C559.409 53.0787 559.683 52.8037 560.021 52.8037C560.359 52.8037 560.633 53.0777 560.633 53.4167Z" fill="white"/>
<path d="M563.866 48.1226H557.527C556.97 48.1226 556.519 48.5736 556.519 49.1306C556.519 49.6876 556.97 50.1386 557.527 50.1386H563.866C564.423 50.1386 564.874 49.6876 564.874 49.1306C564.875 48.5736 564.423 48.1226 563.866 48.1226Z" fill="#272425"/>
<path d="M578.499 54.2036C578.499 55.2846 577.623 56.1606 576.542 56.1606C575.461 56.1606 574.585 55.2846 574.585 54.2036C574.585 53.1226 575.461 52.2466 576.542 52.2466C577.623 52.2466 578.499 53.1236 578.499 54.2036Z" fill="#272425"/>
<path d="M576.479 53.4167C576.479 53.7547 576.205 54.0287 575.866 54.0287C575.528 54.0287 575.254 53.7547 575.254 53.4167C575.254 53.0787 575.528 52.8037 575.866 52.8037C576.205 52.8037 576.479 53.0777 576.479 53.4167Z" fill="white"/>
<path d="M573.373 48.1226H579.712C580.269 48.1226 580.72 48.5736 580.72 49.1306C580.72 49.6876 580.268 50.1386 579.712 50.1386H573.373C572.816 50.1386 572.365 49.6876 572.365 49.1306C572.365 48.5736 572.816 48.1226 573.373 48.1226Z" fill="#272425"/>
<path d="M564.347 62.3335C565.002 64.0585 566.665 65.2865 568.62 65.2865C570.575 65.2865 572.238 64.0585 572.893 62.3335H564.347Z" fill="#915844"/>
<path d="M559.396 66.5835C560.809 70.3065 564.4 72.9575 568.619 72.9575C572.838 72.9575 576.429 70.3065 577.842 66.5835H559.396Z" fill="white"/>
<path d="M558.74 63.0788C558.74 64.9248 557.243 66.4218 555.397 66.4218C553.551 66.4218 552.054 64.9248 552.054 63.0788C552.054 61.2328 553.551 59.7358 555.397 59.7358C557.243 59.7358 558.74 61.2318 558.74 63.0788Z" fill="#915844"/>
<path d="M578.5 63.0788C578.5 64.9248 579.997 66.4218 581.843 66.4218C583.689 66.4218 585.186 64.9248 585.186 63.0788C585.186 61.2328 583.689 59.7358 581.843 59.7358C579.997 59.7358 578.5 61.2318 578.5 63.0788Z" fill="#915844"/>
<path d="M591.194 38.5167C590.527 38.5167 589.885 38.6167 589.276 38.7957C589.625 37.9757 589.82 37.0737 589.82 36.1267C589.82 32.3637 586.77 29.3137 583.007 29.3137C581.494 29.3137 580.102 29.8127 578.971 30.6467C578.237 27.6767 575.562 25.4717 572.365 25.4717C570.981 25.4717 569.695 25.8877 568.619 26.5967C567.544 25.8877 566.258 25.4717 564.874 25.4717C561.677 25.4717 559.002 27.6767 558.268 30.6467C557.138 29.8127 555.745 29.3137 554.232 29.3137C550.469 29.3137 547.419 32.3637 547.419 36.1267C547.419 37.0747 547.613 37.9757 547.963 38.7957C547.354 38.6167 546.711 38.5167 546.045 38.5167V52.1417C546.159 52.1417 546.27 52.1307 546.382 52.1247C546.258 52.7357 546.185 53.3657 546.185 54.0147C546.185 56.8557 547.437 59.3997 549.412 61.1427V51.2467C551.468 50.0737 552.857 47.8657 552.857 45.3287C552.857 44.3807 552.663 43.4797 552.313 42.6597C552.922 42.8377 553.565 42.9387 554.232 42.9387C557.429 42.9387 560.104 40.7337 560.838 37.7637C561.968 38.5977 563.361 39.0967 564.874 39.0967C566.258 39.0967 567.544 38.6817 568.619 37.9717C569.694 38.6807 570.98 39.0967 572.365 39.0967C573.878 39.0967 575.27 38.5977 576.401 37.7637C577.135 40.7337 579.81 42.9387 583.007 42.9387C583.674 42.9387 584.316 42.8387 584.925 42.6597C584.576 43.4797 584.381 44.3817 584.381 45.3287C584.381 47.8647 585.77 50.0737 587.826 51.2467V61.1427C589.801 59.3997 591.053 56.8557 591.053 54.0147C591.053 53.3667 590.98 52.7367 590.856 52.1247C590.968 52.1307 591.079 52.1417 591.193 52.1417V38.5167H591.194Z" fill="#231F20"/>
<path d="M636.814 31.0864L625.62 35.1574L627.102 40.8644L639.189 36.4554L636.814 31.0864Z" fill="#963B39"/>
<path d="M657.073 76.8756L642.442 41.2446C641.764 39.5936 640.776 38.0876 639.531 36.8076L639.188 36.4556L627.101 40.8646C626.645 43.1296 626.758 45.4716 627.429 47.6816L637.388 80.4626L603.48 87.6276L604.608 115.383L650.637 93.9796C657.088 90.9866 659.951 83.3776 657.073 76.8756Z" fill="#1E1E1E"/>
<path d="M606.66 114.428L604.656 97.5332C608.949 101.248 611.049 106.897 610.226 112.515L610.186 112.789L606.66 114.428Z" fill="#272425"/>
<path d="M637.39 80.4623L647.852 78.3593L647.031 77.9393C643.733 76.2503 639.97 75.6953 636.325 76.3623L637.39 80.4623Z" fill="#272425"/>
<path d="M583.505 87.6274L593.925 196.918H616.446L603.481 87.6274H583.505Z" fill="#1E1E1E"/>
<path d="M587.589 130.46L590.81 87.8974C591.029 84.9994 589.057 82.3924 586.208 81.8154L577.682 80.0884L578.231 88.5884H583.505L587.589 130.46Z" fill="#963B39"/>
<path d="M609.651 181.205L599.976 162.171L596.718 165.429L606.393 184.463L609.651 181.205Z" fill="#963B39"/>
<path d="M553.733 87.6274L543.313 196.918H520.792L533.757 87.6274H553.733Z" fill="#1E1E1E"/>
<path d="M549.651 130.46L546.43 87.8974C546.211 84.9994 548.184 82.3924 551.032 81.8154L559.558 80.0884L559.009 88.5884H553.735L549.651 130.46Z" fill="#963B39"/>
<path d="M527.587 181.205L537.263 162.171L540.521 165.429L530.845 184.463L527.587 181.205Z" fill="#963B39"/>
<path d="M526.038 152.7L536.628 163.421L527.587 181.205L522.548 182.118L526.038 152.7Z" fill="#272425"/>
<path d="M528.655 179.105L505.731 162.604C499.152 157.868 496.81 149.16 500.126 141.763L520.423 96.4864C522.839 91.0964 528.196 87.6274 534.103 87.6274L532.515 114.422L517.479 147.267L535.643 165.359L528.655 179.105Z" fill="#1E1E1E"/>
<path d="M529.902 120.131L532.142 101.245C527.518 108.427 525.354 116.917 525.976 125.435L526.182 128.257L529.902 120.131Z" fill="#272425"/>
<path d="M517.479 147.267L511.092 141.409L512.444 141.259C514.907 140.985 517.382 141.66 519.366 143.145L517.479 147.267Z" fill="#272425"/>
<path d="M159.358 216.448H17.6582C10.9652 206.863 4.47721 195.859 1.45121 184.567C-1.57579 173.275 -0.105788 160.047 8.12621 151.746C12.9472 146.885 19.6682 144.053 23.8562 138.637C29.9322 130.779 29.0982 119.525 25.8662 110.132C22.6342 100.739 17.3362 92.0588 15.1362 82.3718C12.9372 72.6848 14.7712 61.0148 23.0362 55.5048C31.2672 50.0168 42.3312 52.6349 51.4942 56.3619C60.6572 60.0889 70.2292 64.8478 79.9512 63.0188C88.5782 61.3968 95.3262 54.9238 101.907 49.1138C111.652 40.5098 122.36 32.6578 134.616 28.3248C146.872 23.9918 160.913 23.4928 172.575 29.2378C184.237 34.9828 192.782 47.6898 191.501 60.6268C189.443 81.4168 165.423 93.7539 160.299 114.008C157.433 125.335 161.005 137.252 165.434 148.063C169.863 158.874 175.259 169.603 176.215 181.247C177.171 192.889 171.041 216.448 159.358 216.448Z" fill="#DAE2FF"/>
<path d="M151.6 127.805L136.429 93.9289C134.015 88.5379 128.659 85.0679 122.752 85.0679L121.708 109.27L135.479 137.944L151.6 127.805Z" fill="#DB9A83"/>
<path d="M127.148 187.349H48.4595L52.8555 85.0688H122.752L127.148 187.349Z" fill="#292929"/>
<path d="M87.8031 81.0822C84.4981 81.0822 81.3881 79.8272 78.6721 77.6172L78.1001 86.4852H97.5071L96.9351 77.6172C94.2191 79.8272 91.1091 81.0822 87.8031 81.0822Z" fill="#E9B49D"/>
<path d="M79.4479 65.5972L78.6719 77.6172C81.3879 79.8272 84.4979 81.0822 87.8029 81.0822C91.1079 81.0822 94.2179 79.8272 96.9339 77.6172L96.1579 65.5972H79.4479Z" fill="#272425"/>
<path d="M76.2593 85.0693C77.7223 90.0643 82.3353 93.7123 87.8033 93.7123C93.2713 93.7123 97.8843 90.0633 99.3473 85.0693H76.2593Z" fill="#E9B49D"/>
<path d="M122.752 85.0688C129.538 85.0688 135.693 89.0478 138.48 95.2348L146.635 113.343L126.068 122.539L121.708 109.27L122.752 85.0688Z" fill="#292929"/>
<path d="M127.724 121.799L145.375 113.906L130.079 126.703L127.724 121.799Z" fill="#272425"/>
<path d="M153.144 95.7108L142.818 89.7748L149.828 74.1138L164.274 82.4188L153.144 95.7108Z" fill="#E9B49D"/>
<path d="M142.818 89.7747L142.358 80.8027C142.307 79.8037 142.372 78.8017 142.552 77.8187L143.874 70.5957C145.121 70.8927 146.051 71.9367 146.2 73.2107L147.243 82.0767L142.818 89.7747Z" fill="#E9B49D"/>
<path d="M149.828 74.1137L156.856 60.4887C157.215 59.7887 158.086 59.5307 158.768 59.9227C159.366 60.2667 159.617 60.9997 159.356 61.6387L153.404 76.1697L149.828 74.1137Z" fill="#E9B49D"/>
<path d="M153.404 76.1696L161.697 61.7446C162.127 60.9976 163.08 60.7406 163.827 61.1696C164.516 61.5656 164.797 62.4166 164.48 63.1456L157.723 78.6526L153.404 76.1696Z" fill="#E9B49D"/>
<path d="M157.723 78.6527L166.306 65.6467C166.68 65.0807 167.43 64.9027 168.018 65.2407C168.617 65.5847 168.836 66.3427 168.514 66.9537L161.269 80.6917L157.723 78.6527Z" fill="#E9B49D"/>
<path d="M161.269 80.6915L168.233 71.5825C168.591 71.1145 169.24 70.9845 169.751 71.2775C170.326 71.6085 170.513 72.3495 170.164 72.9135L164.275 82.4195L161.269 80.6915Z" fill="#E9B49D"/>
<path d="M147.041 80.3418L158.684 87.0358L157 85.2868C154.575 82.7668 151.407 81.0898 147.96 80.4988L147.041 80.3418Z" fill="#DB9A83"/>
<path d="M141.87 146.1C137.266 144.698 134.407 140.107 135.181 135.357L142.818 88.4302L153.144 94.3672L154.284 136.642C154.461 143.206 148.152 148.013 141.87 146.1Z" fill="#E9B49D"/>
<path d="M35.5664 207.893C34.5574 206.14 32.7094 205.039 30.6874 204.986L28.3964 201.218L25.6794 197.792L25.1504 203.085L27.2744 205.755C28.3514 207.109 29.9864 207.897 31.7164 207.897H35.5694L35.5664 207.893Z" fill="#DB9A83"/>
<path d="M25.6934 199.776L31.5964 207.196C32.6734 208.55 34.3084 209.338 36.0384 209.338H39.8914L39.8884 209.333C38.8794 207.58 37.0314 206.479 35.0094 206.426L32.7184 202.658L29.1854 198.205L25.6934 199.776Z" fill="#DB9A83"/>
<path d="M30.0142 201.217L35.9172 208.637C36.9942 209.99 38.6292 210.779 40.3592 210.779H44.2122L44.2092 210.774C43.2002 209.021 41.3522 207.92 39.3302 207.867L37.0392 204.099L33.5062 199.646L30.0142 201.217Z" fill="#DB9A83"/>
<path d="M34.3364 202.657L40.2394 210.077C41.3164 211.431 42.9514 212.219 44.6814 212.219H48.5344L48.5314 212.214C47.5224 210.461 45.6744 209.36 43.6524 209.307L41.3614 205.539L37.8284 201.086L34.3364 202.657Z" fill="#DB9A83"/>
<path d="M53.8993 109.27L52.8553 85.0679C46.9483 85.0679 41.5923 88.5379 39.1783 93.9289L19.5043 136.662C17.1353 141.808 16.6053 147.612 18.0033 153.102L26.7233 187.349L25.2823 201.755L41.4343 208.382V187.35L34.0693 150.372L53.8993 109.27Z" fill="#E9B49D"/>
<path d="M52.8552 85.0688C46.0692 85.0688 39.9142 89.0478 37.1272 95.2348L28.9722 113.343L49.5392 122.539L53.8992 109.27L52.8552 85.0688Z" fill="#292929"/>
<path d="M47.8824 121.799L30.2314 113.906L45.5275 126.703L47.8824 121.799Z" fill="#272425"/>
<path d="M41.4355 187.349L47.0355 196.713L48.7645 206.653C47.1335 206.653 45.6905 205.599 45.1935 204.046L43.7225 199.45L41.4355 197.001V187.349Z" fill="#E9B49D"/>
<path d="M127.724 216.448H47.8823L50.1563 187.349H125.45L127.724 216.448Z" fill="#8496BA"/>
<path d="M50.1562 187.349H125.45L125.982 194.156L49.4902 195.874L50.1562 187.349Z" fill="#272425"/>
<path d="M108.932 129.15H58.6084V129.726H108.932V129.15Z" fill="#2C2C2C"/>
<path d="M73.989 134.516L73.9482 135.092L118.126 138.219L118.166 137.643L73.989 134.516Z" fill="#2C2C2C"/>
<path d="M53.6184 105.893L51.7894 113.986V99.1138H51.2134L51.3904 119.15L54.1804 106.02L53.6184 105.893Z" fill="#2C2C2C"/>
<path d="M124.394 99.1138H123.818V113.986L121.989 105.893L121.426 106.02L124.217 119.15L124.394 99.1138Z" fill="#2C2C2C"/>
<path d="M120.821 182.716L52.6831 183.507L52.6898 184.083L120.828 183.292L120.821 182.716Z" fill="#2C2C2C"/>
<path d="M58.6353 177.546L58.5986 178.121L106.811 181.193L106.848 180.618L58.6353 177.546Z" fill="#2C2C2C"/>
<path d="M121.69 173.882L78.7612 176.786L78.8001 177.361L121.729 174.456L121.69 173.882Z" fill="#2C2C2C"/>
<path d="M104.113 86.5658L103.56 86.4038C102.775 89.0848 101.3 91.5408 99.2944 93.5078L99.6984 93.9188C101.773 91.8838 103.3 89.3408 104.113 86.5658Z" fill="#2C2C2C"/>
<path d="M87.8032 98.7778C90.4572 98.7778 92.9982 98.1828 95.3572 97.0098L95.1002 96.4938C92.8212 97.6268 90.3662 98.2018 87.8022 98.2018C80.5602 98.2018 74.0812 93.3508 72.0452 86.4038L71.4922 86.5658C73.6002 93.7558 80.3072 98.7778 87.8032 98.7778Z" fill="#2C2C2C"/>
<path d="M66.6035 63.7481C70.7805 63.7481 74.1665 60.362 74.1665 56.1851C74.1665 52.0082 70.7805 48.6221 66.6035 48.6221C62.4266 48.6221 59.0405 52.0082 59.0405 56.1851C59.0405 60.362 62.4266 63.7481 66.6035 63.7481Z" fill="#DB9A83"/>
<path d="M66.6036 60.2911C68.8712 60.2911 70.7096 58.4528 70.7096 56.1851C70.7096 53.9174 68.8712 52.0791 66.6036 52.0791C64.3359 52.0791 62.4976 53.9174 62.4976 56.1851C62.4976 58.4528 64.3359 60.2911 66.6036 60.2911Z" fill="#C97E67"/>
<path d="M109.004 63.7481C113.181 63.7481 116.567 60.362 116.567 56.1851C116.567 52.0082 113.181 48.6221 109.004 48.6221C104.827 48.6221 101.441 52.0082 101.441 56.1851C101.441 60.362 104.827 63.7481 109.004 63.7481Z" fill="#DB9A83"/>
<path d="M109.004 60.2911C111.268 60.2911 113.11 58.4491 113.11 56.1851C113.11 53.9211 111.268 52.0791 109.004 52.0791C106.74 52.0791 104.898 53.9211 104.898 56.1851C104.898 58.4491 106.74 60.2911 109.004 60.2911Z" fill="#C97E67"/>
<path d="M87.8037 76.0412C77.1957 76.0412 68.5957 67.4412 68.5957 56.8332V44.1562C68.5957 33.5482 77.1947 24.9482 87.8037 24.9482C98.4117 24.9482 107.012 33.5482 107.012 44.1562V50.4952V56.8342C107.012 67.4422 98.4117 76.0412 87.8037 76.0412Z" fill="#E9B49D"/>
<path d="M100.25 20.612C101.499 20.763 102.796 20.319 103.682 19.296C104.894 17.897 104.936 15.886 103.901 14.446L101.784 16.891C101.823 16.659 101.844 16.422 101.844 16.179C101.844 14.149 100.435 12.451 98.5426 12V16.406C98.3506 16.028 98.1106 15.669 97.7996 15.349C96.3836 13.894 94.1895 13.661 92.5195 14.658L96.7046 18.956C93.9346 17.919 90.9366 17.348 87.8046 17.348C73.7825 17.348 62.4146 28.715 62.4146 42.738C62.4146 49.191 64.8256 55.077 68.7916 59.557L70.7106 46.301L77.1886 45.597C83.9996 44.857 90.2576 41.503 94.6466 36.241L96.9376 33.494L94.0005 45.019L95.9696 43.691C97.8866 42.398 99.3615 40.549 100.195 38.392L100.802 40.298C101.47 42.398 102.945 44.147 104.901 45.162L106.82 59.556C110.785 55.077 113.196 49.19 113.196 42.737C113.194 33.241 107.974 24.966 100.25 20.612Z" fill="#272425"/>
<path d="M81.8378 52.0923C81.8378 53.1733 80.9618 54.0493 79.8808 54.0493C78.7998 54.0493 77.9238 53.1733 77.9238 52.0923C77.9238 51.0113 78.7998 50.1353 79.8808 50.1353C80.9618 50.1353 81.8378 51.0113 81.8378 52.0923Z" fill="#272425"/>
<path d="M79.8168 51.3044C79.8168 51.6424 79.5428 51.9174 79.2048 51.9174C78.8668 51.9174 78.5928 51.6434 78.5928 51.3044C78.5928 50.9664 78.8668 50.6924 79.2048 50.6924C79.5428 50.6924 79.8168 50.9664 79.8168 51.3044Z" fill="white"/>
<path d="M82.3658 48.8812C82.1448 48.8812 81.9228 48.7972 81.7548 48.6282C81.2378 48.1112 80.5498 47.8262 79.8178 47.8262C79.0858 47.8262 78.3978 48.1112 77.8808 48.6282C77.5428 48.9662 76.9958 48.9662 76.6588 48.6282C76.3208 48.2912 76.3208 47.7432 76.6588 47.4062C77.5028 46.5622 78.6248 46.0972 79.8178 46.0972C81.0108 46.0972 82.1328 46.5622 82.9768 47.4062C83.3148 47.7442 83.3148 48.2912 82.9768 48.6282C82.8078 48.7962 82.5868 48.8812 82.3658 48.8812Z" fill="#272425"/>
<path d="M95.7265 54.0493C96.8074 54.0493 97.6835 53.1731 97.6835 52.0923C97.6835 51.0114 96.8074 50.1353 95.7265 50.1353C94.6457 50.1353 93.7695 51.0114 93.7695 52.0923C93.7695 53.1731 94.6457 54.0493 95.7265 54.0493Z" fill="#272425"/>
<path d="M95.0505 51.9174C95.389 51.9174 95.6635 51.643 95.6635 51.3044C95.6635 50.9659 95.389 50.6914 95.0505 50.6914C94.7119 50.6914 94.4375 50.9659 94.4375 51.3044C94.4375 51.643 94.7119 51.9174 95.0505 51.9174Z" fill="white"/>
<path d="M93.2424 48.8812C93.4634 48.8812 93.6854 48.7972 93.8534 48.6282C94.3704 48.1112 95.0584 47.8262 95.7904 47.8262C96.5224 47.8262 97.2104 48.1112 97.7274 48.6282C98.0654 48.9662 98.6124 48.9662 98.9494 48.6282C99.2874 48.2912 99.2874 47.7432 98.9494 47.4062C98.1054 46.5622 96.9834 46.0972 95.7904 46.0972C94.5964 46.0972 93.4754 46.5622 92.6314 47.4062C92.2934 47.7442 92.2934 48.2912 92.6314 48.6282C92.8004 48.7962 93.0214 48.8812 93.2424 48.8812Z" fill="#272425"/>
<path d="M83.5308 58.814C84.1858 60.539 85.8488 61.767 87.8038 61.767C89.7578 61.767 91.4218 60.539 92.0768 58.814H83.5308Z" fill="#C97E67"/>
<path d="M78.5806 63.064C79.9936 66.787 83.5846 69.439 87.8036 69.439C92.0226 69.439 95.6136 66.788 97.0266 63.064H78.5806Z" fill="white"/>
<path d="M77.9233 59.5588C77.9233 61.4048 76.4263 62.9018 74.5803 62.9018C72.7343 62.9018 71.2373 61.4048 71.2373 59.5588C71.2373 57.7128 72.7343 56.2158 74.5803 56.2158C76.4263 56.2158 77.9233 57.7128 77.9233 59.5588Z" fill="#DB9387"/>
<path d="M97.6836 59.5588C97.6836 61.4048 99.1806 62.9018 101.027 62.9018C102.873 62.9018 104.37 61.4048 104.37 59.5588C104.37 57.7128 102.873 56.2158 101.027 56.2158C99.1806 56.2158 97.6836 57.7128 97.6836 59.5588Z" fill="#DB9387"/>
<path d="M418.477 218.933H276.777C267.882 209.774 258.5 199.673 254.164 187.41C249.827 175.147 251.794 159.381 262.024 151.915C265.534 149.354 269.727 147.939 273.139 145.235C280.399 139.48 282.748 128.786 281.306 119.355C279.864 109.924 275.292 101.394 270.876 93.0442C266.46 84.6942 262.043 76.0352 260.964 66.5512C259.255 51.5302 267.044 35.8042 279.738 28.6482C292.432 21.4922 309.218 23.3632 320.199 33.1572C327.658 39.8102 332.649 49.7032 341.484 54.1232C349.31 58.0392 358.604 56.7892 366.876 54.0652C375.148 51.3412 383.034 47.2322 391.547 45.5142C400.06 43.7962 409.768 44.9282 415.889 51.3742C424.241 60.1692 422.743 74.6902 419.504 86.6352C416.265 98.5802 411.89 111.465 416.287 122.995C418.527 128.869 422.807 133.575 426.24 138.776C433.851 150.304 437.341 164.759 435.881 178.702C434.42 192.646 428.292 209.417 418.477 218.933Z" fill="#DAE2FF"/>
<path d="M361.09 60.7578C354.652 60.7578 348.981 64.0318 345.646 69.0048C342.311 64.0318 336.639 60.7578 330.202 60.7578C319.939 60.7578 311.619 69.0778 311.619 79.3408C311.619 89.6038 319.939 97.9238 330.202 97.9238C336.64 97.9238 342.311 94.6498 345.646 89.6768C348.981 94.6498 354.653 97.9238 361.09 97.9238C371.353 97.9238 379.673 89.6038 379.673 79.3408C379.673 69.0778 371.353 60.7578 361.09 60.7578Z" fill="#74231A"/>
<path d="M315.612 171.106H376.34L380.334 87.5532H311.618L315.612 171.106Z" fill="#262626"/>
<path d="M313.655 130.167L314.266 142.933H377.686L378.297 130.167H313.655Z" fill="#AF4763"/>
<path d="M371.766 137.781H320.186C312.77 137.781 308.078 129.903 310.892 122.51L315.98 109.146H375.971L381.059 122.51C383.874 129.903 379.182 137.781 371.766 137.781Z" fill="#262626"/>
<path d="M286.906 132.849L300.798 95.2367C302.504 90.6187 306.905 87.5527 311.828 87.5527L314.355 109.748L298.952 145.645L286.906 132.849Z" fill="#262626"/>
<path d="M296.46 111.755L304.646 132.375L298.952 145.645L296.46 111.755Z" fill="#272425"/>
<path d="M282.859 99.349L293.185 93.412L286.175 77.751L271.729 86.056L282.859 99.349Z" fill="#E9B49D"/>
<path d="M293.185 93.4119L293.645 84.4399C293.696 83.4409 293.631 82.4399 293.451 81.4559L292.129 74.2329C290.882 74.5299 289.952 75.5739 289.803 76.8479L288.76 85.7139L293.185 93.4119Z" fill="#E9B49D"/>
<path d="M286.175 77.7509L279.147 64.1259C278.789 63.4259 277.917 63.1679 277.235 63.5599C276.637 63.9039 276.386 64.6369 276.647 65.2749L282.599 79.8059L286.175 77.7509Z" fill="#E9B49D"/>
<path d="M282.599 79.8068L274.306 65.3818C273.877 64.6348 272.923 64.3778 272.176 64.8068C271.487 65.2028 271.206 66.0538 271.523 66.7828L278.28 82.2898L282.599 79.8068Z" fill="#E9B49D"/>
<path d="M278.28 82.2899L269.697 69.2839C269.323 68.7179 268.573 68.5399 267.985 68.8779C267.386 69.2219 267.167 69.9799 267.489 70.5909L274.734 84.3289L278.28 82.2899Z" fill="#E9B49D"/>
<path d="M274.734 84.3287L267.77 75.2197C267.412 74.7517 266.763 74.6217 266.252 74.9147C265.677 75.2457 265.49 75.9867 265.839 76.5507L271.728 86.0567L274.734 84.3287Z" fill="#E9B49D"/>
<path d="M288.963 83.979L277.32 90.673L279.004 88.924C281.429 86.404 284.597 84.727 288.045 84.137L288.963 83.979Z" fill="#DB9A83"/>
<path d="M294.133 149.737C298.737 148.335 301.596 143.744 300.822 138.994L293.185 92.0669L282.859 98.0039L281.72 140.279C281.542 146.844 287.851 151.65 294.133 149.737Z" fill="#E9B49D"/>
<path d="M405.045 132.849L391.153 95.2367C389.447 90.6187 385.046 87.5527 380.123 87.5527L377.596 109.748L392.999 145.645L405.045 132.849Z" fill="#262626"/>
<path d="M395.492 111.755L387.306 132.375L393 145.645L395.492 111.755Z" fill="#272425"/>
<path d="M409.093 99.349L398.767 93.412L405.777 77.751L420.223 86.056L409.093 99.349Z" fill="#E9B49D"/>
<path d="M398.767 93.4119L398.307 84.4399C398.256 83.4409 398.321 82.4399 398.501 81.4559L399.823 74.2329C401.07 74.5299 402 75.5739 402.149 76.8479L403.192 85.7139L398.767 93.4119Z" fill="#E9B49D"/>
<path d="M405.777 77.7509L412.805 64.1259C413.164 63.4259 414.035 63.1679 414.717 63.5599C415.315 63.9039 415.566 64.6369 415.305 65.2749L409.353 79.8059L405.777 77.7509Z" fill="#E9B49D"/>
<path d="M409.353 79.8068L417.646 65.3818C418.075 64.6348 419.029 64.3778 419.776 64.8068C420.465 65.2028 420.746 66.0538 420.429 66.7828L413.672 82.2898L409.353 79.8068Z" fill="#E9B49D"/>
<path d="M413.672 82.2899L422.255 69.2839C422.629 68.7179 423.379 68.5399 423.967 68.8779C424.566 69.2219 424.785 69.9799 424.463 70.5909L417.218 84.3289L413.672 82.2899Z" fill="#E9B49D"/>
<path d="M417.218 84.3287L424.182 75.2197C424.54 74.7517 425.189 74.6217 425.7 74.9147C426.275 75.2457 426.462 75.9867 426.113 76.5507L420.224 86.0567L417.218 84.3287Z" fill="#E9B49D"/>
<path d="M402.989 83.979L414.632 90.673L412.948 88.924C410.523 86.404 407.355 84.727 403.907 84.137L402.989 83.979Z" fill="#DB9A83"/>
<path d="M397.819 149.737C393.215 148.335 390.356 143.744 391.13 138.994L398.767 92.0669L409.093 98.0039L410.233 140.279C410.41 146.844 404.101 151.65 397.819 149.737Z" fill="#E9B49D"/>
<path d="M396.733 218.933H295.219L315.612 171.106H376.34L396.733 218.933Z" fill="#3E2765"/>
<path d="M315.612 171.106H376.34L377.444 173.696L312.887 177.499L315.612 171.106Z" fill="#272425"/>
<path d="M365.366 103.868L365.003 103.421C369.791 99.5297 373.234 94.3597 374.96 88.4697L375.513 88.6317C373.754 94.6337 370.246 99.9017 365.366 103.868Z" fill="#AF4763"/>
<path d="M345.976 110.746C338.712 110.746 331.661 108.167 326.122 103.483L326.494 103.043C331.929 107.639 338.848 110.17 345.976 110.17C351.781 110.17 357.418 108.518 362.279 105.394L362.591 105.878C357.637 109.063 351.892 110.746 345.976 110.746Z" fill="#AF4763"/>
<path d="M321.892 99.1258C319.396 95.9908 317.561 92.4598 316.439 88.6308L316.992 88.4688C318.093 92.2257 319.893 95.6908 322.342 98.7668L321.892 99.1258Z" fill="#AF4763"/>
<path d="M343.111 117.154C336.327 117.154 329.681 114.726 323.722 112.549L323.919 112.008C330.749 114.503 338.491 117.33 346.232 116.394C349.326 116.019 352.414 115.036 355.401 114.085C360.051 112.605 364.859 111.075 369.739 111.845L369.649 112.414C364.905 111.668 360.373 113.107 355.576 114.635C352.564 115.594 349.449 116.585 346.301 116.966C345.237 117.094 344.172 117.154 343.111 117.154Z" fill="#AF4763"/>
<path d="M323.216 165.92L323.19 166.495L370.183 168.654L370.21 168.079L323.216 165.92Z" fill="#AF4763"/>
<path d="M365.185 164.063L336.179 164.344L336.184 164.92L365.19 164.639L365.185 164.063Z" fill="#AF4763"/>
<path d="M330.999 159.008L330.974 159.584L357.192 160.736L357.217 160.16L330.999 159.008Z" fill="#AF4763"/>
<path d="M313.288 110.647L306.844 105.644L307.197 105.189L311.911 108.848L307.427 98.1327L307.959 97.9097L313.288 110.647Z" fill="#AF4763"/>
<path d="M378.664 110.647L385.108 105.644L384.755 105.189L380.041 108.848L384.525 98.1327L383.993 97.9097L378.664 110.647Z" fill="#AF4763"/>
<path d="M318.716 189.445L318.692 190.021L375.548 192.326L375.571 191.749L318.716 189.445Z" fill="#281949"/>
<path d="M361.143 195.6L321.959 195.796L321.962 196.372L361.146 196.176L361.143 195.6Z" fill="#281949"/>
<path d="M369.416 186.768L333.112 187.727L333.127 188.302L369.431 187.344L369.416 186.768Z" fill="#281949"/>
<path d="M345.976 85.6252C342.671 85.6252 339.561 84.3702 336.845 82.1602L336.273 91.0282H355.68L355.108 82.1602C352.391 84.3692 349.281 85.6252 345.976 85.6252Z" fill="#E9B49D"/>
<path d="M337.621 70.1392L336.845 82.1592C339.561 84.3692 342.671 85.6242 345.976 85.6242C349.281 85.6242 352.391 84.3692 355.107 82.1592L354.331 70.1392H337.621Z" fill="#272425"/>
<path d="M322.119 87.5532C325.143 97.8752 334.676 105.416 345.976 105.416C357.276 105.416 366.809 97.8752 369.833 87.5532H322.119Z" fill="#E9B49D"/>
<path d="M324.776 68.291C328.953 68.291 332.339 64.905 332.339 60.728C332.339 56.5511 328.953 53.165 324.776 53.165C320.599 53.165 317.213 56.5511 317.213 60.728C317.213 64.905 320.599 68.291 324.776 68.291Z" fill="#DB9A83"/>
<path d="M324.776 64.8331C322.512 64.8331 320.67 62.9911 320.67 60.7271C320.67 58.4631 322.512 56.6211 324.776 56.6211C327.04 56.6211 328.882 58.4631 328.882 60.7271C328.882 62.9911 327.04 64.8331 324.776 64.8331Z" fill="#C97E67"/>
<path d="M367.176 68.291C371.353 68.291 374.739 64.905 374.739 60.728C374.739 56.5511 371.353 53.165 367.176 53.165C362.999 53.165 359.613 56.5511 359.613 60.728C359.613 64.905 362.999 68.291 367.176 68.291Z" fill="#DB9A83"/>
<path d="M367.176 64.8341C369.444 64.8341 371.282 62.9958 371.282 60.7281C371.282 58.4604 369.444 56.6221 367.176 56.6221C364.908 56.6221 363.07 58.4604 363.07 60.7281C363.07 62.9958 364.908 64.8341 367.176 64.8341Z" fill="#C97E67"/>
<path d="M345.976 80.5842C335.368 80.5842 326.768 71.9852 326.768 61.3772V48.6992C326.768 38.0912 335.368 29.4912 345.976 29.4912C356.584 29.4912 365.184 38.0912 365.184 48.6992V55.0382V61.3772C365.184 71.9842 356.584 80.5842 345.976 80.5842Z" fill="#E9B49D"/>
<path d="M340.01 56.6342C340.01 57.7152 339.134 58.5912 338.053 58.5912C336.972 58.5912 336.096 57.7152 336.096 56.6342C336.096 55.5532 336.972 54.6772 338.053 54.6772C339.134 54.6772 340.01 55.5532 340.01 56.6342Z" fill="#272425"/>
<path d="M337.377 56.4604C337.715 56.4604 337.99 56.1859 337.99 55.8474C337.99 55.5088 337.715 55.2344 337.377 55.2344C337.038 55.2344 336.764 55.5088 336.764 55.8474C336.764 56.1859 337.038 56.4604 337.377 56.4604Z" fill="white"/>
<path d="M340.537 53.4232C340.316 53.4232 340.094 53.3392 339.926 53.1702C339.409 52.6532 338.721 52.3682 337.989 52.3682C337.257 52.3682 336.569 52.6532 336.052 53.1702C335.714 53.5082 335.167 53.5082 334.83 53.1702C334.492 52.8332 334.492 52.2852 334.83 51.9482C335.674 51.1042 336.796 50.6392 337.989 50.6392C339.183 50.6392 340.304 51.1042 341.148 51.9482C341.486 52.2862 341.486 52.8332 341.148 53.1702C340.98 53.3392 340.758 53.4232 340.537 53.4232Z" fill="#74231A"/>
<path d="M355.856 56.6342C355.856 57.7152 354.98 58.5912 353.899 58.5912C352.818 58.5912 351.942 57.7152 351.942 56.6342C351.942 55.5532 352.818 54.6772 353.899 54.6772C354.98 54.6772 355.856 55.5532 355.856 56.6342Z" fill="#272425"/>
<path d="M353.836 55.8474C353.836 56.1854 353.562 56.4604 353.223 56.4604C352.885 56.4604 352.611 56.1864 352.611 55.8474C352.611 55.5094 352.885 55.2354 353.223 55.2354C353.561 55.2344 353.836 55.5084 353.836 55.8474Z" fill="white"/>
<path d="M351.415 53.4232C351.636 53.4232 351.857 53.3392 352.026 53.1702C352.543 52.6532 353.231 52.3682 353.963 52.3682C354.695 52.3682 355.383 52.6532 355.9 53.1702C356.238 53.5082 356.785 53.5082 357.122 53.1702C357.46 52.8332 357.46 52.2852 357.122 51.9482C356.278 51.1042 355.156 50.6392 353.963 50.6392C352.769 50.6392 351.648 51.1042 350.804 51.9482C350.466 52.2862 350.466 52.8332 350.804 53.1702C350.972 53.3392 351.194 53.4232 351.415 53.4232Z" fill="#74231A"/>
<path d="M341.703 62.625C342.358 64.35 344.021 65.578 345.976 65.578C347.931 65.578 349.594 64.35 350.249 62.625H341.703Z" fill="#C97E67"/>
<path d="M332.753 67.4448C334.599 67.4448 336.096 65.9481 336.096 64.1018C336.096 62.2555 334.599 60.7588 332.753 60.7588C330.906 60.7588 329.41 62.2555 329.41 64.1018C329.41 65.9481 330.906 67.4448 332.753 67.4448Z" fill="#DB9387"/>
<path d="M355.856 64.1018C355.856 65.9478 357.353 67.4448 359.199 67.4448C361.045 67.4448 362.542 65.9478 362.542 64.1018C362.542 62.2558 361.045 60.7588 359.199 60.7588C357.353 60.7578 355.856 62.2548 355.856 64.1018Z" fill="#DB9387"/>
<path d="M347.57 67.1558C346.969 67.1558 346.419 67.3608 345.976 67.6998C345.533 67.3608 344.983 67.1558 344.382 67.1558C343.485 67.1558 342.695 67.6058 342.218 68.2898H345.405H346.546H349.733C349.257 67.6058 348.467 67.1558 347.57 67.1558Z" fill="#262626"/>
<path d="M345.976 75.758C344.538 75.758 343.271 75.037 342.507 73.939H349.445C348.681 75.036 347.414 75.758 345.976 75.758Z" fill="#262626"/>
<path d="M336.753 68.291C338.166 72.014 341.757 74.666 345.976 74.666C350.195 74.666 353.786 72.015 355.199 68.291H336.753Z" fill="white"/>
<path d="M372.158 45.182C372.158 38.314 369.51 32.066 365.183 27.396C360.401 22.234 353.567 19 345.975 19C338.383 19 331.55 22.234 326.767 27.396C322.44 32.066 319.792 38.314 319.792 45.182C319.792 52.05 322.44 58.298 326.767 62.968V55.913C329.734 54.443 331.78 51.395 331.78 47.86C331.78 47.203 331.705 46.565 331.571 45.949C334.049 46.812 336.766 46.918 339.352 46.192L337.255 49.215C341.801 50.34 346.767 48.645 349.595 44.568C349.635 44.509 349.669 44.448 349.709 44.389V48.917C352.969 47.675 355.318 44.6 355.493 40.948C355.641 41.199 355.797 41.447 355.966 41.69C357.155 43.404 358.725 44.692 360.481 45.531C360.282 46.274 360.17 47.053 360.17 47.859C360.17 51.395 362.216 54.443 365.183 55.912V62.967C369.51 58.298 372.158 52.05 372.158 45.182Z" fill="#74231A"/>
</svg>
