<svg id="visual" viewBox="0 0 900 600" width="900" height="600" xmlns="http://www.w3.org/2000/svg" xmlns:xlink="http://www.w3.org/1999/xlink" version="1.1"><path d="M0 73L450 67L900 73L900 0L450 0L0 0Z" fill="#ff8095"></path><path d="M0 169L450 175L900 175L900 71L450 65L0 71Z" fill="#fc6d97"></path><path d="M0 337L450 361L900 355L900 173L450 173L0 167Z" fill="#f75a9d"></path><path d="M0 511L450 523L900 523L900 353L450 359L0 335Z" fill="#ef47a6"></path><path d="M0 601L450 601L900 601L900 521L450 521L0 509Z" fill="#e234b1"></path></svg>