<svg id="visual" viewBox="0 0 900 600" width="900" height="600" xmlns="http://www.w3.org/2000/svg" xmlns:xlink="http://www.w3.org/1999/xlink" version="1.1"><path d="M0 79L75 90C150 101 300 123 450 136C600 149 750 153 825 155L900 157L900 0L825 0C750 0 600 0 450 0C300 0 150 0 75 0L0 0Z" fill="#6198ff"></path><path d="M0 193L75 202C150 211 300 229 450 235C600 241 750 235 825 232L900 229L900 155L825 153C750 151 600 147 450 134C300 121 150 99 75 88L0 77Z" fill="#2d77ff"></path><path d="M0 433L75 424C150 415 300 397 450 396C600 395 750 411 825 419L900 427L900 227L825 230C750 233 600 239 450 233C300 227 150 209 75 200L0 191Z" fill="#005de8"></path><path d="M0 601L75 601C150 601 300 601 450 601C600 601 750 601 825 601L900 601L900 425L825 417C750 409 600 393 450 394C300 395 150 413 75 422L0 431Z" fill="#004cbb"></path></svg>