<svg width="226" height="143" viewBox="0 0 226 143" fill="none" xmlns="http://www.w3.org/2000/svg">
<path d="M120.971 3.3208C94.5128 3.3198 78.2718 21.3788 69.5118 35.8388C65.7648 33.6178 60.8478 30.4018 54.5408 25.7548C46.3788 19.7408 37.9168 16.5608 30.0698 16.5598C22.8438 16.5598 16.3288 19.3138 11.7208 24.3138C6.29876 30.1978 3.76177 38.9168 4.57777 48.8648C5.68077 62.3278 16.5338 85.8608 37.7537 105.717C56.0828 122.868 88.6598 143.312 139.767 143.312C142.928 143.312 146.166 143.232 149.395 143.076L149.826 143.077C176.541 143.077 204.57 132.272 217.988 116.8C223.935 109.943 226.542 102.571 225.529 95.4788C223.87 83.8628 210.502 79.9528 206.109 78.6678C197.579 76.1728 186.371 74.6018 174.505 72.9378C173.952 72.8598 173.396 72.7818 172.838 72.7038C173.267 62.6338 172.687 50.1878 169.069 38.6188C163.16 19.7188 150.534 7.90483 132.558 4.45383C128.639 3.70283 124.74 3.3208 120.971 3.3208Z" fill="#92B3D6"/>
<path d="M116.543 7.75C119.747 7.75 123.123 8.065 126.671 8.746C161.662 15.464 162.042 56.575 160.186 76.041C187.476 80.032 211.837 82.106 213.43 93.257C215.999 111.239 181.348 132.008 145.398 132.008C145.195 132.008 144.991 132.007 144.788 132.006C141.572 132.166 138.427 132.243 135.339 132.243C45.5928 132.243 9.65779 66.675 7.87379 44.912C6.65579 30.058 14.2728 20.988 25.6418 20.99C31.5018 20.991 38.3618 23.402 45.5168 28.675C56.6548 36.882 63.8588 40.949 68.1748 42.96C74.8298 29.617 89.8138 7.749 116.543 7.75ZM116.543 4.15309e-08C90.0848 -0.000999959 73.8438 18.057 65.0838 32.518C61.3368 30.297 56.4198 27.082 50.1128 22.434C41.9508 16.42 33.4888 13.24 25.6418 13.239C18.4158 13.239 11.9008 15.993 7.2928 20.993C1.8708 26.877 -0.666207 35.596 0.149793 45.544C1.25279 59.007 12.1058 82.54 33.3258 102.396C51.6548 119.547 84.2318 139.991 135.339 139.991C138.5 139.991 141.738 139.912 144.967 139.755L145.398 139.756C172.113 139.756 200.142 128.951 213.56 113.479C219.507 106.622 222.114 99.25 221.101 92.158C219.442 80.542 206.074 76.632 201.681 75.347C193.151 72.852 181.943 71.281 170.077 69.617C169.524 69.539 168.968 69.462 168.41 69.383C168.839 59.313 168.259 46.867 164.641 35.297C158.732 16.397 146.106 4.58299 128.13 1.13199C124.21 0.381989 120.311 4.15309e-08 116.543 4.15309e-08Z" fill="white"/>
<path d="M73.5628 44.9119C73.5628 44.9119 66.5508 44.1739 45.5159 28.6739C24.4809 13.1739 6.02884 22.3999 7.87384 44.9119C9.71884 67.4239 48.0989 136.803 144.788 132.006C180.954 132.243 216.013 111.34 213.43 93.2569C210.847 75.1739 148.387 80.9629 110.655 63.7339C89.4308 54.0419 73.5628 44.9119 73.5628 44.9119Z" fill="#CE8659"/>
<path d="M64.7858 54.1431C64.2388 53.4421 64.0998 52.5031 64.4018 51.6661C67.3888 43.4091 84.9628 0.738109 126.67 8.74511C167.867 16.6551 161.088 72.2471 159.167 84.0461C158.949 85.3831 157.889 86.4111 156.548 86.6001C145.395 88.1791 94.9868 92.8501 64.7858 54.1431Z" fill="#CE8659"/>
<path d="M71.2228 37.3501C67.4828 43.6781 65.2938 49.2031 64.4028 51.6661C64.0998 52.5031 64.2398 53.4411 64.7868 54.1431C94.9878 92.8501 145.396 88.1791 156.549 86.6011C157.89 86.4111 158.951 85.3831 159.168 84.0461C159.628 81.2231 160.364 75.8901 160.656 69.3071C146.835 70.9791 100.112 73.5421 71.2228 37.3501Z" fill="#304BBC"/>
<path d="M116.543 7.75021C119.747 7.75021 123.123 8.06522 126.671 8.74622C161.662 15.4642 162.042 56.5752 160.186 76.0412C187.476 80.0322 211.837 82.1062 213.43 93.2572C215.999 111.239 181.348 132.008 145.398 132.008C145.195 132.008 144.991 132.007 144.788 132.006C141.572 132.165 138.427 132.243 135.339 132.243C45.5928 132.243 9.65782 66.6752 7.87382 44.9122C6.65582 30.0582 14.2728 20.9882 25.6418 20.9902C31.5018 20.9912 38.3618 23.4022 45.5168 28.6752C56.6538 36.8822 63.8588 40.9492 68.1748 42.9602C74.8298 29.6172 89.8138 7.74921 116.543 7.75021ZM116.543 4.42822C89.9018 4.42722 74.3228 24.5852 66.7378 38.5282C62.5748 36.3212 56.3298 32.5162 47.4858 25.9992C40.0898 20.5492 32.5358 17.6682 25.6408 17.6672C19.5808 17.6672 14.3628 19.8552 10.5488 23.9942C5.90882 29.0292 3.83883 36.3562 4.56283 45.1822C5.59883 57.8242 15.9888 80.1092 36.3508 99.1622C54.0968 115.768 85.6758 135.563 135.339 135.563C138.466 135.563 141.67 135.483 144.865 135.326L145.398 135.328C158.172 135.328 171.293 132.825 183.34 128.089C194.775 123.594 204.32 117.375 210.215 110.578C215.295 104.72 217.544 98.5682 216.718 92.7852C214.946 80.3802 194.875 77.5662 169.464 74.0042C167.585 73.7412 165.68 73.4742 163.757 73.1992C164.499 62.9512 164.345 49.1862 160.416 36.6212C154.947 19.1292 143.804 8.65222 127.297 5.48322C123.65 4.78422 120.032 4.42822 116.543 4.42822Z" fill="#241D96"/>
</svg>
