<svg id="visual" viewBox="0 0 900 561" width="900" height="561" xmlns="http://www.w3.org/2000/svg" xmlns:xlink="http://www.w3.org/1999/xlink" version="1.1"><rect x="0" y="0" width="900" height="561" fill="#7c00ff"></rect><path d="M0 455L21.5 462.7C43 470.3 86 485.7 128.8 476.7C171.7 467.7 214.3 434.3 257.2 426.2C300 418 343 435 385.8 446.7C428.7 458.3 471.3 464.7 514.2 460.5C557 456.3 600 441.7 642.8 430C685.7 418.3 728.3 409.7 771.2 422.7C814 435.7 857 470.3 878.5 487.7L900 505L900 562L878.5 562C857 562 814 562 771.2 562C728.3 562 685.7 562 642.8 562C600 562 557 562 514.2 562C471.3 562 428.7 562 385.8 562C343 562 300 562 257.2 562C214.3 562 171.7 562 128.8 562C86 562 43 562 21.5 562L0 562Z" fill="#6d55d8" stroke-linecap="round" stroke-linejoin="miter"></path></svg>