<svg id="visual" viewBox="0 0 900 400" width="900" height="400" xmlns="http://www.w3.org/2000/svg" xmlns:xlink="http://www.w3.org/1999/xlink" version="1.1"><rect x="0" y="0" width="900" height="400" fill="#7c00ff"></rect><path d="M0 324L21.5 329.5C43 335 86 346 128.8 339.5C171.7 333 214.3 309 257.2 303.2C300 297.3 343 309.7 385.8 318.2C428.7 326.7 471.3 331.3 514.2 328.3C557 325.3 600 314.7 642.8 306.3C685.7 298 728.3 292 771.2 301.3C814 310.7 857 335.3 878.5 347.7L900 360L900 401L878.5 401C857 401 814 401 771.2 401C728.3 401 685.7 401 642.8 401C600 401 557 401 514.2 401C471.3 401 428.7 401 385.8 401C343 401 300 401 257.2 401C214.3 401 171.7 401 128.8 401C86 401 43 401 21.5 401L0 401Z" fill="#6d55d8" stroke-linecap="round" stroke-linejoin="miter"></path></svg>