<svg id="visual" viewBox="0 0 900 300" width="900" height="300" xmlns="http://www.w3.org/2000/svg" xmlns:xlink="http://www.w3.org/1999/xlink" version="1.1"><rect x="0" y="0" width="900" height="300" fill="#7c00ff"></rect><path d="M0 243L21.5 247C43 251 86 259 128.8 254.2C171.7 249.3 214.3 231.7 257.2 227.3C300 223 343 232 385.8 238.3C428.7 244.7 471.3 248.3 514.2 246.2C557 244 600 236 642.8 229.7C685.7 223.3 728.3 218.7 771.2 225.5C814 232.3 857 250.7 878.5 259.8L900 269L900 301L878.5 301C857 301 814 301 771.2 301C728.3 301 685.7 301 642.8 301C600 301 557 301 514.2 301C471.3 301 428.7 301 385.8 301C343 301 300 301 257.2 301C214.3 301 171.7 301 128.8 301C86 301 43 301 21.5 301L0 301Z" fill="#6d55d8" stroke-linecap="round" stroke-linejoin="miter"></path></svg>