<svg id="visual" viewBox="0 0 900 600" width="900" height="600" xmlns="http://www.w3.org/2000/svg" xmlns:xlink="http://www.w3.org/1999/xlink" version="1.1"><rect x="0" y="0" width="900" height="600" fill="#5A49A5"></rect><path d="M0 380L21.5 381C43 382 86 384 128.8 393.3C171.7 402.7 214.3 419.3 257.2 436.7C300 454 343 472 385.8 464.5C428.7 457 471.3 424 514.2 406.8C557 389.7 600 388.3 642.8 392.3C685.7 396.3 728.3 405.7 771.2 422.7C814 439.7 857 464.3 878.5 476.7L900 489L900 601L878.5 601C857 601 814 601 771.2 601C728.3 601 685.7 601 642.8 601C600 601 557 601 514.2 601C471.3 601 428.7 601 385.8 601C343 601 300 601 257.2 601C214.3 601 171.7 601 128.8 601C86 601 43 601 21.5 601L0 601Z" fill="#504390" stroke-linecap="round" stroke-linejoin="miter"></path></svg>